G04 #@! TF.FileFunction,Soldermask,Bot*
%FSLAX46Y46*%
G04 Gerber Fmt 4.6, Leading zero omitted, Abs format (unit mm)*
G04 Created by KiCad (PCBNEW 4.0.5+dfsg1-4+deb9u1) date Tue Sep 27 18:47:41 2022*
%MOMM*%
%LPD*%
G01*
G04 APERTURE LIST*
%ADD10C,0.100000*%
%ADD11R,1.524000X1.524000*%
%ADD12C,1.524000*%
%ADD13R,1.397000X1.397000*%
%ADD14C,1.397000*%
%ADD15C,4.064000*%
%ADD16R,2.540000X2.540000*%
%ADD17C,2.540000*%
G04 APERTURE END LIST*
D10*
X213360000Y-163830000D02*
X77470000Y-163830000D01*
X213360000Y-143510000D02*
X213360000Y-163830000D01*
X233680000Y-143510000D02*
X213360000Y-143510000D01*
X233680000Y-53340000D02*
X233680000Y-143510000D01*
X213360000Y-53340000D02*
X233680000Y-53340000D01*
X213360000Y-33020000D02*
X213360000Y-53340000D01*
X77470000Y-33020000D02*
X213360000Y-33020000D01*
X77470000Y-53340000D02*
X77470000Y-33020000D01*
X57150000Y-53340000D02*
X77470000Y-53340000D01*
X57150000Y-143510000D02*
X57150000Y-53340000D01*
X77470000Y-143510000D02*
X57150000Y-143510000D01*
X77470000Y-163830000D02*
X77470000Y-143510000D01*
X139700000Y-163830000D02*
X207010000Y-163830000D01*
X139700000Y-163830000D02*
X78740000Y-163830000D01*
D11*
X154940000Y-82550000D03*
D12*
X157480000Y-82550000D03*
X154940000Y-95250000D03*
X157480000Y-85090000D03*
X154940000Y-97790000D03*
X157480000Y-87630000D03*
X154940000Y-100330000D03*
X157480000Y-90170000D03*
X154940000Y-102870000D03*
X157480000Y-92710000D03*
X154940000Y-105410000D03*
X157480000Y-95250000D03*
X154940000Y-107950000D03*
X157480000Y-97790000D03*
X154940000Y-110490000D03*
X157480000Y-100330000D03*
X154940000Y-113030000D03*
X157480000Y-102870000D03*
X154940000Y-115570000D03*
X157480000Y-105410000D03*
X154940000Y-118110000D03*
X157480000Y-107950000D03*
X154940000Y-120650000D03*
X157480000Y-110490000D03*
X157480000Y-113030000D03*
X154940000Y-123190000D03*
X157480000Y-115570000D03*
X157480000Y-120650000D03*
X157480000Y-123190000D03*
X157480000Y-125730000D03*
X157480000Y-128270000D03*
X154940000Y-125730000D03*
X154940000Y-128270000D03*
X154940000Y-85090000D03*
X154940000Y-87630000D03*
X154940000Y-90170000D03*
X154940000Y-92710000D03*
X154940000Y-130810000D03*
X157480000Y-130810000D03*
X157480000Y-118110000D03*
D13*
X95250000Y-151130000D03*
D14*
X97790000Y-151130000D03*
X100330000Y-151130000D03*
X102870000Y-151130000D03*
X105410000Y-151130000D03*
X107950000Y-151130000D03*
X110490000Y-151130000D03*
X113030000Y-151130000D03*
X115570000Y-151130000D03*
X118110000Y-151130000D03*
X120650000Y-151130000D03*
X123190000Y-151130000D03*
X125730000Y-151130000D03*
D15*
X97790000Y-135890000D03*
X146050000Y-135890000D03*
X97790000Y-77470000D03*
X146050000Y-77470000D03*
X166370000Y-58420000D03*
X214630000Y-58420000D03*
X166370000Y-125730000D03*
X214630000Y-125730000D03*
D13*
X137160000Y-50800000D03*
D14*
X137160000Y-48260000D03*
X137160000Y-45720000D03*
X137160000Y-43180000D03*
D13*
X149860000Y-50800000D03*
D14*
X149860000Y-48260000D03*
X149860000Y-45720000D03*
X149860000Y-43180000D03*
D13*
X97790000Y-39370000D03*
D14*
X100330000Y-39370000D03*
X102870000Y-39370000D03*
X105410000Y-39370000D03*
X107950000Y-39370000D03*
X110490000Y-39370000D03*
D13*
X97790000Y-49530000D03*
D14*
X100330000Y-49530000D03*
X102870000Y-49530000D03*
X105410000Y-49530000D03*
X107950000Y-49530000D03*
X110490000Y-49530000D03*
D15*
X68580000Y-97790000D03*
X171450000Y-39370000D03*
X223520000Y-96520000D03*
X119380000Y-157480000D03*
X171450000Y-157480000D03*
D16*
X88900000Y-148590000D03*
D17*
X83820000Y-148590000D03*
D13*
X118110000Y-147320000D03*
D14*
X120650000Y-147320000D03*
X123190000Y-147320000D03*
X125730000Y-147320000D03*
D13*
X171450000Y-151130000D03*
D14*
X173990000Y-151130000D03*
X176530000Y-151130000D03*
M02*
