G04 #@! TF.FileFunction,Legend,Top*
%FSLAX46Y46*%
G04 Gerber Fmt 4.6, Leading zero omitted, Abs format (unit mm)*
G04 Created by KiCad (PCBNEW 4.0.5+dfsg1-4+deb9u1) date Tue Sep 27 18:47:41 2022*
%MOMM*%
%LPD*%
G01*
G04 APERTURE LIST*
%ADD10C,0.100000*%
%ADD11C,0.300000*%
%ADD12C,0.200000*%
%ADD13C,0.304800*%
%ADD14C,0.066040*%
%ADD15C,0.152400*%
%ADD16C,0.381000*%
%ADD17C,0.254000*%
%ADD18C,0.088900*%
G04 APERTURE END LIST*
D10*
D11*
X190627143Y-52518571D02*
X190627143Y-53732857D01*
X190698571Y-53875714D01*
X190770000Y-53947143D01*
X190912857Y-54018571D01*
X191198571Y-54018571D01*
X191341429Y-53947143D01*
X191412857Y-53875714D01*
X191484286Y-53732857D01*
X191484286Y-52518571D01*
X192055715Y-52518571D02*
X192984286Y-52518571D01*
X192484286Y-53090000D01*
X192698572Y-53090000D01*
X192841429Y-53161429D01*
X192912858Y-53232857D01*
X192984286Y-53375714D01*
X192984286Y-53732857D01*
X192912858Y-53875714D01*
X192841429Y-53947143D01*
X192698572Y-54018571D01*
X192270000Y-54018571D01*
X192127143Y-53947143D01*
X192055715Y-53875714D01*
X163730002Y-137556667D02*
X163658574Y-137461429D01*
X163515717Y-137175714D01*
X163444288Y-136985238D01*
X163372859Y-136699524D01*
X163301431Y-136223333D01*
X163301431Y-135842381D01*
X163372859Y-135366190D01*
X163444288Y-135080476D01*
X163515717Y-134890000D01*
X163658574Y-134604286D01*
X163730002Y-134509048D01*
X165158574Y-136604286D02*
X165087145Y-136699524D01*
X164872859Y-136794762D01*
X164730002Y-136794762D01*
X164515717Y-136699524D01*
X164372859Y-136509048D01*
X164301431Y-136318571D01*
X164230002Y-135937619D01*
X164230002Y-135651905D01*
X164301431Y-135270952D01*
X164372859Y-135080476D01*
X164515717Y-134890000D01*
X164730002Y-134794762D01*
X164872859Y-134794762D01*
X165087145Y-134890000D01*
X165158574Y-134985238D01*
X165658574Y-137556667D02*
X165730002Y-137461429D01*
X165872859Y-137175714D01*
X165944288Y-136985238D01*
X166015717Y-136699524D01*
X166087145Y-136223333D01*
X166087145Y-135842381D01*
X166015717Y-135366190D01*
X165944288Y-135080476D01*
X165872859Y-134890000D01*
X165730002Y-134604286D01*
X165658574Y-134509048D01*
X167872859Y-134985238D02*
X167944288Y-134890000D01*
X168087145Y-134794762D01*
X168444288Y-134794762D01*
X168587145Y-134890000D01*
X168658574Y-134985238D01*
X168730002Y-135175714D01*
X168730002Y-135366190D01*
X168658574Y-135651905D01*
X167801431Y-136794762D01*
X168730002Y-136794762D01*
X169658573Y-134794762D02*
X169801430Y-134794762D01*
X169944287Y-134890000D01*
X170015716Y-134985238D01*
X170087145Y-135175714D01*
X170158573Y-135556667D01*
X170158573Y-136032857D01*
X170087145Y-136413810D01*
X170015716Y-136604286D01*
X169944287Y-136699524D01*
X169801430Y-136794762D01*
X169658573Y-136794762D01*
X169515716Y-136699524D01*
X169444287Y-136604286D01*
X169372859Y-136413810D01*
X169301430Y-136032857D01*
X169301430Y-135556667D01*
X169372859Y-135175714D01*
X169444287Y-134985238D01*
X169515716Y-134890000D01*
X169658573Y-134794762D01*
X171587144Y-136794762D02*
X170730001Y-136794762D01*
X171158573Y-136794762D02*
X171158573Y-134794762D01*
X171015716Y-135080476D01*
X170872858Y-135270952D01*
X170730001Y-135366190D01*
X172444287Y-135651905D02*
X172301429Y-135556667D01*
X172230001Y-135461429D01*
X172158572Y-135270952D01*
X172158572Y-135175714D01*
X172230001Y-134985238D01*
X172301429Y-134890000D01*
X172444287Y-134794762D01*
X172730001Y-134794762D01*
X172872858Y-134890000D01*
X172944287Y-134985238D01*
X173015715Y-135175714D01*
X173015715Y-135270952D01*
X172944287Y-135461429D01*
X172872858Y-135556667D01*
X172730001Y-135651905D01*
X172444287Y-135651905D01*
X172301429Y-135747143D01*
X172230001Y-135842381D01*
X172158572Y-136032857D01*
X172158572Y-136413810D01*
X172230001Y-136604286D01*
X172301429Y-136699524D01*
X172444287Y-136794762D01*
X172730001Y-136794762D01*
X172872858Y-136699524D01*
X172944287Y-136604286D01*
X173015715Y-136413810D01*
X173015715Y-136032857D01*
X172944287Y-135842381D01*
X172872858Y-135747143D01*
X172730001Y-135651905D01*
X173658572Y-136032857D02*
X174801429Y-136032857D01*
X175444286Y-134985238D02*
X175515715Y-134890000D01*
X175658572Y-134794762D01*
X176015715Y-134794762D01*
X176158572Y-134890000D01*
X176230001Y-134985238D01*
X176301429Y-135175714D01*
X176301429Y-135366190D01*
X176230001Y-135651905D01*
X175372858Y-136794762D01*
X176301429Y-136794762D01*
X177230000Y-134794762D02*
X177372857Y-134794762D01*
X177515714Y-134890000D01*
X177587143Y-134985238D01*
X177658572Y-135175714D01*
X177730000Y-135556667D01*
X177730000Y-136032857D01*
X177658572Y-136413810D01*
X177587143Y-136604286D01*
X177515714Y-136699524D01*
X177372857Y-136794762D01*
X177230000Y-136794762D01*
X177087143Y-136699524D01*
X177015714Y-136604286D01*
X176944286Y-136413810D01*
X176872857Y-136032857D01*
X176872857Y-135556667D01*
X176944286Y-135175714D01*
X177015714Y-134985238D01*
X177087143Y-134890000D01*
X177230000Y-134794762D01*
X179158571Y-136794762D02*
X178301428Y-136794762D01*
X178730000Y-136794762D02*
X178730000Y-134794762D01*
X178587143Y-135080476D01*
X178444285Y-135270952D01*
X178301428Y-135366190D01*
X179872856Y-136794762D02*
X180158571Y-136794762D01*
X180301428Y-136699524D01*
X180372856Y-136604286D01*
X180515714Y-136318571D01*
X180587142Y-135937619D01*
X180587142Y-135175714D01*
X180515714Y-134985238D01*
X180444285Y-134890000D01*
X180301428Y-134794762D01*
X180015714Y-134794762D01*
X179872856Y-134890000D01*
X179801428Y-134985238D01*
X179729999Y-135175714D01*
X179729999Y-135651905D01*
X179801428Y-135842381D01*
X179872856Y-135937619D01*
X180015714Y-136032857D01*
X180301428Y-136032857D01*
X180444285Y-135937619D01*
X180515714Y-135842381D01*
X180587142Y-135651905D01*
X182372856Y-136794762D02*
X182372856Y-134794762D01*
X182944284Y-134794762D01*
X183087142Y-134890000D01*
X183158570Y-134985238D01*
X183229999Y-135175714D01*
X183229999Y-135461429D01*
X183158570Y-135651905D01*
X183087142Y-135747143D01*
X182944284Y-135842381D01*
X182372856Y-135842381D01*
X184087142Y-136794762D02*
X183944284Y-136699524D01*
X183872856Y-136604286D01*
X183801427Y-136413810D01*
X183801427Y-135842381D01*
X183872856Y-135651905D01*
X183944284Y-135556667D01*
X184087142Y-135461429D01*
X184301427Y-135461429D01*
X184444284Y-135556667D01*
X184515713Y-135651905D01*
X184587142Y-135842381D01*
X184587142Y-136413810D01*
X184515713Y-136604286D01*
X184444284Y-136699524D01*
X184301427Y-136794762D01*
X184087142Y-136794762D01*
X185087142Y-135461429D02*
X185872856Y-135461429D01*
X185087142Y-136794762D01*
X185872856Y-136794762D01*
X186372856Y-136699524D02*
X186515713Y-136794762D01*
X186801428Y-136794762D01*
X186944285Y-136699524D01*
X187015713Y-136509048D01*
X187015713Y-136413810D01*
X186944285Y-136223333D01*
X186801428Y-136128095D01*
X186587142Y-136128095D01*
X186444285Y-136032857D01*
X186372856Y-135842381D01*
X186372856Y-135747143D01*
X186444285Y-135556667D01*
X186587142Y-135461429D01*
X186801428Y-135461429D01*
X186944285Y-135556667D01*
X188301428Y-136794762D02*
X188301428Y-135747143D01*
X188229999Y-135556667D01*
X188087142Y-135461429D01*
X187801428Y-135461429D01*
X187658571Y-135556667D01*
X188301428Y-136699524D02*
X188158571Y-136794762D01*
X187801428Y-136794762D01*
X187658571Y-136699524D01*
X187587142Y-136509048D01*
X187587142Y-136318571D01*
X187658571Y-136128095D01*
X187801428Y-136032857D01*
X188158571Y-136032857D01*
X188301428Y-135937619D01*
X188087142Y-134699524D02*
X187872857Y-134985238D01*
X189015714Y-136794762D02*
X189015714Y-135461429D01*
X189015714Y-135842381D02*
X189087142Y-135651905D01*
X189158571Y-135556667D01*
X189301428Y-135461429D01*
X189444285Y-135461429D01*
X190944285Y-134794762D02*
X191944285Y-134794762D01*
X190944285Y-136794762D01*
X191944285Y-136794762D01*
X192444284Y-136699524D02*
X192587141Y-136794762D01*
X192872856Y-136794762D01*
X193015713Y-136699524D01*
X193087141Y-136509048D01*
X193087141Y-136413810D01*
X193015713Y-136223333D01*
X192872856Y-136128095D01*
X192658570Y-136128095D01*
X192515713Y-136032857D01*
X192444284Y-135842381D01*
X192444284Y-135747143D01*
X192515713Y-135556667D01*
X192658570Y-135461429D01*
X192872856Y-135461429D01*
X193015713Y-135556667D01*
X193944285Y-136794762D02*
X193801427Y-136699524D01*
X193729999Y-136604286D01*
X193658570Y-136413810D01*
X193658570Y-135842381D01*
X193729999Y-135651905D01*
X193801427Y-135556667D01*
X193944285Y-135461429D01*
X194158570Y-135461429D01*
X194301427Y-135556667D01*
X194372856Y-135651905D01*
X194444285Y-135842381D01*
X194444285Y-136413810D01*
X194372856Y-136604286D01*
X194301427Y-136699524D01*
X194158570Y-136794762D01*
X193944285Y-136794762D01*
X195301428Y-136794762D02*
X195158570Y-136699524D01*
X195087142Y-136509048D01*
X195087142Y-134794762D01*
X195658570Y-135461429D02*
X196229999Y-135461429D01*
X195872856Y-134794762D02*
X195872856Y-136509048D01*
X195944284Y-136699524D01*
X196087142Y-136794762D01*
X196229999Y-136794762D01*
X198729999Y-136604286D02*
X198658570Y-136699524D01*
X198444284Y-136794762D01*
X198301427Y-136794762D01*
X198087142Y-136699524D01*
X197944284Y-136509048D01*
X197872856Y-136318571D01*
X197801427Y-135937619D01*
X197801427Y-135651905D01*
X197872856Y-135270952D01*
X197944284Y-135080476D01*
X198087142Y-134890000D01*
X198301427Y-134794762D01*
X198444284Y-134794762D01*
X198658570Y-134890000D01*
X198729999Y-134985238D01*
X200229999Y-136604286D02*
X200158570Y-136699524D01*
X199944284Y-136794762D01*
X199801427Y-136794762D01*
X199587142Y-136699524D01*
X199444284Y-136509048D01*
X199372856Y-136318571D01*
X199301427Y-135937619D01*
X199301427Y-135651905D01*
X199372856Y-135270952D01*
X199444284Y-135080476D01*
X199587142Y-134890000D01*
X199801427Y-134794762D01*
X199944284Y-134794762D01*
X200158570Y-134890000D01*
X200229999Y-134985238D01*
X200872856Y-136032857D02*
X202015713Y-136032857D01*
X203229999Y-135747143D02*
X203444285Y-135842381D01*
X203515713Y-135937619D01*
X203587142Y-136128095D01*
X203587142Y-136413810D01*
X203515713Y-136604286D01*
X203444285Y-136699524D01*
X203301427Y-136794762D01*
X202729999Y-136794762D01*
X202729999Y-134794762D01*
X203229999Y-134794762D01*
X203372856Y-134890000D01*
X203444285Y-134985238D01*
X203515713Y-135175714D01*
X203515713Y-135366190D01*
X203444285Y-135556667D01*
X203372856Y-135651905D01*
X203229999Y-135747143D01*
X202729999Y-135747143D01*
X204515713Y-135842381D02*
X204515713Y-136794762D01*
X204015713Y-134794762D02*
X204515713Y-135842381D01*
X205015713Y-134794762D01*
X205515713Y-136032857D02*
X206658570Y-136032857D01*
X207372856Y-136794762D02*
X207372856Y-134794762D01*
X208229999Y-136794762D01*
X208229999Y-134794762D01*
X209801428Y-136604286D02*
X209729999Y-136699524D01*
X209515713Y-136794762D01*
X209372856Y-136794762D01*
X209158571Y-136699524D01*
X209015713Y-136509048D01*
X208944285Y-136318571D01*
X208872856Y-135937619D01*
X208872856Y-135651905D01*
X208944285Y-135270952D01*
X209015713Y-135080476D01*
X209158571Y-134890000D01*
X209372856Y-134794762D01*
X209515713Y-134794762D01*
X209729999Y-134890000D01*
X209801428Y-134985238D01*
X210444285Y-136032857D02*
X211587142Y-136032857D01*
X212944285Y-135461429D02*
X212944285Y-136794762D01*
X212587142Y-134699524D02*
X212229999Y-136128095D01*
X213158571Y-136128095D01*
X213729999Y-136604286D02*
X213801427Y-136699524D01*
X213729999Y-136794762D01*
X213658570Y-136699524D01*
X213729999Y-136604286D01*
X213729999Y-136794762D01*
X214729999Y-134794762D02*
X214872856Y-134794762D01*
X215015713Y-134890000D01*
X215087142Y-134985238D01*
X215158571Y-135175714D01*
X215229999Y-135556667D01*
X215229999Y-136032857D01*
X215158571Y-136413810D01*
X215087142Y-136604286D01*
X215015713Y-136699524D01*
X214872856Y-136794762D01*
X214729999Y-136794762D01*
X214587142Y-136699524D01*
X214515713Y-136604286D01*
X214444285Y-136413810D01*
X214372856Y-136032857D01*
X214372856Y-135556667D01*
X214444285Y-135175714D01*
X214515713Y-134985238D01*
X214587142Y-134890000D01*
X214729999Y-134794762D01*
X129657141Y-159428571D02*
X129657141Y-157928571D01*
X130299998Y-159428571D02*
X130299998Y-158642857D01*
X130228569Y-158500000D01*
X130085712Y-158428571D01*
X129871427Y-158428571D01*
X129728569Y-158500000D01*
X129657141Y-158571429D01*
X130799998Y-158428571D02*
X131371427Y-158428571D01*
X131014284Y-157928571D02*
X131014284Y-159214286D01*
X131085712Y-159357143D01*
X131228570Y-159428571D01*
X131371427Y-159428571D01*
X131657141Y-158428571D02*
X132228570Y-158428571D01*
X131871427Y-157928571D02*
X131871427Y-159214286D01*
X131942855Y-159357143D01*
X132085713Y-159428571D01*
X132228570Y-159428571D01*
X132728570Y-158428571D02*
X132728570Y-159928571D01*
X132728570Y-158500000D02*
X132871427Y-158428571D01*
X133157141Y-158428571D01*
X133299998Y-158500000D01*
X133371427Y-158571429D01*
X133442856Y-158714286D01*
X133442856Y-159142857D01*
X133371427Y-159285714D01*
X133299998Y-159357143D01*
X133157141Y-159428571D01*
X132871427Y-159428571D01*
X132728570Y-159357143D01*
X134085713Y-159285714D02*
X134157141Y-159357143D01*
X134085713Y-159428571D01*
X134014284Y-159357143D01*
X134085713Y-159285714D01*
X134085713Y-159428571D01*
X134085713Y-158500000D02*
X134157141Y-158571429D01*
X134085713Y-158642857D01*
X134014284Y-158571429D01*
X134085713Y-158500000D01*
X134085713Y-158642857D01*
X135871427Y-157857143D02*
X134585713Y-159785714D01*
X137442856Y-157857143D02*
X136157142Y-159785714D01*
X137800000Y-158428571D02*
X138085714Y-159428571D01*
X138371428Y-158714286D01*
X138657143Y-159428571D01*
X138942857Y-158428571D01*
X139371429Y-158428571D02*
X139657143Y-159428571D01*
X139942857Y-158714286D01*
X140228572Y-159428571D01*
X140514286Y-158428571D01*
X140942858Y-158428571D02*
X141228572Y-159428571D01*
X141514286Y-158714286D01*
X141800001Y-159428571D01*
X142085715Y-158428571D01*
X142657144Y-159285714D02*
X142728572Y-159357143D01*
X142657144Y-159428571D01*
X142585715Y-159357143D01*
X142657144Y-159285714D01*
X142657144Y-159428571D01*
X143300001Y-159357143D02*
X143442858Y-159428571D01*
X143728573Y-159428571D01*
X143871430Y-159357143D01*
X143942858Y-159214286D01*
X143942858Y-159142857D01*
X143871430Y-159000000D01*
X143728573Y-158928571D01*
X143514287Y-158928571D01*
X143371430Y-158857143D01*
X143300001Y-158714286D01*
X143300001Y-158642857D01*
X143371430Y-158500000D01*
X143514287Y-158428571D01*
X143728573Y-158428571D01*
X143871430Y-158500000D01*
X144442859Y-158428571D02*
X145228573Y-158428571D01*
X144442859Y-159428571D01*
X145228573Y-159428571D01*
X146371430Y-159357143D02*
X146228573Y-159428571D01*
X145942859Y-159428571D01*
X145800002Y-159357143D01*
X145728573Y-159214286D01*
X145728573Y-158642857D01*
X145800002Y-158500000D01*
X145942859Y-158428571D01*
X146228573Y-158428571D01*
X146371430Y-158500000D01*
X146442859Y-158642857D01*
X146442859Y-158785714D01*
X145728573Y-158928571D01*
X147085716Y-159428571D02*
X147085716Y-158428571D01*
X147085716Y-158714286D02*
X147157144Y-158571429D01*
X147228573Y-158500000D01*
X147371430Y-158428571D01*
X147514287Y-158428571D01*
X148657144Y-159428571D02*
X148657144Y-158642857D01*
X148585715Y-158500000D01*
X148442858Y-158428571D01*
X148157144Y-158428571D01*
X148014287Y-158500000D01*
X148657144Y-159357143D02*
X148514287Y-159428571D01*
X148157144Y-159428571D01*
X148014287Y-159357143D01*
X147942858Y-159214286D01*
X147942858Y-159071429D01*
X148014287Y-158928571D01*
X148157144Y-158857143D01*
X148514287Y-158857143D01*
X148657144Y-158785714D01*
X149157144Y-158428571D02*
X149728573Y-158428571D01*
X149371430Y-159428571D02*
X149371430Y-158142857D01*
X149442858Y-158000000D01*
X149585716Y-157928571D01*
X149728573Y-157928571D01*
X150228573Y-159428571D02*
X150228573Y-158428571D01*
X150228573Y-157928571D02*
X150157144Y-158000000D01*
X150228573Y-158071429D01*
X150300001Y-158000000D01*
X150228573Y-157928571D01*
X150228573Y-158071429D01*
X150942859Y-158428571D02*
X150942859Y-159428571D01*
X150942859Y-158571429D02*
X151014287Y-158500000D01*
X151157145Y-158428571D01*
X151371430Y-158428571D01*
X151514287Y-158500000D01*
X151585716Y-158642857D01*
X151585716Y-159428571D01*
X152942859Y-158428571D02*
X152942859Y-159642857D01*
X152871430Y-159785714D01*
X152800002Y-159857143D01*
X152657145Y-159928571D01*
X152442859Y-159928571D01*
X152300002Y-159857143D01*
X152942859Y-159357143D02*
X152800002Y-159428571D01*
X152514288Y-159428571D01*
X152371430Y-159357143D01*
X152300002Y-159285714D01*
X152228573Y-159142857D01*
X152228573Y-158714286D01*
X152300002Y-158571429D01*
X152371430Y-158500000D01*
X152514288Y-158428571D01*
X152800002Y-158428571D01*
X152942859Y-158500000D01*
X153871431Y-159428571D02*
X153728573Y-159357143D01*
X153657145Y-159285714D01*
X153585716Y-159142857D01*
X153585716Y-158714286D01*
X153657145Y-158571429D01*
X153728573Y-158500000D01*
X153871431Y-158428571D01*
X154085716Y-158428571D01*
X154228573Y-158500000D01*
X154300002Y-158571429D01*
X154371431Y-158714286D01*
X154371431Y-159142857D01*
X154300002Y-159285714D01*
X154228573Y-159357143D01*
X154085716Y-159428571D01*
X153871431Y-159428571D01*
X155014288Y-159428571D02*
X155014288Y-158428571D01*
X155014288Y-158571429D02*
X155085716Y-158500000D01*
X155228574Y-158428571D01*
X155442859Y-158428571D01*
X155585716Y-158500000D01*
X155657145Y-158642857D01*
X155657145Y-159428571D01*
X155657145Y-158642857D02*
X155728574Y-158500000D01*
X155871431Y-158428571D01*
X156085716Y-158428571D01*
X156228574Y-158500000D01*
X156300002Y-158642857D01*
X156300002Y-159428571D01*
X157014288Y-159428571D02*
X157014288Y-157928571D01*
X157014288Y-158500000D02*
X157157145Y-158428571D01*
X157442859Y-158428571D01*
X157585716Y-158500000D01*
X157657145Y-158571429D01*
X157728574Y-158714286D01*
X157728574Y-159142857D01*
X157657145Y-159285714D01*
X157585716Y-159357143D01*
X157442859Y-159428571D01*
X157157145Y-159428571D01*
X157014288Y-159357143D01*
X159014288Y-159428571D02*
X159014288Y-158642857D01*
X158942859Y-158500000D01*
X158800002Y-158428571D01*
X158514288Y-158428571D01*
X158371431Y-158500000D01*
X159014288Y-159357143D02*
X158871431Y-159428571D01*
X158514288Y-159428571D01*
X158371431Y-159357143D01*
X158300002Y-159214286D01*
X158300002Y-159071429D01*
X158371431Y-158928571D01*
X158514288Y-158857143D01*
X158871431Y-158857143D01*
X159014288Y-158785714D01*
X159728574Y-159285714D02*
X159800002Y-159357143D01*
X159728574Y-159428571D01*
X159657145Y-159357143D01*
X159728574Y-159285714D01*
X159728574Y-159428571D01*
X160442860Y-159428571D02*
X160442860Y-157928571D01*
X161085717Y-159428571D02*
X161085717Y-158642857D01*
X161014288Y-158500000D01*
X160871431Y-158428571D01*
X160657146Y-158428571D01*
X160514288Y-158500000D01*
X160442860Y-158571429D01*
X162442860Y-158428571D02*
X162442860Y-159428571D01*
X161800003Y-158428571D02*
X161800003Y-159214286D01*
X161871431Y-159357143D01*
X162014289Y-159428571D01*
X162228574Y-159428571D01*
X162371431Y-159357143D01*
X162442860Y-159285714D01*
X82718573Y-159428571D02*
X82718573Y-157928571D01*
X83218573Y-159000000D01*
X83718573Y-157928571D01*
X83718573Y-159428571D01*
X84432859Y-159428571D02*
X84432859Y-157928571D01*
X84932859Y-159000000D01*
X85432859Y-157928571D01*
X85432859Y-159428571D01*
X86004288Y-157928571D02*
X86932859Y-157928571D01*
X86432859Y-158500000D01*
X86647145Y-158500000D01*
X86790002Y-158571429D01*
X86861431Y-158642857D01*
X86932859Y-158785714D01*
X86932859Y-159142857D01*
X86861431Y-159285714D01*
X86790002Y-159357143D01*
X86647145Y-159428571D01*
X86218573Y-159428571D01*
X86075716Y-159357143D01*
X86004288Y-159285714D01*
X87575716Y-159428571D02*
X87575716Y-157928571D01*
X87932859Y-157928571D01*
X88147144Y-158000000D01*
X88290002Y-158142857D01*
X88361430Y-158285714D01*
X88432859Y-158571429D01*
X88432859Y-158785714D01*
X88361430Y-159071429D01*
X88290002Y-159214286D01*
X88147144Y-159357143D01*
X87932859Y-159428571D01*
X87575716Y-159428571D01*
X90218573Y-159428571D02*
X90218573Y-157928571D01*
X90218573Y-158500000D02*
X90361430Y-158428571D01*
X90647144Y-158428571D01*
X90790001Y-158500000D01*
X90861430Y-158571429D01*
X90932859Y-158714286D01*
X90932859Y-159142857D01*
X90861430Y-159285714D01*
X90790001Y-159357143D01*
X90647144Y-159428571D01*
X90361430Y-159428571D01*
X90218573Y-159357143D01*
X92218573Y-159428571D02*
X92218573Y-158642857D01*
X92147144Y-158500000D01*
X92004287Y-158428571D01*
X91718573Y-158428571D01*
X91575716Y-158500000D01*
X92218573Y-159357143D02*
X92075716Y-159428571D01*
X91718573Y-159428571D01*
X91575716Y-159357143D01*
X91504287Y-159214286D01*
X91504287Y-159071429D01*
X91575716Y-158928571D01*
X91718573Y-158857143D01*
X92075716Y-158857143D01*
X92218573Y-158785714D01*
X92861430Y-159357143D02*
X93004287Y-159428571D01*
X93290002Y-159428571D01*
X93432859Y-159357143D01*
X93504287Y-159214286D01*
X93504287Y-159142857D01*
X93432859Y-159000000D01*
X93290002Y-158928571D01*
X93075716Y-158928571D01*
X92932859Y-158857143D01*
X92861430Y-158714286D01*
X92861430Y-158642857D01*
X92932859Y-158500000D01*
X93075716Y-158428571D01*
X93290002Y-158428571D01*
X93432859Y-158500000D01*
X94718573Y-159357143D02*
X94575716Y-159428571D01*
X94290002Y-159428571D01*
X94147145Y-159357143D01*
X94075716Y-159214286D01*
X94075716Y-158642857D01*
X94147145Y-158500000D01*
X94290002Y-158428571D01*
X94575716Y-158428571D01*
X94718573Y-158500000D01*
X94790002Y-158642857D01*
X94790002Y-158785714D01*
X94075716Y-158928571D01*
X96575716Y-158428571D02*
X96575716Y-159928571D01*
X96575716Y-158500000D02*
X96718573Y-158428571D01*
X97004287Y-158428571D01*
X97147144Y-158500000D01*
X97218573Y-158571429D01*
X97290002Y-158714286D01*
X97290002Y-159142857D01*
X97218573Y-159285714D01*
X97147144Y-159357143D01*
X97004287Y-159428571D01*
X96718573Y-159428571D01*
X96575716Y-159357143D01*
X98575716Y-159428571D02*
X98575716Y-158642857D01*
X98504287Y-158500000D01*
X98361430Y-158428571D01*
X98075716Y-158428571D01*
X97932859Y-158500000D01*
X98575716Y-159357143D02*
X98432859Y-159428571D01*
X98075716Y-159428571D01*
X97932859Y-159357143D01*
X97861430Y-159214286D01*
X97861430Y-159071429D01*
X97932859Y-158928571D01*
X98075716Y-158857143D01*
X98432859Y-158857143D01*
X98575716Y-158785714D01*
X99290002Y-158428571D02*
X99290002Y-159428571D01*
X99290002Y-158571429D02*
X99361430Y-158500000D01*
X99504288Y-158428571D01*
X99718573Y-158428571D01*
X99861430Y-158500000D01*
X99932859Y-158642857D01*
X99932859Y-159428571D01*
X101218573Y-159357143D02*
X101075716Y-159428571D01*
X100790002Y-159428571D01*
X100647145Y-159357143D01*
X100575716Y-159214286D01*
X100575716Y-158642857D01*
X100647145Y-158500000D01*
X100790002Y-158428571D01*
X101075716Y-158428571D01*
X101218573Y-158500000D01*
X101290002Y-158642857D01*
X101290002Y-158785714D01*
X100575716Y-158928571D01*
X102147145Y-159428571D02*
X102004287Y-159357143D01*
X101932859Y-159214286D01*
X101932859Y-157928571D01*
X103718573Y-158428571D02*
X104075716Y-159428571D01*
X104432858Y-158428571D01*
X105790001Y-159428571D02*
X104932858Y-159428571D01*
X105361430Y-159428571D02*
X105361430Y-157928571D01*
X105218573Y-158142857D01*
X105075715Y-158285714D01*
X104932858Y-158357143D01*
X106504286Y-159428571D02*
X106790001Y-159428571D01*
X106932858Y-159357143D01*
X107004286Y-159285714D01*
X107147144Y-159071429D01*
X107218572Y-158785714D01*
X107218572Y-158214286D01*
X107147144Y-158071429D01*
X107075715Y-158000000D01*
X106932858Y-157928571D01*
X106647144Y-157928571D01*
X106504286Y-158000000D01*
X106432858Y-158071429D01*
X106361429Y-158214286D01*
X106361429Y-158571429D01*
X106432858Y-158714286D01*
X106504286Y-158785714D01*
X106647144Y-158857143D01*
X106932858Y-158857143D01*
X107075715Y-158785714D01*
X107147144Y-158714286D01*
X107218572Y-158571429D01*
X108147143Y-157928571D02*
X108290000Y-157928571D01*
X108432857Y-158000000D01*
X108504286Y-158071429D01*
X108575715Y-158214286D01*
X108647143Y-158500000D01*
X108647143Y-158857143D01*
X108575715Y-159142857D01*
X108504286Y-159285714D01*
X108432857Y-159357143D01*
X108290000Y-159428571D01*
X108147143Y-159428571D01*
X108004286Y-159357143D01*
X107932857Y-159285714D01*
X107861429Y-159142857D01*
X107790000Y-158857143D01*
X107790000Y-158500000D01*
X107861429Y-158214286D01*
X107932857Y-158071429D01*
X108004286Y-158000000D01*
X108147143Y-157928571D01*
X109218571Y-158071429D02*
X109290000Y-158000000D01*
X109432857Y-157928571D01*
X109790000Y-157928571D01*
X109932857Y-158000000D01*
X110004286Y-158071429D01*
X110075714Y-158214286D01*
X110075714Y-158357143D01*
X110004286Y-158571429D01*
X109147143Y-159428571D01*
X110075714Y-159428571D01*
X111004285Y-157928571D02*
X111147142Y-157928571D01*
X111289999Y-158000000D01*
X111361428Y-158071429D01*
X111432857Y-158214286D01*
X111504285Y-158500000D01*
X111504285Y-158857143D01*
X111432857Y-159142857D01*
X111361428Y-159285714D01*
X111289999Y-159357143D01*
X111147142Y-159428571D01*
X111004285Y-159428571D01*
X110861428Y-159357143D01*
X110789999Y-159285714D01*
X110718571Y-159142857D01*
X110647142Y-158857143D01*
X110647142Y-158500000D01*
X110718571Y-158214286D01*
X110789999Y-158071429D01*
X110861428Y-158000000D01*
X111004285Y-157928571D01*
X112004285Y-157928571D02*
X112932856Y-157928571D01*
X112432856Y-158500000D01*
X112647142Y-158500000D01*
X112789999Y-158571429D01*
X112861428Y-158642857D01*
X112932856Y-158785714D01*
X112932856Y-159142857D01*
X112861428Y-159285714D01*
X112789999Y-159357143D01*
X112647142Y-159428571D01*
X112218570Y-159428571D01*
X112075713Y-159357143D01*
X112004285Y-159285714D01*
X118011429Y-142688571D02*
X118297143Y-142688571D01*
X118440001Y-142760000D01*
X118582858Y-142902857D01*
X118654286Y-143188571D01*
X118654286Y-143688571D01*
X118582858Y-143974286D01*
X118440001Y-144117143D01*
X118297143Y-144188571D01*
X118011429Y-144188571D01*
X117868572Y-144117143D01*
X117725715Y-143974286D01*
X117654286Y-143688571D01*
X117654286Y-143188571D01*
X117725715Y-142902857D01*
X117868572Y-142760000D01*
X118011429Y-142688571D01*
X119297144Y-142688571D02*
X119297144Y-143902857D01*
X119368572Y-144045714D01*
X119440001Y-144117143D01*
X119582858Y-144188571D01*
X119868572Y-144188571D01*
X120011430Y-144117143D01*
X120082858Y-144045714D01*
X120154287Y-143902857D01*
X120154287Y-142688571D01*
X120654287Y-142688571D02*
X121511430Y-142688571D01*
X121082859Y-144188571D02*
X121082859Y-142688571D01*
X123082858Y-143188571D02*
X124154287Y-143188571D01*
X123511430Y-142545714D02*
X123082858Y-144474286D01*
X124011430Y-143831429D02*
X122940001Y-143831429D01*
X123582858Y-144474286D02*
X124011430Y-142545714D01*
X125440001Y-144188571D02*
X124582858Y-144188571D01*
X125011430Y-144188571D02*
X125011430Y-142688571D01*
X124868573Y-142902857D01*
X124725715Y-143045714D01*
X124582858Y-143117143D01*
X126082858Y-143617143D02*
X127225715Y-143617143D01*
X128582858Y-143188571D02*
X128582858Y-144188571D01*
X128225715Y-142617143D02*
X127868572Y-143688571D01*
X128797144Y-143688571D01*
X115462857Y-148232857D02*
X115462857Y-147732857D01*
X116248571Y-147518571D02*
X116248571Y-148232857D01*
X114748571Y-148232857D01*
X114748571Y-147518571D01*
X116248571Y-146018571D02*
X115534286Y-146518571D01*
X116248571Y-146875714D02*
X114748571Y-146875714D01*
X114748571Y-146304286D01*
X114820000Y-146161428D01*
X114891429Y-146090000D01*
X115034286Y-146018571D01*
X115248571Y-146018571D01*
X115391429Y-146090000D01*
X115462857Y-146161428D01*
X115534286Y-146304286D01*
X115534286Y-146875714D01*
X116248571Y-144518571D02*
X115534286Y-145018571D01*
X116248571Y-145375714D02*
X114748571Y-145375714D01*
X114748571Y-144804286D01*
X114820000Y-144661428D01*
X114891429Y-144590000D01*
X115034286Y-144518571D01*
X115248571Y-144518571D01*
X115391429Y-144590000D01*
X115462857Y-144661428D01*
X115534286Y-144804286D01*
X115534286Y-145375714D01*
X115248571Y-142804286D02*
X115248571Y-141732857D01*
X114605714Y-142375714D02*
X116534286Y-142804286D01*
X115891429Y-141875714D02*
X115891429Y-142947143D01*
X116534286Y-142304286D02*
X114605714Y-141875714D01*
X115248571Y-140590000D02*
X116248571Y-140590000D01*
X114677143Y-140947143D02*
X115748571Y-141304286D01*
X115748571Y-140375714D01*
X112922857Y-148232857D02*
X112922857Y-147732857D01*
X113708571Y-147518571D02*
X113708571Y-148232857D01*
X112208571Y-148232857D01*
X112208571Y-147518571D01*
X113708571Y-146018571D02*
X112994286Y-146518571D01*
X113708571Y-146875714D02*
X112208571Y-146875714D01*
X112208571Y-146304286D01*
X112280000Y-146161428D01*
X112351429Y-146090000D01*
X112494286Y-146018571D01*
X112708571Y-146018571D01*
X112851429Y-146090000D01*
X112922857Y-146161428D01*
X112994286Y-146304286D01*
X112994286Y-146875714D01*
X113708571Y-144518571D02*
X112994286Y-145018571D01*
X113708571Y-145375714D02*
X112208571Y-145375714D01*
X112208571Y-144804286D01*
X112280000Y-144661428D01*
X112351429Y-144590000D01*
X112494286Y-144518571D01*
X112708571Y-144518571D01*
X112851429Y-144590000D01*
X112922857Y-144661428D01*
X112994286Y-144804286D01*
X112994286Y-145375714D01*
X112708571Y-142804286D02*
X112708571Y-141732857D01*
X112065714Y-142375714D02*
X113994286Y-142804286D01*
X113351429Y-141875714D02*
X113351429Y-142947143D01*
X113994286Y-142304286D02*
X112065714Y-141875714D01*
X112208571Y-141375714D02*
X112208571Y-140447143D01*
X112780000Y-140947143D01*
X112780000Y-140732857D01*
X112851429Y-140590000D01*
X112922857Y-140518571D01*
X113065714Y-140447143D01*
X113422857Y-140447143D01*
X113565714Y-140518571D01*
X113637143Y-140590000D01*
X113708571Y-140732857D01*
X113708571Y-141161429D01*
X113637143Y-141304286D01*
X113565714Y-141375714D01*
X110382857Y-148232857D02*
X110382857Y-147732857D01*
X111168571Y-147518571D02*
X111168571Y-148232857D01*
X109668571Y-148232857D01*
X109668571Y-147518571D01*
X111168571Y-146018571D02*
X110454286Y-146518571D01*
X111168571Y-146875714D02*
X109668571Y-146875714D01*
X109668571Y-146304286D01*
X109740000Y-146161428D01*
X109811429Y-146090000D01*
X109954286Y-146018571D01*
X110168571Y-146018571D01*
X110311429Y-146090000D01*
X110382857Y-146161428D01*
X110454286Y-146304286D01*
X110454286Y-146875714D01*
X111168571Y-144518571D02*
X110454286Y-145018571D01*
X111168571Y-145375714D02*
X109668571Y-145375714D01*
X109668571Y-144804286D01*
X109740000Y-144661428D01*
X109811429Y-144590000D01*
X109954286Y-144518571D01*
X110168571Y-144518571D01*
X110311429Y-144590000D01*
X110382857Y-144661428D01*
X110454286Y-144804286D01*
X110454286Y-145375714D01*
X110168571Y-142804286D02*
X110168571Y-141732857D01*
X109525714Y-142375714D02*
X111454286Y-142804286D01*
X110811429Y-141875714D02*
X110811429Y-142947143D01*
X111454286Y-142304286D02*
X109525714Y-141875714D01*
X109811429Y-141304286D02*
X109740000Y-141232857D01*
X109668571Y-141090000D01*
X109668571Y-140732857D01*
X109740000Y-140590000D01*
X109811429Y-140518571D01*
X109954286Y-140447143D01*
X110097143Y-140447143D01*
X110311429Y-140518571D01*
X111168571Y-141375714D01*
X111168571Y-140447143D01*
X107842857Y-148232857D02*
X107842857Y-147732857D01*
X108628571Y-147518571D02*
X108628571Y-148232857D01*
X107128571Y-148232857D01*
X107128571Y-147518571D01*
X108628571Y-146018571D02*
X107914286Y-146518571D01*
X108628571Y-146875714D02*
X107128571Y-146875714D01*
X107128571Y-146304286D01*
X107200000Y-146161428D01*
X107271429Y-146090000D01*
X107414286Y-146018571D01*
X107628571Y-146018571D01*
X107771429Y-146090000D01*
X107842857Y-146161428D01*
X107914286Y-146304286D01*
X107914286Y-146875714D01*
X108628571Y-144518571D02*
X107914286Y-145018571D01*
X108628571Y-145375714D02*
X107128571Y-145375714D01*
X107128571Y-144804286D01*
X107200000Y-144661428D01*
X107271429Y-144590000D01*
X107414286Y-144518571D01*
X107628571Y-144518571D01*
X107771429Y-144590000D01*
X107842857Y-144661428D01*
X107914286Y-144804286D01*
X107914286Y-145375714D01*
X107628571Y-142804286D02*
X107628571Y-141732857D01*
X106985714Y-142375714D02*
X108914286Y-142804286D01*
X108271429Y-141875714D02*
X108271429Y-142947143D01*
X108914286Y-142304286D02*
X106985714Y-141875714D01*
X108628571Y-140447143D02*
X108628571Y-141304286D01*
X108628571Y-140875714D02*
X107128571Y-140875714D01*
X107342857Y-141018571D01*
X107485714Y-141161429D01*
X107557143Y-141304286D01*
X106088571Y-148232857D02*
X104588571Y-148232857D01*
X106088571Y-147518571D02*
X104588571Y-147518571D01*
X106088571Y-146661428D01*
X104588571Y-146661428D01*
X105088571Y-144875714D02*
X105088571Y-143804285D01*
X104445714Y-144447142D02*
X106374286Y-144875714D01*
X105731429Y-143947142D02*
X105731429Y-145018571D01*
X106374286Y-144375714D02*
X104445714Y-143947142D01*
X105088571Y-142661428D02*
X106088571Y-142661428D01*
X104517143Y-143018571D02*
X105588571Y-143375714D01*
X105588571Y-142447142D01*
X103548571Y-148232857D02*
X102048571Y-148232857D01*
X103548571Y-147518571D02*
X102048571Y-147518571D01*
X103548571Y-146661428D01*
X102048571Y-146661428D01*
X102548571Y-144875714D02*
X102548571Y-143804285D01*
X101905714Y-144447142D02*
X103834286Y-144875714D01*
X103191429Y-143947142D02*
X103191429Y-145018571D01*
X103834286Y-144375714D02*
X101905714Y-143947142D01*
X102048571Y-143447142D02*
X102048571Y-142518571D01*
X102620000Y-143018571D01*
X102620000Y-142804285D01*
X102691429Y-142661428D01*
X102762857Y-142589999D01*
X102905714Y-142518571D01*
X103262857Y-142518571D01*
X103405714Y-142589999D01*
X103477143Y-142661428D01*
X103548571Y-142804285D01*
X103548571Y-143232857D01*
X103477143Y-143375714D01*
X103405714Y-143447142D01*
X101008571Y-148232857D02*
X99508571Y-148232857D01*
X101008571Y-147518571D02*
X99508571Y-147518571D01*
X101008571Y-146661428D01*
X99508571Y-146661428D01*
X100008571Y-144875714D02*
X100008571Y-143804285D01*
X99365714Y-144447142D02*
X101294286Y-144875714D01*
X100651429Y-143947142D02*
X100651429Y-145018571D01*
X101294286Y-144375714D02*
X99365714Y-143947142D01*
X99651429Y-143375714D02*
X99580000Y-143304285D01*
X99508571Y-143161428D01*
X99508571Y-142804285D01*
X99580000Y-142661428D01*
X99651429Y-142589999D01*
X99794286Y-142518571D01*
X99937143Y-142518571D01*
X100151429Y-142589999D01*
X101008571Y-143447142D01*
X101008571Y-142518571D01*
X95500000Y-148304286D02*
X95500000Y-147590000D01*
X95928571Y-148447143D02*
X94428571Y-147947143D01*
X95928571Y-147447143D01*
X95785714Y-146090000D02*
X95857143Y-146161429D01*
X95928571Y-146375715D01*
X95928571Y-146518572D01*
X95857143Y-146732857D01*
X95714286Y-146875715D01*
X95571429Y-146947143D01*
X95285714Y-147018572D01*
X95071429Y-147018572D01*
X94785714Y-146947143D01*
X94642857Y-146875715D01*
X94500000Y-146732857D01*
X94428571Y-146518572D01*
X94428571Y-146375715D01*
X94500000Y-146161429D01*
X94571429Y-146090000D01*
X94428571Y-145661429D02*
X94428571Y-144804286D01*
X95928571Y-145232857D02*
X94428571Y-145232857D01*
X98468571Y-148232857D02*
X96968571Y-148232857D01*
X98468571Y-147518571D02*
X96968571Y-147518571D01*
X98468571Y-146661428D01*
X96968571Y-146661428D01*
X97468571Y-144875714D02*
X97468571Y-143804285D01*
X96825714Y-144447142D02*
X98754286Y-144875714D01*
X98111429Y-143947142D02*
X98111429Y-145018571D01*
X98754286Y-144375714D02*
X96825714Y-143947142D01*
X98468571Y-142518571D02*
X98468571Y-143375714D01*
X98468571Y-142947142D02*
X96968571Y-142947142D01*
X97182857Y-143089999D01*
X97325714Y-143232857D01*
X97397143Y-143375714D01*
X175708571Y-147518571D02*
X175708571Y-148232857D01*
X176422857Y-148304286D01*
X176351429Y-148232857D01*
X176280000Y-148090000D01*
X176280000Y-147732857D01*
X176351429Y-147590000D01*
X176422857Y-147518571D01*
X176565714Y-147447143D01*
X176922857Y-147447143D01*
X177065714Y-147518571D01*
X177137143Y-147590000D01*
X177208571Y-147732857D01*
X177208571Y-148090000D01*
X177137143Y-148232857D01*
X177065714Y-148304286D01*
X175708571Y-147018572D02*
X177208571Y-146518572D01*
X175708571Y-146018572D01*
X173168571Y-148375714D02*
X173168571Y-147447143D01*
X173740000Y-147947143D01*
X173740000Y-147732857D01*
X173811429Y-147590000D01*
X173882857Y-147518571D01*
X174025714Y-147447143D01*
X174382857Y-147447143D01*
X174525714Y-147518571D01*
X174597143Y-147590000D01*
X174668571Y-147732857D01*
X174668571Y-148161429D01*
X174597143Y-148304286D01*
X174525714Y-148375714D01*
X174597143Y-146732858D02*
X174668571Y-146732858D01*
X174811429Y-146804286D01*
X174882857Y-146875715D01*
X173168571Y-146232857D02*
X173168571Y-145304286D01*
X173740000Y-145804286D01*
X173740000Y-145590000D01*
X173811429Y-145447143D01*
X173882857Y-145375714D01*
X174025714Y-145304286D01*
X174382857Y-145304286D01*
X174525714Y-145375714D01*
X174597143Y-145447143D01*
X174668571Y-145590000D01*
X174668571Y-146018572D01*
X174597143Y-146161429D01*
X174525714Y-146232857D01*
X173168571Y-144875715D02*
X174668571Y-144375715D01*
X173168571Y-143875715D01*
X170700000Y-147447143D02*
X170628571Y-147590000D01*
X170628571Y-147804286D01*
X170700000Y-148018571D01*
X170842857Y-148161429D01*
X170985714Y-148232857D01*
X171271429Y-148304286D01*
X171485714Y-148304286D01*
X171771429Y-148232857D01*
X171914286Y-148161429D01*
X172057143Y-148018571D01*
X172128571Y-147804286D01*
X172128571Y-147661429D01*
X172057143Y-147447143D01*
X171985714Y-147375714D01*
X171485714Y-147375714D01*
X171485714Y-147661429D01*
X172128571Y-146732857D02*
X170628571Y-146732857D01*
X172128571Y-145875714D01*
X170628571Y-145875714D01*
X172128571Y-145161428D02*
X170628571Y-145161428D01*
X170628571Y-144804285D01*
X170700000Y-144590000D01*
X170842857Y-144447142D01*
X170985714Y-144375714D01*
X171271429Y-144304285D01*
X171485714Y-144304285D01*
X171771429Y-144375714D01*
X171914286Y-144447142D01*
X172057143Y-144590000D01*
X172128571Y-144804285D01*
X172128571Y-145161428D01*
X136124286Y-41318571D02*
X136124286Y-39818571D01*
X136124286Y-40532857D02*
X136981429Y-40532857D01*
X136981429Y-41318571D02*
X136981429Y-39818571D01*
X138410001Y-41318571D02*
X137695715Y-41318571D01*
X137695715Y-39818571D01*
X149717143Y-41318571D02*
X149002857Y-41318571D01*
X149002857Y-39818571D01*
X150931429Y-41318571D02*
X150217143Y-41318571D01*
X150217143Y-39818571D01*
X93158571Y-45592857D02*
X94372857Y-45592857D01*
X94515714Y-45521429D01*
X94587143Y-45450000D01*
X94658571Y-45307143D01*
X94658571Y-45021429D01*
X94587143Y-44878571D01*
X94515714Y-44807143D01*
X94372857Y-44735714D01*
X93158571Y-44735714D01*
X94658571Y-43235714D02*
X94658571Y-44092857D01*
X94658571Y-43664285D02*
X93158571Y-43664285D01*
X93372857Y-43807142D01*
X93515714Y-43950000D01*
X93587143Y-44092857D01*
X93837143Y-40048571D02*
X93122857Y-40048571D01*
X93122857Y-38548571D01*
X95051429Y-40048571D02*
X94337143Y-40048571D01*
X94337143Y-38548571D01*
X92944286Y-50208571D02*
X92944286Y-48708571D01*
X92944286Y-49422857D02*
X93801429Y-49422857D01*
X93801429Y-50208571D02*
X93801429Y-48708571D01*
X95230001Y-50208571D02*
X94515715Y-50208571D01*
X94515715Y-48708571D01*
X142367143Y-39818571D02*
X142367143Y-41032857D01*
X142438571Y-41175714D01*
X142510000Y-41247143D01*
X142652857Y-41318571D01*
X142938571Y-41318571D01*
X143081429Y-41247143D01*
X143152857Y-41175714D01*
X143224286Y-41032857D01*
X143224286Y-39818571D01*
X143867143Y-39961429D02*
X143938572Y-39890000D01*
X144081429Y-39818571D01*
X144438572Y-39818571D01*
X144581429Y-39890000D01*
X144652858Y-39961429D01*
X144724286Y-40104286D01*
X144724286Y-40247143D01*
X144652858Y-40461429D01*
X143795715Y-41318571D01*
X144724286Y-41318571D01*
X87987143Y-87038571D02*
X87987143Y-85538571D01*
X88701429Y-87038571D02*
X88701429Y-85538571D01*
X89558572Y-87038571D01*
X89558572Y-85538571D01*
X91344286Y-86038571D02*
X92415715Y-86038571D01*
X91772858Y-85395714D02*
X91344286Y-87324286D01*
X92272858Y-86681429D02*
X91201429Y-86681429D01*
X91844286Y-87324286D02*
X92272858Y-85395714D01*
X93701429Y-87038571D02*
X92844286Y-87038571D01*
X93272858Y-87038571D02*
X93272858Y-85538571D01*
X93130001Y-85752857D01*
X92987143Y-85895714D01*
X92844286Y-85967143D01*
X87987143Y-92118571D02*
X87987143Y-90618571D01*
X88701429Y-92118571D02*
X88701429Y-90618571D01*
X89558572Y-92118571D01*
X89558572Y-90618571D01*
X91344286Y-91118571D02*
X92415715Y-91118571D01*
X91772858Y-90475714D02*
X91344286Y-92404286D01*
X92272858Y-91761429D02*
X91201429Y-91761429D01*
X91844286Y-92404286D02*
X92272858Y-90475714D01*
X92844286Y-90761429D02*
X92915715Y-90690000D01*
X93058572Y-90618571D01*
X93415715Y-90618571D01*
X93558572Y-90690000D01*
X93630001Y-90761429D01*
X93701429Y-90904286D01*
X93701429Y-91047143D01*
X93630001Y-91261429D01*
X92772858Y-92118571D01*
X93701429Y-92118571D01*
X87987143Y-97198571D02*
X87987143Y-95698571D01*
X88701429Y-97198571D02*
X88701429Y-95698571D01*
X89558572Y-97198571D01*
X89558572Y-95698571D01*
X91344286Y-96198571D02*
X92415715Y-96198571D01*
X91772858Y-95555714D02*
X91344286Y-97484286D01*
X92272858Y-96841429D02*
X91201429Y-96841429D01*
X91844286Y-97484286D02*
X92272858Y-95555714D01*
X92772858Y-95698571D02*
X93701429Y-95698571D01*
X93201429Y-96270000D01*
X93415715Y-96270000D01*
X93558572Y-96341429D01*
X93630001Y-96412857D01*
X93701429Y-96555714D01*
X93701429Y-96912857D01*
X93630001Y-97055714D01*
X93558572Y-97127143D01*
X93415715Y-97198571D01*
X92987143Y-97198571D01*
X92844286Y-97127143D01*
X92772858Y-97055714D01*
X87987143Y-102278571D02*
X87987143Y-100778571D01*
X88701429Y-102278571D02*
X88701429Y-100778571D01*
X89558572Y-102278571D01*
X89558572Y-100778571D01*
X91344286Y-101278571D02*
X92415715Y-101278571D01*
X91772858Y-100635714D02*
X91344286Y-102564286D01*
X92272858Y-101921429D02*
X91201429Y-101921429D01*
X91844286Y-102564286D02*
X92272858Y-100635714D01*
X93558572Y-101278571D02*
X93558572Y-102278571D01*
X93201429Y-100707143D02*
X92844286Y-101778571D01*
X93772858Y-101778571D01*
X87915714Y-107287143D02*
X88130000Y-107358571D01*
X88487143Y-107358571D01*
X88630000Y-107287143D01*
X88701429Y-107215714D01*
X88772857Y-107072857D01*
X88772857Y-106930000D01*
X88701429Y-106787143D01*
X88630000Y-106715714D01*
X88487143Y-106644286D01*
X88201429Y-106572857D01*
X88058571Y-106501429D01*
X87987143Y-106430000D01*
X87915714Y-106287143D01*
X87915714Y-106144286D01*
X87987143Y-106001429D01*
X88058571Y-105930000D01*
X88201429Y-105858571D01*
X88558571Y-105858571D01*
X88772857Y-105930000D01*
X89415714Y-107358571D02*
X89415714Y-105858571D01*
X89987142Y-105858571D01*
X90130000Y-105930000D01*
X90201428Y-106001429D01*
X90272857Y-106144286D01*
X90272857Y-106358571D01*
X90201428Y-106501429D01*
X90130000Y-106572857D01*
X89987142Y-106644286D01*
X89415714Y-106644286D01*
X90844285Y-106930000D02*
X91558571Y-106930000D01*
X90701428Y-107358571D02*
X91201428Y-105858571D01*
X91701428Y-107358571D01*
X93058571Y-107358571D02*
X92558571Y-106644286D01*
X92201428Y-107358571D02*
X92201428Y-105858571D01*
X92772856Y-105858571D01*
X92915714Y-105930000D01*
X92987142Y-106001429D01*
X93058571Y-106144286D01*
X93058571Y-106358571D01*
X92987142Y-106501429D01*
X92915714Y-106572857D01*
X92772856Y-106644286D01*
X92201428Y-106644286D01*
X93701428Y-106572857D02*
X94201428Y-106572857D01*
X94415714Y-107358571D02*
X93701428Y-107358571D01*
X93701428Y-105858571D01*
X94415714Y-105858571D01*
X87915714Y-112367143D02*
X88130000Y-112438571D01*
X88487143Y-112438571D01*
X88630000Y-112367143D01*
X88701429Y-112295714D01*
X88772857Y-112152857D01*
X88772857Y-112010000D01*
X88701429Y-111867143D01*
X88630000Y-111795714D01*
X88487143Y-111724286D01*
X88201429Y-111652857D01*
X88058571Y-111581429D01*
X87987143Y-111510000D01*
X87915714Y-111367143D01*
X87915714Y-111224286D01*
X87987143Y-111081429D01*
X88058571Y-111010000D01*
X88201429Y-110938571D01*
X88558571Y-110938571D01*
X88772857Y-111010000D01*
X89415714Y-112438571D02*
X89415714Y-110938571D01*
X89987142Y-110938571D01*
X90130000Y-111010000D01*
X90201428Y-111081429D01*
X90272857Y-111224286D01*
X90272857Y-111438571D01*
X90201428Y-111581429D01*
X90130000Y-111652857D01*
X89987142Y-111724286D01*
X89415714Y-111724286D01*
X90844285Y-112010000D02*
X91558571Y-112010000D01*
X90701428Y-112438571D02*
X91201428Y-110938571D01*
X91701428Y-112438571D01*
X93058571Y-112438571D02*
X92558571Y-111724286D01*
X92201428Y-112438571D02*
X92201428Y-110938571D01*
X92772856Y-110938571D01*
X92915714Y-111010000D01*
X92987142Y-111081429D01*
X93058571Y-111224286D01*
X93058571Y-111438571D01*
X92987142Y-111581429D01*
X92915714Y-111652857D01*
X92772856Y-111724286D01*
X92201428Y-111724286D01*
X93701428Y-111652857D02*
X94201428Y-111652857D01*
X94415714Y-112438571D02*
X93701428Y-112438571D01*
X93701428Y-110938571D01*
X94415714Y-110938571D01*
X87915714Y-122527143D02*
X88130000Y-122598571D01*
X88487143Y-122598571D01*
X88630000Y-122527143D01*
X88701429Y-122455714D01*
X88772857Y-122312857D01*
X88772857Y-122170000D01*
X88701429Y-122027143D01*
X88630000Y-121955714D01*
X88487143Y-121884286D01*
X88201429Y-121812857D01*
X88058571Y-121741429D01*
X87987143Y-121670000D01*
X87915714Y-121527143D01*
X87915714Y-121384286D01*
X87987143Y-121241429D01*
X88058571Y-121170000D01*
X88201429Y-121098571D01*
X88558571Y-121098571D01*
X88772857Y-121170000D01*
X90201428Y-122598571D02*
X89344285Y-122598571D01*
X89772857Y-122598571D02*
X89772857Y-121098571D01*
X89630000Y-121312857D01*
X89487142Y-121455714D01*
X89344285Y-121527143D01*
X91987142Y-122598571D02*
X91987142Y-121098571D01*
X92344285Y-121098571D01*
X92558570Y-121170000D01*
X92701428Y-121312857D01*
X92772856Y-121455714D01*
X92844285Y-121741429D01*
X92844285Y-121955714D01*
X92772856Y-122241429D01*
X92701428Y-122384286D01*
X92558570Y-122527143D01*
X92344285Y-122598571D01*
X91987142Y-122598571D01*
X93272856Y-121098571D02*
X94129999Y-121098571D01*
X93701428Y-122598571D02*
X93701428Y-121098571D01*
X87915714Y-127607143D02*
X88130000Y-127678571D01*
X88487143Y-127678571D01*
X88630000Y-127607143D01*
X88701429Y-127535714D01*
X88772857Y-127392857D01*
X88772857Y-127250000D01*
X88701429Y-127107143D01*
X88630000Y-127035714D01*
X88487143Y-126964286D01*
X88201429Y-126892857D01*
X88058571Y-126821429D01*
X87987143Y-126750000D01*
X87915714Y-126607143D01*
X87915714Y-126464286D01*
X87987143Y-126321429D01*
X88058571Y-126250000D01*
X88201429Y-126178571D01*
X88558571Y-126178571D01*
X88772857Y-126250000D01*
X90201428Y-127678571D02*
X89344285Y-127678571D01*
X89772857Y-127678571D02*
X89772857Y-126178571D01*
X89630000Y-126392857D01*
X89487142Y-126535714D01*
X89344285Y-126607143D01*
X91987142Y-127107143D02*
X93129999Y-127107143D01*
X92558570Y-127678571D02*
X92558570Y-126535714D01*
X94558571Y-126178571D02*
X93844285Y-126178571D01*
X93772856Y-126892857D01*
X93844285Y-126821429D01*
X93987142Y-126750000D01*
X94344285Y-126750000D01*
X94487142Y-126821429D01*
X94558571Y-126892857D01*
X94629999Y-127035714D01*
X94629999Y-127392857D01*
X94558571Y-127535714D01*
X94487142Y-127607143D01*
X94344285Y-127678571D01*
X93987142Y-127678571D01*
X93844285Y-127607143D01*
X93772856Y-127535714D01*
X95058570Y-126178571D02*
X95558570Y-127678571D01*
X96058570Y-126178571D01*
X87987143Y-132187143D02*
X89130000Y-132187143D01*
X88558571Y-132758571D02*
X88558571Y-131615714D01*
X90558572Y-131258571D02*
X89844286Y-131258571D01*
X89772857Y-131972857D01*
X89844286Y-131901429D01*
X89987143Y-131830000D01*
X90344286Y-131830000D01*
X90487143Y-131901429D01*
X90558572Y-131972857D01*
X90630000Y-132115714D01*
X90630000Y-132472857D01*
X90558572Y-132615714D01*
X90487143Y-132687143D01*
X90344286Y-132758571D01*
X89987143Y-132758571D01*
X89844286Y-132687143D01*
X89772857Y-132615714D01*
X91058571Y-131258571D02*
X91558571Y-132758571D01*
X92058571Y-131258571D01*
X88772857Y-136410000D02*
X88630000Y-136338571D01*
X88415714Y-136338571D01*
X88201429Y-136410000D01*
X88058571Y-136552857D01*
X87987143Y-136695714D01*
X87915714Y-136981429D01*
X87915714Y-137195714D01*
X87987143Y-137481429D01*
X88058571Y-137624286D01*
X88201429Y-137767143D01*
X88415714Y-137838571D01*
X88558571Y-137838571D01*
X88772857Y-137767143D01*
X88844286Y-137695714D01*
X88844286Y-137195714D01*
X88558571Y-137195714D01*
X89487143Y-137838571D02*
X89487143Y-136338571D01*
X90344286Y-137838571D01*
X90344286Y-136338571D01*
X91058572Y-137838571D02*
X91058572Y-136338571D01*
X91415715Y-136338571D01*
X91630000Y-136410000D01*
X91772858Y-136552857D01*
X91844286Y-136695714D01*
X91915715Y-136981429D01*
X91915715Y-137195714D01*
X91844286Y-137481429D01*
X91772858Y-137624286D01*
X91630000Y-137767143D01*
X91415715Y-137838571D01*
X91058572Y-137838571D01*
X87915714Y-117447143D02*
X88130000Y-117518571D01*
X88487143Y-117518571D01*
X88630000Y-117447143D01*
X88701429Y-117375714D01*
X88772857Y-117232857D01*
X88772857Y-117090000D01*
X88701429Y-116947143D01*
X88630000Y-116875714D01*
X88487143Y-116804286D01*
X88201429Y-116732857D01*
X88058571Y-116661429D01*
X87987143Y-116590000D01*
X87915714Y-116447143D01*
X87915714Y-116304286D01*
X87987143Y-116161429D01*
X88058571Y-116090000D01*
X88201429Y-116018571D01*
X88558571Y-116018571D01*
X88772857Y-116090000D01*
X90201428Y-117518571D02*
X89344285Y-117518571D01*
X89772857Y-117518571D02*
X89772857Y-116018571D01*
X89630000Y-116232857D01*
X89487142Y-116375714D01*
X89344285Y-116447143D01*
X92772856Y-116090000D02*
X92629999Y-116018571D01*
X92415713Y-116018571D01*
X92201428Y-116090000D01*
X92058570Y-116232857D01*
X91987142Y-116375714D01*
X91915713Y-116661429D01*
X91915713Y-116875714D01*
X91987142Y-117161429D01*
X92058570Y-117304286D01*
X92201428Y-117447143D01*
X92415713Y-117518571D01*
X92558570Y-117518571D01*
X92772856Y-117447143D01*
X92844285Y-117375714D01*
X92844285Y-116875714D01*
X92558570Y-116875714D01*
X93487142Y-117518571D02*
X93487142Y-116018571D01*
X94344285Y-117518571D01*
X94344285Y-116018571D01*
X95058571Y-117518571D02*
X95058571Y-116018571D01*
X95415714Y-116018571D01*
X95629999Y-116090000D01*
X95772857Y-116232857D01*
X95844285Y-116375714D01*
X95915714Y-116661429D01*
X95915714Y-116875714D01*
X95844285Y-117161429D01*
X95772857Y-117304286D01*
X95629999Y-117447143D01*
X95415714Y-117518571D01*
X95058571Y-117518571D01*
X87987143Y-81958571D02*
X87987143Y-80458571D01*
X88701429Y-81958571D02*
X88701429Y-80458571D01*
X89558572Y-81958571D01*
X89558572Y-80458571D01*
X92201429Y-80530000D02*
X92058572Y-80458571D01*
X91844286Y-80458571D01*
X91630001Y-80530000D01*
X91487143Y-80672857D01*
X91415715Y-80815714D01*
X91344286Y-81101429D01*
X91344286Y-81315714D01*
X91415715Y-81601429D01*
X91487143Y-81744286D01*
X91630001Y-81887143D01*
X91844286Y-81958571D01*
X91987143Y-81958571D01*
X92201429Y-81887143D01*
X92272858Y-81815714D01*
X92272858Y-81315714D01*
X91987143Y-81315714D01*
X92915715Y-81958571D02*
X92915715Y-80458571D01*
X93772858Y-81958571D01*
X93772858Y-80458571D01*
X94487144Y-81958571D02*
X94487144Y-80458571D01*
X94844287Y-80458571D01*
X95058572Y-80530000D01*
X95201430Y-80672857D01*
X95272858Y-80815714D01*
X95344287Y-81101429D01*
X95344287Y-81315714D01*
X95272858Y-81601429D01*
X95201430Y-81744286D01*
X95058572Y-81887143D01*
X94844287Y-81958571D01*
X94487144Y-81958571D01*
X72818572Y-81958571D02*
X71961429Y-81958571D01*
X72390001Y-81958571D02*
X72390001Y-80458571D01*
X72247144Y-80672857D01*
X72104286Y-80815714D01*
X71961429Y-80887143D01*
X117190001Y-59098571D02*
X116690001Y-58384286D01*
X116332858Y-59098571D02*
X116332858Y-57598571D01*
X116904286Y-57598571D01*
X117047144Y-57670000D01*
X117118572Y-57741429D01*
X117190001Y-57884286D01*
X117190001Y-58098571D01*
X117118572Y-58241429D01*
X117047144Y-58312857D01*
X116904286Y-58384286D01*
X116332858Y-58384286D01*
X118475715Y-59098571D02*
X118475715Y-58312857D01*
X118404286Y-58170000D01*
X118261429Y-58098571D01*
X117975715Y-58098571D01*
X117832858Y-58170000D01*
X118475715Y-59027143D02*
X118332858Y-59098571D01*
X117975715Y-59098571D01*
X117832858Y-59027143D01*
X117761429Y-58884286D01*
X117761429Y-58741429D01*
X117832858Y-58598571D01*
X117975715Y-58527143D01*
X118332858Y-58527143D01*
X118475715Y-58455714D01*
X119118572Y-59027143D02*
X119261429Y-59098571D01*
X119547144Y-59098571D01*
X119690001Y-59027143D01*
X119761429Y-58884286D01*
X119761429Y-58812857D01*
X119690001Y-58670000D01*
X119547144Y-58598571D01*
X119332858Y-58598571D01*
X119190001Y-58527143D01*
X119118572Y-58384286D01*
X119118572Y-58312857D01*
X119190001Y-58170000D01*
X119332858Y-58098571D01*
X119547144Y-58098571D01*
X119690001Y-58170000D01*
X120404287Y-58098571D02*
X120404287Y-59598571D01*
X120404287Y-58170000D02*
X120547144Y-58098571D01*
X120832858Y-58098571D01*
X120975715Y-58170000D01*
X121047144Y-58241429D01*
X121118573Y-58384286D01*
X121118573Y-58812857D01*
X121047144Y-58955714D01*
X120975715Y-59027143D01*
X120832858Y-59098571D01*
X120547144Y-59098571D01*
X120404287Y-59027143D01*
X121761430Y-59098571D02*
X121761430Y-57598571D01*
X121761430Y-58170000D02*
X121904287Y-58098571D01*
X122190001Y-58098571D01*
X122332858Y-58170000D01*
X122404287Y-58241429D01*
X122475716Y-58384286D01*
X122475716Y-58812857D01*
X122404287Y-58955714D01*
X122332858Y-59027143D01*
X122190001Y-59098571D01*
X121904287Y-59098571D01*
X121761430Y-59027143D01*
X123690001Y-59027143D02*
X123547144Y-59098571D01*
X123261430Y-59098571D01*
X123118573Y-59027143D01*
X123047144Y-58884286D01*
X123047144Y-58312857D01*
X123118573Y-58170000D01*
X123261430Y-58098571D01*
X123547144Y-58098571D01*
X123690001Y-58170000D01*
X123761430Y-58312857D01*
X123761430Y-58455714D01*
X123047144Y-58598571D01*
X124404287Y-59098571D02*
X124404287Y-58098571D01*
X124404287Y-58384286D02*
X124475715Y-58241429D01*
X124547144Y-58170000D01*
X124690001Y-58098571D01*
X124832858Y-58098571D01*
X125332858Y-59098571D02*
X125332858Y-58098571D01*
X125332858Y-58384286D02*
X125404286Y-58241429D01*
X125475715Y-58170000D01*
X125618572Y-58098571D01*
X125761429Y-58098571D01*
X126118572Y-58098571D02*
X126475715Y-59098571D01*
X126832857Y-58098571D02*
X126475715Y-59098571D01*
X126332857Y-59455714D01*
X126261429Y-59527143D01*
X126118572Y-59598571D01*
X128547143Y-59098571D02*
X128547143Y-57598571D01*
X129118571Y-57598571D01*
X129261429Y-57670000D01*
X129332857Y-57741429D01*
X129404286Y-57884286D01*
X129404286Y-58098571D01*
X129332857Y-58241429D01*
X129261429Y-58312857D01*
X129118571Y-58384286D01*
X128547143Y-58384286D01*
X130047143Y-59098571D02*
X130047143Y-58098571D01*
X130047143Y-57598571D02*
X129975714Y-57670000D01*
X130047143Y-57741429D01*
X130118571Y-57670000D01*
X130047143Y-57598571D01*
X130047143Y-57741429D01*
X185305715Y-59098571D02*
X184805715Y-58384286D01*
X184448572Y-59098571D02*
X184448572Y-57598571D01*
X185020000Y-57598571D01*
X185162858Y-57670000D01*
X185234286Y-57741429D01*
X185305715Y-57884286D01*
X185305715Y-58098571D01*
X185234286Y-58241429D01*
X185162858Y-58312857D01*
X185020000Y-58384286D01*
X184448572Y-58384286D01*
X186520000Y-59027143D02*
X186377143Y-59098571D01*
X186091429Y-59098571D01*
X185948572Y-59027143D01*
X185877143Y-58884286D01*
X185877143Y-58312857D01*
X185948572Y-58170000D01*
X186091429Y-58098571D01*
X186377143Y-58098571D01*
X186520000Y-58170000D01*
X186591429Y-58312857D01*
X186591429Y-58455714D01*
X185877143Y-58598571D01*
X187448572Y-59098571D02*
X187305714Y-59027143D01*
X187234286Y-58884286D01*
X187234286Y-57598571D01*
X188662857Y-59098571D02*
X188662857Y-58312857D01*
X188591428Y-58170000D01*
X188448571Y-58098571D01*
X188162857Y-58098571D01*
X188020000Y-58170000D01*
X188662857Y-59027143D02*
X188520000Y-59098571D01*
X188162857Y-59098571D01*
X188020000Y-59027143D01*
X187948571Y-58884286D01*
X187948571Y-58741429D01*
X188020000Y-58598571D01*
X188162857Y-58527143D01*
X188520000Y-58527143D01*
X188662857Y-58455714D01*
X189234286Y-58098571D02*
X189591429Y-59098571D01*
X189948571Y-58098571D02*
X189591429Y-59098571D01*
X189448571Y-59455714D01*
X189377143Y-59527143D01*
X189234286Y-59598571D01*
X191662857Y-59098571D02*
X191662857Y-58098571D01*
X191662857Y-58241429D02*
X191734285Y-58170000D01*
X191877143Y-58098571D01*
X192091428Y-58098571D01*
X192234285Y-58170000D01*
X192305714Y-58312857D01*
X192305714Y-59098571D01*
X192305714Y-58312857D02*
X192377143Y-58170000D01*
X192520000Y-58098571D01*
X192734285Y-58098571D01*
X192877143Y-58170000D01*
X192948571Y-58312857D01*
X192948571Y-59098571D01*
X193877143Y-59098571D02*
X193734285Y-59027143D01*
X193662857Y-58955714D01*
X193591428Y-58812857D01*
X193591428Y-58384286D01*
X193662857Y-58241429D01*
X193734285Y-58170000D01*
X193877143Y-58098571D01*
X194091428Y-58098571D01*
X194234285Y-58170000D01*
X194305714Y-58241429D01*
X194377143Y-58384286D01*
X194377143Y-58812857D01*
X194305714Y-58955714D01*
X194234285Y-59027143D01*
X194091428Y-59098571D01*
X193877143Y-59098571D01*
X195662857Y-59098571D02*
X195662857Y-57598571D01*
X195662857Y-59027143D02*
X195520000Y-59098571D01*
X195234286Y-59098571D01*
X195091428Y-59027143D01*
X195020000Y-58955714D01*
X194948571Y-58812857D01*
X194948571Y-58384286D01*
X195020000Y-58241429D01*
X195091428Y-58170000D01*
X195234286Y-58098571D01*
X195520000Y-58098571D01*
X195662857Y-58170000D01*
X197020000Y-58098571D02*
X197020000Y-59098571D01*
X196377143Y-58098571D02*
X196377143Y-58884286D01*
X196448571Y-59027143D01*
X196591429Y-59098571D01*
X196805714Y-59098571D01*
X196948571Y-59027143D01*
X197020000Y-58955714D01*
X197948572Y-59098571D02*
X197805714Y-59027143D01*
X197734286Y-58884286D01*
X197734286Y-57598571D01*
X199091428Y-59027143D02*
X198948571Y-59098571D01*
X198662857Y-59098571D01*
X198520000Y-59027143D01*
X198448571Y-58884286D01*
X198448571Y-58312857D01*
X198520000Y-58170000D01*
X198662857Y-58098571D01*
X198948571Y-58098571D01*
X199091428Y-58170000D01*
X199162857Y-58312857D01*
X199162857Y-58455714D01*
X198448571Y-58598571D01*
D12*
X148590000Y-52070000D02*
X138430000Y-52070000D01*
X138430000Y-41910000D02*
X148590000Y-41910000D01*
D10*
X213360000Y-163830000D02*
X77470000Y-163830000D01*
X213360000Y-143510000D02*
X213360000Y-163830000D01*
X233680000Y-143510000D02*
X213360000Y-143510000D01*
X233680000Y-53340000D02*
X233680000Y-143510000D01*
X213360000Y-53340000D02*
X233680000Y-53340000D01*
X213360000Y-33020000D02*
X213360000Y-53340000D01*
X77470000Y-33020000D02*
X213360000Y-33020000D01*
X77470000Y-53340000D02*
X77470000Y-33020000D01*
X57150000Y-53340000D02*
X77470000Y-53340000D01*
X57150000Y-143510000D02*
X57150000Y-53340000D01*
X77470000Y-143510000D02*
X57150000Y-143510000D01*
X77470000Y-163830000D02*
X77470000Y-143510000D01*
D12*
X111760000Y-48260000D02*
X111760000Y-40640000D01*
X96520000Y-48260000D02*
X96520000Y-40640000D01*
X218440000Y-129540000D02*
X218440000Y-54610000D01*
X162560000Y-129540000D02*
X218440000Y-129540000D01*
X162560000Y-54610000D02*
X162560000Y-129540000D01*
X218440000Y-54610000D02*
X162560000Y-54610000D01*
X149860000Y-54610000D02*
X93980000Y-54610000D01*
X149860000Y-139700000D02*
X149860000Y-54610000D01*
X93980000Y-139700000D02*
X149860000Y-139700000D01*
X93980000Y-54610000D02*
X93980000Y-139700000D01*
D10*
X139700000Y-163830000D02*
X207010000Y-163830000D01*
X139700000Y-163830000D02*
X78740000Y-163830000D01*
D13*
X153670000Y-132080000D02*
X153670000Y-81280000D01*
X158750000Y-132080000D02*
X158750000Y-81280000D01*
X158750000Y-132080000D02*
X153670000Y-132080000D01*
X158750000Y-81280000D02*
X153670000Y-81280000D01*
D14*
X78740000Y-130835400D02*
X78740000Y-133375400D01*
X78740000Y-133375400D02*
X81534000Y-133375400D01*
X81534000Y-130835400D02*
X81534000Y-133375400D01*
X78740000Y-130835400D02*
X81534000Y-130835400D01*
X78740000Y-135839200D02*
X78740000Y-138379200D01*
X78740000Y-138379200D02*
X81534000Y-138379200D01*
X81534000Y-135839200D02*
X81534000Y-138379200D01*
X78740000Y-135839200D02*
X81534000Y-135839200D01*
D15*
X87503000Y-139700000D02*
X84455000Y-139700000D01*
X87503000Y-139700000D02*
X87503000Y-129540000D01*
X87503000Y-139700000D02*
X87503000Y-140208000D01*
X87503000Y-140208000D02*
X82677000Y-140208000D01*
X82677000Y-140208000D02*
X82931000Y-139700000D01*
X75819000Y-140208000D02*
X76073000Y-139700000D01*
X76073000Y-139700000D02*
X75057000Y-139700000D01*
X77470000Y-140208000D02*
X77216000Y-139700000D01*
X77216000Y-139700000D02*
X76073000Y-139700000D01*
X77470000Y-140208000D02*
X75819000Y-140208000D01*
X75057000Y-135077200D02*
X76962000Y-135077200D01*
X81534000Y-139141200D02*
X76962000Y-139141200D01*
X75057000Y-135077200D02*
X75057000Y-139141200D01*
X75057000Y-139141200D02*
X75057000Y-139700000D01*
X75057000Y-134137400D02*
X76962000Y-134137400D01*
X75057000Y-134137400D02*
X75057000Y-135077200D01*
X81534000Y-130073400D02*
X76962000Y-130073400D01*
X75057000Y-129540000D02*
X75057000Y-130073400D01*
X75057000Y-130073400D02*
X75057000Y-134137400D01*
X76962000Y-135077200D02*
X76962000Y-139141200D01*
X76962000Y-135077200D02*
X81534000Y-135077200D01*
X76962000Y-139141200D02*
X75057000Y-139141200D01*
X76962000Y-134137400D02*
X76962000Y-130073400D01*
X76962000Y-134137400D02*
X81534000Y-134137400D01*
X76962000Y-130073400D02*
X75057000Y-130073400D01*
X77597000Y-138760200D02*
X80772000Y-138760200D01*
X77597000Y-138760200D02*
X77597000Y-135458200D01*
X77597000Y-135458200D02*
X80772000Y-135458200D01*
X77597000Y-133756400D02*
X80772000Y-133756400D01*
X77597000Y-133756400D02*
X77597000Y-130454400D01*
X77597000Y-130454400D02*
X80772000Y-130454400D01*
X80772000Y-130454400D02*
X80772000Y-130835400D01*
X80772000Y-133756400D02*
X80772000Y-133375400D01*
X80772000Y-135458200D02*
X80772000Y-135839200D01*
X80772000Y-138760200D02*
X80772000Y-138379200D01*
X75057000Y-129540000D02*
X81915000Y-129540000D01*
X81915000Y-129540000D02*
X84455000Y-129540000D01*
X82931000Y-139700000D02*
X81915000Y-139700000D01*
X81915000Y-139700000D02*
X77216000Y-139700000D01*
X84455000Y-129540000D02*
X84455000Y-139700000D01*
X84455000Y-129540000D02*
X87503000Y-129540000D01*
X84455000Y-139700000D02*
X82931000Y-139700000D01*
X84709000Y-135077200D02*
X87249000Y-135077200D01*
X87249000Y-135077200D02*
X87249000Y-139141200D01*
X87249000Y-139141200D02*
X84709000Y-139141200D01*
X84709000Y-139141200D02*
X84709000Y-135077200D01*
X84709000Y-134137400D02*
X87249000Y-134137400D01*
X84709000Y-134137400D02*
X84709000Y-130073400D01*
X84709000Y-130073400D02*
X87249000Y-130073400D01*
X87249000Y-134137400D02*
X87249000Y-130073400D01*
X85725000Y-135483600D02*
X86360000Y-138531600D01*
X85598000Y-135610600D02*
X86233000Y-138658600D01*
X85725000Y-130479800D02*
X86360000Y-133530340D01*
X85598000Y-130606800D02*
X86233000Y-133654800D01*
X81534000Y-130073400D02*
X81534000Y-130454400D01*
X81534000Y-134137400D02*
X81534000Y-133756400D01*
X81534000Y-133756400D02*
X81534000Y-130454400D01*
X81915000Y-129540000D02*
X81915000Y-130454400D01*
X81915000Y-130454400D02*
X81915000Y-133756400D01*
X81915000Y-133756400D02*
X81915000Y-135458200D01*
X81915000Y-139700000D02*
X81915000Y-138760200D01*
X81915000Y-138760200D02*
X81915000Y-135458200D01*
X81534000Y-139141200D02*
X81534000Y-138760200D01*
X81534000Y-135077200D02*
X81534000Y-135458200D01*
X81534000Y-135458200D02*
X81534000Y-138760200D01*
X85365430Y-138577972D02*
G75*
G03X86332060Y-138630660I509430J452772D01*
G01*
X85445104Y-135635272D02*
G75*
G03X85397340Y-138623040I1905496J-1524728D01*
G01*
X86336844Y-138634411D02*
G75*
G03X86283800Y-135483600I-1348444J1553151D01*
G01*
X86333481Y-135534903D02*
G75*
G03X85407500Y-135676640I-407821J-431297D01*
G01*
X85362890Y-133574149D02*
G75*
G03X86332060Y-133629400I511970J452749D01*
G01*
X85445104Y-130634012D02*
G75*
G03X85397340Y-133621780I1905496J-1524728D01*
G01*
X86341847Y-133636573D02*
G75*
G03X86283800Y-130479800I-1353447J1554033D01*
G01*
X86331019Y-130530480D02*
G75*
G03X85407500Y-130675380I-405359J-431920D01*
G01*
D14*
X78740000Y-120675400D02*
X78740000Y-123215400D01*
X78740000Y-123215400D02*
X81534000Y-123215400D01*
X81534000Y-120675400D02*
X81534000Y-123215400D01*
X78740000Y-120675400D02*
X81534000Y-120675400D01*
X78740000Y-125679200D02*
X78740000Y-128219200D01*
X78740000Y-128219200D02*
X81534000Y-128219200D01*
X81534000Y-125679200D02*
X81534000Y-128219200D01*
X78740000Y-125679200D02*
X81534000Y-125679200D01*
D15*
X87503000Y-129540000D02*
X84455000Y-129540000D01*
X87503000Y-129540000D02*
X87503000Y-119380000D01*
X87503000Y-129540000D02*
X87503000Y-130048000D01*
X87503000Y-130048000D02*
X82677000Y-130048000D01*
X82677000Y-130048000D02*
X82931000Y-129540000D01*
X75819000Y-130048000D02*
X76073000Y-129540000D01*
X76073000Y-129540000D02*
X75057000Y-129540000D01*
X77470000Y-130048000D02*
X77216000Y-129540000D01*
X77216000Y-129540000D02*
X76073000Y-129540000D01*
X77470000Y-130048000D02*
X75819000Y-130048000D01*
X75057000Y-124917200D02*
X76962000Y-124917200D01*
X81534000Y-128981200D02*
X76962000Y-128981200D01*
X75057000Y-124917200D02*
X75057000Y-128981200D01*
X75057000Y-128981200D02*
X75057000Y-129540000D01*
X75057000Y-123977400D02*
X76962000Y-123977400D01*
X75057000Y-123977400D02*
X75057000Y-124917200D01*
X81534000Y-119913400D02*
X76962000Y-119913400D01*
X75057000Y-119380000D02*
X75057000Y-119913400D01*
X75057000Y-119913400D02*
X75057000Y-123977400D01*
X76962000Y-124917200D02*
X76962000Y-128981200D01*
X76962000Y-124917200D02*
X81534000Y-124917200D01*
X76962000Y-128981200D02*
X75057000Y-128981200D01*
X76962000Y-123977400D02*
X76962000Y-119913400D01*
X76962000Y-123977400D02*
X81534000Y-123977400D01*
X76962000Y-119913400D02*
X75057000Y-119913400D01*
X77597000Y-128600200D02*
X80772000Y-128600200D01*
X77597000Y-128600200D02*
X77597000Y-125298200D01*
X77597000Y-125298200D02*
X80772000Y-125298200D01*
X77597000Y-123596400D02*
X80772000Y-123596400D01*
X77597000Y-123596400D02*
X77597000Y-120294400D01*
X77597000Y-120294400D02*
X80772000Y-120294400D01*
X80772000Y-120294400D02*
X80772000Y-120675400D01*
X80772000Y-123596400D02*
X80772000Y-123215400D01*
X80772000Y-125298200D02*
X80772000Y-125679200D01*
X80772000Y-128600200D02*
X80772000Y-128219200D01*
X75057000Y-119380000D02*
X81915000Y-119380000D01*
X81915000Y-119380000D02*
X84455000Y-119380000D01*
X82931000Y-129540000D02*
X81915000Y-129540000D01*
X81915000Y-129540000D02*
X77216000Y-129540000D01*
X84455000Y-119380000D02*
X84455000Y-129540000D01*
X84455000Y-119380000D02*
X87503000Y-119380000D01*
X84455000Y-129540000D02*
X82931000Y-129540000D01*
X84709000Y-124917200D02*
X87249000Y-124917200D01*
X87249000Y-124917200D02*
X87249000Y-128981200D01*
X87249000Y-128981200D02*
X84709000Y-128981200D01*
X84709000Y-128981200D02*
X84709000Y-124917200D01*
X84709000Y-123977400D02*
X87249000Y-123977400D01*
X84709000Y-123977400D02*
X84709000Y-119913400D01*
X84709000Y-119913400D02*
X87249000Y-119913400D01*
X87249000Y-123977400D02*
X87249000Y-119913400D01*
X85725000Y-125323600D02*
X86360000Y-128371600D01*
X85598000Y-125450600D02*
X86233000Y-128498600D01*
X85725000Y-120319800D02*
X86360000Y-123370340D01*
X85598000Y-120446800D02*
X86233000Y-123494800D01*
X81534000Y-119913400D02*
X81534000Y-120294400D01*
X81534000Y-123977400D02*
X81534000Y-123596400D01*
X81534000Y-123596400D02*
X81534000Y-120294400D01*
X81915000Y-119380000D02*
X81915000Y-120294400D01*
X81915000Y-120294400D02*
X81915000Y-123596400D01*
X81915000Y-123596400D02*
X81915000Y-125298200D01*
X81915000Y-129540000D02*
X81915000Y-128600200D01*
X81915000Y-128600200D02*
X81915000Y-125298200D01*
X81534000Y-128981200D02*
X81534000Y-128600200D01*
X81534000Y-124917200D02*
X81534000Y-125298200D01*
X81534000Y-125298200D02*
X81534000Y-128600200D01*
X85365430Y-128417972D02*
G75*
G03X86332060Y-128470660I509430J452772D01*
G01*
X85445104Y-125475272D02*
G75*
G03X85397340Y-128463040I1905496J-1524728D01*
G01*
X86336844Y-128474411D02*
G75*
G03X86283800Y-125323600I-1348444J1553151D01*
G01*
X86333481Y-125374903D02*
G75*
G03X85407500Y-125516640I-407821J-431297D01*
G01*
X85362890Y-123414149D02*
G75*
G03X86332060Y-123469400I511970J452749D01*
G01*
X85445104Y-120474012D02*
G75*
G03X85397340Y-123461780I1905496J-1524728D01*
G01*
X86341847Y-123476573D02*
G75*
G03X86283800Y-120319800I-1353447J1554033D01*
G01*
X86331019Y-120370480D02*
G75*
G03X85407500Y-120515380I-405359J-431920D01*
G01*
D14*
X78740000Y-110515400D02*
X78740000Y-113055400D01*
X78740000Y-113055400D02*
X81534000Y-113055400D01*
X81534000Y-110515400D02*
X81534000Y-113055400D01*
X78740000Y-110515400D02*
X81534000Y-110515400D01*
X78740000Y-115519200D02*
X78740000Y-118059200D01*
X78740000Y-118059200D02*
X81534000Y-118059200D01*
X81534000Y-115519200D02*
X81534000Y-118059200D01*
X78740000Y-115519200D02*
X81534000Y-115519200D01*
D15*
X87503000Y-119380000D02*
X84455000Y-119380000D01*
X87503000Y-119380000D02*
X87503000Y-109220000D01*
X87503000Y-119380000D02*
X87503000Y-119888000D01*
X87503000Y-119888000D02*
X82677000Y-119888000D01*
X82677000Y-119888000D02*
X82931000Y-119380000D01*
X75819000Y-119888000D02*
X76073000Y-119380000D01*
X76073000Y-119380000D02*
X75057000Y-119380000D01*
X77470000Y-119888000D02*
X77216000Y-119380000D01*
X77216000Y-119380000D02*
X76073000Y-119380000D01*
X77470000Y-119888000D02*
X75819000Y-119888000D01*
X75057000Y-114757200D02*
X76962000Y-114757200D01*
X81534000Y-118821200D02*
X76962000Y-118821200D01*
X75057000Y-114757200D02*
X75057000Y-118821200D01*
X75057000Y-118821200D02*
X75057000Y-119380000D01*
X75057000Y-113817400D02*
X76962000Y-113817400D01*
X75057000Y-113817400D02*
X75057000Y-114757200D01*
X81534000Y-109753400D02*
X76962000Y-109753400D01*
X75057000Y-109220000D02*
X75057000Y-109753400D01*
X75057000Y-109753400D02*
X75057000Y-113817400D01*
X76962000Y-114757200D02*
X76962000Y-118821200D01*
X76962000Y-114757200D02*
X81534000Y-114757200D01*
X76962000Y-118821200D02*
X75057000Y-118821200D01*
X76962000Y-113817400D02*
X76962000Y-109753400D01*
X76962000Y-113817400D02*
X81534000Y-113817400D01*
X76962000Y-109753400D02*
X75057000Y-109753400D01*
X77597000Y-118440200D02*
X80772000Y-118440200D01*
X77597000Y-118440200D02*
X77597000Y-115138200D01*
X77597000Y-115138200D02*
X80772000Y-115138200D01*
X77597000Y-113436400D02*
X80772000Y-113436400D01*
X77597000Y-113436400D02*
X77597000Y-110134400D01*
X77597000Y-110134400D02*
X80772000Y-110134400D01*
X80772000Y-110134400D02*
X80772000Y-110515400D01*
X80772000Y-113436400D02*
X80772000Y-113055400D01*
X80772000Y-115138200D02*
X80772000Y-115519200D01*
X80772000Y-118440200D02*
X80772000Y-118059200D01*
X75057000Y-109220000D02*
X81915000Y-109220000D01*
X81915000Y-109220000D02*
X84455000Y-109220000D01*
X82931000Y-119380000D02*
X81915000Y-119380000D01*
X81915000Y-119380000D02*
X77216000Y-119380000D01*
X84455000Y-109220000D02*
X84455000Y-119380000D01*
X84455000Y-109220000D02*
X87503000Y-109220000D01*
X84455000Y-119380000D02*
X82931000Y-119380000D01*
X84709000Y-114757200D02*
X87249000Y-114757200D01*
X87249000Y-114757200D02*
X87249000Y-118821200D01*
X87249000Y-118821200D02*
X84709000Y-118821200D01*
X84709000Y-118821200D02*
X84709000Y-114757200D01*
X84709000Y-113817400D02*
X87249000Y-113817400D01*
X84709000Y-113817400D02*
X84709000Y-109753400D01*
X84709000Y-109753400D02*
X87249000Y-109753400D01*
X87249000Y-113817400D02*
X87249000Y-109753400D01*
X85725000Y-115163600D02*
X86360000Y-118211600D01*
X85598000Y-115290600D02*
X86233000Y-118338600D01*
X85725000Y-110159800D02*
X86360000Y-113210340D01*
X85598000Y-110286800D02*
X86233000Y-113334800D01*
X81534000Y-109753400D02*
X81534000Y-110134400D01*
X81534000Y-113817400D02*
X81534000Y-113436400D01*
X81534000Y-113436400D02*
X81534000Y-110134400D01*
X81915000Y-109220000D02*
X81915000Y-110134400D01*
X81915000Y-110134400D02*
X81915000Y-113436400D01*
X81915000Y-113436400D02*
X81915000Y-115138200D01*
X81915000Y-119380000D02*
X81915000Y-118440200D01*
X81915000Y-118440200D02*
X81915000Y-115138200D01*
X81534000Y-118821200D02*
X81534000Y-118440200D01*
X81534000Y-114757200D02*
X81534000Y-115138200D01*
X81534000Y-115138200D02*
X81534000Y-118440200D01*
X85365430Y-118257972D02*
G75*
G03X86332060Y-118310660I509430J452772D01*
G01*
X85445104Y-115315272D02*
G75*
G03X85397340Y-118303040I1905496J-1524728D01*
G01*
X86336844Y-118314411D02*
G75*
G03X86283800Y-115163600I-1348444J1553151D01*
G01*
X86333481Y-115214903D02*
G75*
G03X85407500Y-115356640I-407821J-431297D01*
G01*
X85362890Y-113254149D02*
G75*
G03X86332060Y-113309400I511970J452749D01*
G01*
X85445104Y-110314012D02*
G75*
G03X85397340Y-113301780I1905496J-1524728D01*
G01*
X86341847Y-113316573D02*
G75*
G03X86283800Y-110159800I-1353447J1554033D01*
G01*
X86331019Y-110210480D02*
G75*
G03X85407500Y-110355380I-405359J-431920D01*
G01*
D14*
X78740000Y-100355400D02*
X78740000Y-102895400D01*
X78740000Y-102895400D02*
X81534000Y-102895400D01*
X81534000Y-100355400D02*
X81534000Y-102895400D01*
X78740000Y-100355400D02*
X81534000Y-100355400D01*
X78740000Y-105359200D02*
X78740000Y-107899200D01*
X78740000Y-107899200D02*
X81534000Y-107899200D01*
X81534000Y-105359200D02*
X81534000Y-107899200D01*
X78740000Y-105359200D02*
X81534000Y-105359200D01*
D15*
X87503000Y-109220000D02*
X84455000Y-109220000D01*
X87503000Y-109220000D02*
X87503000Y-99060000D01*
X87503000Y-109220000D02*
X87503000Y-109728000D01*
X87503000Y-109728000D02*
X82677000Y-109728000D01*
X82677000Y-109728000D02*
X82931000Y-109220000D01*
X75819000Y-109728000D02*
X76073000Y-109220000D01*
X76073000Y-109220000D02*
X75057000Y-109220000D01*
X77470000Y-109728000D02*
X77216000Y-109220000D01*
X77216000Y-109220000D02*
X76073000Y-109220000D01*
X77470000Y-109728000D02*
X75819000Y-109728000D01*
X75057000Y-104597200D02*
X76962000Y-104597200D01*
X81534000Y-108661200D02*
X76962000Y-108661200D01*
X75057000Y-104597200D02*
X75057000Y-108661200D01*
X75057000Y-108661200D02*
X75057000Y-109220000D01*
X75057000Y-103657400D02*
X76962000Y-103657400D01*
X75057000Y-103657400D02*
X75057000Y-104597200D01*
X81534000Y-99593400D02*
X76962000Y-99593400D01*
X75057000Y-99060000D02*
X75057000Y-99593400D01*
X75057000Y-99593400D02*
X75057000Y-103657400D01*
X76962000Y-104597200D02*
X76962000Y-108661200D01*
X76962000Y-104597200D02*
X81534000Y-104597200D01*
X76962000Y-108661200D02*
X75057000Y-108661200D01*
X76962000Y-103657400D02*
X76962000Y-99593400D01*
X76962000Y-103657400D02*
X81534000Y-103657400D01*
X76962000Y-99593400D02*
X75057000Y-99593400D01*
X77597000Y-108280200D02*
X80772000Y-108280200D01*
X77597000Y-108280200D02*
X77597000Y-104978200D01*
X77597000Y-104978200D02*
X80772000Y-104978200D01*
X77597000Y-103276400D02*
X80772000Y-103276400D01*
X77597000Y-103276400D02*
X77597000Y-99974400D01*
X77597000Y-99974400D02*
X80772000Y-99974400D01*
X80772000Y-99974400D02*
X80772000Y-100355400D01*
X80772000Y-103276400D02*
X80772000Y-102895400D01*
X80772000Y-104978200D02*
X80772000Y-105359200D01*
X80772000Y-108280200D02*
X80772000Y-107899200D01*
X75057000Y-99060000D02*
X81915000Y-99060000D01*
X81915000Y-99060000D02*
X84455000Y-99060000D01*
X82931000Y-109220000D02*
X81915000Y-109220000D01*
X81915000Y-109220000D02*
X77216000Y-109220000D01*
X84455000Y-99060000D02*
X84455000Y-109220000D01*
X84455000Y-99060000D02*
X87503000Y-99060000D01*
X84455000Y-109220000D02*
X82931000Y-109220000D01*
X84709000Y-104597200D02*
X87249000Y-104597200D01*
X87249000Y-104597200D02*
X87249000Y-108661200D01*
X87249000Y-108661200D02*
X84709000Y-108661200D01*
X84709000Y-108661200D02*
X84709000Y-104597200D01*
X84709000Y-103657400D02*
X87249000Y-103657400D01*
X84709000Y-103657400D02*
X84709000Y-99593400D01*
X84709000Y-99593400D02*
X87249000Y-99593400D01*
X87249000Y-103657400D02*
X87249000Y-99593400D01*
X85725000Y-105003600D02*
X86360000Y-108051600D01*
X85598000Y-105130600D02*
X86233000Y-108178600D01*
X85725000Y-99999800D02*
X86360000Y-103050340D01*
X85598000Y-100126800D02*
X86233000Y-103174800D01*
X81534000Y-99593400D02*
X81534000Y-99974400D01*
X81534000Y-103657400D02*
X81534000Y-103276400D01*
X81534000Y-103276400D02*
X81534000Y-99974400D01*
X81915000Y-99060000D02*
X81915000Y-99974400D01*
X81915000Y-99974400D02*
X81915000Y-103276400D01*
X81915000Y-103276400D02*
X81915000Y-104978200D01*
X81915000Y-109220000D02*
X81915000Y-108280200D01*
X81915000Y-108280200D02*
X81915000Y-104978200D01*
X81534000Y-108661200D02*
X81534000Y-108280200D01*
X81534000Y-104597200D02*
X81534000Y-104978200D01*
X81534000Y-104978200D02*
X81534000Y-108280200D01*
X85365430Y-108097972D02*
G75*
G03X86332060Y-108150660I509430J452772D01*
G01*
X85445104Y-105155272D02*
G75*
G03X85397340Y-108143040I1905496J-1524728D01*
G01*
X86336844Y-108154411D02*
G75*
G03X86283800Y-105003600I-1348444J1553151D01*
G01*
X86333481Y-105054903D02*
G75*
G03X85407500Y-105196640I-407821J-431297D01*
G01*
X85362890Y-103094149D02*
G75*
G03X86332060Y-103149400I511970J452749D01*
G01*
X85445104Y-100154012D02*
G75*
G03X85397340Y-103141780I1905496J-1524728D01*
G01*
X86341847Y-103156573D02*
G75*
G03X86283800Y-99999800I-1353447J1554033D01*
G01*
X86331019Y-100050480D02*
G75*
G03X85407500Y-100195380I-405359J-431920D01*
G01*
D13*
X93980000Y-149860000D02*
X127000000Y-149860000D01*
X127000000Y-149860000D02*
X127000000Y-152400000D01*
X127000000Y-152400000D02*
X93980000Y-152400000D01*
X93980000Y-152400000D02*
X93980000Y-149860000D01*
X96520000Y-149860000D02*
X96520000Y-152400000D01*
D16*
X100076000Y-135890000D02*
G75*
G03X100076000Y-135890000I-2286000J0D01*
G01*
X148336000Y-135890000D02*
G75*
G03X148336000Y-135890000I-2286000J0D01*
G01*
X100076000Y-77470000D02*
G75*
G03X100076000Y-77470000I-2286000J0D01*
G01*
X148336000Y-77470000D02*
G75*
G03X148336000Y-77470000I-2286000J0D01*
G01*
X168656000Y-58420000D02*
G75*
G03X168656000Y-58420000I-2286000J0D01*
G01*
X216916000Y-58420000D02*
G75*
G03X216916000Y-58420000I-2286000J0D01*
G01*
X168656000Y-125730000D02*
G75*
G03X168656000Y-125730000I-2286000J0D01*
G01*
X216916000Y-125730000D02*
G75*
G03X216916000Y-125730000I-2286000J0D01*
G01*
D14*
X78740000Y-80035400D02*
X78740000Y-82575400D01*
X78740000Y-82575400D02*
X81534000Y-82575400D01*
X81534000Y-80035400D02*
X81534000Y-82575400D01*
X78740000Y-80035400D02*
X81534000Y-80035400D01*
X78740000Y-85039200D02*
X78740000Y-87579200D01*
X78740000Y-87579200D02*
X81534000Y-87579200D01*
X81534000Y-85039200D02*
X81534000Y-87579200D01*
X78740000Y-85039200D02*
X81534000Y-85039200D01*
D15*
X87503000Y-88900000D02*
X84455000Y-88900000D01*
X87503000Y-88900000D02*
X87503000Y-78740000D01*
X87503000Y-88900000D02*
X87503000Y-89408000D01*
X87503000Y-89408000D02*
X82677000Y-89408000D01*
X82677000Y-89408000D02*
X82931000Y-88900000D01*
X75819000Y-89408000D02*
X76073000Y-88900000D01*
X76073000Y-88900000D02*
X75057000Y-88900000D01*
X77470000Y-89408000D02*
X77216000Y-88900000D01*
X77216000Y-88900000D02*
X76073000Y-88900000D01*
X77470000Y-89408000D02*
X75819000Y-89408000D01*
X75057000Y-84277200D02*
X76962000Y-84277200D01*
X81534000Y-88341200D02*
X76962000Y-88341200D01*
X75057000Y-84277200D02*
X75057000Y-88341200D01*
X75057000Y-88341200D02*
X75057000Y-88900000D01*
X75057000Y-83337400D02*
X76962000Y-83337400D01*
X75057000Y-83337400D02*
X75057000Y-84277200D01*
X81534000Y-79273400D02*
X76962000Y-79273400D01*
X75057000Y-78740000D02*
X75057000Y-79273400D01*
X75057000Y-79273400D02*
X75057000Y-83337400D01*
X76962000Y-84277200D02*
X76962000Y-88341200D01*
X76962000Y-84277200D02*
X81534000Y-84277200D01*
X76962000Y-88341200D02*
X75057000Y-88341200D01*
X76962000Y-83337400D02*
X76962000Y-79273400D01*
X76962000Y-83337400D02*
X81534000Y-83337400D01*
X76962000Y-79273400D02*
X75057000Y-79273400D01*
X77597000Y-87960200D02*
X80772000Y-87960200D01*
X77597000Y-87960200D02*
X77597000Y-84658200D01*
X77597000Y-84658200D02*
X80772000Y-84658200D01*
X77597000Y-82956400D02*
X80772000Y-82956400D01*
X77597000Y-82956400D02*
X77597000Y-79654400D01*
X77597000Y-79654400D02*
X80772000Y-79654400D01*
X80772000Y-79654400D02*
X80772000Y-80035400D01*
X80772000Y-82956400D02*
X80772000Y-82575400D01*
X80772000Y-84658200D02*
X80772000Y-85039200D01*
X80772000Y-87960200D02*
X80772000Y-87579200D01*
X75057000Y-78740000D02*
X81915000Y-78740000D01*
X81915000Y-78740000D02*
X84455000Y-78740000D01*
X82931000Y-88900000D02*
X81915000Y-88900000D01*
X81915000Y-88900000D02*
X77216000Y-88900000D01*
X84455000Y-78740000D02*
X84455000Y-88900000D01*
X84455000Y-78740000D02*
X87503000Y-78740000D01*
X84455000Y-88900000D02*
X82931000Y-88900000D01*
X84709000Y-84277200D02*
X87249000Y-84277200D01*
X87249000Y-84277200D02*
X87249000Y-88341200D01*
X87249000Y-88341200D02*
X84709000Y-88341200D01*
X84709000Y-88341200D02*
X84709000Y-84277200D01*
X84709000Y-83337400D02*
X87249000Y-83337400D01*
X84709000Y-83337400D02*
X84709000Y-79273400D01*
X84709000Y-79273400D02*
X87249000Y-79273400D01*
X87249000Y-83337400D02*
X87249000Y-79273400D01*
X85725000Y-84683600D02*
X86360000Y-87731600D01*
X85598000Y-84810600D02*
X86233000Y-87858600D01*
X85725000Y-79679800D02*
X86360000Y-82730340D01*
X85598000Y-79806800D02*
X86233000Y-82854800D01*
X81534000Y-79273400D02*
X81534000Y-79654400D01*
X81534000Y-83337400D02*
X81534000Y-82956400D01*
X81534000Y-82956400D02*
X81534000Y-79654400D01*
X81915000Y-78740000D02*
X81915000Y-79654400D01*
X81915000Y-79654400D02*
X81915000Y-82956400D01*
X81915000Y-82956400D02*
X81915000Y-84658200D01*
X81915000Y-88900000D02*
X81915000Y-87960200D01*
X81915000Y-87960200D02*
X81915000Y-84658200D01*
X81534000Y-88341200D02*
X81534000Y-87960200D01*
X81534000Y-84277200D02*
X81534000Y-84658200D01*
X81534000Y-84658200D02*
X81534000Y-87960200D01*
X85365430Y-87777972D02*
G75*
G03X86332060Y-87830660I509430J452772D01*
G01*
X85445104Y-84835272D02*
G75*
G03X85397340Y-87823040I1905496J-1524728D01*
G01*
X86336844Y-87834411D02*
G75*
G03X86283800Y-84683600I-1348444J1553151D01*
G01*
X86333481Y-84734903D02*
G75*
G03X85407500Y-84876640I-407821J-431297D01*
G01*
X85362890Y-82774149D02*
G75*
G03X86332060Y-82829400I511970J452749D01*
G01*
X85445104Y-79834012D02*
G75*
G03X85397340Y-82821780I1905496J-1524728D01*
G01*
X86341847Y-82836573D02*
G75*
G03X86283800Y-79679800I-1353447J1554033D01*
G01*
X86331019Y-79730480D02*
G75*
G03X85407500Y-79875380I-405359J-431920D01*
G01*
D14*
X78740000Y-90195400D02*
X78740000Y-92735400D01*
X78740000Y-92735400D02*
X81534000Y-92735400D01*
X81534000Y-90195400D02*
X81534000Y-92735400D01*
X78740000Y-90195400D02*
X81534000Y-90195400D01*
X78740000Y-95199200D02*
X78740000Y-97739200D01*
X78740000Y-97739200D02*
X81534000Y-97739200D01*
X81534000Y-95199200D02*
X81534000Y-97739200D01*
X78740000Y-95199200D02*
X81534000Y-95199200D01*
D15*
X87503000Y-99060000D02*
X84455000Y-99060000D01*
X87503000Y-99060000D02*
X87503000Y-88900000D01*
X87503000Y-99060000D02*
X87503000Y-99568000D01*
X87503000Y-99568000D02*
X82677000Y-99568000D01*
X82677000Y-99568000D02*
X82931000Y-99060000D01*
X75819000Y-99568000D02*
X76073000Y-99060000D01*
X76073000Y-99060000D02*
X75057000Y-99060000D01*
X77470000Y-99568000D02*
X77216000Y-99060000D01*
X77216000Y-99060000D02*
X76073000Y-99060000D01*
X77470000Y-99568000D02*
X75819000Y-99568000D01*
X75057000Y-94437200D02*
X76962000Y-94437200D01*
X81534000Y-98501200D02*
X76962000Y-98501200D01*
X75057000Y-94437200D02*
X75057000Y-98501200D01*
X75057000Y-98501200D02*
X75057000Y-99060000D01*
X75057000Y-93497400D02*
X76962000Y-93497400D01*
X75057000Y-93497400D02*
X75057000Y-94437200D01*
X81534000Y-89433400D02*
X76962000Y-89433400D01*
X75057000Y-88900000D02*
X75057000Y-89433400D01*
X75057000Y-89433400D02*
X75057000Y-93497400D01*
X76962000Y-94437200D02*
X76962000Y-98501200D01*
X76962000Y-94437200D02*
X81534000Y-94437200D01*
X76962000Y-98501200D02*
X75057000Y-98501200D01*
X76962000Y-93497400D02*
X76962000Y-89433400D01*
X76962000Y-93497400D02*
X81534000Y-93497400D01*
X76962000Y-89433400D02*
X75057000Y-89433400D01*
X77597000Y-98120200D02*
X80772000Y-98120200D01*
X77597000Y-98120200D02*
X77597000Y-94818200D01*
X77597000Y-94818200D02*
X80772000Y-94818200D01*
X77597000Y-93116400D02*
X80772000Y-93116400D01*
X77597000Y-93116400D02*
X77597000Y-89814400D01*
X77597000Y-89814400D02*
X80772000Y-89814400D01*
X80772000Y-89814400D02*
X80772000Y-90195400D01*
X80772000Y-93116400D02*
X80772000Y-92735400D01*
X80772000Y-94818200D02*
X80772000Y-95199200D01*
X80772000Y-98120200D02*
X80772000Y-97739200D01*
X75057000Y-88900000D02*
X81915000Y-88900000D01*
X81915000Y-88900000D02*
X84455000Y-88900000D01*
X82931000Y-99060000D02*
X81915000Y-99060000D01*
X81915000Y-99060000D02*
X77216000Y-99060000D01*
X84455000Y-88900000D02*
X84455000Y-99060000D01*
X84455000Y-88900000D02*
X87503000Y-88900000D01*
X84455000Y-99060000D02*
X82931000Y-99060000D01*
X84709000Y-94437200D02*
X87249000Y-94437200D01*
X87249000Y-94437200D02*
X87249000Y-98501200D01*
X87249000Y-98501200D02*
X84709000Y-98501200D01*
X84709000Y-98501200D02*
X84709000Y-94437200D01*
X84709000Y-93497400D02*
X87249000Y-93497400D01*
X84709000Y-93497400D02*
X84709000Y-89433400D01*
X84709000Y-89433400D02*
X87249000Y-89433400D01*
X87249000Y-93497400D02*
X87249000Y-89433400D01*
X85725000Y-94843600D02*
X86360000Y-97891600D01*
X85598000Y-94970600D02*
X86233000Y-98018600D01*
X85725000Y-89839800D02*
X86360000Y-92890340D01*
X85598000Y-89966800D02*
X86233000Y-93014800D01*
X81534000Y-89433400D02*
X81534000Y-89814400D01*
X81534000Y-93497400D02*
X81534000Y-93116400D01*
X81534000Y-93116400D02*
X81534000Y-89814400D01*
X81915000Y-88900000D02*
X81915000Y-89814400D01*
X81915000Y-89814400D02*
X81915000Y-93116400D01*
X81915000Y-93116400D02*
X81915000Y-94818200D01*
X81915000Y-99060000D02*
X81915000Y-98120200D01*
X81915000Y-98120200D02*
X81915000Y-94818200D01*
X81534000Y-98501200D02*
X81534000Y-98120200D01*
X81534000Y-94437200D02*
X81534000Y-94818200D01*
X81534000Y-94818200D02*
X81534000Y-98120200D01*
X85365430Y-97937972D02*
G75*
G03X86332060Y-97990660I509430J452772D01*
G01*
X85445104Y-94995272D02*
G75*
G03X85397340Y-97983040I1905496J-1524728D01*
G01*
X86336844Y-97994411D02*
G75*
G03X86283800Y-94843600I-1348444J1553151D01*
G01*
X86333481Y-94894903D02*
G75*
G03X85407500Y-95036640I-407821J-431297D01*
G01*
X85362890Y-92934149D02*
G75*
G03X86332060Y-92989400I511970J452749D01*
G01*
X85445104Y-89994012D02*
G75*
G03X85397340Y-92981780I1905496J-1524728D01*
G01*
X86341847Y-92996573D02*
G75*
G03X86283800Y-89839800I-1353447J1554033D01*
G01*
X86331019Y-89890480D02*
G75*
G03X85407500Y-90035380I-405359J-431920D01*
G01*
D13*
X135890000Y-52070000D02*
X135890000Y-52070000D01*
X138430000Y-52070000D02*
X135890000Y-52070000D01*
X135890000Y-52070000D02*
X135890000Y-52070000D01*
X135890000Y-52070000D02*
X135890000Y-41910000D01*
X135890000Y-41910000D02*
X138430000Y-41910000D01*
X138430000Y-41910000D02*
X138430000Y-52070000D01*
X138430000Y-49530000D02*
X135890000Y-49530000D01*
X148590000Y-52070000D02*
X148590000Y-52070000D01*
X151130000Y-52070000D02*
X148590000Y-52070000D01*
X148590000Y-52070000D02*
X148590000Y-52070000D01*
X148590000Y-52070000D02*
X148590000Y-41910000D01*
X148590000Y-41910000D02*
X151130000Y-41910000D01*
X151130000Y-41910000D02*
X151130000Y-52070000D01*
X151130000Y-49530000D02*
X148590000Y-49530000D01*
X96520000Y-40640000D02*
X96520000Y-38100000D01*
X96520000Y-38100000D02*
X111760000Y-38100000D01*
X111760000Y-38100000D02*
X111760000Y-40640000D01*
X111760000Y-40640000D02*
X96520000Y-40640000D01*
X99060000Y-40640000D02*
X99060000Y-38100000D01*
X96520000Y-50800000D02*
X96520000Y-48260000D01*
X96520000Y-48260000D02*
X111760000Y-48260000D01*
X111760000Y-48260000D02*
X111760000Y-50800000D01*
X111760000Y-50800000D02*
X96520000Y-50800000D01*
X99060000Y-50800000D02*
X99060000Y-48260000D01*
D16*
X70866000Y-97790000D02*
G75*
G03X70866000Y-97790000I-2286000J0D01*
G01*
X173736000Y-39370000D02*
G75*
G03X173736000Y-39370000I-2286000J0D01*
G01*
X225806000Y-96520000D02*
G75*
G03X225806000Y-96520000I-2286000J0D01*
G01*
X121666000Y-157480000D02*
G75*
G03X121666000Y-157480000I-2286000J0D01*
G01*
X173736000Y-157480000D02*
G75*
G03X173736000Y-157480000I-2286000J0D01*
G01*
D13*
X81280000Y-146050000D02*
X91440000Y-146050000D01*
X81280000Y-144780000D02*
X81280000Y-152400000D01*
X81280000Y-152400000D02*
X91440000Y-152400000D01*
X91440000Y-152400000D02*
X91440000Y-144780000D01*
X91440000Y-144780000D02*
X81280000Y-144780000D01*
X116840000Y-146050000D02*
X116840000Y-146050000D01*
X116840000Y-148590000D02*
X116840000Y-146050000D01*
X116840000Y-146050000D02*
X116840000Y-146050000D01*
X116840000Y-146050000D02*
X127000000Y-146050000D01*
X127000000Y-146050000D02*
X127000000Y-148590000D01*
X127000000Y-148590000D02*
X116840000Y-148590000D01*
X119380000Y-148590000D02*
X119380000Y-146050000D01*
X170180000Y-152400000D02*
X170180000Y-149860000D01*
X170180000Y-149860000D02*
X177800000Y-149860000D01*
X177800000Y-149860000D02*
X177800000Y-152400000D01*
X177800000Y-152400000D02*
X170180000Y-152400000D01*
X172720000Y-149860000D02*
X172720000Y-152400000D01*
D17*
X155871333Y-78183619D02*
X155871333Y-78909333D01*
X155822953Y-79054476D01*
X155726191Y-79151238D01*
X155581048Y-79199619D01*
X155484286Y-79199619D01*
X156306762Y-78280381D02*
X156355143Y-78232000D01*
X156451905Y-78183619D01*
X156693809Y-78183619D01*
X156790571Y-78232000D01*
X156838952Y-78280381D01*
X156887333Y-78377143D01*
X156887333Y-78473905D01*
X156838952Y-78619048D01*
X156258381Y-79199619D01*
X156887333Y-79199619D01*
D18*
X80687333Y-75226333D02*
X80687333Y-76496333D01*
X80602667Y-76750333D01*
X80433333Y-76919667D01*
X80179333Y-77004333D01*
X80010000Y-77004333D01*
X82465334Y-77004333D02*
X81449334Y-77004333D01*
X81957334Y-77004333D02*
X81957334Y-75226333D01*
X81788000Y-75480333D01*
X81618667Y-75649667D01*
X81449334Y-75734333D01*
M02*
