G04 #@! TF.FileFunction,Copper,L2,Bot,Signal*
%FSLAX46Y46*%
G04 Gerber Fmt 4.6, Leading zero omitted, Abs format (unit mm)*
G04 Created by KiCad (PCBNEW 4.0.5+dfsg1-4+deb9u1) date Tue Sep 27 18:48:32 2022*
%MOMM*%
%LPD*%
G01*
G04 APERTURE LIST*
%ADD10C,0.100000*%
%ADD11C,0.300000*%
%ADD12C,1.778000*%
%ADD13C,1.676400*%
%ADD14R,1.397000X1.397000*%
%ADD15C,1.397000*%
%ADD16C,1.000000*%
G04 APERTURE END LIST*
D10*
D11*
X205839998Y-102215000D02*
X205911426Y-102143571D01*
X206054283Y-101929286D01*
X206125712Y-101786429D01*
X206197141Y-101572143D01*
X206268569Y-101215000D01*
X206268569Y-100929286D01*
X206197141Y-100572143D01*
X206125712Y-100357857D01*
X206054283Y-100215000D01*
X205911426Y-100000714D01*
X205839998Y-99929286D01*
X204411426Y-101500714D02*
X204482855Y-101572143D01*
X204697141Y-101643571D01*
X204839998Y-101643571D01*
X205054283Y-101572143D01*
X205197141Y-101429286D01*
X205268569Y-101286429D01*
X205339998Y-101000714D01*
X205339998Y-100786429D01*
X205268569Y-100500714D01*
X205197141Y-100357857D01*
X205054283Y-100215000D01*
X204839998Y-100143571D01*
X204697141Y-100143571D01*
X204482855Y-100215000D01*
X204411426Y-100286429D01*
X203911426Y-102215000D02*
X203839998Y-102143571D01*
X203697141Y-101929286D01*
X203625712Y-101786429D01*
X203554283Y-101572143D01*
X203482855Y-101215000D01*
X203482855Y-100929286D01*
X203554283Y-100572143D01*
X203625712Y-100357857D01*
X203697141Y-100215000D01*
X203839998Y-100000714D01*
X203911426Y-99929286D01*
X201697141Y-100286429D02*
X201625712Y-100215000D01*
X201482855Y-100143571D01*
X201125712Y-100143571D01*
X200982855Y-100215000D01*
X200911426Y-100286429D01*
X200839998Y-100429286D01*
X200839998Y-100572143D01*
X200911426Y-100786429D01*
X201768569Y-101643571D01*
X200839998Y-101643571D01*
X199911427Y-100143571D02*
X199768570Y-100143571D01*
X199625713Y-100215000D01*
X199554284Y-100286429D01*
X199482855Y-100429286D01*
X199411427Y-100715000D01*
X199411427Y-101072143D01*
X199482855Y-101357857D01*
X199554284Y-101500714D01*
X199625713Y-101572143D01*
X199768570Y-101643571D01*
X199911427Y-101643571D01*
X200054284Y-101572143D01*
X200125713Y-101500714D01*
X200197141Y-101357857D01*
X200268570Y-101072143D01*
X200268570Y-100715000D01*
X200197141Y-100429286D01*
X200125713Y-100286429D01*
X200054284Y-100215000D01*
X199911427Y-100143571D01*
X197982856Y-101643571D02*
X198839999Y-101643571D01*
X198411427Y-101643571D02*
X198411427Y-100143571D01*
X198554284Y-100357857D01*
X198697142Y-100500714D01*
X198839999Y-100572143D01*
X197125713Y-100786429D02*
X197268571Y-100715000D01*
X197339999Y-100643571D01*
X197411428Y-100500714D01*
X197411428Y-100429286D01*
X197339999Y-100286429D01*
X197268571Y-100215000D01*
X197125713Y-100143571D01*
X196839999Y-100143571D01*
X196697142Y-100215000D01*
X196625713Y-100286429D01*
X196554285Y-100429286D01*
X196554285Y-100500714D01*
X196625713Y-100643571D01*
X196697142Y-100715000D01*
X196839999Y-100786429D01*
X197125713Y-100786429D01*
X197268571Y-100857857D01*
X197339999Y-100929286D01*
X197411428Y-101072143D01*
X197411428Y-101357857D01*
X197339999Y-101500714D01*
X197268571Y-101572143D01*
X197125713Y-101643571D01*
X196839999Y-101643571D01*
X196697142Y-101572143D01*
X196625713Y-101500714D01*
X196554285Y-101357857D01*
X196554285Y-101072143D01*
X196625713Y-100929286D01*
X196697142Y-100857857D01*
X196839999Y-100786429D01*
X195911428Y-101072143D02*
X194768571Y-101072143D01*
X194125714Y-100286429D02*
X194054285Y-100215000D01*
X193911428Y-100143571D01*
X193554285Y-100143571D01*
X193411428Y-100215000D01*
X193339999Y-100286429D01*
X193268571Y-100429286D01*
X193268571Y-100572143D01*
X193339999Y-100786429D01*
X194197142Y-101643571D01*
X193268571Y-101643571D01*
X192340000Y-100143571D02*
X192197143Y-100143571D01*
X192054286Y-100215000D01*
X191982857Y-100286429D01*
X191911428Y-100429286D01*
X191840000Y-100715000D01*
X191840000Y-101072143D01*
X191911428Y-101357857D01*
X191982857Y-101500714D01*
X192054286Y-101572143D01*
X192197143Y-101643571D01*
X192340000Y-101643571D01*
X192482857Y-101572143D01*
X192554286Y-101500714D01*
X192625714Y-101357857D01*
X192697143Y-101072143D01*
X192697143Y-100715000D01*
X192625714Y-100429286D01*
X192554286Y-100286429D01*
X192482857Y-100215000D01*
X192340000Y-100143571D01*
X190411429Y-101643571D02*
X191268572Y-101643571D01*
X190840000Y-101643571D02*
X190840000Y-100143571D01*
X190982857Y-100357857D01*
X191125715Y-100500714D01*
X191268572Y-100572143D01*
X189697144Y-101643571D02*
X189411429Y-101643571D01*
X189268572Y-101572143D01*
X189197144Y-101500714D01*
X189054286Y-101286429D01*
X188982858Y-101000714D01*
X188982858Y-100429286D01*
X189054286Y-100286429D01*
X189125715Y-100215000D01*
X189268572Y-100143571D01*
X189554286Y-100143571D01*
X189697144Y-100215000D01*
X189768572Y-100286429D01*
X189840001Y-100429286D01*
X189840001Y-100786429D01*
X189768572Y-100929286D01*
X189697144Y-101000714D01*
X189554286Y-101072143D01*
X189268572Y-101072143D01*
X189125715Y-101000714D01*
X189054286Y-100929286D01*
X188982858Y-100786429D01*
X187197144Y-101643571D02*
X187197144Y-100143571D01*
X186625716Y-100143571D01*
X186482858Y-100215000D01*
X186411430Y-100286429D01*
X186340001Y-100429286D01*
X186340001Y-100643571D01*
X186411430Y-100786429D01*
X186482858Y-100857857D01*
X186625716Y-100929286D01*
X187197144Y-100929286D01*
X185482858Y-101643571D02*
X185625716Y-101572143D01*
X185697144Y-101500714D01*
X185768573Y-101357857D01*
X185768573Y-100929286D01*
X185697144Y-100786429D01*
X185625716Y-100715000D01*
X185482858Y-100643571D01*
X185268573Y-100643571D01*
X185125716Y-100715000D01*
X185054287Y-100786429D01*
X184982858Y-100929286D01*
X184982858Y-101357857D01*
X185054287Y-101500714D01*
X185125716Y-101572143D01*
X185268573Y-101643571D01*
X185482858Y-101643571D01*
X184482858Y-100643571D02*
X183697144Y-100643571D01*
X184482858Y-101643571D01*
X183697144Y-101643571D01*
X183197144Y-101572143D02*
X183054287Y-101643571D01*
X182768572Y-101643571D01*
X182625715Y-101572143D01*
X182554287Y-101429286D01*
X182554287Y-101357857D01*
X182625715Y-101215000D01*
X182768572Y-101143571D01*
X182982858Y-101143571D01*
X183125715Y-101072143D01*
X183197144Y-100929286D01*
X183197144Y-100857857D01*
X183125715Y-100715000D01*
X182982858Y-100643571D01*
X182768572Y-100643571D01*
X182625715Y-100715000D01*
X181268572Y-101643571D02*
X181268572Y-100857857D01*
X181340001Y-100715000D01*
X181482858Y-100643571D01*
X181768572Y-100643571D01*
X181911429Y-100715000D01*
X181268572Y-101572143D02*
X181411429Y-101643571D01*
X181768572Y-101643571D01*
X181911429Y-101572143D01*
X181982858Y-101429286D01*
X181982858Y-101286429D01*
X181911429Y-101143571D01*
X181768572Y-101072143D01*
X181411429Y-101072143D01*
X181268572Y-101000714D01*
X181482858Y-100072143D02*
X181697143Y-100286429D01*
X180554286Y-101643571D02*
X180554286Y-100643571D01*
X180554286Y-100929286D02*
X180482858Y-100786429D01*
X180411429Y-100715000D01*
X180268572Y-100643571D01*
X180125715Y-100643571D01*
X178625715Y-100143571D02*
X177625715Y-100143571D01*
X178625715Y-101643571D01*
X177625715Y-101643571D01*
X177125716Y-101572143D02*
X176982859Y-101643571D01*
X176697144Y-101643571D01*
X176554287Y-101572143D01*
X176482859Y-101429286D01*
X176482859Y-101357857D01*
X176554287Y-101215000D01*
X176697144Y-101143571D01*
X176911430Y-101143571D01*
X177054287Y-101072143D01*
X177125716Y-100929286D01*
X177125716Y-100857857D01*
X177054287Y-100715000D01*
X176911430Y-100643571D01*
X176697144Y-100643571D01*
X176554287Y-100715000D01*
X175625715Y-101643571D02*
X175768573Y-101572143D01*
X175840001Y-101500714D01*
X175911430Y-101357857D01*
X175911430Y-100929286D01*
X175840001Y-100786429D01*
X175768573Y-100715000D01*
X175625715Y-100643571D01*
X175411430Y-100643571D01*
X175268573Y-100715000D01*
X175197144Y-100786429D01*
X175125715Y-100929286D01*
X175125715Y-101357857D01*
X175197144Y-101500714D01*
X175268573Y-101572143D01*
X175411430Y-101643571D01*
X175625715Y-101643571D01*
X174268572Y-101643571D02*
X174411430Y-101572143D01*
X174482858Y-101429286D01*
X174482858Y-100143571D01*
X173911430Y-100643571D02*
X173340001Y-100643571D01*
X173697144Y-100143571D02*
X173697144Y-101429286D01*
X173625716Y-101572143D01*
X173482858Y-101643571D01*
X173340001Y-101643571D01*
X170840001Y-101500714D02*
X170911430Y-101572143D01*
X171125716Y-101643571D01*
X171268573Y-101643571D01*
X171482858Y-101572143D01*
X171625716Y-101429286D01*
X171697144Y-101286429D01*
X171768573Y-101000714D01*
X171768573Y-100786429D01*
X171697144Y-100500714D01*
X171625716Y-100357857D01*
X171482858Y-100215000D01*
X171268573Y-100143571D01*
X171125716Y-100143571D01*
X170911430Y-100215000D01*
X170840001Y-100286429D01*
X169340001Y-101500714D02*
X169411430Y-101572143D01*
X169625716Y-101643571D01*
X169768573Y-101643571D01*
X169982858Y-101572143D01*
X170125716Y-101429286D01*
X170197144Y-101286429D01*
X170268573Y-101000714D01*
X170268573Y-100786429D01*
X170197144Y-100500714D01*
X170125716Y-100357857D01*
X169982858Y-100215000D01*
X169768573Y-100143571D01*
X169625716Y-100143571D01*
X169411430Y-100215000D01*
X169340001Y-100286429D01*
X168697144Y-101072143D02*
X167554287Y-101072143D01*
X166340001Y-100857857D02*
X166125715Y-100929286D01*
X166054287Y-101000714D01*
X165982858Y-101143571D01*
X165982858Y-101357857D01*
X166054287Y-101500714D01*
X166125715Y-101572143D01*
X166268573Y-101643571D01*
X166840001Y-101643571D01*
X166840001Y-100143571D01*
X166340001Y-100143571D01*
X166197144Y-100215000D01*
X166125715Y-100286429D01*
X166054287Y-100429286D01*
X166054287Y-100572143D01*
X166125715Y-100715000D01*
X166197144Y-100786429D01*
X166340001Y-100857857D01*
X166840001Y-100857857D01*
X165054287Y-100929286D02*
X165054287Y-101643571D01*
X165554287Y-100143571D02*
X165054287Y-100929286D01*
X164554287Y-100143571D01*
X164054287Y-101072143D02*
X162911430Y-101072143D01*
X162197144Y-101643571D02*
X162197144Y-100143571D01*
X161340001Y-101643571D01*
X161340001Y-100143571D01*
X159768572Y-101500714D02*
X159840001Y-101572143D01*
X160054287Y-101643571D01*
X160197144Y-101643571D01*
X160411429Y-101572143D01*
X160554287Y-101429286D01*
X160625715Y-101286429D01*
X160697144Y-101000714D01*
X160697144Y-100786429D01*
X160625715Y-100500714D01*
X160554287Y-100357857D01*
X160411429Y-100215000D01*
X160197144Y-100143571D01*
X160054287Y-100143571D01*
X159840001Y-100215000D01*
X159768572Y-100286429D01*
X159125715Y-101072143D02*
X157982858Y-101072143D01*
X156625715Y-100643571D02*
X156625715Y-101643571D01*
X156982858Y-100072143D02*
X157340001Y-101143571D01*
X156411429Y-101143571D01*
X155840001Y-101500714D02*
X155768573Y-101572143D01*
X155840001Y-101643571D01*
X155911430Y-101572143D01*
X155840001Y-101500714D01*
X155840001Y-101643571D01*
X154840001Y-100143571D02*
X154697144Y-100143571D01*
X154554287Y-100215000D01*
X154482858Y-100286429D01*
X154411429Y-100429286D01*
X154340001Y-100715000D01*
X154340001Y-101072143D01*
X154411429Y-101357857D01*
X154482858Y-101500714D01*
X154554287Y-101572143D01*
X154697144Y-101643571D01*
X154840001Y-101643571D01*
X154982858Y-101572143D01*
X155054287Y-101500714D01*
X155125715Y-101357857D01*
X155197144Y-101072143D01*
X155197144Y-100715000D01*
X155125715Y-100429286D01*
X155054287Y-100286429D01*
X154982858Y-100215000D01*
X154840001Y-100143571D01*
X196732859Y-105453571D02*
X196732859Y-103953571D01*
X196090002Y-105453571D02*
X196090002Y-104667857D01*
X196161431Y-104525000D01*
X196304288Y-104453571D01*
X196518573Y-104453571D01*
X196661431Y-104525000D01*
X196732859Y-104596429D01*
X195590002Y-104453571D02*
X195018573Y-104453571D01*
X195375716Y-103953571D02*
X195375716Y-105239286D01*
X195304288Y-105382143D01*
X195161430Y-105453571D01*
X195018573Y-105453571D01*
X194732859Y-104453571D02*
X194161430Y-104453571D01*
X194518573Y-103953571D02*
X194518573Y-105239286D01*
X194447145Y-105382143D01*
X194304287Y-105453571D01*
X194161430Y-105453571D01*
X193661430Y-104453571D02*
X193661430Y-105953571D01*
X193661430Y-104525000D02*
X193518573Y-104453571D01*
X193232859Y-104453571D01*
X193090002Y-104525000D01*
X193018573Y-104596429D01*
X192947144Y-104739286D01*
X192947144Y-105167857D01*
X193018573Y-105310714D01*
X193090002Y-105382143D01*
X193232859Y-105453571D01*
X193518573Y-105453571D01*
X193661430Y-105382143D01*
X192304287Y-105310714D02*
X192232859Y-105382143D01*
X192304287Y-105453571D01*
X192375716Y-105382143D01*
X192304287Y-105310714D01*
X192304287Y-105453571D01*
X192304287Y-104525000D02*
X192232859Y-104596429D01*
X192304287Y-104667857D01*
X192375716Y-104596429D01*
X192304287Y-104525000D01*
X192304287Y-104667857D01*
X190518573Y-103882143D02*
X191804287Y-105810714D01*
X188947144Y-103882143D02*
X190232858Y-105810714D01*
X188590000Y-104453571D02*
X188304286Y-105453571D01*
X188018572Y-104739286D01*
X187732857Y-105453571D01*
X187447143Y-104453571D01*
X187018571Y-104453571D02*
X186732857Y-105453571D01*
X186447143Y-104739286D01*
X186161428Y-105453571D01*
X185875714Y-104453571D01*
X185447142Y-104453571D02*
X185161428Y-105453571D01*
X184875714Y-104739286D01*
X184589999Y-105453571D01*
X184304285Y-104453571D01*
X183732856Y-105310714D02*
X183661428Y-105382143D01*
X183732856Y-105453571D01*
X183804285Y-105382143D01*
X183732856Y-105310714D01*
X183732856Y-105453571D01*
X183089999Y-105382143D02*
X182947142Y-105453571D01*
X182661427Y-105453571D01*
X182518570Y-105382143D01*
X182447142Y-105239286D01*
X182447142Y-105167857D01*
X182518570Y-105025000D01*
X182661427Y-104953571D01*
X182875713Y-104953571D01*
X183018570Y-104882143D01*
X183089999Y-104739286D01*
X183089999Y-104667857D01*
X183018570Y-104525000D01*
X182875713Y-104453571D01*
X182661427Y-104453571D01*
X182518570Y-104525000D01*
X181947141Y-104453571D02*
X181161427Y-104453571D01*
X181947141Y-105453571D01*
X181161427Y-105453571D01*
X180018570Y-105382143D02*
X180161427Y-105453571D01*
X180447141Y-105453571D01*
X180589998Y-105382143D01*
X180661427Y-105239286D01*
X180661427Y-104667857D01*
X180589998Y-104525000D01*
X180447141Y-104453571D01*
X180161427Y-104453571D01*
X180018570Y-104525000D01*
X179947141Y-104667857D01*
X179947141Y-104810714D01*
X180661427Y-104953571D01*
X179304284Y-105453571D02*
X179304284Y-104453571D01*
X179304284Y-104739286D02*
X179232856Y-104596429D01*
X179161427Y-104525000D01*
X179018570Y-104453571D01*
X178875713Y-104453571D01*
X177732856Y-105453571D02*
X177732856Y-104667857D01*
X177804285Y-104525000D01*
X177947142Y-104453571D01*
X178232856Y-104453571D01*
X178375713Y-104525000D01*
X177732856Y-105382143D02*
X177875713Y-105453571D01*
X178232856Y-105453571D01*
X178375713Y-105382143D01*
X178447142Y-105239286D01*
X178447142Y-105096429D01*
X178375713Y-104953571D01*
X178232856Y-104882143D01*
X177875713Y-104882143D01*
X177732856Y-104810714D01*
X177232856Y-104453571D02*
X176661427Y-104453571D01*
X177018570Y-105453571D02*
X177018570Y-104167857D01*
X176947142Y-104025000D01*
X176804284Y-103953571D01*
X176661427Y-103953571D01*
X176161427Y-105453571D02*
X176161427Y-104453571D01*
X176161427Y-103953571D02*
X176232856Y-104025000D01*
X176161427Y-104096429D01*
X176089999Y-104025000D01*
X176161427Y-103953571D01*
X176161427Y-104096429D01*
X175447141Y-104453571D02*
X175447141Y-105453571D01*
X175447141Y-104596429D02*
X175375713Y-104525000D01*
X175232855Y-104453571D01*
X175018570Y-104453571D01*
X174875713Y-104525000D01*
X174804284Y-104667857D01*
X174804284Y-105453571D01*
X173447141Y-104453571D02*
X173447141Y-105667857D01*
X173518570Y-105810714D01*
X173589998Y-105882143D01*
X173732855Y-105953571D01*
X173947141Y-105953571D01*
X174089998Y-105882143D01*
X173447141Y-105382143D02*
X173589998Y-105453571D01*
X173875712Y-105453571D01*
X174018570Y-105382143D01*
X174089998Y-105310714D01*
X174161427Y-105167857D01*
X174161427Y-104739286D01*
X174089998Y-104596429D01*
X174018570Y-104525000D01*
X173875712Y-104453571D01*
X173589998Y-104453571D01*
X173447141Y-104525000D01*
X172518569Y-105453571D02*
X172661427Y-105382143D01*
X172732855Y-105310714D01*
X172804284Y-105167857D01*
X172804284Y-104739286D01*
X172732855Y-104596429D01*
X172661427Y-104525000D01*
X172518569Y-104453571D01*
X172304284Y-104453571D01*
X172161427Y-104525000D01*
X172089998Y-104596429D01*
X172018569Y-104739286D01*
X172018569Y-105167857D01*
X172089998Y-105310714D01*
X172161427Y-105382143D01*
X172304284Y-105453571D01*
X172518569Y-105453571D01*
X171375712Y-105453571D02*
X171375712Y-104453571D01*
X171375712Y-104596429D02*
X171304284Y-104525000D01*
X171161426Y-104453571D01*
X170947141Y-104453571D01*
X170804284Y-104525000D01*
X170732855Y-104667857D01*
X170732855Y-105453571D01*
X170732855Y-104667857D02*
X170661426Y-104525000D01*
X170518569Y-104453571D01*
X170304284Y-104453571D01*
X170161426Y-104525000D01*
X170089998Y-104667857D01*
X170089998Y-105453571D01*
X169375712Y-105453571D02*
X169375712Y-103953571D01*
X169375712Y-104525000D02*
X169232855Y-104453571D01*
X168947141Y-104453571D01*
X168804284Y-104525000D01*
X168732855Y-104596429D01*
X168661426Y-104739286D01*
X168661426Y-105167857D01*
X168732855Y-105310714D01*
X168804284Y-105382143D01*
X168947141Y-105453571D01*
X169232855Y-105453571D01*
X169375712Y-105382143D01*
X167375712Y-105453571D02*
X167375712Y-104667857D01*
X167447141Y-104525000D01*
X167589998Y-104453571D01*
X167875712Y-104453571D01*
X168018569Y-104525000D01*
X167375712Y-105382143D02*
X167518569Y-105453571D01*
X167875712Y-105453571D01*
X168018569Y-105382143D01*
X168089998Y-105239286D01*
X168089998Y-105096429D01*
X168018569Y-104953571D01*
X167875712Y-104882143D01*
X167518569Y-104882143D01*
X167375712Y-104810714D01*
X166661426Y-105310714D02*
X166589998Y-105382143D01*
X166661426Y-105453571D01*
X166732855Y-105382143D01*
X166661426Y-105310714D01*
X166661426Y-105453571D01*
X165947140Y-105453571D02*
X165947140Y-103953571D01*
X165304283Y-105453571D02*
X165304283Y-104667857D01*
X165375712Y-104525000D01*
X165518569Y-104453571D01*
X165732854Y-104453571D01*
X165875712Y-104525000D01*
X165947140Y-104596429D01*
X163947140Y-104453571D02*
X163947140Y-105453571D01*
X164589997Y-104453571D02*
X164589997Y-105239286D01*
X164518569Y-105382143D01*
X164375711Y-105453571D01*
X164161426Y-105453571D01*
X164018569Y-105382143D01*
X163947140Y-105310714D01*
X119282855Y-148633571D02*
X119282855Y-147133571D01*
X118782855Y-148205000D01*
X118282855Y-147133571D01*
X118282855Y-148633571D01*
X117568569Y-148633571D02*
X117568569Y-147133571D01*
X117068569Y-148205000D01*
X116568569Y-147133571D01*
X116568569Y-148633571D01*
X115997140Y-147133571D02*
X115068569Y-147133571D01*
X115568569Y-147705000D01*
X115354283Y-147705000D01*
X115211426Y-147776429D01*
X115139997Y-147847857D01*
X115068569Y-147990714D01*
X115068569Y-148347857D01*
X115139997Y-148490714D01*
X115211426Y-148562143D01*
X115354283Y-148633571D01*
X115782855Y-148633571D01*
X115925712Y-148562143D01*
X115997140Y-148490714D01*
X114425712Y-148633571D02*
X114425712Y-147133571D01*
X114068569Y-147133571D01*
X113854284Y-147205000D01*
X113711426Y-147347857D01*
X113639998Y-147490714D01*
X113568569Y-147776429D01*
X113568569Y-147990714D01*
X113639998Y-148276429D01*
X113711426Y-148419286D01*
X113854284Y-148562143D01*
X114068569Y-148633571D01*
X114425712Y-148633571D01*
X111997141Y-147633571D02*
X111425712Y-147633571D01*
X111782855Y-148633571D02*
X111782855Y-147347857D01*
X111711427Y-147205000D01*
X111568569Y-147133571D01*
X111425712Y-147133571D01*
X110925712Y-148633571D02*
X110925712Y-147633571D01*
X110925712Y-147919286D02*
X110854284Y-147776429D01*
X110782855Y-147705000D01*
X110639998Y-147633571D01*
X110497141Y-147633571D01*
X109782855Y-148633571D02*
X109925713Y-148562143D01*
X109997141Y-148490714D01*
X110068570Y-148347857D01*
X110068570Y-147919286D01*
X109997141Y-147776429D01*
X109925713Y-147705000D01*
X109782855Y-147633571D01*
X109568570Y-147633571D01*
X109425713Y-147705000D01*
X109354284Y-147776429D01*
X109282855Y-147919286D01*
X109282855Y-148347857D01*
X109354284Y-148490714D01*
X109425713Y-148562143D01*
X109568570Y-148633571D01*
X109782855Y-148633571D01*
X108639998Y-147633571D02*
X108639998Y-148633571D01*
X108639998Y-147776429D02*
X108568570Y-147705000D01*
X108425712Y-147633571D01*
X108211427Y-147633571D01*
X108068570Y-147705000D01*
X107997141Y-147847857D01*
X107997141Y-148633571D01*
X107497141Y-147633571D02*
X106925712Y-147633571D01*
X107282855Y-147133571D02*
X107282855Y-148419286D01*
X107211427Y-148562143D01*
X107068569Y-148633571D01*
X106925712Y-148633571D01*
X105282855Y-147633571D02*
X105282855Y-149133571D01*
X105282855Y-147705000D02*
X105139998Y-147633571D01*
X104854284Y-147633571D01*
X104711427Y-147705000D01*
X104639998Y-147776429D01*
X104568569Y-147919286D01*
X104568569Y-148347857D01*
X104639998Y-148490714D01*
X104711427Y-148562143D01*
X104854284Y-148633571D01*
X105139998Y-148633571D01*
X105282855Y-148562143D01*
X103282855Y-148633571D02*
X103282855Y-147847857D01*
X103354284Y-147705000D01*
X103497141Y-147633571D01*
X103782855Y-147633571D01*
X103925712Y-147705000D01*
X103282855Y-148562143D02*
X103425712Y-148633571D01*
X103782855Y-148633571D01*
X103925712Y-148562143D01*
X103997141Y-148419286D01*
X103997141Y-148276429D01*
X103925712Y-148133571D01*
X103782855Y-148062143D01*
X103425712Y-148062143D01*
X103282855Y-147990714D01*
X102568569Y-147633571D02*
X102568569Y-148633571D01*
X102568569Y-147776429D02*
X102497141Y-147705000D01*
X102354283Y-147633571D01*
X102139998Y-147633571D01*
X101997141Y-147705000D01*
X101925712Y-147847857D01*
X101925712Y-148633571D01*
X100639998Y-148562143D02*
X100782855Y-148633571D01*
X101068569Y-148633571D01*
X101211426Y-148562143D01*
X101282855Y-148419286D01*
X101282855Y-147847857D01*
X101211426Y-147705000D01*
X101068569Y-147633571D01*
X100782855Y-147633571D01*
X100639998Y-147705000D01*
X100568569Y-147847857D01*
X100568569Y-147990714D01*
X101282855Y-148133571D01*
X99711426Y-148633571D02*
X99854284Y-148562143D01*
X99925712Y-148419286D01*
X99925712Y-147133571D01*
X98139998Y-147633571D02*
X97782855Y-148633571D01*
X97425713Y-147633571D01*
X96068570Y-148633571D02*
X96925713Y-148633571D01*
X96497141Y-148633571D02*
X96497141Y-147133571D01*
X96639998Y-147347857D01*
X96782856Y-147490714D01*
X96925713Y-147562143D01*
X95354285Y-148633571D02*
X95068570Y-148633571D01*
X94925713Y-148562143D01*
X94854285Y-148490714D01*
X94711427Y-148276429D01*
X94639999Y-147990714D01*
X94639999Y-147419286D01*
X94711427Y-147276429D01*
X94782856Y-147205000D01*
X94925713Y-147133571D01*
X95211427Y-147133571D01*
X95354285Y-147205000D01*
X95425713Y-147276429D01*
X95497142Y-147419286D01*
X95497142Y-147776429D01*
X95425713Y-147919286D01*
X95354285Y-147990714D01*
X95211427Y-148062143D01*
X94925713Y-148062143D01*
X94782856Y-147990714D01*
X94711427Y-147919286D01*
X94639999Y-147776429D01*
X93711428Y-147133571D02*
X93568571Y-147133571D01*
X93425714Y-147205000D01*
X93354285Y-147276429D01*
X93282856Y-147419286D01*
X93211428Y-147705000D01*
X93211428Y-148062143D01*
X93282856Y-148347857D01*
X93354285Y-148490714D01*
X93425714Y-148562143D01*
X93568571Y-148633571D01*
X93711428Y-148633571D01*
X93854285Y-148562143D01*
X93925714Y-148490714D01*
X93997142Y-148347857D01*
X94068571Y-148062143D01*
X94068571Y-147705000D01*
X93997142Y-147419286D01*
X93925714Y-147276429D01*
X93854285Y-147205000D01*
X93711428Y-147133571D01*
X92640000Y-147276429D02*
X92568571Y-147205000D01*
X92425714Y-147133571D01*
X92068571Y-147133571D01*
X91925714Y-147205000D01*
X91854285Y-147276429D01*
X91782857Y-147419286D01*
X91782857Y-147562143D01*
X91854285Y-147776429D01*
X92711428Y-148633571D01*
X91782857Y-148633571D01*
X90854286Y-147133571D02*
X90711429Y-147133571D01*
X90568572Y-147205000D01*
X90497143Y-147276429D01*
X90425714Y-147419286D01*
X90354286Y-147705000D01*
X90354286Y-148062143D01*
X90425714Y-148347857D01*
X90497143Y-148490714D01*
X90568572Y-148562143D01*
X90711429Y-148633571D01*
X90854286Y-148633571D01*
X90997143Y-148562143D01*
X91068572Y-148490714D01*
X91140000Y-148347857D01*
X91211429Y-148062143D01*
X91211429Y-147705000D01*
X91140000Y-147419286D01*
X91068572Y-147276429D01*
X90997143Y-147205000D01*
X90854286Y-147133571D01*
X89854286Y-147133571D02*
X88925715Y-147133571D01*
X89425715Y-147705000D01*
X89211429Y-147705000D01*
X89068572Y-147776429D01*
X88997143Y-147847857D01*
X88925715Y-147990714D01*
X88925715Y-148347857D01*
X88997143Y-148490714D01*
X89068572Y-148562143D01*
X89211429Y-148633571D01*
X89640001Y-148633571D01*
X89782858Y-148562143D01*
X89854286Y-148490714D01*
D10*
X64770000Y-123190000D02*
X80010000Y-123190000D01*
X64770000Y-82550000D02*
X64770000Y-123190000D01*
X80010000Y-82550000D02*
X64770000Y-82550000D01*
X80010000Y-153670000D02*
X80010000Y-123190000D01*
X193040000Y-153670000D02*
X80010000Y-153670000D01*
X193040000Y-135890000D02*
X193040000Y-153670000D01*
X213360000Y-135890000D02*
X193040000Y-135890000D01*
X213360000Y-44450000D02*
X213360000Y-135890000D01*
X80010000Y-44450000D02*
X213360000Y-44450000D01*
X80010000Y-82550000D02*
X80010000Y-44450000D01*
D12*
X86360000Y-67310000D03*
X86360000Y-52070000D03*
X91440000Y-67310000D03*
X91440000Y-52070000D03*
X119380000Y-118110000D03*
X134620000Y-118110000D03*
X119380000Y-113030000D03*
X134620000Y-113030000D03*
X119380000Y-123190000D03*
X134620000Y-123190000D03*
X119380000Y-128270000D03*
X134620000Y-128270000D03*
D13*
X187960000Y-143510000D03*
X185420000Y-143510000D03*
D12*
X119380000Y-97790000D03*
X134620000Y-97790000D03*
X119380000Y-92710000D03*
X134620000Y-92710000D03*
X119380000Y-82550000D03*
X134620000Y-82550000D03*
X119380000Y-87630000D03*
X134620000Y-87630000D03*
D13*
X147320000Y-52070000D03*
X144780000Y-52070000D03*
X167640000Y-52070000D03*
X165100000Y-52070000D03*
X187960000Y-52070000D03*
X185420000Y-52070000D03*
X208280000Y-52070000D03*
X205740000Y-52070000D03*
X208280000Y-82550000D03*
X205740000Y-82550000D03*
X187960000Y-82550000D03*
X185420000Y-82550000D03*
X167640000Y-82550000D03*
X165100000Y-82550000D03*
X147320000Y-82550000D03*
X144780000Y-82550000D03*
D12*
X99060000Y-57150000D03*
X114300000Y-57150000D03*
X119380000Y-57150000D03*
X134620000Y-57150000D03*
X119380000Y-52070000D03*
X134620000Y-52070000D03*
X99060000Y-52070000D03*
X114300000Y-52070000D03*
X99060000Y-62230000D03*
X114300000Y-62230000D03*
X119380000Y-62230000D03*
X134620000Y-62230000D03*
D13*
X72390000Y-92710000D03*
X69850000Y-92710000D03*
X72390000Y-113030000D03*
X69850000Y-113030000D03*
X147320000Y-113030000D03*
X144780000Y-113030000D03*
D12*
X119380000Y-67310000D03*
X134620000Y-67310000D03*
X99060000Y-67310000D03*
X114300000Y-67310000D03*
D13*
X167640000Y-113030000D03*
X165100000Y-113030000D03*
X187960000Y-113030000D03*
X185420000Y-113030000D03*
X208280000Y-113030000D03*
X205740000Y-113030000D03*
D14*
X88900000Y-143510000D03*
D15*
X91440000Y-143510000D03*
X93980000Y-143510000D03*
X96520000Y-143510000D03*
X99060000Y-143510000D03*
X101600000Y-143510000D03*
X104140000Y-143510000D03*
X106680000Y-143510000D03*
X109220000Y-143510000D03*
X111760000Y-143510000D03*
X114300000Y-143510000D03*
X116840000Y-143510000D03*
X119380000Y-143510000D03*
D14*
X165100000Y-143510000D03*
D15*
X167640000Y-143510000D03*
X170180000Y-143510000D03*
X172720000Y-143510000D03*
D12*
X172720000Y-137160000D03*
X187960000Y-137160000D03*
D16*
X172720000Y-137160000D02*
X172720000Y-143510000D01*
X187960000Y-137160000D02*
X187960000Y-143510000D01*
X210820000Y-128270000D02*
X210820000Y-129540000D01*
X208280000Y-74930000D02*
X210820000Y-77470000D01*
X210820000Y-77470000D02*
X210820000Y-128270000D01*
X208280000Y-52070000D02*
X208280000Y-74930000D01*
X170180000Y-134620000D02*
X170180000Y-143510000D01*
X171450000Y-133350000D02*
X170180000Y-134620000D01*
X207010000Y-133350000D02*
X171450000Y-133350000D01*
X210820000Y-129540000D02*
X207010000Y-133350000D01*
X208280000Y-113030000D02*
X208280000Y-127000000D01*
X167640000Y-132080000D02*
X167640000Y-143510000D01*
X168910000Y-130810000D02*
X167640000Y-132080000D01*
X205740000Y-130810000D02*
X168910000Y-130810000D01*
X208280000Y-128270000D02*
X205740000Y-130810000D01*
X208280000Y-127000000D02*
X208280000Y-128270000D01*
X165100000Y-143510000D02*
X165100000Y-151130000D01*
X91440000Y-52070000D02*
X93980000Y-52070000D01*
X88900000Y-77470000D02*
X88900000Y-143510000D01*
X95250000Y-71120000D02*
X88900000Y-77470000D01*
X95250000Y-53340000D02*
X95250000Y-71120000D01*
X93980000Y-52070000D02*
X95250000Y-53340000D01*
X91440000Y-143510000D02*
X91440000Y-78740000D01*
X107950000Y-52070000D02*
X114300000Y-52070000D01*
X106680000Y-53340000D02*
X107950000Y-52070000D01*
X106680000Y-71120000D02*
X106680000Y-53340000D01*
X105410000Y-72390000D02*
X106680000Y-71120000D01*
X97790000Y-72390000D02*
X105410000Y-72390000D01*
X91440000Y-78740000D02*
X97790000Y-72390000D01*
X93980000Y-143510000D02*
X93980000Y-80010000D01*
X110490000Y-57150000D02*
X114300000Y-57150000D01*
X109220000Y-58420000D02*
X110490000Y-57150000D01*
X109220000Y-73660000D02*
X109220000Y-58420000D01*
X107950000Y-74930000D02*
X109220000Y-73660000D01*
X99060000Y-74930000D02*
X107950000Y-74930000D01*
X93980000Y-80010000D02*
X99060000Y-74930000D01*
X96520000Y-143510000D02*
X96520000Y-81280000D01*
X113030000Y-62230000D02*
X114300000Y-62230000D01*
X111760000Y-63500000D02*
X113030000Y-62230000D01*
X111760000Y-76200000D02*
X111760000Y-63500000D01*
X110490000Y-77470000D02*
X111760000Y-76200000D01*
X100330000Y-77470000D02*
X110490000Y-77470000D01*
X96520000Y-81280000D02*
X100330000Y-77470000D01*
X99060000Y-82550000D02*
X99060000Y-82550000D01*
X101600000Y-80010000D02*
X113030000Y-80010000D01*
X113030000Y-80010000D02*
X114300000Y-78740000D01*
X114300000Y-67310000D02*
X114300000Y-78740000D01*
X99060000Y-82550000D02*
X99060000Y-143510000D01*
X101600000Y-80010000D02*
X101600000Y-80010000D01*
X99060000Y-82550000D02*
X101600000Y-80010000D01*
X101600000Y-143510000D02*
X101600000Y-83820000D01*
X102870000Y-82550000D02*
X119380000Y-82550000D01*
X101600000Y-83820000D02*
X102870000Y-82550000D01*
X104140000Y-143510000D02*
X104140000Y-88900000D01*
X105410000Y-87630000D02*
X119380000Y-87630000D01*
X104140000Y-88900000D02*
X105410000Y-87630000D01*
X106680000Y-143510000D02*
X106680000Y-93980000D01*
X107950000Y-92710000D02*
X119380000Y-92710000D01*
X106680000Y-93980000D02*
X107950000Y-92710000D01*
X109220000Y-143510000D02*
X109220000Y-99060000D01*
X110490000Y-97790000D02*
X119380000Y-97790000D01*
X109220000Y-99060000D02*
X110490000Y-97790000D01*
X111760000Y-143510000D02*
X111760000Y-114300000D01*
X113030000Y-113030000D02*
X119380000Y-113030000D01*
X111760000Y-114300000D02*
X113030000Y-113030000D01*
X114300000Y-143510000D02*
X114300000Y-119380000D01*
X116840000Y-118110000D02*
X119380000Y-118110000D01*
X115570000Y-118110000D02*
X116840000Y-118110000D01*
X114300000Y-119380000D02*
X115570000Y-118110000D01*
X116840000Y-143510000D02*
X116840000Y-124460000D01*
X118110000Y-123190000D02*
X119380000Y-123190000D01*
X116840000Y-124460000D02*
X118110000Y-123190000D01*
X119380000Y-128270000D02*
X119380000Y-143510000D01*
X72390000Y-113030000D02*
X72390000Y-96520000D01*
X91440000Y-68580000D02*
X91440000Y-67310000D01*
X90170000Y-69850000D02*
X91440000Y-68580000D01*
X85090000Y-74930000D02*
X90170000Y-69850000D01*
X85090000Y-76200000D02*
X85090000Y-74930000D01*
X85090000Y-85090000D02*
X85090000Y-76200000D01*
X82550000Y-87630000D02*
X85090000Y-85090000D01*
X76200000Y-87630000D02*
X82550000Y-87630000D01*
X74930000Y-88900000D02*
X76200000Y-87630000D01*
X74930000Y-93980000D02*
X74930000Y-88900000D01*
X72390000Y-96520000D02*
X74930000Y-93980000D01*
X208280000Y-107950000D02*
X207010000Y-107950000D01*
X207010000Y-107950000D02*
X187960000Y-107950000D01*
X208280000Y-113030000D02*
X208280000Y-107950000D01*
X208280000Y-107950000D02*
X208280000Y-78740000D01*
X207010000Y-77470000D02*
X187960000Y-77470000D01*
X208280000Y-78740000D02*
X207010000Y-77470000D01*
X72390000Y-92710000D02*
X72390000Y-86360000D01*
X86360000Y-68580000D02*
X86360000Y-67310000D01*
X82550000Y-72390000D02*
X86360000Y-68580000D01*
X82550000Y-83820000D02*
X82550000Y-72390000D01*
X81280000Y-85090000D02*
X82550000Y-83820000D01*
X73660000Y-85090000D02*
X81280000Y-85090000D01*
X72390000Y-86360000D02*
X73660000Y-85090000D01*
X99060000Y-67310000D02*
X99060000Y-46990000D01*
X86360000Y-52070000D02*
X86360000Y-48260000D01*
X87630000Y-46990000D02*
X99060000Y-46990000D01*
X99060000Y-46990000D02*
X100330000Y-46990000D01*
X86360000Y-48260000D02*
X87630000Y-46990000D01*
X147320000Y-46990000D02*
X100330000Y-46990000D01*
X185420000Y-143510000D02*
X185420000Y-149860000D01*
X69850000Y-119380000D02*
X69850000Y-92710000D01*
X71120000Y-120650000D02*
X69850000Y-119380000D01*
X81280000Y-120650000D02*
X71120000Y-120650000D01*
X82550000Y-121920000D02*
X81280000Y-120650000D01*
X82550000Y-149860000D02*
X82550000Y-121920000D01*
X83820000Y-151130000D02*
X82550000Y-149860000D01*
X184150000Y-151130000D02*
X165100000Y-151130000D01*
X165100000Y-151130000D02*
X83820000Y-151130000D01*
X185420000Y-149860000D02*
X184150000Y-151130000D01*
X204470000Y-128270000D02*
X205740000Y-127000000D01*
X134620000Y-128270000D02*
X204470000Y-128270000D01*
X205740000Y-127000000D02*
X205740000Y-113030000D01*
X184150000Y-123190000D02*
X185420000Y-121920000D01*
X134620000Y-123190000D02*
X184150000Y-123190000D01*
X185420000Y-121920000D02*
X185420000Y-113030000D01*
X163830000Y-118110000D02*
X165100000Y-116840000D01*
X134620000Y-118110000D02*
X163830000Y-118110000D01*
X165100000Y-116840000D02*
X165100000Y-113030000D01*
X134620000Y-113030000D02*
X144780000Y-113030000D01*
X147320000Y-46990000D02*
X147320000Y-48260000D01*
X147320000Y-48260000D02*
X147320000Y-52070000D01*
X147320000Y-46990000D02*
X148590000Y-46990000D01*
X204470000Y-97790000D02*
X205740000Y-96520000D01*
X134620000Y-97790000D02*
X204470000Y-97790000D01*
X205740000Y-96520000D02*
X205740000Y-82550000D01*
X184150000Y-92710000D02*
X185420000Y-91440000D01*
X134620000Y-92710000D02*
X184150000Y-92710000D01*
X185420000Y-91440000D02*
X185420000Y-82550000D01*
X163830000Y-87630000D02*
X165100000Y-86360000D01*
X134620000Y-87630000D02*
X163830000Y-87630000D01*
X165100000Y-86360000D02*
X165100000Y-82550000D01*
X134620000Y-82550000D02*
X144780000Y-82550000D01*
X134620000Y-67310000D02*
X204470000Y-67310000D01*
X205740000Y-66040000D02*
X205740000Y-52070000D01*
X204470000Y-67310000D02*
X205740000Y-66040000D01*
X134620000Y-62230000D02*
X184150000Y-62230000D01*
X185420000Y-60960000D02*
X185420000Y-52070000D01*
X184150000Y-62230000D02*
X185420000Y-60960000D01*
X134620000Y-57150000D02*
X163830000Y-57150000D01*
X165100000Y-55880000D02*
X165100000Y-52070000D01*
X163830000Y-57150000D02*
X165100000Y-55880000D01*
X134620000Y-52070000D02*
X144780000Y-52070000D01*
X114300000Y-67310000D02*
X119380000Y-67310000D01*
X114300000Y-62230000D02*
X119380000Y-62230000D01*
X114300000Y-57150000D02*
X119380000Y-57150000D01*
X114300000Y-52070000D02*
X119380000Y-52070000D01*
X187960000Y-46990000D02*
X207010000Y-46990000D01*
X167640000Y-46990000D02*
X187960000Y-46990000D01*
X148590000Y-46990000D02*
X167640000Y-46990000D01*
X207010000Y-46990000D02*
X208280000Y-48260000D01*
X208280000Y-48260000D02*
X208280000Y-52070000D01*
X187960000Y-52070000D02*
X187960000Y-46990000D01*
X167640000Y-52070000D02*
X167640000Y-46990000D01*
X147320000Y-109220000D02*
X148590000Y-107950000D01*
X167640000Y-107950000D02*
X187960000Y-107950000D01*
X148590000Y-107950000D02*
X167640000Y-107950000D01*
X147320000Y-113030000D02*
X147320000Y-109220000D01*
X187960000Y-113030000D02*
X187960000Y-107950000D01*
X167640000Y-113030000D02*
X167640000Y-107950000D01*
X167640000Y-82550000D02*
X167640000Y-77470000D01*
X187960000Y-82550000D02*
X187960000Y-77470000D01*
X147320000Y-82550000D02*
X147320000Y-78740000D01*
X148590000Y-77470000D02*
X167640000Y-77470000D01*
X167640000Y-77470000D02*
X187960000Y-77470000D01*
X147320000Y-78740000D02*
X148590000Y-77470000D01*
M02*
