G04 #@! TF.FileFunction,Legend,Top*
%FSLAX46Y46*%
G04 Gerber Fmt 4.6, Leading zero omitted, Abs format (unit mm)*
G04 Created by KiCad (PCBNEW 4.0.5+dfsg1-4+deb9u1) date Tue Sep 27 18:48:32 2022*
%MOMM*%
%LPD*%
G01*
G04 APERTURE LIST*
%ADD10C,0.100000*%
%ADD11C,0.300000*%
%ADD12C,0.304800*%
%ADD13C,0.203200*%
%ADD14C,0.076200*%
%ADD15C,0.254000*%
%ADD16C,0.152400*%
%ADD17C,0.088900*%
G04 APERTURE END LIST*
D10*
D11*
X88997145Y-148633571D02*
X88997145Y-147133571D01*
X89497145Y-148205000D01*
X89997145Y-147133571D01*
X89997145Y-148633571D01*
X90711431Y-148633571D02*
X90711431Y-147133571D01*
X91211431Y-148205000D01*
X91711431Y-147133571D01*
X91711431Y-148633571D01*
X92282860Y-147133571D02*
X93211431Y-147133571D01*
X92711431Y-147705000D01*
X92925717Y-147705000D01*
X93068574Y-147776429D01*
X93140003Y-147847857D01*
X93211431Y-147990714D01*
X93211431Y-148347857D01*
X93140003Y-148490714D01*
X93068574Y-148562143D01*
X92925717Y-148633571D01*
X92497145Y-148633571D01*
X92354288Y-148562143D01*
X92282860Y-148490714D01*
X93854288Y-148633571D02*
X93854288Y-147133571D01*
X94211431Y-147133571D01*
X94425716Y-147205000D01*
X94568574Y-147347857D01*
X94640002Y-147490714D01*
X94711431Y-147776429D01*
X94711431Y-147990714D01*
X94640002Y-148276429D01*
X94568574Y-148419286D01*
X94425716Y-148562143D01*
X94211431Y-148633571D01*
X93854288Y-148633571D01*
X96282859Y-147633571D02*
X96854288Y-147633571D01*
X96497145Y-148633571D02*
X96497145Y-147347857D01*
X96568573Y-147205000D01*
X96711431Y-147133571D01*
X96854288Y-147133571D01*
X97354288Y-148633571D02*
X97354288Y-147633571D01*
X97354288Y-147919286D02*
X97425716Y-147776429D01*
X97497145Y-147705000D01*
X97640002Y-147633571D01*
X97782859Y-147633571D01*
X98497145Y-148633571D02*
X98354287Y-148562143D01*
X98282859Y-148490714D01*
X98211430Y-148347857D01*
X98211430Y-147919286D01*
X98282859Y-147776429D01*
X98354287Y-147705000D01*
X98497145Y-147633571D01*
X98711430Y-147633571D01*
X98854287Y-147705000D01*
X98925716Y-147776429D01*
X98997145Y-147919286D01*
X98997145Y-148347857D01*
X98925716Y-148490714D01*
X98854287Y-148562143D01*
X98711430Y-148633571D01*
X98497145Y-148633571D01*
X99640002Y-147633571D02*
X99640002Y-148633571D01*
X99640002Y-147776429D02*
X99711430Y-147705000D01*
X99854288Y-147633571D01*
X100068573Y-147633571D01*
X100211430Y-147705000D01*
X100282859Y-147847857D01*
X100282859Y-148633571D01*
X100782859Y-147633571D02*
X101354288Y-147633571D01*
X100997145Y-147133571D02*
X100997145Y-148419286D01*
X101068573Y-148562143D01*
X101211431Y-148633571D01*
X101354288Y-148633571D01*
X102997145Y-147633571D02*
X102997145Y-149133571D01*
X102997145Y-147705000D02*
X103140002Y-147633571D01*
X103425716Y-147633571D01*
X103568573Y-147705000D01*
X103640002Y-147776429D01*
X103711431Y-147919286D01*
X103711431Y-148347857D01*
X103640002Y-148490714D01*
X103568573Y-148562143D01*
X103425716Y-148633571D01*
X103140002Y-148633571D01*
X102997145Y-148562143D01*
X104997145Y-148633571D02*
X104997145Y-147847857D01*
X104925716Y-147705000D01*
X104782859Y-147633571D01*
X104497145Y-147633571D01*
X104354288Y-147705000D01*
X104997145Y-148562143D02*
X104854288Y-148633571D01*
X104497145Y-148633571D01*
X104354288Y-148562143D01*
X104282859Y-148419286D01*
X104282859Y-148276429D01*
X104354288Y-148133571D01*
X104497145Y-148062143D01*
X104854288Y-148062143D01*
X104997145Y-147990714D01*
X105711431Y-147633571D02*
X105711431Y-148633571D01*
X105711431Y-147776429D02*
X105782859Y-147705000D01*
X105925717Y-147633571D01*
X106140002Y-147633571D01*
X106282859Y-147705000D01*
X106354288Y-147847857D01*
X106354288Y-148633571D01*
X107640002Y-148562143D02*
X107497145Y-148633571D01*
X107211431Y-148633571D01*
X107068574Y-148562143D01*
X106997145Y-148419286D01*
X106997145Y-147847857D01*
X107068574Y-147705000D01*
X107211431Y-147633571D01*
X107497145Y-147633571D01*
X107640002Y-147705000D01*
X107711431Y-147847857D01*
X107711431Y-147990714D01*
X106997145Y-148133571D01*
X108568574Y-148633571D02*
X108425716Y-148562143D01*
X108354288Y-148419286D01*
X108354288Y-147133571D01*
X110140002Y-147633571D02*
X110497145Y-148633571D01*
X110854287Y-147633571D01*
X112211430Y-148633571D02*
X111354287Y-148633571D01*
X111782859Y-148633571D02*
X111782859Y-147133571D01*
X111640002Y-147347857D01*
X111497144Y-147490714D01*
X111354287Y-147562143D01*
X112925715Y-148633571D02*
X113211430Y-148633571D01*
X113354287Y-148562143D01*
X113425715Y-148490714D01*
X113568573Y-148276429D01*
X113640001Y-147990714D01*
X113640001Y-147419286D01*
X113568573Y-147276429D01*
X113497144Y-147205000D01*
X113354287Y-147133571D01*
X113068573Y-147133571D01*
X112925715Y-147205000D01*
X112854287Y-147276429D01*
X112782858Y-147419286D01*
X112782858Y-147776429D01*
X112854287Y-147919286D01*
X112925715Y-147990714D01*
X113068573Y-148062143D01*
X113354287Y-148062143D01*
X113497144Y-147990714D01*
X113568573Y-147919286D01*
X113640001Y-147776429D01*
X114568572Y-147133571D02*
X114711429Y-147133571D01*
X114854286Y-147205000D01*
X114925715Y-147276429D01*
X114997144Y-147419286D01*
X115068572Y-147705000D01*
X115068572Y-148062143D01*
X114997144Y-148347857D01*
X114925715Y-148490714D01*
X114854286Y-148562143D01*
X114711429Y-148633571D01*
X114568572Y-148633571D01*
X114425715Y-148562143D01*
X114354286Y-148490714D01*
X114282858Y-148347857D01*
X114211429Y-148062143D01*
X114211429Y-147705000D01*
X114282858Y-147419286D01*
X114354286Y-147276429D01*
X114425715Y-147205000D01*
X114568572Y-147133571D01*
X115640000Y-147276429D02*
X115711429Y-147205000D01*
X115854286Y-147133571D01*
X116211429Y-147133571D01*
X116354286Y-147205000D01*
X116425715Y-147276429D01*
X116497143Y-147419286D01*
X116497143Y-147562143D01*
X116425715Y-147776429D01*
X115568572Y-148633571D01*
X116497143Y-148633571D01*
X117425714Y-147133571D02*
X117568571Y-147133571D01*
X117711428Y-147205000D01*
X117782857Y-147276429D01*
X117854286Y-147419286D01*
X117925714Y-147705000D01*
X117925714Y-148062143D01*
X117854286Y-148347857D01*
X117782857Y-148490714D01*
X117711428Y-148562143D01*
X117568571Y-148633571D01*
X117425714Y-148633571D01*
X117282857Y-148562143D01*
X117211428Y-148490714D01*
X117140000Y-148347857D01*
X117068571Y-148062143D01*
X117068571Y-147705000D01*
X117140000Y-147419286D01*
X117211428Y-147276429D01*
X117282857Y-147205000D01*
X117425714Y-147133571D01*
X118425714Y-147133571D02*
X119354285Y-147133571D01*
X118854285Y-147705000D01*
X119068571Y-147705000D01*
X119211428Y-147776429D01*
X119282857Y-147847857D01*
X119354285Y-147990714D01*
X119354285Y-148347857D01*
X119282857Y-148490714D01*
X119211428Y-148562143D01*
X119068571Y-148633571D01*
X118639999Y-148633571D01*
X118497142Y-148562143D01*
X118425714Y-148490714D01*
X163947141Y-105453571D02*
X163947141Y-103953571D01*
X164589998Y-105453571D02*
X164589998Y-104667857D01*
X164518569Y-104525000D01*
X164375712Y-104453571D01*
X164161427Y-104453571D01*
X164018569Y-104525000D01*
X163947141Y-104596429D01*
X165089998Y-104453571D02*
X165661427Y-104453571D01*
X165304284Y-103953571D02*
X165304284Y-105239286D01*
X165375712Y-105382143D01*
X165518570Y-105453571D01*
X165661427Y-105453571D01*
X165947141Y-104453571D02*
X166518570Y-104453571D01*
X166161427Y-103953571D02*
X166161427Y-105239286D01*
X166232855Y-105382143D01*
X166375713Y-105453571D01*
X166518570Y-105453571D01*
X167018570Y-104453571D02*
X167018570Y-105953571D01*
X167018570Y-104525000D02*
X167161427Y-104453571D01*
X167447141Y-104453571D01*
X167589998Y-104525000D01*
X167661427Y-104596429D01*
X167732856Y-104739286D01*
X167732856Y-105167857D01*
X167661427Y-105310714D01*
X167589998Y-105382143D01*
X167447141Y-105453571D01*
X167161427Y-105453571D01*
X167018570Y-105382143D01*
X168375713Y-105310714D02*
X168447141Y-105382143D01*
X168375713Y-105453571D01*
X168304284Y-105382143D01*
X168375713Y-105310714D01*
X168375713Y-105453571D01*
X168375713Y-104525000D02*
X168447141Y-104596429D01*
X168375713Y-104667857D01*
X168304284Y-104596429D01*
X168375713Y-104525000D01*
X168375713Y-104667857D01*
X170161427Y-103882143D02*
X168875713Y-105810714D01*
X171732856Y-103882143D02*
X170447142Y-105810714D01*
X172090000Y-104453571D02*
X172375714Y-105453571D01*
X172661428Y-104739286D01*
X172947143Y-105453571D01*
X173232857Y-104453571D01*
X173661429Y-104453571D02*
X173947143Y-105453571D01*
X174232857Y-104739286D01*
X174518572Y-105453571D01*
X174804286Y-104453571D01*
X175232858Y-104453571D02*
X175518572Y-105453571D01*
X175804286Y-104739286D01*
X176090001Y-105453571D01*
X176375715Y-104453571D01*
X176947144Y-105310714D02*
X177018572Y-105382143D01*
X176947144Y-105453571D01*
X176875715Y-105382143D01*
X176947144Y-105310714D01*
X176947144Y-105453571D01*
X177590001Y-105382143D02*
X177732858Y-105453571D01*
X178018573Y-105453571D01*
X178161430Y-105382143D01*
X178232858Y-105239286D01*
X178232858Y-105167857D01*
X178161430Y-105025000D01*
X178018573Y-104953571D01*
X177804287Y-104953571D01*
X177661430Y-104882143D01*
X177590001Y-104739286D01*
X177590001Y-104667857D01*
X177661430Y-104525000D01*
X177804287Y-104453571D01*
X178018573Y-104453571D01*
X178161430Y-104525000D01*
X178732859Y-104453571D02*
X179518573Y-104453571D01*
X178732859Y-105453571D01*
X179518573Y-105453571D01*
X180661430Y-105382143D02*
X180518573Y-105453571D01*
X180232859Y-105453571D01*
X180090002Y-105382143D01*
X180018573Y-105239286D01*
X180018573Y-104667857D01*
X180090002Y-104525000D01*
X180232859Y-104453571D01*
X180518573Y-104453571D01*
X180661430Y-104525000D01*
X180732859Y-104667857D01*
X180732859Y-104810714D01*
X180018573Y-104953571D01*
X181375716Y-105453571D02*
X181375716Y-104453571D01*
X181375716Y-104739286D02*
X181447144Y-104596429D01*
X181518573Y-104525000D01*
X181661430Y-104453571D01*
X181804287Y-104453571D01*
X182947144Y-105453571D02*
X182947144Y-104667857D01*
X182875715Y-104525000D01*
X182732858Y-104453571D01*
X182447144Y-104453571D01*
X182304287Y-104525000D01*
X182947144Y-105382143D02*
X182804287Y-105453571D01*
X182447144Y-105453571D01*
X182304287Y-105382143D01*
X182232858Y-105239286D01*
X182232858Y-105096429D01*
X182304287Y-104953571D01*
X182447144Y-104882143D01*
X182804287Y-104882143D01*
X182947144Y-104810714D01*
X183447144Y-104453571D02*
X184018573Y-104453571D01*
X183661430Y-105453571D02*
X183661430Y-104167857D01*
X183732858Y-104025000D01*
X183875716Y-103953571D01*
X184018573Y-103953571D01*
X184518573Y-105453571D02*
X184518573Y-104453571D01*
X184518573Y-103953571D02*
X184447144Y-104025000D01*
X184518573Y-104096429D01*
X184590001Y-104025000D01*
X184518573Y-103953571D01*
X184518573Y-104096429D01*
X185232859Y-104453571D02*
X185232859Y-105453571D01*
X185232859Y-104596429D02*
X185304287Y-104525000D01*
X185447145Y-104453571D01*
X185661430Y-104453571D01*
X185804287Y-104525000D01*
X185875716Y-104667857D01*
X185875716Y-105453571D01*
X187232859Y-104453571D02*
X187232859Y-105667857D01*
X187161430Y-105810714D01*
X187090002Y-105882143D01*
X186947145Y-105953571D01*
X186732859Y-105953571D01*
X186590002Y-105882143D01*
X187232859Y-105382143D02*
X187090002Y-105453571D01*
X186804288Y-105453571D01*
X186661430Y-105382143D01*
X186590002Y-105310714D01*
X186518573Y-105167857D01*
X186518573Y-104739286D01*
X186590002Y-104596429D01*
X186661430Y-104525000D01*
X186804288Y-104453571D01*
X187090002Y-104453571D01*
X187232859Y-104525000D01*
X188161431Y-105453571D02*
X188018573Y-105382143D01*
X187947145Y-105310714D01*
X187875716Y-105167857D01*
X187875716Y-104739286D01*
X187947145Y-104596429D01*
X188018573Y-104525000D01*
X188161431Y-104453571D01*
X188375716Y-104453571D01*
X188518573Y-104525000D01*
X188590002Y-104596429D01*
X188661431Y-104739286D01*
X188661431Y-105167857D01*
X188590002Y-105310714D01*
X188518573Y-105382143D01*
X188375716Y-105453571D01*
X188161431Y-105453571D01*
X189304288Y-105453571D02*
X189304288Y-104453571D01*
X189304288Y-104596429D02*
X189375716Y-104525000D01*
X189518574Y-104453571D01*
X189732859Y-104453571D01*
X189875716Y-104525000D01*
X189947145Y-104667857D01*
X189947145Y-105453571D01*
X189947145Y-104667857D02*
X190018574Y-104525000D01*
X190161431Y-104453571D01*
X190375716Y-104453571D01*
X190518574Y-104525000D01*
X190590002Y-104667857D01*
X190590002Y-105453571D01*
X191304288Y-105453571D02*
X191304288Y-103953571D01*
X191304288Y-104525000D02*
X191447145Y-104453571D01*
X191732859Y-104453571D01*
X191875716Y-104525000D01*
X191947145Y-104596429D01*
X192018574Y-104739286D01*
X192018574Y-105167857D01*
X191947145Y-105310714D01*
X191875716Y-105382143D01*
X191732859Y-105453571D01*
X191447145Y-105453571D01*
X191304288Y-105382143D01*
X193304288Y-105453571D02*
X193304288Y-104667857D01*
X193232859Y-104525000D01*
X193090002Y-104453571D01*
X192804288Y-104453571D01*
X192661431Y-104525000D01*
X193304288Y-105382143D02*
X193161431Y-105453571D01*
X192804288Y-105453571D01*
X192661431Y-105382143D01*
X192590002Y-105239286D01*
X192590002Y-105096429D01*
X192661431Y-104953571D01*
X192804288Y-104882143D01*
X193161431Y-104882143D01*
X193304288Y-104810714D01*
X194018574Y-105310714D02*
X194090002Y-105382143D01*
X194018574Y-105453571D01*
X193947145Y-105382143D01*
X194018574Y-105310714D01*
X194018574Y-105453571D01*
X194732860Y-105453571D02*
X194732860Y-103953571D01*
X195375717Y-105453571D02*
X195375717Y-104667857D01*
X195304288Y-104525000D01*
X195161431Y-104453571D01*
X194947146Y-104453571D01*
X194804288Y-104525000D01*
X194732860Y-104596429D01*
X196732860Y-104453571D02*
X196732860Y-105453571D01*
X196090003Y-104453571D02*
X196090003Y-105239286D01*
X196161431Y-105382143D01*
X196304289Y-105453571D01*
X196518574Y-105453571D01*
X196661431Y-105382143D01*
X196732860Y-105310714D01*
X154205002Y-102215000D02*
X154133574Y-102143571D01*
X153990717Y-101929286D01*
X153919288Y-101786429D01*
X153847859Y-101572143D01*
X153776431Y-101215000D01*
X153776431Y-100929286D01*
X153847859Y-100572143D01*
X153919288Y-100357857D01*
X153990717Y-100215000D01*
X154133574Y-100000714D01*
X154205002Y-99929286D01*
X155633574Y-101500714D02*
X155562145Y-101572143D01*
X155347859Y-101643571D01*
X155205002Y-101643571D01*
X154990717Y-101572143D01*
X154847859Y-101429286D01*
X154776431Y-101286429D01*
X154705002Y-101000714D01*
X154705002Y-100786429D01*
X154776431Y-100500714D01*
X154847859Y-100357857D01*
X154990717Y-100215000D01*
X155205002Y-100143571D01*
X155347859Y-100143571D01*
X155562145Y-100215000D01*
X155633574Y-100286429D01*
X156133574Y-102215000D02*
X156205002Y-102143571D01*
X156347859Y-101929286D01*
X156419288Y-101786429D01*
X156490717Y-101572143D01*
X156562145Y-101215000D01*
X156562145Y-100929286D01*
X156490717Y-100572143D01*
X156419288Y-100357857D01*
X156347859Y-100215000D01*
X156205002Y-100000714D01*
X156133574Y-99929286D01*
X158347859Y-100286429D02*
X158419288Y-100215000D01*
X158562145Y-100143571D01*
X158919288Y-100143571D01*
X159062145Y-100215000D01*
X159133574Y-100286429D01*
X159205002Y-100429286D01*
X159205002Y-100572143D01*
X159133574Y-100786429D01*
X158276431Y-101643571D01*
X159205002Y-101643571D01*
X160133573Y-100143571D02*
X160276430Y-100143571D01*
X160419287Y-100215000D01*
X160490716Y-100286429D01*
X160562145Y-100429286D01*
X160633573Y-100715000D01*
X160633573Y-101072143D01*
X160562145Y-101357857D01*
X160490716Y-101500714D01*
X160419287Y-101572143D01*
X160276430Y-101643571D01*
X160133573Y-101643571D01*
X159990716Y-101572143D01*
X159919287Y-101500714D01*
X159847859Y-101357857D01*
X159776430Y-101072143D01*
X159776430Y-100715000D01*
X159847859Y-100429286D01*
X159919287Y-100286429D01*
X159990716Y-100215000D01*
X160133573Y-100143571D01*
X162062144Y-101643571D02*
X161205001Y-101643571D01*
X161633573Y-101643571D02*
X161633573Y-100143571D01*
X161490716Y-100357857D01*
X161347858Y-100500714D01*
X161205001Y-100572143D01*
X162919287Y-100786429D02*
X162776429Y-100715000D01*
X162705001Y-100643571D01*
X162633572Y-100500714D01*
X162633572Y-100429286D01*
X162705001Y-100286429D01*
X162776429Y-100215000D01*
X162919287Y-100143571D01*
X163205001Y-100143571D01*
X163347858Y-100215000D01*
X163419287Y-100286429D01*
X163490715Y-100429286D01*
X163490715Y-100500714D01*
X163419287Y-100643571D01*
X163347858Y-100715000D01*
X163205001Y-100786429D01*
X162919287Y-100786429D01*
X162776429Y-100857857D01*
X162705001Y-100929286D01*
X162633572Y-101072143D01*
X162633572Y-101357857D01*
X162705001Y-101500714D01*
X162776429Y-101572143D01*
X162919287Y-101643571D01*
X163205001Y-101643571D01*
X163347858Y-101572143D01*
X163419287Y-101500714D01*
X163490715Y-101357857D01*
X163490715Y-101072143D01*
X163419287Y-100929286D01*
X163347858Y-100857857D01*
X163205001Y-100786429D01*
X164133572Y-101072143D02*
X165276429Y-101072143D01*
X165919286Y-100286429D02*
X165990715Y-100215000D01*
X166133572Y-100143571D01*
X166490715Y-100143571D01*
X166633572Y-100215000D01*
X166705001Y-100286429D01*
X166776429Y-100429286D01*
X166776429Y-100572143D01*
X166705001Y-100786429D01*
X165847858Y-101643571D01*
X166776429Y-101643571D01*
X167705000Y-100143571D02*
X167847857Y-100143571D01*
X167990714Y-100215000D01*
X168062143Y-100286429D01*
X168133572Y-100429286D01*
X168205000Y-100715000D01*
X168205000Y-101072143D01*
X168133572Y-101357857D01*
X168062143Y-101500714D01*
X167990714Y-101572143D01*
X167847857Y-101643571D01*
X167705000Y-101643571D01*
X167562143Y-101572143D01*
X167490714Y-101500714D01*
X167419286Y-101357857D01*
X167347857Y-101072143D01*
X167347857Y-100715000D01*
X167419286Y-100429286D01*
X167490714Y-100286429D01*
X167562143Y-100215000D01*
X167705000Y-100143571D01*
X169633571Y-101643571D02*
X168776428Y-101643571D01*
X169205000Y-101643571D02*
X169205000Y-100143571D01*
X169062143Y-100357857D01*
X168919285Y-100500714D01*
X168776428Y-100572143D01*
X170347856Y-101643571D02*
X170633571Y-101643571D01*
X170776428Y-101572143D01*
X170847856Y-101500714D01*
X170990714Y-101286429D01*
X171062142Y-101000714D01*
X171062142Y-100429286D01*
X170990714Y-100286429D01*
X170919285Y-100215000D01*
X170776428Y-100143571D01*
X170490714Y-100143571D01*
X170347856Y-100215000D01*
X170276428Y-100286429D01*
X170204999Y-100429286D01*
X170204999Y-100786429D01*
X170276428Y-100929286D01*
X170347856Y-101000714D01*
X170490714Y-101072143D01*
X170776428Y-101072143D01*
X170919285Y-101000714D01*
X170990714Y-100929286D01*
X171062142Y-100786429D01*
X172847856Y-101643571D02*
X172847856Y-100143571D01*
X173419284Y-100143571D01*
X173562142Y-100215000D01*
X173633570Y-100286429D01*
X173704999Y-100429286D01*
X173704999Y-100643571D01*
X173633570Y-100786429D01*
X173562142Y-100857857D01*
X173419284Y-100929286D01*
X172847856Y-100929286D01*
X174562142Y-101643571D02*
X174419284Y-101572143D01*
X174347856Y-101500714D01*
X174276427Y-101357857D01*
X174276427Y-100929286D01*
X174347856Y-100786429D01*
X174419284Y-100715000D01*
X174562142Y-100643571D01*
X174776427Y-100643571D01*
X174919284Y-100715000D01*
X174990713Y-100786429D01*
X175062142Y-100929286D01*
X175062142Y-101357857D01*
X174990713Y-101500714D01*
X174919284Y-101572143D01*
X174776427Y-101643571D01*
X174562142Y-101643571D01*
X175562142Y-100643571D02*
X176347856Y-100643571D01*
X175562142Y-101643571D01*
X176347856Y-101643571D01*
X176847856Y-101572143D02*
X176990713Y-101643571D01*
X177276428Y-101643571D01*
X177419285Y-101572143D01*
X177490713Y-101429286D01*
X177490713Y-101357857D01*
X177419285Y-101215000D01*
X177276428Y-101143571D01*
X177062142Y-101143571D01*
X176919285Y-101072143D01*
X176847856Y-100929286D01*
X176847856Y-100857857D01*
X176919285Y-100715000D01*
X177062142Y-100643571D01*
X177276428Y-100643571D01*
X177419285Y-100715000D01*
X178776428Y-101643571D02*
X178776428Y-100857857D01*
X178704999Y-100715000D01*
X178562142Y-100643571D01*
X178276428Y-100643571D01*
X178133571Y-100715000D01*
X178776428Y-101572143D02*
X178633571Y-101643571D01*
X178276428Y-101643571D01*
X178133571Y-101572143D01*
X178062142Y-101429286D01*
X178062142Y-101286429D01*
X178133571Y-101143571D01*
X178276428Y-101072143D01*
X178633571Y-101072143D01*
X178776428Y-101000714D01*
X178562142Y-100072143D02*
X178347857Y-100286429D01*
X179490714Y-101643571D02*
X179490714Y-100643571D01*
X179490714Y-100929286D02*
X179562142Y-100786429D01*
X179633571Y-100715000D01*
X179776428Y-100643571D01*
X179919285Y-100643571D01*
X181419285Y-100143571D02*
X182419285Y-100143571D01*
X181419285Y-101643571D01*
X182419285Y-101643571D01*
X182919284Y-101572143D02*
X183062141Y-101643571D01*
X183347856Y-101643571D01*
X183490713Y-101572143D01*
X183562141Y-101429286D01*
X183562141Y-101357857D01*
X183490713Y-101215000D01*
X183347856Y-101143571D01*
X183133570Y-101143571D01*
X182990713Y-101072143D01*
X182919284Y-100929286D01*
X182919284Y-100857857D01*
X182990713Y-100715000D01*
X183133570Y-100643571D01*
X183347856Y-100643571D01*
X183490713Y-100715000D01*
X184419285Y-101643571D02*
X184276427Y-101572143D01*
X184204999Y-101500714D01*
X184133570Y-101357857D01*
X184133570Y-100929286D01*
X184204999Y-100786429D01*
X184276427Y-100715000D01*
X184419285Y-100643571D01*
X184633570Y-100643571D01*
X184776427Y-100715000D01*
X184847856Y-100786429D01*
X184919285Y-100929286D01*
X184919285Y-101357857D01*
X184847856Y-101500714D01*
X184776427Y-101572143D01*
X184633570Y-101643571D01*
X184419285Y-101643571D01*
X185776428Y-101643571D02*
X185633570Y-101572143D01*
X185562142Y-101429286D01*
X185562142Y-100143571D01*
X186133570Y-100643571D02*
X186704999Y-100643571D01*
X186347856Y-100143571D02*
X186347856Y-101429286D01*
X186419284Y-101572143D01*
X186562142Y-101643571D01*
X186704999Y-101643571D01*
X189204999Y-101500714D02*
X189133570Y-101572143D01*
X188919284Y-101643571D01*
X188776427Y-101643571D01*
X188562142Y-101572143D01*
X188419284Y-101429286D01*
X188347856Y-101286429D01*
X188276427Y-101000714D01*
X188276427Y-100786429D01*
X188347856Y-100500714D01*
X188419284Y-100357857D01*
X188562142Y-100215000D01*
X188776427Y-100143571D01*
X188919284Y-100143571D01*
X189133570Y-100215000D01*
X189204999Y-100286429D01*
X190704999Y-101500714D02*
X190633570Y-101572143D01*
X190419284Y-101643571D01*
X190276427Y-101643571D01*
X190062142Y-101572143D01*
X189919284Y-101429286D01*
X189847856Y-101286429D01*
X189776427Y-101000714D01*
X189776427Y-100786429D01*
X189847856Y-100500714D01*
X189919284Y-100357857D01*
X190062142Y-100215000D01*
X190276427Y-100143571D01*
X190419284Y-100143571D01*
X190633570Y-100215000D01*
X190704999Y-100286429D01*
X191347856Y-101072143D02*
X192490713Y-101072143D01*
X193704999Y-100857857D02*
X193919285Y-100929286D01*
X193990713Y-101000714D01*
X194062142Y-101143571D01*
X194062142Y-101357857D01*
X193990713Y-101500714D01*
X193919285Y-101572143D01*
X193776427Y-101643571D01*
X193204999Y-101643571D01*
X193204999Y-100143571D01*
X193704999Y-100143571D01*
X193847856Y-100215000D01*
X193919285Y-100286429D01*
X193990713Y-100429286D01*
X193990713Y-100572143D01*
X193919285Y-100715000D01*
X193847856Y-100786429D01*
X193704999Y-100857857D01*
X193204999Y-100857857D01*
X194990713Y-100929286D02*
X194990713Y-101643571D01*
X194490713Y-100143571D02*
X194990713Y-100929286D01*
X195490713Y-100143571D01*
X195990713Y-101072143D02*
X197133570Y-101072143D01*
X197847856Y-101643571D02*
X197847856Y-100143571D01*
X198704999Y-101643571D01*
X198704999Y-100143571D01*
X200276428Y-101500714D02*
X200204999Y-101572143D01*
X199990713Y-101643571D01*
X199847856Y-101643571D01*
X199633571Y-101572143D01*
X199490713Y-101429286D01*
X199419285Y-101286429D01*
X199347856Y-101000714D01*
X199347856Y-100786429D01*
X199419285Y-100500714D01*
X199490713Y-100357857D01*
X199633571Y-100215000D01*
X199847856Y-100143571D01*
X199990713Y-100143571D01*
X200204999Y-100215000D01*
X200276428Y-100286429D01*
X200919285Y-101072143D02*
X202062142Y-101072143D01*
X203419285Y-100643571D02*
X203419285Y-101643571D01*
X203062142Y-100072143D02*
X202704999Y-101143571D01*
X203633571Y-101143571D01*
X204204999Y-101500714D02*
X204276427Y-101572143D01*
X204204999Y-101643571D01*
X204133570Y-101572143D01*
X204204999Y-101500714D01*
X204204999Y-101643571D01*
X205204999Y-100143571D02*
X205347856Y-100143571D01*
X205490713Y-100215000D01*
X205562142Y-100286429D01*
X205633571Y-100429286D01*
X205704999Y-100715000D01*
X205704999Y-101072143D01*
X205633571Y-101357857D01*
X205562142Y-101500714D01*
X205490713Y-101572143D01*
X205347856Y-101643571D01*
X205204999Y-101643571D01*
X205062142Y-101572143D01*
X204990713Y-101500714D01*
X204919285Y-101357857D01*
X204847856Y-101072143D01*
X204847856Y-100715000D01*
X204919285Y-100429286D01*
X204990713Y-100286429D01*
X205062142Y-100215000D01*
X205204999Y-100143571D01*
X99738571Y-140612857D02*
X98238571Y-140612857D01*
X99738571Y-139898571D02*
X98238571Y-139898571D01*
X99738571Y-139041428D01*
X98238571Y-139041428D01*
X98738571Y-138398571D02*
X98738571Y-137327142D01*
X98095714Y-137969999D02*
X100024286Y-138398571D01*
X99381429Y-137469999D02*
X99381429Y-138541428D01*
X100024286Y-137898571D02*
X98095714Y-137469999D01*
X98738571Y-136184285D02*
X99738571Y-136184285D01*
X98167143Y-136541428D02*
X99238571Y-136898571D01*
X99238571Y-135969999D01*
X97198571Y-140612857D02*
X95698571Y-140612857D01*
X97198571Y-139898571D02*
X95698571Y-139898571D01*
X97198571Y-139041428D01*
X95698571Y-139041428D01*
X96198571Y-138398571D02*
X96198571Y-137327142D01*
X95555714Y-137969999D02*
X97484286Y-138398571D01*
X96841429Y-137469999D02*
X96841429Y-138541428D01*
X97484286Y-137898571D02*
X95555714Y-137469999D01*
X95698571Y-136969999D02*
X95698571Y-136041428D01*
X96270000Y-136541428D01*
X96270000Y-136327142D01*
X96341429Y-136184285D01*
X96412857Y-136112856D01*
X96555714Y-136041428D01*
X96912857Y-136041428D01*
X97055714Y-136112856D01*
X97127143Y-136184285D01*
X97198571Y-136327142D01*
X97198571Y-136755714D01*
X97127143Y-136898571D01*
X97055714Y-136969999D01*
X101492857Y-140612857D02*
X101492857Y-140112857D01*
X102278571Y-139898571D02*
X102278571Y-140612857D01*
X100778571Y-140612857D01*
X100778571Y-139898571D01*
X102278571Y-138398571D02*
X101564286Y-138898571D01*
X102278571Y-139255714D02*
X100778571Y-139255714D01*
X100778571Y-138684286D01*
X100850000Y-138541428D01*
X100921429Y-138470000D01*
X101064286Y-138398571D01*
X101278571Y-138398571D01*
X101421429Y-138470000D01*
X101492857Y-138541428D01*
X101564286Y-138684286D01*
X101564286Y-139255714D01*
X102278571Y-136898571D02*
X101564286Y-137398571D01*
X102278571Y-137755714D02*
X100778571Y-137755714D01*
X100778571Y-137184286D01*
X100850000Y-137041428D01*
X100921429Y-136970000D01*
X101064286Y-136898571D01*
X101278571Y-136898571D01*
X101421429Y-136970000D01*
X101492857Y-137041428D01*
X101564286Y-137184286D01*
X101564286Y-137755714D01*
X101278571Y-136327143D02*
X101278571Y-135255714D01*
X100635714Y-135898571D02*
X102564286Y-136327143D01*
X101921429Y-135398571D02*
X101921429Y-136470000D01*
X102564286Y-135827143D02*
X100635714Y-135398571D01*
X102278571Y-133970000D02*
X102278571Y-134827143D01*
X102278571Y-134398571D02*
X100778571Y-134398571D01*
X100992857Y-134541428D01*
X101135714Y-134684286D01*
X101207143Y-134827143D01*
X104032857Y-140612857D02*
X104032857Y-140112857D01*
X104818571Y-139898571D02*
X104818571Y-140612857D01*
X103318571Y-140612857D01*
X103318571Y-139898571D01*
X104818571Y-138398571D02*
X104104286Y-138898571D01*
X104818571Y-139255714D02*
X103318571Y-139255714D01*
X103318571Y-138684286D01*
X103390000Y-138541428D01*
X103461429Y-138470000D01*
X103604286Y-138398571D01*
X103818571Y-138398571D01*
X103961429Y-138470000D01*
X104032857Y-138541428D01*
X104104286Y-138684286D01*
X104104286Y-139255714D01*
X104818571Y-136898571D02*
X104104286Y-137398571D01*
X104818571Y-137755714D02*
X103318571Y-137755714D01*
X103318571Y-137184286D01*
X103390000Y-137041428D01*
X103461429Y-136970000D01*
X103604286Y-136898571D01*
X103818571Y-136898571D01*
X103961429Y-136970000D01*
X104032857Y-137041428D01*
X104104286Y-137184286D01*
X104104286Y-137755714D01*
X103818571Y-136327143D02*
X103818571Y-135255714D01*
X103175714Y-135898571D02*
X105104286Y-136327143D01*
X104461429Y-135398571D02*
X104461429Y-136470000D01*
X105104286Y-135827143D02*
X103175714Y-135398571D01*
X103461429Y-134827143D02*
X103390000Y-134755714D01*
X103318571Y-134612857D01*
X103318571Y-134255714D01*
X103390000Y-134112857D01*
X103461429Y-134041428D01*
X103604286Y-133970000D01*
X103747143Y-133970000D01*
X103961429Y-134041428D01*
X104818571Y-134898571D01*
X104818571Y-133970000D01*
X170287143Y-140612857D02*
X170287143Y-139470000D01*
X170858571Y-140041429D02*
X169715714Y-140041429D01*
X169358571Y-138041428D02*
X169358571Y-138755714D01*
X170072857Y-138827143D01*
X170001429Y-138755714D01*
X169930000Y-138612857D01*
X169930000Y-138255714D01*
X170001429Y-138112857D01*
X170072857Y-138041428D01*
X170215714Y-137970000D01*
X170572857Y-137970000D01*
X170715714Y-138041428D01*
X170787143Y-138112857D01*
X170858571Y-138255714D01*
X170858571Y-138612857D01*
X170787143Y-138755714D01*
X170715714Y-138827143D01*
X169358571Y-137541429D02*
X170858571Y-137041429D01*
X169358571Y-136541429D01*
X106572857Y-140612857D02*
X106572857Y-140112857D01*
X107358571Y-139898571D02*
X107358571Y-140612857D01*
X105858571Y-140612857D01*
X105858571Y-139898571D01*
X107358571Y-138398571D02*
X106644286Y-138898571D01*
X107358571Y-139255714D02*
X105858571Y-139255714D01*
X105858571Y-138684286D01*
X105930000Y-138541428D01*
X106001429Y-138470000D01*
X106144286Y-138398571D01*
X106358571Y-138398571D01*
X106501429Y-138470000D01*
X106572857Y-138541428D01*
X106644286Y-138684286D01*
X106644286Y-139255714D01*
X107358571Y-136898571D02*
X106644286Y-137398571D01*
X107358571Y-137755714D02*
X105858571Y-137755714D01*
X105858571Y-137184286D01*
X105930000Y-137041428D01*
X106001429Y-136970000D01*
X106144286Y-136898571D01*
X106358571Y-136898571D01*
X106501429Y-136970000D01*
X106572857Y-137041428D01*
X106644286Y-137184286D01*
X106644286Y-137755714D01*
X106358571Y-136327143D02*
X106358571Y-135255714D01*
X105715714Y-135898571D02*
X107644286Y-136327143D01*
X107001429Y-135398571D02*
X107001429Y-136470000D01*
X107644286Y-135827143D02*
X105715714Y-135398571D01*
X105858571Y-134898571D02*
X105858571Y-133970000D01*
X106430000Y-134470000D01*
X106430000Y-134255714D01*
X106501429Y-134112857D01*
X106572857Y-134041428D01*
X106715714Y-133970000D01*
X107072857Y-133970000D01*
X107215714Y-134041428D01*
X107287143Y-134112857D01*
X107358571Y-134255714D01*
X107358571Y-134684286D01*
X107287143Y-134827143D01*
X107215714Y-134898571D01*
X109112857Y-140612857D02*
X109112857Y-140112857D01*
X109898571Y-139898571D02*
X109898571Y-140612857D01*
X108398571Y-140612857D01*
X108398571Y-139898571D01*
X109898571Y-138398571D02*
X109184286Y-138898571D01*
X109898571Y-139255714D02*
X108398571Y-139255714D01*
X108398571Y-138684286D01*
X108470000Y-138541428D01*
X108541429Y-138470000D01*
X108684286Y-138398571D01*
X108898571Y-138398571D01*
X109041429Y-138470000D01*
X109112857Y-138541428D01*
X109184286Y-138684286D01*
X109184286Y-139255714D01*
X109898571Y-136898571D02*
X109184286Y-137398571D01*
X109898571Y-137755714D02*
X108398571Y-137755714D01*
X108398571Y-137184286D01*
X108470000Y-137041428D01*
X108541429Y-136970000D01*
X108684286Y-136898571D01*
X108898571Y-136898571D01*
X109041429Y-136970000D01*
X109112857Y-137041428D01*
X109184286Y-137184286D01*
X109184286Y-137755714D01*
X108898571Y-136327143D02*
X108898571Y-135255714D01*
X108255714Y-135898571D02*
X110184286Y-136327143D01*
X109541429Y-135398571D02*
X109541429Y-136470000D01*
X110184286Y-135827143D02*
X108255714Y-135398571D01*
X108898571Y-134112857D02*
X109898571Y-134112857D01*
X108327143Y-134470000D02*
X109398571Y-134827143D01*
X109398571Y-133898571D01*
X118558571Y-140327143D02*
X118558571Y-140041429D01*
X118630000Y-139898571D01*
X118772857Y-139755714D01*
X119058571Y-139684286D01*
X119558571Y-139684286D01*
X119844286Y-139755714D01*
X119987143Y-139898571D01*
X120058571Y-140041429D01*
X120058571Y-140327143D01*
X119987143Y-140470000D01*
X119844286Y-140612857D01*
X119558571Y-140684286D01*
X119058571Y-140684286D01*
X118772857Y-140612857D01*
X118630000Y-140470000D01*
X118558571Y-140327143D01*
X118558571Y-139041428D02*
X119772857Y-139041428D01*
X119915714Y-138970000D01*
X119987143Y-138898571D01*
X120058571Y-138755714D01*
X120058571Y-138470000D01*
X119987143Y-138327142D01*
X119915714Y-138255714D01*
X119772857Y-138184285D01*
X118558571Y-138184285D01*
X118558571Y-137684285D02*
X118558571Y-136827142D01*
X120058571Y-137255713D02*
X118558571Y-137255713D01*
X119058571Y-136398571D02*
X119058571Y-135327142D01*
X118415714Y-135969999D02*
X120344286Y-136398571D01*
X119701429Y-135469999D02*
X119701429Y-136541428D01*
X120344286Y-135898571D02*
X118415714Y-135469999D01*
X119058571Y-134184285D02*
X120058571Y-134184285D01*
X118487143Y-134541428D02*
X119558571Y-134898571D01*
X119558571Y-133969999D01*
X116018571Y-140327143D02*
X116018571Y-140041429D01*
X116090000Y-139898571D01*
X116232857Y-139755714D01*
X116518571Y-139684286D01*
X117018571Y-139684286D01*
X117304286Y-139755714D01*
X117447143Y-139898571D01*
X117518571Y-140041429D01*
X117518571Y-140327143D01*
X117447143Y-140470000D01*
X117304286Y-140612857D01*
X117018571Y-140684286D01*
X116518571Y-140684286D01*
X116232857Y-140612857D01*
X116090000Y-140470000D01*
X116018571Y-140327143D01*
X116018571Y-139041428D02*
X117232857Y-139041428D01*
X117375714Y-138970000D01*
X117447143Y-138898571D01*
X117518571Y-138755714D01*
X117518571Y-138470000D01*
X117447143Y-138327142D01*
X117375714Y-138255714D01*
X117232857Y-138184285D01*
X116018571Y-138184285D01*
X116018571Y-137684285D02*
X116018571Y-136827142D01*
X117518571Y-137255713D02*
X116018571Y-137255713D01*
X116518571Y-136398571D02*
X116518571Y-135327142D01*
X115875714Y-135969999D02*
X117804286Y-136398571D01*
X117161429Y-135469999D02*
X117161429Y-136541428D01*
X117804286Y-135898571D02*
X115875714Y-135469999D01*
X116018571Y-134969999D02*
X116018571Y-134041428D01*
X116590000Y-134541428D01*
X116590000Y-134327142D01*
X116661429Y-134184285D01*
X116732857Y-134112856D01*
X116875714Y-134041428D01*
X117232857Y-134041428D01*
X117375714Y-134112856D01*
X117447143Y-134184285D01*
X117518571Y-134327142D01*
X117518571Y-134755714D01*
X117447143Y-134898571D01*
X117375714Y-134969999D01*
X173398571Y-148284285D02*
X173398571Y-148998571D01*
X171898571Y-148998571D01*
X172612857Y-147784285D02*
X172612857Y-147284285D01*
X173398571Y-147069999D02*
X173398571Y-147784285D01*
X171898571Y-147784285D01*
X171898571Y-147069999D01*
X173398571Y-146427142D02*
X171898571Y-146427142D01*
X171898571Y-146069999D01*
X171970000Y-145855714D01*
X172112857Y-145712856D01*
X172255714Y-145641428D01*
X172541429Y-145569999D01*
X172755714Y-145569999D01*
X173041429Y-145641428D01*
X173184286Y-145712856D01*
X173327143Y-145855714D01*
X173398571Y-146069999D01*
X173398571Y-146427142D01*
X89150000Y-140684286D02*
X89150000Y-139970000D01*
X89578571Y-140827143D02*
X88078571Y-140327143D01*
X89578571Y-139827143D01*
X89435714Y-138470000D02*
X89507143Y-138541429D01*
X89578571Y-138755715D01*
X89578571Y-138898572D01*
X89507143Y-139112857D01*
X89364286Y-139255715D01*
X89221429Y-139327143D01*
X88935714Y-139398572D01*
X88721429Y-139398572D01*
X88435714Y-139327143D01*
X88292857Y-139255715D01*
X88150000Y-139112857D01*
X88078571Y-138898572D01*
X88078571Y-138755715D01*
X88150000Y-138541429D01*
X88221429Y-138470000D01*
X88078571Y-138041429D02*
X88078571Y-137184286D01*
X89578571Y-137612857D02*
X88078571Y-137612857D01*
X113478571Y-140327143D02*
X113478571Y-140041429D01*
X113550000Y-139898571D01*
X113692857Y-139755714D01*
X113978571Y-139684286D01*
X114478571Y-139684286D01*
X114764286Y-139755714D01*
X114907143Y-139898571D01*
X114978571Y-140041429D01*
X114978571Y-140327143D01*
X114907143Y-140470000D01*
X114764286Y-140612857D01*
X114478571Y-140684286D01*
X113978571Y-140684286D01*
X113692857Y-140612857D01*
X113550000Y-140470000D01*
X113478571Y-140327143D01*
X113478571Y-139041428D02*
X114692857Y-139041428D01*
X114835714Y-138970000D01*
X114907143Y-138898571D01*
X114978571Y-138755714D01*
X114978571Y-138470000D01*
X114907143Y-138327142D01*
X114835714Y-138255714D01*
X114692857Y-138184285D01*
X113478571Y-138184285D01*
X113478571Y-137684285D02*
X113478571Y-136827142D01*
X114978571Y-137255713D02*
X113478571Y-137255713D01*
X113978571Y-136398571D02*
X113978571Y-135327142D01*
X113335714Y-135969999D02*
X115264286Y-136398571D01*
X114621429Y-135469999D02*
X114621429Y-136541428D01*
X115264286Y-135898571D02*
X113335714Y-135469999D01*
X113621429Y-134898571D02*
X113550000Y-134827142D01*
X113478571Y-134684285D01*
X113478571Y-134327142D01*
X113550000Y-134184285D01*
X113621429Y-134112856D01*
X113764286Y-134041428D01*
X113907143Y-134041428D01*
X114121429Y-134112856D01*
X114978571Y-134969999D01*
X114978571Y-134041428D01*
X110938571Y-140327143D02*
X110938571Y-140041429D01*
X111010000Y-139898571D01*
X111152857Y-139755714D01*
X111438571Y-139684286D01*
X111938571Y-139684286D01*
X112224286Y-139755714D01*
X112367143Y-139898571D01*
X112438571Y-140041429D01*
X112438571Y-140327143D01*
X112367143Y-140470000D01*
X112224286Y-140612857D01*
X111938571Y-140684286D01*
X111438571Y-140684286D01*
X111152857Y-140612857D01*
X111010000Y-140470000D01*
X110938571Y-140327143D01*
X110938571Y-139041428D02*
X112152857Y-139041428D01*
X112295714Y-138970000D01*
X112367143Y-138898571D01*
X112438571Y-138755714D01*
X112438571Y-138470000D01*
X112367143Y-138327142D01*
X112295714Y-138255714D01*
X112152857Y-138184285D01*
X110938571Y-138184285D01*
X110938571Y-137684285D02*
X110938571Y-136827142D01*
X112438571Y-137255713D02*
X110938571Y-137255713D01*
X111438571Y-136398571D02*
X111438571Y-135327142D01*
X110795714Y-135969999D02*
X112724286Y-136398571D01*
X112081429Y-135469999D02*
X112081429Y-136541428D01*
X112724286Y-135898571D02*
X110795714Y-135469999D01*
X112438571Y-134041428D02*
X112438571Y-134898571D01*
X112438571Y-134469999D02*
X110938571Y-134469999D01*
X111152857Y-134612856D01*
X111295714Y-134755714D01*
X111367143Y-134898571D01*
X164350000Y-139827143D02*
X164278571Y-139970000D01*
X164278571Y-140184286D01*
X164350000Y-140398571D01*
X164492857Y-140541429D01*
X164635714Y-140612857D01*
X164921429Y-140684286D01*
X165135714Y-140684286D01*
X165421429Y-140612857D01*
X165564286Y-140541429D01*
X165707143Y-140398571D01*
X165778571Y-140184286D01*
X165778571Y-140041429D01*
X165707143Y-139827143D01*
X165635714Y-139755714D01*
X165135714Y-139755714D01*
X165135714Y-140041429D01*
X165778571Y-139112857D02*
X164278571Y-139112857D01*
X165778571Y-138255714D01*
X164278571Y-138255714D01*
X165778571Y-137541428D02*
X164278571Y-137541428D01*
X164278571Y-137184285D01*
X164350000Y-136970000D01*
X164492857Y-136827142D01*
X164635714Y-136755714D01*
X164921429Y-136684285D01*
X165135714Y-136684285D01*
X165421429Y-136755714D01*
X165564286Y-136827142D01*
X165707143Y-136970000D01*
X165778571Y-137184285D01*
X165778571Y-137541428D01*
X167747143Y-140612857D02*
X167747143Y-139470000D01*
X168318571Y-140041429D02*
X167175714Y-140041429D01*
X166818571Y-138898571D02*
X166818571Y-137970000D01*
X167390000Y-138470000D01*
X167390000Y-138255714D01*
X167461429Y-138112857D01*
X167532857Y-138041428D01*
X167675714Y-137970000D01*
X168032857Y-137970000D01*
X168175714Y-138041428D01*
X168247143Y-138112857D01*
X168318571Y-138255714D01*
X168318571Y-138684286D01*
X168247143Y-138827143D01*
X168175714Y-138898571D01*
X168247143Y-137255715D02*
X168318571Y-137255715D01*
X168461429Y-137327143D01*
X168532857Y-137398572D01*
X166818571Y-136755714D02*
X166818571Y-135827143D01*
X167390000Y-136327143D01*
X167390000Y-136112857D01*
X167461429Y-135970000D01*
X167532857Y-135898571D01*
X167675714Y-135827143D01*
X168032857Y-135827143D01*
X168175714Y-135898571D01*
X168247143Y-135970000D01*
X168318571Y-136112857D01*
X168318571Y-136541429D01*
X168247143Y-136684286D01*
X168175714Y-136755714D01*
X166818571Y-135398572D02*
X168318571Y-134898572D01*
X166818571Y-134398572D01*
X94658571Y-140612857D02*
X93158571Y-140612857D01*
X94658571Y-139898571D02*
X93158571Y-139898571D01*
X94658571Y-139041428D01*
X93158571Y-139041428D01*
X93658571Y-138398571D02*
X93658571Y-137327142D01*
X93015714Y-137969999D02*
X94944286Y-138398571D01*
X94301429Y-137469999D02*
X94301429Y-138541428D01*
X94944286Y-137898571D02*
X93015714Y-137469999D01*
X93301429Y-136898571D02*
X93230000Y-136827142D01*
X93158571Y-136684285D01*
X93158571Y-136327142D01*
X93230000Y-136184285D01*
X93301429Y-136112856D01*
X93444286Y-136041428D01*
X93587143Y-136041428D01*
X93801429Y-136112856D01*
X94658571Y-136969999D01*
X94658571Y-136041428D01*
X92118571Y-140612857D02*
X90618571Y-140612857D01*
X92118571Y-139898571D02*
X90618571Y-139898571D01*
X92118571Y-139041428D01*
X90618571Y-139041428D01*
X91118571Y-138398571D02*
X91118571Y-137327142D01*
X90475714Y-137969999D02*
X92404286Y-138398571D01*
X91761429Y-137469999D02*
X91761429Y-138541428D01*
X92404286Y-137898571D02*
X90475714Y-137469999D01*
X92118571Y-136041428D02*
X92118571Y-136898571D01*
X92118571Y-136469999D02*
X90618571Y-136469999D01*
X90832857Y-136612856D01*
X90975714Y-136755714D01*
X91047143Y-136898571D01*
D10*
X64770000Y-123190000D02*
X80010000Y-123190000D01*
X64770000Y-82550000D02*
X64770000Y-123190000D01*
X80010000Y-82550000D02*
X64770000Y-82550000D01*
X80010000Y-153670000D02*
X80010000Y-123190000D01*
X193040000Y-153670000D02*
X80010000Y-153670000D01*
X193040000Y-135890000D02*
X193040000Y-153670000D01*
X213360000Y-135890000D02*
X193040000Y-135890000D01*
X213360000Y-44450000D02*
X213360000Y-135890000D01*
X80010000Y-44450000D02*
X213360000Y-44450000D01*
X80010000Y-82550000D02*
X80010000Y-44450000D01*
D12*
X85090000Y-66040000D02*
X85090000Y-53340000D01*
X85090000Y-53340000D02*
X87630000Y-53340000D01*
X87630000Y-53340000D02*
X87630000Y-66040000D01*
X86360000Y-53340000D02*
X86360000Y-52070000D01*
X86360000Y-67310000D02*
X86360000Y-66040000D01*
X85852000Y-66040000D02*
X85090000Y-65278000D01*
X85090000Y-66040000D02*
X87630000Y-66040000D01*
X90170000Y-66040000D02*
X90170000Y-53340000D01*
X90170000Y-53340000D02*
X92710000Y-53340000D01*
X92710000Y-53340000D02*
X92710000Y-66040000D01*
X91440000Y-53340000D02*
X91440000Y-52070000D01*
X91440000Y-67310000D02*
X91440000Y-66040000D01*
X90932000Y-66040000D02*
X90170000Y-65278000D01*
X90170000Y-66040000D02*
X92710000Y-66040000D01*
X120650000Y-116840000D02*
X133350000Y-116840000D01*
X133350000Y-116840000D02*
X133350000Y-119380000D01*
X133350000Y-119380000D02*
X120650000Y-119380000D01*
X133350000Y-118110000D02*
X134620000Y-118110000D01*
X119380000Y-118110000D02*
X120650000Y-118110000D01*
X120650000Y-117602000D02*
X121412000Y-116840000D01*
X120650000Y-116840000D02*
X120650000Y-119380000D01*
X120650000Y-111760000D02*
X133350000Y-111760000D01*
X133350000Y-111760000D02*
X133350000Y-114300000D01*
X133350000Y-114300000D02*
X120650000Y-114300000D01*
X133350000Y-113030000D02*
X134620000Y-113030000D01*
X119380000Y-113030000D02*
X120650000Y-113030000D01*
X120650000Y-112522000D02*
X121412000Y-111760000D01*
X120650000Y-111760000D02*
X120650000Y-114300000D01*
X120650000Y-121920000D02*
X133350000Y-121920000D01*
X133350000Y-121920000D02*
X133350000Y-124460000D01*
X133350000Y-124460000D02*
X120650000Y-124460000D01*
X133350000Y-123190000D02*
X134620000Y-123190000D01*
X119380000Y-123190000D02*
X120650000Y-123190000D01*
X120650000Y-122682000D02*
X121412000Y-121920000D01*
X120650000Y-121920000D02*
X120650000Y-124460000D01*
X120650000Y-127000000D02*
X133350000Y-127000000D01*
X133350000Y-127000000D02*
X133350000Y-129540000D01*
X133350000Y-129540000D02*
X120650000Y-129540000D01*
X133350000Y-128270000D02*
X134620000Y-128270000D01*
X119380000Y-128270000D02*
X120650000Y-128270000D01*
X120650000Y-127762000D02*
X121412000Y-127000000D01*
X120650000Y-127000000D02*
X120650000Y-129540000D01*
D13*
X183845200Y-141605000D02*
X183845200Y-145415000D01*
D14*
X188232051Y-143510000D02*
G75*
G03X188232051Y-143510000I-1796051J0D01*
G01*
D15*
X183898003Y-145417668D02*
G75*
G03X183896000Y-141605000I2537997J1907668D01*
G01*
D16*
X186436000Y-144653000D02*
G75*
G03X187579000Y-143510000I0J1143000D01*
G01*
X186436000Y-142367000D02*
G75*
G03X185293000Y-143510000I0J-1143000D01*
G01*
X186436000Y-145161000D02*
G75*
G03X188087000Y-143510000I0J1651000D01*
G01*
X186436000Y-141859000D02*
G75*
G03X184785000Y-143510000I0J-1651000D01*
G01*
X186436000Y-145669000D02*
G75*
G03X188595000Y-143510000I0J2159000D01*
G01*
X186436000Y-141351000D02*
G75*
G03X184277000Y-143510000I0J-2159000D01*
G01*
D12*
X120650000Y-96520000D02*
X133350000Y-96520000D01*
X133350000Y-96520000D02*
X133350000Y-99060000D01*
X133350000Y-99060000D02*
X120650000Y-99060000D01*
X133350000Y-97790000D02*
X134620000Y-97790000D01*
X119380000Y-97790000D02*
X120650000Y-97790000D01*
X120650000Y-97282000D02*
X121412000Y-96520000D01*
X120650000Y-96520000D02*
X120650000Y-99060000D01*
X120650000Y-91440000D02*
X133350000Y-91440000D01*
X133350000Y-91440000D02*
X133350000Y-93980000D01*
X133350000Y-93980000D02*
X120650000Y-93980000D01*
X133350000Y-92710000D02*
X134620000Y-92710000D01*
X119380000Y-92710000D02*
X120650000Y-92710000D01*
X120650000Y-92202000D02*
X121412000Y-91440000D01*
X120650000Y-91440000D02*
X120650000Y-93980000D01*
X120650000Y-81280000D02*
X133350000Y-81280000D01*
X133350000Y-81280000D02*
X133350000Y-83820000D01*
X133350000Y-83820000D02*
X120650000Y-83820000D01*
X133350000Y-82550000D02*
X134620000Y-82550000D01*
X119380000Y-82550000D02*
X120650000Y-82550000D01*
X120650000Y-82042000D02*
X121412000Y-81280000D01*
X120650000Y-81280000D02*
X120650000Y-83820000D01*
X120650000Y-86360000D02*
X133350000Y-86360000D01*
X133350000Y-86360000D02*
X133350000Y-88900000D01*
X133350000Y-88900000D02*
X120650000Y-88900000D01*
X133350000Y-87630000D02*
X134620000Y-87630000D01*
X119380000Y-87630000D02*
X120650000Y-87630000D01*
X120650000Y-87122000D02*
X121412000Y-86360000D01*
X120650000Y-86360000D02*
X120650000Y-88900000D01*
D13*
X143205200Y-50165000D02*
X143205200Y-53975000D01*
D14*
X147592051Y-52070000D02*
G75*
G03X147592051Y-52070000I-1796051J0D01*
G01*
D15*
X143258003Y-53977668D02*
G75*
G03X143256000Y-50165000I2537997J1907668D01*
G01*
D16*
X145796000Y-53213000D02*
G75*
G03X146939000Y-52070000I0J1143000D01*
G01*
X145796000Y-50927000D02*
G75*
G03X144653000Y-52070000I0J-1143000D01*
G01*
X145796000Y-53721000D02*
G75*
G03X147447000Y-52070000I0J1651000D01*
G01*
X145796000Y-50419000D02*
G75*
G03X144145000Y-52070000I0J-1651000D01*
G01*
X145796000Y-54229000D02*
G75*
G03X147955000Y-52070000I0J2159000D01*
G01*
X145796000Y-49911000D02*
G75*
G03X143637000Y-52070000I0J-2159000D01*
G01*
D13*
X163525200Y-50165000D02*
X163525200Y-53975000D01*
D14*
X167912051Y-52070000D02*
G75*
G03X167912051Y-52070000I-1796051J0D01*
G01*
D15*
X163578003Y-53977668D02*
G75*
G03X163576000Y-50165000I2537997J1907668D01*
G01*
D16*
X166116000Y-53213000D02*
G75*
G03X167259000Y-52070000I0J1143000D01*
G01*
X166116000Y-50927000D02*
G75*
G03X164973000Y-52070000I0J-1143000D01*
G01*
X166116000Y-53721000D02*
G75*
G03X167767000Y-52070000I0J1651000D01*
G01*
X166116000Y-50419000D02*
G75*
G03X164465000Y-52070000I0J-1651000D01*
G01*
X166116000Y-54229000D02*
G75*
G03X168275000Y-52070000I0J2159000D01*
G01*
X166116000Y-49911000D02*
G75*
G03X163957000Y-52070000I0J-2159000D01*
G01*
D13*
X183845200Y-50165000D02*
X183845200Y-53975000D01*
D14*
X188232051Y-52070000D02*
G75*
G03X188232051Y-52070000I-1796051J0D01*
G01*
D15*
X183898003Y-53977668D02*
G75*
G03X183896000Y-50165000I2537997J1907668D01*
G01*
D16*
X186436000Y-53213000D02*
G75*
G03X187579000Y-52070000I0J1143000D01*
G01*
X186436000Y-50927000D02*
G75*
G03X185293000Y-52070000I0J-1143000D01*
G01*
X186436000Y-53721000D02*
G75*
G03X188087000Y-52070000I0J1651000D01*
G01*
X186436000Y-50419000D02*
G75*
G03X184785000Y-52070000I0J-1651000D01*
G01*
X186436000Y-54229000D02*
G75*
G03X188595000Y-52070000I0J2159000D01*
G01*
X186436000Y-49911000D02*
G75*
G03X184277000Y-52070000I0J-2159000D01*
G01*
D13*
X204165200Y-50165000D02*
X204165200Y-53975000D01*
D14*
X208552051Y-52070000D02*
G75*
G03X208552051Y-52070000I-1796051J0D01*
G01*
D15*
X204218003Y-53977668D02*
G75*
G03X204216000Y-50165000I2537997J1907668D01*
G01*
D16*
X206756000Y-53213000D02*
G75*
G03X207899000Y-52070000I0J1143000D01*
G01*
X206756000Y-50927000D02*
G75*
G03X205613000Y-52070000I0J-1143000D01*
G01*
X206756000Y-53721000D02*
G75*
G03X208407000Y-52070000I0J1651000D01*
G01*
X206756000Y-50419000D02*
G75*
G03X205105000Y-52070000I0J-1651000D01*
G01*
X206756000Y-54229000D02*
G75*
G03X208915000Y-52070000I0J2159000D01*
G01*
X206756000Y-49911000D02*
G75*
G03X204597000Y-52070000I0J-2159000D01*
G01*
D13*
X204165200Y-80645000D02*
X204165200Y-84455000D01*
D14*
X208552051Y-82550000D02*
G75*
G03X208552051Y-82550000I-1796051J0D01*
G01*
D15*
X204218003Y-84457668D02*
G75*
G03X204216000Y-80645000I2537997J1907668D01*
G01*
D16*
X206756000Y-83693000D02*
G75*
G03X207899000Y-82550000I0J1143000D01*
G01*
X206756000Y-81407000D02*
G75*
G03X205613000Y-82550000I0J-1143000D01*
G01*
X206756000Y-84201000D02*
G75*
G03X208407000Y-82550000I0J1651000D01*
G01*
X206756000Y-80899000D02*
G75*
G03X205105000Y-82550000I0J-1651000D01*
G01*
X206756000Y-84709000D02*
G75*
G03X208915000Y-82550000I0J2159000D01*
G01*
X206756000Y-80391000D02*
G75*
G03X204597000Y-82550000I0J-2159000D01*
G01*
D13*
X183845200Y-80645000D02*
X183845200Y-84455000D01*
D14*
X188232051Y-82550000D02*
G75*
G03X188232051Y-82550000I-1796051J0D01*
G01*
D15*
X183898003Y-84457668D02*
G75*
G03X183896000Y-80645000I2537997J1907668D01*
G01*
D16*
X186436000Y-83693000D02*
G75*
G03X187579000Y-82550000I0J1143000D01*
G01*
X186436000Y-81407000D02*
G75*
G03X185293000Y-82550000I0J-1143000D01*
G01*
X186436000Y-84201000D02*
G75*
G03X188087000Y-82550000I0J1651000D01*
G01*
X186436000Y-80899000D02*
G75*
G03X184785000Y-82550000I0J-1651000D01*
G01*
X186436000Y-84709000D02*
G75*
G03X188595000Y-82550000I0J2159000D01*
G01*
X186436000Y-80391000D02*
G75*
G03X184277000Y-82550000I0J-2159000D01*
G01*
D13*
X163525200Y-80645000D02*
X163525200Y-84455000D01*
D14*
X167912051Y-82550000D02*
G75*
G03X167912051Y-82550000I-1796051J0D01*
G01*
D15*
X163578003Y-84457668D02*
G75*
G03X163576000Y-80645000I2537997J1907668D01*
G01*
D16*
X166116000Y-83693000D02*
G75*
G03X167259000Y-82550000I0J1143000D01*
G01*
X166116000Y-81407000D02*
G75*
G03X164973000Y-82550000I0J-1143000D01*
G01*
X166116000Y-84201000D02*
G75*
G03X167767000Y-82550000I0J1651000D01*
G01*
X166116000Y-80899000D02*
G75*
G03X164465000Y-82550000I0J-1651000D01*
G01*
X166116000Y-84709000D02*
G75*
G03X168275000Y-82550000I0J2159000D01*
G01*
X166116000Y-80391000D02*
G75*
G03X163957000Y-82550000I0J-2159000D01*
G01*
D13*
X143205200Y-80645000D02*
X143205200Y-84455000D01*
D14*
X147592051Y-82550000D02*
G75*
G03X147592051Y-82550000I-1796051J0D01*
G01*
D15*
X143258003Y-84457668D02*
G75*
G03X143256000Y-80645000I2537997J1907668D01*
G01*
D16*
X145796000Y-83693000D02*
G75*
G03X146939000Y-82550000I0J1143000D01*
G01*
X145796000Y-81407000D02*
G75*
G03X144653000Y-82550000I0J-1143000D01*
G01*
X145796000Y-84201000D02*
G75*
G03X147447000Y-82550000I0J1651000D01*
G01*
X145796000Y-80899000D02*
G75*
G03X144145000Y-82550000I0J-1651000D01*
G01*
X145796000Y-84709000D02*
G75*
G03X147955000Y-82550000I0J2159000D01*
G01*
X145796000Y-80391000D02*
G75*
G03X143637000Y-82550000I0J-2159000D01*
G01*
D12*
X100330000Y-55880000D02*
X113030000Y-55880000D01*
X113030000Y-55880000D02*
X113030000Y-58420000D01*
X113030000Y-58420000D02*
X100330000Y-58420000D01*
X113030000Y-57150000D02*
X114300000Y-57150000D01*
X99060000Y-57150000D02*
X100330000Y-57150000D01*
X100330000Y-56642000D02*
X101092000Y-55880000D01*
X100330000Y-55880000D02*
X100330000Y-58420000D01*
X120650000Y-55880000D02*
X133350000Y-55880000D01*
X133350000Y-55880000D02*
X133350000Y-58420000D01*
X133350000Y-58420000D02*
X120650000Y-58420000D01*
X133350000Y-57150000D02*
X134620000Y-57150000D01*
X119380000Y-57150000D02*
X120650000Y-57150000D01*
X120650000Y-56642000D02*
X121412000Y-55880000D01*
X120650000Y-55880000D02*
X120650000Y-58420000D01*
X120650000Y-50800000D02*
X133350000Y-50800000D01*
X133350000Y-50800000D02*
X133350000Y-53340000D01*
X133350000Y-53340000D02*
X120650000Y-53340000D01*
X133350000Y-52070000D02*
X134620000Y-52070000D01*
X119380000Y-52070000D02*
X120650000Y-52070000D01*
X120650000Y-51562000D02*
X121412000Y-50800000D01*
X120650000Y-50800000D02*
X120650000Y-53340000D01*
X100330000Y-50800000D02*
X113030000Y-50800000D01*
X113030000Y-50800000D02*
X113030000Y-53340000D01*
X113030000Y-53340000D02*
X100330000Y-53340000D01*
X113030000Y-52070000D02*
X114300000Y-52070000D01*
X99060000Y-52070000D02*
X100330000Y-52070000D01*
X100330000Y-51562000D02*
X101092000Y-50800000D01*
X100330000Y-50800000D02*
X100330000Y-53340000D01*
X100330000Y-60960000D02*
X113030000Y-60960000D01*
X113030000Y-60960000D02*
X113030000Y-63500000D01*
X113030000Y-63500000D02*
X100330000Y-63500000D01*
X113030000Y-62230000D02*
X114300000Y-62230000D01*
X99060000Y-62230000D02*
X100330000Y-62230000D01*
X100330000Y-61722000D02*
X101092000Y-60960000D01*
X100330000Y-60960000D02*
X100330000Y-63500000D01*
X120650000Y-60960000D02*
X133350000Y-60960000D01*
X133350000Y-60960000D02*
X133350000Y-63500000D01*
X133350000Y-63500000D02*
X120650000Y-63500000D01*
X133350000Y-62230000D02*
X134620000Y-62230000D01*
X119380000Y-62230000D02*
X120650000Y-62230000D01*
X120650000Y-61722000D02*
X121412000Y-60960000D01*
X120650000Y-60960000D02*
X120650000Y-63500000D01*
D13*
X68275200Y-90805000D02*
X68275200Y-94615000D01*
D14*
X72662051Y-92710000D02*
G75*
G03X72662051Y-92710000I-1796051J0D01*
G01*
D15*
X68328003Y-94617668D02*
G75*
G03X68326000Y-90805000I2537997J1907668D01*
G01*
D16*
X70866000Y-93853000D02*
G75*
G03X72009000Y-92710000I0J1143000D01*
G01*
X70866000Y-91567000D02*
G75*
G03X69723000Y-92710000I0J-1143000D01*
G01*
X70866000Y-94361000D02*
G75*
G03X72517000Y-92710000I0J1651000D01*
G01*
X70866000Y-91059000D02*
G75*
G03X69215000Y-92710000I0J-1651000D01*
G01*
X70866000Y-94869000D02*
G75*
G03X73025000Y-92710000I0J2159000D01*
G01*
X70866000Y-90551000D02*
G75*
G03X68707000Y-92710000I0J-2159000D01*
G01*
D13*
X68275200Y-111125000D02*
X68275200Y-114935000D01*
D14*
X72662051Y-113030000D02*
G75*
G03X72662051Y-113030000I-1796051J0D01*
G01*
D15*
X68328003Y-114937668D02*
G75*
G03X68326000Y-111125000I2537997J1907668D01*
G01*
D16*
X70866000Y-114173000D02*
G75*
G03X72009000Y-113030000I0J1143000D01*
G01*
X70866000Y-111887000D02*
G75*
G03X69723000Y-113030000I0J-1143000D01*
G01*
X70866000Y-114681000D02*
G75*
G03X72517000Y-113030000I0J1651000D01*
G01*
X70866000Y-111379000D02*
G75*
G03X69215000Y-113030000I0J-1651000D01*
G01*
X70866000Y-115189000D02*
G75*
G03X73025000Y-113030000I0J2159000D01*
G01*
X70866000Y-110871000D02*
G75*
G03X68707000Y-113030000I0J-2159000D01*
G01*
D13*
X143205200Y-111125000D02*
X143205200Y-114935000D01*
D14*
X147592051Y-113030000D02*
G75*
G03X147592051Y-113030000I-1796051J0D01*
G01*
D15*
X143258003Y-114937668D02*
G75*
G03X143256000Y-111125000I2537997J1907668D01*
G01*
D16*
X145796000Y-114173000D02*
G75*
G03X146939000Y-113030000I0J1143000D01*
G01*
X145796000Y-111887000D02*
G75*
G03X144653000Y-113030000I0J-1143000D01*
G01*
X145796000Y-114681000D02*
G75*
G03X147447000Y-113030000I0J1651000D01*
G01*
X145796000Y-111379000D02*
G75*
G03X144145000Y-113030000I0J-1651000D01*
G01*
X145796000Y-115189000D02*
G75*
G03X147955000Y-113030000I0J2159000D01*
G01*
X145796000Y-110871000D02*
G75*
G03X143637000Y-113030000I0J-2159000D01*
G01*
D12*
X120650000Y-66040000D02*
X133350000Y-66040000D01*
X133350000Y-66040000D02*
X133350000Y-68580000D01*
X133350000Y-68580000D02*
X120650000Y-68580000D01*
X133350000Y-67310000D02*
X134620000Y-67310000D01*
X119380000Y-67310000D02*
X120650000Y-67310000D01*
X120650000Y-66802000D02*
X121412000Y-66040000D01*
X120650000Y-66040000D02*
X120650000Y-68580000D01*
X100330000Y-66040000D02*
X113030000Y-66040000D01*
X113030000Y-66040000D02*
X113030000Y-68580000D01*
X113030000Y-68580000D02*
X100330000Y-68580000D01*
X113030000Y-67310000D02*
X114300000Y-67310000D01*
X99060000Y-67310000D02*
X100330000Y-67310000D01*
X100330000Y-66802000D02*
X101092000Y-66040000D01*
X100330000Y-66040000D02*
X100330000Y-68580000D01*
D13*
X163525200Y-111125000D02*
X163525200Y-114935000D01*
D14*
X167912051Y-113030000D02*
G75*
G03X167912051Y-113030000I-1796051J0D01*
G01*
D15*
X163578003Y-114937668D02*
G75*
G03X163576000Y-111125000I2537997J1907668D01*
G01*
D16*
X166116000Y-114173000D02*
G75*
G03X167259000Y-113030000I0J1143000D01*
G01*
X166116000Y-111887000D02*
G75*
G03X164973000Y-113030000I0J-1143000D01*
G01*
X166116000Y-114681000D02*
G75*
G03X167767000Y-113030000I0J1651000D01*
G01*
X166116000Y-111379000D02*
G75*
G03X164465000Y-113030000I0J-1651000D01*
G01*
X166116000Y-115189000D02*
G75*
G03X168275000Y-113030000I0J2159000D01*
G01*
X166116000Y-110871000D02*
G75*
G03X163957000Y-113030000I0J-2159000D01*
G01*
D13*
X183845200Y-111125000D02*
X183845200Y-114935000D01*
D14*
X188232051Y-113030000D02*
G75*
G03X188232051Y-113030000I-1796051J0D01*
G01*
D15*
X183898003Y-114937668D02*
G75*
G03X183896000Y-111125000I2537997J1907668D01*
G01*
D16*
X186436000Y-114173000D02*
G75*
G03X187579000Y-113030000I0J1143000D01*
G01*
X186436000Y-111887000D02*
G75*
G03X185293000Y-113030000I0J-1143000D01*
G01*
X186436000Y-114681000D02*
G75*
G03X188087000Y-113030000I0J1651000D01*
G01*
X186436000Y-111379000D02*
G75*
G03X184785000Y-113030000I0J-1651000D01*
G01*
X186436000Y-115189000D02*
G75*
G03X188595000Y-113030000I0J2159000D01*
G01*
X186436000Y-110871000D02*
G75*
G03X184277000Y-113030000I0J-2159000D01*
G01*
D13*
X204165200Y-111125000D02*
X204165200Y-114935000D01*
D14*
X208552051Y-113030000D02*
G75*
G03X208552051Y-113030000I-1796051J0D01*
G01*
D15*
X204218003Y-114937668D02*
G75*
G03X204216000Y-111125000I2537997J1907668D01*
G01*
D16*
X206756000Y-114173000D02*
G75*
G03X207899000Y-113030000I0J1143000D01*
G01*
X206756000Y-111887000D02*
G75*
G03X205613000Y-113030000I0J-1143000D01*
G01*
X206756000Y-114681000D02*
G75*
G03X208407000Y-113030000I0J1651000D01*
G01*
X206756000Y-111379000D02*
G75*
G03X205105000Y-113030000I0J-1651000D01*
G01*
X206756000Y-115189000D02*
G75*
G03X208915000Y-113030000I0J2159000D01*
G01*
X206756000Y-110871000D02*
G75*
G03X204597000Y-113030000I0J-2159000D01*
G01*
D12*
X87630000Y-142240000D02*
X120650000Y-142240000D01*
X120650000Y-142240000D02*
X120650000Y-144780000D01*
X120650000Y-144780000D02*
X87630000Y-144780000D01*
X87630000Y-144780000D02*
X87630000Y-142240000D01*
X90170000Y-142240000D02*
X90170000Y-144780000D01*
X163830000Y-142240000D02*
X163830000Y-142240000D01*
X163830000Y-144780000D02*
X163830000Y-142240000D01*
X163830000Y-142240000D02*
X163830000Y-142240000D01*
X163830000Y-142240000D02*
X173990000Y-142240000D01*
X173990000Y-142240000D02*
X173990000Y-144780000D01*
X173990000Y-144780000D02*
X163830000Y-144780000D01*
X166370000Y-144780000D02*
X166370000Y-142240000D01*
X173990000Y-135890000D02*
X186690000Y-135890000D01*
X186690000Y-135890000D02*
X186690000Y-138430000D01*
X186690000Y-138430000D02*
X173990000Y-138430000D01*
X186690000Y-137160000D02*
X187960000Y-137160000D01*
X172720000Y-137160000D02*
X173990000Y-137160000D01*
X173990000Y-136652000D02*
X174752000Y-135890000D01*
X173990000Y-135890000D02*
X173990000Y-138430000D01*
D13*
X86991976Y-60506429D02*
X86326738Y-60929762D01*
X86991976Y-61232143D02*
X85594976Y-61232143D01*
X85594976Y-60748334D01*
X85661500Y-60627381D01*
X85728024Y-60566905D01*
X85861071Y-60506429D01*
X86060643Y-60506429D01*
X86193690Y-60566905D01*
X86260214Y-60627381D01*
X86326738Y-60748334D01*
X86326738Y-61232143D01*
X86991976Y-59296905D02*
X86991976Y-60022619D01*
X86991976Y-59659762D02*
X85594976Y-59659762D01*
X85794548Y-59780714D01*
X85927595Y-59901667D01*
X85994119Y-60022619D01*
X85594976Y-58510714D02*
X85594976Y-58389762D01*
X85661500Y-58268810D01*
X85728024Y-58208333D01*
X85861071Y-58147857D01*
X86127167Y-58087381D01*
X86459786Y-58087381D01*
X86725881Y-58147857D01*
X86858929Y-58208333D01*
X86925452Y-58268810D01*
X86991976Y-58389762D01*
X86991976Y-58510714D01*
X86925452Y-58631667D01*
X86858929Y-58692143D01*
X86725881Y-58752619D01*
X86459786Y-58813095D01*
X86127167Y-58813095D01*
X85861071Y-58752619D01*
X85728024Y-58692143D01*
X85661500Y-58631667D01*
X85594976Y-58510714D01*
X92071976Y-60506429D02*
X91406738Y-60929762D01*
X92071976Y-61232143D02*
X90674976Y-61232143D01*
X90674976Y-60748334D01*
X90741500Y-60627381D01*
X90808024Y-60566905D01*
X90941071Y-60506429D01*
X91140643Y-60506429D01*
X91273690Y-60566905D01*
X91340214Y-60627381D01*
X91406738Y-60748334D01*
X91406738Y-61232143D01*
X92071976Y-59296905D02*
X92071976Y-60022619D01*
X92071976Y-59659762D02*
X90674976Y-59659762D01*
X90874548Y-59780714D01*
X91007595Y-59901667D01*
X91074119Y-60022619D01*
X92071976Y-58087381D02*
X92071976Y-58813095D01*
X92071976Y-58450238D02*
X90674976Y-58450238D01*
X90874548Y-58571190D01*
X91007595Y-58692143D01*
X91074119Y-58813095D01*
X126183571Y-118741976D02*
X125760238Y-118076738D01*
X125457857Y-118741976D02*
X125457857Y-117344976D01*
X125941666Y-117344976D01*
X126062619Y-117411500D01*
X126123095Y-117478024D01*
X126183571Y-117611071D01*
X126183571Y-117810643D01*
X126123095Y-117943690D01*
X126062619Y-118010214D01*
X125941666Y-118076738D01*
X125457857Y-118076738D01*
X127393095Y-118741976D02*
X126667381Y-118741976D01*
X127030238Y-118741976D02*
X127030238Y-117344976D01*
X126909286Y-117544548D01*
X126788333Y-117677595D01*
X126667381Y-117744119D01*
X127816429Y-117344976D02*
X128663095Y-117344976D01*
X128118810Y-118741976D01*
X126183571Y-113661976D02*
X125760238Y-112996738D01*
X125457857Y-113661976D02*
X125457857Y-112264976D01*
X125941666Y-112264976D01*
X126062619Y-112331500D01*
X126123095Y-112398024D01*
X126183571Y-112531071D01*
X126183571Y-112730643D01*
X126123095Y-112863690D01*
X126062619Y-112930214D01*
X125941666Y-112996738D01*
X125457857Y-112996738D01*
X127393095Y-113661976D02*
X126667381Y-113661976D01*
X127030238Y-113661976D02*
X127030238Y-112264976D01*
X126909286Y-112464548D01*
X126788333Y-112597595D01*
X126667381Y-112664119D01*
X128481667Y-112264976D02*
X128239762Y-112264976D01*
X128118810Y-112331500D01*
X128058333Y-112398024D01*
X127937381Y-112597595D01*
X127876905Y-112863690D01*
X127876905Y-113395881D01*
X127937381Y-113528929D01*
X127997857Y-113595452D01*
X128118810Y-113661976D01*
X128360714Y-113661976D01*
X128481667Y-113595452D01*
X128542143Y-113528929D01*
X128602619Y-113395881D01*
X128602619Y-113063262D01*
X128542143Y-112930214D01*
X128481667Y-112863690D01*
X128360714Y-112797167D01*
X128118810Y-112797167D01*
X127997857Y-112863690D01*
X127937381Y-112930214D01*
X127876905Y-113063262D01*
X126183571Y-123821976D02*
X125760238Y-123156738D01*
X125457857Y-123821976D02*
X125457857Y-122424976D01*
X125941666Y-122424976D01*
X126062619Y-122491500D01*
X126123095Y-122558024D01*
X126183571Y-122691071D01*
X126183571Y-122890643D01*
X126123095Y-123023690D01*
X126062619Y-123090214D01*
X125941666Y-123156738D01*
X125457857Y-123156738D01*
X127393095Y-123821976D02*
X126667381Y-123821976D01*
X127030238Y-123821976D02*
X127030238Y-122424976D01*
X126909286Y-122624548D01*
X126788333Y-122757595D01*
X126667381Y-122824119D01*
X128118810Y-123023690D02*
X127997857Y-122957167D01*
X127937381Y-122890643D01*
X127876905Y-122757595D01*
X127876905Y-122691071D01*
X127937381Y-122558024D01*
X127997857Y-122491500D01*
X128118810Y-122424976D01*
X128360714Y-122424976D01*
X128481667Y-122491500D01*
X128542143Y-122558024D01*
X128602619Y-122691071D01*
X128602619Y-122757595D01*
X128542143Y-122890643D01*
X128481667Y-122957167D01*
X128360714Y-123023690D01*
X128118810Y-123023690D01*
X127997857Y-123090214D01*
X127937381Y-123156738D01*
X127876905Y-123289786D01*
X127876905Y-123555881D01*
X127937381Y-123688929D01*
X127997857Y-123755452D01*
X128118810Y-123821976D01*
X128360714Y-123821976D01*
X128481667Y-123755452D01*
X128542143Y-123688929D01*
X128602619Y-123555881D01*
X128602619Y-123289786D01*
X128542143Y-123156738D01*
X128481667Y-123090214D01*
X128360714Y-123023690D01*
X126183571Y-128901976D02*
X125760238Y-128236738D01*
X125457857Y-128901976D02*
X125457857Y-127504976D01*
X125941666Y-127504976D01*
X126062619Y-127571500D01*
X126123095Y-127638024D01*
X126183571Y-127771071D01*
X126183571Y-127970643D01*
X126123095Y-128103690D01*
X126062619Y-128170214D01*
X125941666Y-128236738D01*
X125457857Y-128236738D01*
X127393095Y-128901976D02*
X126667381Y-128901976D01*
X127030238Y-128901976D02*
X127030238Y-127504976D01*
X126909286Y-127704548D01*
X126788333Y-127837595D01*
X126667381Y-127904119D01*
X127997857Y-128901976D02*
X128239762Y-128901976D01*
X128360714Y-128835452D01*
X128421190Y-128768929D01*
X128542143Y-128569357D01*
X128602619Y-128303262D01*
X128602619Y-127771071D01*
X128542143Y-127638024D01*
X128481667Y-127571500D01*
X128360714Y-127504976D01*
X128118810Y-127504976D01*
X127997857Y-127571500D01*
X127937381Y-127638024D01*
X127876905Y-127771071D01*
X127876905Y-128103690D01*
X127937381Y-128236738D01*
X127997857Y-128303262D01*
X128118810Y-128369786D01*
X128360714Y-128369786D01*
X128481667Y-128303262D01*
X128542143Y-128236738D01*
X128602619Y-128103690D01*
D17*
X186127572Y-147664714D02*
X186127572Y-146902714D01*
X186309000Y-146902714D01*
X186417857Y-146939000D01*
X186490429Y-147011571D01*
X186526714Y-147084143D01*
X186563000Y-147229286D01*
X186563000Y-147338143D01*
X186526714Y-147483286D01*
X186490429Y-147555857D01*
X186417857Y-147628429D01*
X186309000Y-147664714D01*
X186127572Y-147664714D01*
X187252429Y-146902714D02*
X186889572Y-146902714D01*
X186853286Y-147265571D01*
X186889572Y-147229286D01*
X186962143Y-147193000D01*
X187143572Y-147193000D01*
X187216143Y-147229286D01*
X187252429Y-147265571D01*
X187288714Y-147338143D01*
X187288714Y-147519571D01*
X187252429Y-147592143D01*
X187216143Y-147628429D01*
X187143572Y-147664714D01*
X186962143Y-147664714D01*
X186889572Y-147628429D01*
X186853286Y-147592143D01*
D13*
X126183571Y-98421976D02*
X125760238Y-97756738D01*
X125457857Y-98421976D02*
X125457857Y-97024976D01*
X125941666Y-97024976D01*
X126062619Y-97091500D01*
X126123095Y-97158024D01*
X126183571Y-97291071D01*
X126183571Y-97490643D01*
X126123095Y-97623690D01*
X126062619Y-97690214D01*
X125941666Y-97756738D01*
X125457857Y-97756738D01*
X127393095Y-98421976D02*
X126667381Y-98421976D01*
X127030238Y-98421976D02*
X127030238Y-97024976D01*
X126909286Y-97224548D01*
X126788333Y-97357595D01*
X126667381Y-97424119D01*
X128542143Y-97024976D02*
X127937381Y-97024976D01*
X127876905Y-97690214D01*
X127937381Y-97623690D01*
X128058333Y-97557167D01*
X128360714Y-97557167D01*
X128481667Y-97623690D01*
X128542143Y-97690214D01*
X128602619Y-97823262D01*
X128602619Y-98155881D01*
X128542143Y-98288929D01*
X128481667Y-98355452D01*
X128360714Y-98421976D01*
X128058333Y-98421976D01*
X127937381Y-98355452D01*
X127876905Y-98288929D01*
X126183571Y-93341976D02*
X125760238Y-92676738D01*
X125457857Y-93341976D02*
X125457857Y-91944976D01*
X125941666Y-91944976D01*
X126062619Y-92011500D01*
X126123095Y-92078024D01*
X126183571Y-92211071D01*
X126183571Y-92410643D01*
X126123095Y-92543690D01*
X126062619Y-92610214D01*
X125941666Y-92676738D01*
X125457857Y-92676738D01*
X127393095Y-93341976D02*
X126667381Y-93341976D01*
X127030238Y-93341976D02*
X127030238Y-91944976D01*
X126909286Y-92144548D01*
X126788333Y-92277595D01*
X126667381Y-92344119D01*
X128481667Y-92410643D02*
X128481667Y-93341976D01*
X128179286Y-91878452D02*
X127876905Y-92876310D01*
X128663095Y-92876310D01*
X126183571Y-83181976D02*
X125760238Y-82516738D01*
X125457857Y-83181976D02*
X125457857Y-81784976D01*
X125941666Y-81784976D01*
X126062619Y-81851500D01*
X126123095Y-81918024D01*
X126183571Y-82051071D01*
X126183571Y-82250643D01*
X126123095Y-82383690D01*
X126062619Y-82450214D01*
X125941666Y-82516738D01*
X125457857Y-82516738D01*
X127393095Y-83181976D02*
X126667381Y-83181976D01*
X127030238Y-83181976D02*
X127030238Y-81784976D01*
X126909286Y-81984548D01*
X126788333Y-82117595D01*
X126667381Y-82184119D01*
X127876905Y-81918024D02*
X127937381Y-81851500D01*
X128058333Y-81784976D01*
X128360714Y-81784976D01*
X128481667Y-81851500D01*
X128542143Y-81918024D01*
X128602619Y-82051071D01*
X128602619Y-82184119D01*
X128542143Y-82383690D01*
X127816429Y-83181976D01*
X128602619Y-83181976D01*
X126183571Y-88261976D02*
X125760238Y-87596738D01*
X125457857Y-88261976D02*
X125457857Y-86864976D01*
X125941666Y-86864976D01*
X126062619Y-86931500D01*
X126123095Y-86998024D01*
X126183571Y-87131071D01*
X126183571Y-87330643D01*
X126123095Y-87463690D01*
X126062619Y-87530214D01*
X125941666Y-87596738D01*
X125457857Y-87596738D01*
X127393095Y-88261976D02*
X126667381Y-88261976D01*
X127030238Y-88261976D02*
X127030238Y-86864976D01*
X126909286Y-87064548D01*
X126788333Y-87197595D01*
X126667381Y-87264119D01*
X127816429Y-86864976D02*
X128602619Y-86864976D01*
X128179286Y-87397167D01*
X128360714Y-87397167D01*
X128481667Y-87463690D01*
X128542143Y-87530214D01*
X128602619Y-87663262D01*
X128602619Y-87995881D01*
X128542143Y-88128929D01*
X128481667Y-88195452D01*
X128360714Y-88261976D01*
X127997857Y-88261976D01*
X127876905Y-88195452D01*
X127816429Y-88128929D01*
D17*
X145487572Y-56224714D02*
X145487572Y-55462714D01*
X145669000Y-55462714D01*
X145777857Y-55499000D01*
X145850429Y-55571571D01*
X145886714Y-55644143D01*
X145923000Y-55789286D01*
X145923000Y-55898143D01*
X145886714Y-56043286D01*
X145850429Y-56115857D01*
X145777857Y-56188429D01*
X145669000Y-56224714D01*
X145487572Y-56224714D01*
X146648714Y-56224714D02*
X146213286Y-56224714D01*
X146431000Y-56224714D02*
X146431000Y-55462714D01*
X146358429Y-55571571D01*
X146285857Y-55644143D01*
X146213286Y-55680429D01*
X165807572Y-56224714D02*
X165807572Y-55462714D01*
X165989000Y-55462714D01*
X166097857Y-55499000D01*
X166170429Y-55571571D01*
X166206714Y-55644143D01*
X166243000Y-55789286D01*
X166243000Y-55898143D01*
X166206714Y-56043286D01*
X166170429Y-56115857D01*
X166097857Y-56188429D01*
X165989000Y-56224714D01*
X165807572Y-56224714D01*
X166533286Y-55535286D02*
X166569572Y-55499000D01*
X166642143Y-55462714D01*
X166823572Y-55462714D01*
X166896143Y-55499000D01*
X166932429Y-55535286D01*
X166968714Y-55607857D01*
X166968714Y-55680429D01*
X166932429Y-55789286D01*
X166497000Y-56224714D01*
X166968714Y-56224714D01*
X186127572Y-56224714D02*
X186127572Y-55462714D01*
X186309000Y-55462714D01*
X186417857Y-55499000D01*
X186490429Y-55571571D01*
X186526714Y-55644143D01*
X186563000Y-55789286D01*
X186563000Y-55898143D01*
X186526714Y-56043286D01*
X186490429Y-56115857D01*
X186417857Y-56188429D01*
X186309000Y-56224714D01*
X186127572Y-56224714D01*
X186817000Y-55462714D02*
X187288714Y-55462714D01*
X187034714Y-55753000D01*
X187143572Y-55753000D01*
X187216143Y-55789286D01*
X187252429Y-55825571D01*
X187288714Y-55898143D01*
X187288714Y-56079571D01*
X187252429Y-56152143D01*
X187216143Y-56188429D01*
X187143572Y-56224714D01*
X186925857Y-56224714D01*
X186853286Y-56188429D01*
X186817000Y-56152143D01*
X206447572Y-56224714D02*
X206447572Y-55462714D01*
X206629000Y-55462714D01*
X206737857Y-55499000D01*
X206810429Y-55571571D01*
X206846714Y-55644143D01*
X206883000Y-55789286D01*
X206883000Y-55898143D01*
X206846714Y-56043286D01*
X206810429Y-56115857D01*
X206737857Y-56188429D01*
X206629000Y-56224714D01*
X206447572Y-56224714D01*
X207536143Y-55716714D02*
X207536143Y-56224714D01*
X207354714Y-55426429D02*
X207173286Y-55970714D01*
X207645000Y-55970714D01*
X206084715Y-86704714D02*
X206084715Y-85942714D01*
X206266143Y-85942714D01*
X206375000Y-85979000D01*
X206447572Y-86051571D01*
X206483857Y-86124143D01*
X206520143Y-86269286D01*
X206520143Y-86378143D01*
X206483857Y-86523286D01*
X206447572Y-86595857D01*
X206375000Y-86668429D01*
X206266143Y-86704714D01*
X206084715Y-86704714D01*
X207245857Y-86704714D02*
X206810429Y-86704714D01*
X207028143Y-86704714D02*
X207028143Y-85942714D01*
X206955572Y-86051571D01*
X206883000Y-86124143D01*
X206810429Y-86160429D01*
X207971571Y-86704714D02*
X207536143Y-86704714D01*
X207753857Y-86704714D02*
X207753857Y-85942714D01*
X207681286Y-86051571D01*
X207608714Y-86124143D01*
X207536143Y-86160429D01*
X185764715Y-86704714D02*
X185764715Y-85942714D01*
X185946143Y-85942714D01*
X186055000Y-85979000D01*
X186127572Y-86051571D01*
X186163857Y-86124143D01*
X186200143Y-86269286D01*
X186200143Y-86378143D01*
X186163857Y-86523286D01*
X186127572Y-86595857D01*
X186055000Y-86668429D01*
X185946143Y-86704714D01*
X185764715Y-86704714D01*
X186925857Y-86704714D02*
X186490429Y-86704714D01*
X186708143Y-86704714D02*
X186708143Y-85942714D01*
X186635572Y-86051571D01*
X186563000Y-86124143D01*
X186490429Y-86160429D01*
X187397571Y-85942714D02*
X187470143Y-85942714D01*
X187542714Y-85979000D01*
X187579000Y-86015286D01*
X187615286Y-86087857D01*
X187651571Y-86233000D01*
X187651571Y-86414429D01*
X187615286Y-86559571D01*
X187579000Y-86632143D01*
X187542714Y-86668429D01*
X187470143Y-86704714D01*
X187397571Y-86704714D01*
X187325000Y-86668429D01*
X187288714Y-86632143D01*
X187252429Y-86559571D01*
X187216143Y-86414429D01*
X187216143Y-86233000D01*
X187252429Y-86087857D01*
X187288714Y-86015286D01*
X187325000Y-85979000D01*
X187397571Y-85942714D01*
X165807572Y-86704714D02*
X165807572Y-85942714D01*
X165989000Y-85942714D01*
X166097857Y-85979000D01*
X166170429Y-86051571D01*
X166206714Y-86124143D01*
X166243000Y-86269286D01*
X166243000Y-86378143D01*
X166206714Y-86523286D01*
X166170429Y-86595857D01*
X166097857Y-86668429D01*
X165989000Y-86704714D01*
X165807572Y-86704714D01*
X166605857Y-86704714D02*
X166751000Y-86704714D01*
X166823572Y-86668429D01*
X166859857Y-86632143D01*
X166932429Y-86523286D01*
X166968714Y-86378143D01*
X166968714Y-86087857D01*
X166932429Y-86015286D01*
X166896143Y-85979000D01*
X166823572Y-85942714D01*
X166678429Y-85942714D01*
X166605857Y-85979000D01*
X166569572Y-86015286D01*
X166533286Y-86087857D01*
X166533286Y-86269286D01*
X166569572Y-86341857D01*
X166605857Y-86378143D01*
X166678429Y-86414429D01*
X166823572Y-86414429D01*
X166896143Y-86378143D01*
X166932429Y-86341857D01*
X166968714Y-86269286D01*
X145487572Y-86704714D02*
X145487572Y-85942714D01*
X145669000Y-85942714D01*
X145777857Y-85979000D01*
X145850429Y-86051571D01*
X145886714Y-86124143D01*
X145923000Y-86269286D01*
X145923000Y-86378143D01*
X145886714Y-86523286D01*
X145850429Y-86595857D01*
X145777857Y-86668429D01*
X145669000Y-86704714D01*
X145487572Y-86704714D01*
X146358429Y-86269286D02*
X146285857Y-86233000D01*
X146249572Y-86196714D01*
X146213286Y-86124143D01*
X146213286Y-86087857D01*
X146249572Y-86015286D01*
X146285857Y-85979000D01*
X146358429Y-85942714D01*
X146503572Y-85942714D01*
X146576143Y-85979000D01*
X146612429Y-86015286D01*
X146648714Y-86087857D01*
X146648714Y-86124143D01*
X146612429Y-86196714D01*
X146576143Y-86233000D01*
X146503572Y-86269286D01*
X146358429Y-86269286D01*
X146285857Y-86305571D01*
X146249572Y-86341857D01*
X146213286Y-86414429D01*
X146213286Y-86559571D01*
X146249572Y-86632143D01*
X146285857Y-86668429D01*
X146358429Y-86704714D01*
X146503572Y-86704714D01*
X146576143Y-86668429D01*
X146612429Y-86632143D01*
X146648714Y-86559571D01*
X146648714Y-86414429D01*
X146612429Y-86341857D01*
X146576143Y-86305571D01*
X146503572Y-86269286D01*
D13*
X106468333Y-57781976D02*
X106045000Y-57116738D01*
X105742619Y-57781976D02*
X105742619Y-56384976D01*
X106226428Y-56384976D01*
X106347381Y-56451500D01*
X106407857Y-56518024D01*
X106468333Y-56651071D01*
X106468333Y-56850643D01*
X106407857Y-56983690D01*
X106347381Y-57050214D01*
X106226428Y-57116738D01*
X105742619Y-57116738D01*
X106952143Y-56518024D02*
X107012619Y-56451500D01*
X107133571Y-56384976D01*
X107435952Y-56384976D01*
X107556905Y-56451500D01*
X107617381Y-56518024D01*
X107677857Y-56651071D01*
X107677857Y-56784119D01*
X107617381Y-56983690D01*
X106891667Y-57781976D01*
X107677857Y-57781976D01*
X126788333Y-57781976D02*
X126365000Y-57116738D01*
X126062619Y-57781976D02*
X126062619Y-56384976D01*
X126546428Y-56384976D01*
X126667381Y-56451500D01*
X126727857Y-56518024D01*
X126788333Y-56651071D01*
X126788333Y-56850643D01*
X126727857Y-56983690D01*
X126667381Y-57050214D01*
X126546428Y-57116738D01*
X126062619Y-57116738D01*
X127876905Y-56384976D02*
X127635000Y-56384976D01*
X127514048Y-56451500D01*
X127453571Y-56518024D01*
X127332619Y-56717595D01*
X127272143Y-56983690D01*
X127272143Y-57515881D01*
X127332619Y-57648929D01*
X127393095Y-57715452D01*
X127514048Y-57781976D01*
X127755952Y-57781976D01*
X127876905Y-57715452D01*
X127937381Y-57648929D01*
X127997857Y-57515881D01*
X127997857Y-57183262D01*
X127937381Y-57050214D01*
X127876905Y-56983690D01*
X127755952Y-56917167D01*
X127514048Y-56917167D01*
X127393095Y-56983690D01*
X127332619Y-57050214D01*
X127272143Y-57183262D01*
X126788333Y-52701976D02*
X126365000Y-52036738D01*
X126062619Y-52701976D02*
X126062619Y-51304976D01*
X126546428Y-51304976D01*
X126667381Y-51371500D01*
X126727857Y-51438024D01*
X126788333Y-51571071D01*
X126788333Y-51770643D01*
X126727857Y-51903690D01*
X126667381Y-51970214D01*
X126546428Y-52036738D01*
X126062619Y-52036738D01*
X127937381Y-51304976D02*
X127332619Y-51304976D01*
X127272143Y-51970214D01*
X127332619Y-51903690D01*
X127453571Y-51837167D01*
X127755952Y-51837167D01*
X127876905Y-51903690D01*
X127937381Y-51970214D01*
X127997857Y-52103262D01*
X127997857Y-52435881D01*
X127937381Y-52568929D01*
X127876905Y-52635452D01*
X127755952Y-52701976D01*
X127453571Y-52701976D01*
X127332619Y-52635452D01*
X127272143Y-52568929D01*
X106468333Y-52701976D02*
X106045000Y-52036738D01*
X105742619Y-52701976D02*
X105742619Y-51304976D01*
X106226428Y-51304976D01*
X106347381Y-51371500D01*
X106407857Y-51438024D01*
X106468333Y-51571071D01*
X106468333Y-51770643D01*
X106407857Y-51903690D01*
X106347381Y-51970214D01*
X106226428Y-52036738D01*
X105742619Y-52036738D01*
X107677857Y-52701976D02*
X106952143Y-52701976D01*
X107315000Y-52701976D02*
X107315000Y-51304976D01*
X107194048Y-51504548D01*
X107073095Y-51637595D01*
X106952143Y-51704119D01*
X106468333Y-62861976D02*
X106045000Y-62196738D01*
X105742619Y-62861976D02*
X105742619Y-61464976D01*
X106226428Y-61464976D01*
X106347381Y-61531500D01*
X106407857Y-61598024D01*
X106468333Y-61731071D01*
X106468333Y-61930643D01*
X106407857Y-62063690D01*
X106347381Y-62130214D01*
X106226428Y-62196738D01*
X105742619Y-62196738D01*
X106891667Y-61464976D02*
X107677857Y-61464976D01*
X107254524Y-61997167D01*
X107435952Y-61997167D01*
X107556905Y-62063690D01*
X107617381Y-62130214D01*
X107677857Y-62263262D01*
X107677857Y-62595881D01*
X107617381Y-62728929D01*
X107556905Y-62795452D01*
X107435952Y-62861976D01*
X107073095Y-62861976D01*
X106952143Y-62795452D01*
X106891667Y-62728929D01*
X126788333Y-62861976D02*
X126365000Y-62196738D01*
X126062619Y-62861976D02*
X126062619Y-61464976D01*
X126546428Y-61464976D01*
X126667381Y-61531500D01*
X126727857Y-61598024D01*
X126788333Y-61731071D01*
X126788333Y-61930643D01*
X126727857Y-62063690D01*
X126667381Y-62130214D01*
X126546428Y-62196738D01*
X126062619Y-62196738D01*
X127211667Y-61464976D02*
X128058333Y-61464976D01*
X127514048Y-62861976D01*
D17*
X70557572Y-96864714D02*
X70557572Y-96102714D01*
X70739000Y-96102714D01*
X70847857Y-96139000D01*
X70920429Y-96211571D01*
X70956714Y-96284143D01*
X70993000Y-96429286D01*
X70993000Y-96538143D01*
X70956714Y-96683286D01*
X70920429Y-96755857D01*
X70847857Y-96828429D01*
X70739000Y-96864714D01*
X70557572Y-96864714D01*
X71646143Y-96102714D02*
X71501000Y-96102714D01*
X71428429Y-96139000D01*
X71392143Y-96175286D01*
X71319572Y-96284143D01*
X71283286Y-96429286D01*
X71283286Y-96719571D01*
X71319572Y-96792143D01*
X71355857Y-96828429D01*
X71428429Y-96864714D01*
X71573572Y-96864714D01*
X71646143Y-96828429D01*
X71682429Y-96792143D01*
X71718714Y-96719571D01*
X71718714Y-96538143D01*
X71682429Y-96465571D01*
X71646143Y-96429286D01*
X71573572Y-96393000D01*
X71428429Y-96393000D01*
X71355857Y-96429286D01*
X71319572Y-96465571D01*
X71283286Y-96538143D01*
X70557572Y-117184714D02*
X70557572Y-116422714D01*
X70739000Y-116422714D01*
X70847857Y-116459000D01*
X70920429Y-116531571D01*
X70956714Y-116604143D01*
X70993000Y-116749286D01*
X70993000Y-116858143D01*
X70956714Y-117003286D01*
X70920429Y-117075857D01*
X70847857Y-117148429D01*
X70739000Y-117184714D01*
X70557572Y-117184714D01*
X71247000Y-116422714D02*
X71755000Y-116422714D01*
X71428429Y-117184714D01*
X145124715Y-117184714D02*
X145124715Y-116422714D01*
X145306143Y-116422714D01*
X145415000Y-116459000D01*
X145487572Y-116531571D01*
X145523857Y-116604143D01*
X145560143Y-116749286D01*
X145560143Y-116858143D01*
X145523857Y-117003286D01*
X145487572Y-117075857D01*
X145415000Y-117148429D01*
X145306143Y-117184714D01*
X145124715Y-117184714D01*
X146285857Y-117184714D02*
X145850429Y-117184714D01*
X146068143Y-117184714D02*
X146068143Y-116422714D01*
X145995572Y-116531571D01*
X145923000Y-116604143D01*
X145850429Y-116640429D01*
X146576143Y-116495286D02*
X146612429Y-116459000D01*
X146685000Y-116422714D01*
X146866429Y-116422714D01*
X146939000Y-116459000D01*
X146975286Y-116495286D01*
X147011571Y-116567857D01*
X147011571Y-116640429D01*
X146975286Y-116749286D01*
X146539857Y-117184714D01*
X147011571Y-117184714D01*
D13*
X126788333Y-67941976D02*
X126365000Y-67276738D01*
X126062619Y-67941976D02*
X126062619Y-66544976D01*
X126546428Y-66544976D01*
X126667381Y-66611500D01*
X126727857Y-66678024D01*
X126788333Y-66811071D01*
X126788333Y-67010643D01*
X126727857Y-67143690D01*
X126667381Y-67210214D01*
X126546428Y-67276738D01*
X126062619Y-67276738D01*
X127514048Y-67143690D02*
X127393095Y-67077167D01*
X127332619Y-67010643D01*
X127272143Y-66877595D01*
X127272143Y-66811071D01*
X127332619Y-66678024D01*
X127393095Y-66611500D01*
X127514048Y-66544976D01*
X127755952Y-66544976D01*
X127876905Y-66611500D01*
X127937381Y-66678024D01*
X127997857Y-66811071D01*
X127997857Y-66877595D01*
X127937381Y-67010643D01*
X127876905Y-67077167D01*
X127755952Y-67143690D01*
X127514048Y-67143690D01*
X127393095Y-67210214D01*
X127332619Y-67276738D01*
X127272143Y-67409786D01*
X127272143Y-67675881D01*
X127332619Y-67808929D01*
X127393095Y-67875452D01*
X127514048Y-67941976D01*
X127755952Y-67941976D01*
X127876905Y-67875452D01*
X127937381Y-67808929D01*
X127997857Y-67675881D01*
X127997857Y-67409786D01*
X127937381Y-67276738D01*
X127876905Y-67210214D01*
X127755952Y-67143690D01*
X106468333Y-67941976D02*
X106045000Y-67276738D01*
X105742619Y-67941976D02*
X105742619Y-66544976D01*
X106226428Y-66544976D01*
X106347381Y-66611500D01*
X106407857Y-66678024D01*
X106468333Y-66811071D01*
X106468333Y-67010643D01*
X106407857Y-67143690D01*
X106347381Y-67210214D01*
X106226428Y-67276738D01*
X105742619Y-67276738D01*
X107556905Y-67010643D02*
X107556905Y-67941976D01*
X107254524Y-66478452D02*
X106952143Y-67476310D01*
X107738333Y-67476310D01*
D17*
X165444715Y-117184714D02*
X165444715Y-116422714D01*
X165626143Y-116422714D01*
X165735000Y-116459000D01*
X165807572Y-116531571D01*
X165843857Y-116604143D01*
X165880143Y-116749286D01*
X165880143Y-116858143D01*
X165843857Y-117003286D01*
X165807572Y-117075857D01*
X165735000Y-117148429D01*
X165626143Y-117184714D01*
X165444715Y-117184714D01*
X166605857Y-117184714D02*
X166170429Y-117184714D01*
X166388143Y-117184714D02*
X166388143Y-116422714D01*
X166315572Y-116531571D01*
X166243000Y-116604143D01*
X166170429Y-116640429D01*
X166859857Y-116422714D02*
X167331571Y-116422714D01*
X167077571Y-116713000D01*
X167186429Y-116713000D01*
X167259000Y-116749286D01*
X167295286Y-116785571D01*
X167331571Y-116858143D01*
X167331571Y-117039571D01*
X167295286Y-117112143D01*
X167259000Y-117148429D01*
X167186429Y-117184714D01*
X166968714Y-117184714D01*
X166896143Y-117148429D01*
X166859857Y-117112143D01*
X185764715Y-117184714D02*
X185764715Y-116422714D01*
X185946143Y-116422714D01*
X186055000Y-116459000D01*
X186127572Y-116531571D01*
X186163857Y-116604143D01*
X186200143Y-116749286D01*
X186200143Y-116858143D01*
X186163857Y-117003286D01*
X186127572Y-117075857D01*
X186055000Y-117148429D01*
X185946143Y-117184714D01*
X185764715Y-117184714D01*
X186925857Y-117184714D02*
X186490429Y-117184714D01*
X186708143Y-117184714D02*
X186708143Y-116422714D01*
X186635572Y-116531571D01*
X186563000Y-116604143D01*
X186490429Y-116640429D01*
X187579000Y-116676714D02*
X187579000Y-117184714D01*
X187397571Y-116386429D02*
X187216143Y-116930714D01*
X187687857Y-116930714D01*
X206084715Y-117184714D02*
X206084715Y-116422714D01*
X206266143Y-116422714D01*
X206375000Y-116459000D01*
X206447572Y-116531571D01*
X206483857Y-116604143D01*
X206520143Y-116749286D01*
X206520143Y-116858143D01*
X206483857Y-117003286D01*
X206447572Y-117075857D01*
X206375000Y-117148429D01*
X206266143Y-117184714D01*
X206084715Y-117184714D01*
X207245857Y-117184714D02*
X206810429Y-117184714D01*
X207028143Y-117184714D02*
X207028143Y-116422714D01*
X206955572Y-116531571D01*
X206883000Y-116604143D01*
X206810429Y-116640429D01*
X207935286Y-116422714D02*
X207572429Y-116422714D01*
X207536143Y-116785571D01*
X207572429Y-116749286D01*
X207645000Y-116713000D01*
X207826429Y-116713000D01*
X207899000Y-116749286D01*
X207935286Y-116785571D01*
X207971571Y-116858143D01*
X207971571Y-117039571D01*
X207935286Y-117112143D01*
X207899000Y-117148429D01*
X207826429Y-117184714D01*
X207645000Y-117184714D01*
X207572429Y-117148429D01*
X207536143Y-117112143D01*
D13*
X180128333Y-137791976D02*
X179705000Y-137126738D01*
X179402619Y-137791976D02*
X179402619Y-136394976D01*
X179886428Y-136394976D01*
X180007381Y-136461500D01*
X180067857Y-136528024D01*
X180128333Y-136661071D01*
X180128333Y-136860643D01*
X180067857Y-136993690D01*
X180007381Y-137060214D01*
X179886428Y-137126738D01*
X179402619Y-137126738D01*
X180733095Y-137791976D02*
X180975000Y-137791976D01*
X181095952Y-137725452D01*
X181156428Y-137658929D01*
X181277381Y-137459357D01*
X181337857Y-137193262D01*
X181337857Y-136661071D01*
X181277381Y-136528024D01*
X181216905Y-136461500D01*
X181095952Y-136394976D01*
X180854048Y-136394976D01*
X180733095Y-136461500D01*
X180672619Y-136528024D01*
X180612143Y-136661071D01*
X180612143Y-136993690D01*
X180672619Y-137126738D01*
X180733095Y-137193262D01*
X180854048Y-137259786D01*
X181095952Y-137259786D01*
X181216905Y-137193262D01*
X181277381Y-137126738D01*
X181337857Y-136993690D01*
M02*
