G04 #@! TF.FileFunction,Copper,L2,Bot,Signal*
%FSLAX46Y46*%
G04 Gerber Fmt 4.6, Leading zero omitted, Abs format (unit mm)*
G04 Created by KiCad (PCBNEW 4.0.5+dfsg1-4+deb9u1) date Tue Sep 27 18:47:41 2022*
%MOMM*%
%LPD*%
G01*
G04 APERTURE LIST*
%ADD10C,0.100000*%
%ADD11C,0.300000*%
%ADD12R,1.524000X1.524000*%
%ADD13C,1.524000*%
%ADD14O,3.962400X1.981200*%
%ADD15R,1.397000X1.397000*%
%ADD16C,1.397000*%
%ADD17C,4.064000*%
%ADD18R,2.540000X2.540000*%
%ADD19C,2.540000*%
%ADD20C,1.600000*%
%ADD21C,1.000000*%
G04 APERTURE END LIST*
D10*
D11*
X112861427Y-159428571D02*
X112861427Y-157928571D01*
X112361427Y-159000000D01*
X111861427Y-157928571D01*
X111861427Y-159428571D01*
X111147141Y-159428571D02*
X111147141Y-157928571D01*
X110647141Y-159000000D01*
X110147141Y-157928571D01*
X110147141Y-159428571D01*
X109575712Y-157928571D02*
X108647141Y-157928571D01*
X109147141Y-158500000D01*
X108932855Y-158500000D01*
X108789998Y-158571429D01*
X108718569Y-158642857D01*
X108647141Y-158785714D01*
X108647141Y-159142857D01*
X108718569Y-159285714D01*
X108789998Y-159357143D01*
X108932855Y-159428571D01*
X109361427Y-159428571D01*
X109504284Y-159357143D01*
X109575712Y-159285714D01*
X108004284Y-159428571D02*
X108004284Y-157928571D01*
X107647141Y-157928571D01*
X107432856Y-158000000D01*
X107289998Y-158142857D01*
X107218570Y-158285714D01*
X107147141Y-158571429D01*
X107147141Y-158785714D01*
X107218570Y-159071429D01*
X107289998Y-159214286D01*
X107432856Y-159357143D01*
X107647141Y-159428571D01*
X108004284Y-159428571D01*
X105361427Y-159428571D02*
X105361427Y-157928571D01*
X105361427Y-158500000D02*
X105218570Y-158428571D01*
X104932856Y-158428571D01*
X104789999Y-158500000D01*
X104718570Y-158571429D01*
X104647141Y-158714286D01*
X104647141Y-159142857D01*
X104718570Y-159285714D01*
X104789999Y-159357143D01*
X104932856Y-159428571D01*
X105218570Y-159428571D01*
X105361427Y-159357143D01*
X103361427Y-159428571D02*
X103361427Y-158642857D01*
X103432856Y-158500000D01*
X103575713Y-158428571D01*
X103861427Y-158428571D01*
X104004284Y-158500000D01*
X103361427Y-159357143D02*
X103504284Y-159428571D01*
X103861427Y-159428571D01*
X104004284Y-159357143D01*
X104075713Y-159214286D01*
X104075713Y-159071429D01*
X104004284Y-158928571D01*
X103861427Y-158857143D01*
X103504284Y-158857143D01*
X103361427Y-158785714D01*
X102718570Y-159357143D02*
X102575713Y-159428571D01*
X102289998Y-159428571D01*
X102147141Y-159357143D01*
X102075713Y-159214286D01*
X102075713Y-159142857D01*
X102147141Y-159000000D01*
X102289998Y-158928571D01*
X102504284Y-158928571D01*
X102647141Y-158857143D01*
X102718570Y-158714286D01*
X102718570Y-158642857D01*
X102647141Y-158500000D01*
X102504284Y-158428571D01*
X102289998Y-158428571D01*
X102147141Y-158500000D01*
X100861427Y-159357143D02*
X101004284Y-159428571D01*
X101289998Y-159428571D01*
X101432855Y-159357143D01*
X101504284Y-159214286D01*
X101504284Y-158642857D01*
X101432855Y-158500000D01*
X101289998Y-158428571D01*
X101004284Y-158428571D01*
X100861427Y-158500000D01*
X100789998Y-158642857D01*
X100789998Y-158785714D01*
X101504284Y-158928571D01*
X99004284Y-158428571D02*
X99004284Y-159928571D01*
X99004284Y-158500000D02*
X98861427Y-158428571D01*
X98575713Y-158428571D01*
X98432856Y-158500000D01*
X98361427Y-158571429D01*
X98289998Y-158714286D01*
X98289998Y-159142857D01*
X98361427Y-159285714D01*
X98432856Y-159357143D01*
X98575713Y-159428571D01*
X98861427Y-159428571D01*
X99004284Y-159357143D01*
X97004284Y-159428571D02*
X97004284Y-158642857D01*
X97075713Y-158500000D01*
X97218570Y-158428571D01*
X97504284Y-158428571D01*
X97647141Y-158500000D01*
X97004284Y-159357143D02*
X97147141Y-159428571D01*
X97504284Y-159428571D01*
X97647141Y-159357143D01*
X97718570Y-159214286D01*
X97718570Y-159071429D01*
X97647141Y-158928571D01*
X97504284Y-158857143D01*
X97147141Y-158857143D01*
X97004284Y-158785714D01*
X96289998Y-158428571D02*
X96289998Y-159428571D01*
X96289998Y-158571429D02*
X96218570Y-158500000D01*
X96075712Y-158428571D01*
X95861427Y-158428571D01*
X95718570Y-158500000D01*
X95647141Y-158642857D01*
X95647141Y-159428571D01*
X94361427Y-159357143D02*
X94504284Y-159428571D01*
X94789998Y-159428571D01*
X94932855Y-159357143D01*
X95004284Y-159214286D01*
X95004284Y-158642857D01*
X94932855Y-158500000D01*
X94789998Y-158428571D01*
X94504284Y-158428571D01*
X94361427Y-158500000D01*
X94289998Y-158642857D01*
X94289998Y-158785714D01*
X95004284Y-158928571D01*
X93432855Y-159428571D02*
X93575713Y-159357143D01*
X93647141Y-159214286D01*
X93647141Y-157928571D01*
X91861427Y-158428571D02*
X91504284Y-159428571D01*
X91147142Y-158428571D01*
X89789999Y-159428571D02*
X90647142Y-159428571D01*
X90218570Y-159428571D02*
X90218570Y-157928571D01*
X90361427Y-158142857D01*
X90504285Y-158285714D01*
X90647142Y-158357143D01*
X89075714Y-159428571D02*
X88789999Y-159428571D01*
X88647142Y-159357143D01*
X88575714Y-159285714D01*
X88432856Y-159071429D01*
X88361428Y-158785714D01*
X88361428Y-158214286D01*
X88432856Y-158071429D01*
X88504285Y-158000000D01*
X88647142Y-157928571D01*
X88932856Y-157928571D01*
X89075714Y-158000000D01*
X89147142Y-158071429D01*
X89218571Y-158214286D01*
X89218571Y-158571429D01*
X89147142Y-158714286D01*
X89075714Y-158785714D01*
X88932856Y-158857143D01*
X88647142Y-158857143D01*
X88504285Y-158785714D01*
X88432856Y-158714286D01*
X88361428Y-158571429D01*
X87432857Y-157928571D02*
X87290000Y-157928571D01*
X87147143Y-158000000D01*
X87075714Y-158071429D01*
X87004285Y-158214286D01*
X86932857Y-158500000D01*
X86932857Y-158857143D01*
X87004285Y-159142857D01*
X87075714Y-159285714D01*
X87147143Y-159357143D01*
X87290000Y-159428571D01*
X87432857Y-159428571D01*
X87575714Y-159357143D01*
X87647143Y-159285714D01*
X87718571Y-159142857D01*
X87790000Y-158857143D01*
X87790000Y-158500000D01*
X87718571Y-158214286D01*
X87647143Y-158071429D01*
X87575714Y-158000000D01*
X87432857Y-157928571D01*
X86361429Y-158071429D02*
X86290000Y-158000000D01*
X86147143Y-157928571D01*
X85790000Y-157928571D01*
X85647143Y-158000000D01*
X85575714Y-158071429D01*
X85504286Y-158214286D01*
X85504286Y-158357143D01*
X85575714Y-158571429D01*
X86432857Y-159428571D01*
X85504286Y-159428571D01*
X84575715Y-157928571D02*
X84432858Y-157928571D01*
X84290001Y-158000000D01*
X84218572Y-158071429D01*
X84147143Y-158214286D01*
X84075715Y-158500000D01*
X84075715Y-158857143D01*
X84147143Y-159142857D01*
X84218572Y-159285714D01*
X84290001Y-159357143D01*
X84432858Y-159428571D01*
X84575715Y-159428571D01*
X84718572Y-159357143D01*
X84790001Y-159285714D01*
X84861429Y-159142857D01*
X84932858Y-158857143D01*
X84932858Y-158500000D01*
X84861429Y-158214286D01*
X84790001Y-158071429D01*
X84718572Y-158000000D01*
X84575715Y-157928571D01*
X83575715Y-157928571D02*
X82647144Y-157928571D01*
X83147144Y-158500000D01*
X82932858Y-158500000D01*
X82790001Y-158571429D01*
X82718572Y-158642857D01*
X82647144Y-158785714D01*
X82647144Y-159142857D01*
X82718572Y-159285714D01*
X82790001Y-159357143D01*
X82932858Y-159428571D01*
X83361430Y-159428571D01*
X83504287Y-159357143D01*
X83575715Y-159285714D01*
X162442859Y-159428571D02*
X162442859Y-157928571D01*
X161800002Y-159428571D02*
X161800002Y-158642857D01*
X161871431Y-158500000D01*
X162014288Y-158428571D01*
X162228573Y-158428571D01*
X162371431Y-158500000D01*
X162442859Y-158571429D01*
X161300002Y-158428571D02*
X160728573Y-158428571D01*
X161085716Y-157928571D02*
X161085716Y-159214286D01*
X161014288Y-159357143D01*
X160871430Y-159428571D01*
X160728573Y-159428571D01*
X160442859Y-158428571D02*
X159871430Y-158428571D01*
X160228573Y-157928571D02*
X160228573Y-159214286D01*
X160157145Y-159357143D01*
X160014287Y-159428571D01*
X159871430Y-159428571D01*
X159371430Y-158428571D02*
X159371430Y-159928571D01*
X159371430Y-158500000D02*
X159228573Y-158428571D01*
X158942859Y-158428571D01*
X158800002Y-158500000D01*
X158728573Y-158571429D01*
X158657144Y-158714286D01*
X158657144Y-159142857D01*
X158728573Y-159285714D01*
X158800002Y-159357143D01*
X158942859Y-159428571D01*
X159228573Y-159428571D01*
X159371430Y-159357143D01*
X158014287Y-159285714D02*
X157942859Y-159357143D01*
X158014287Y-159428571D01*
X158085716Y-159357143D01*
X158014287Y-159285714D01*
X158014287Y-159428571D01*
X158014287Y-158500000D02*
X157942859Y-158571429D01*
X158014287Y-158642857D01*
X158085716Y-158571429D01*
X158014287Y-158500000D01*
X158014287Y-158642857D01*
X156228573Y-157857143D02*
X157514287Y-159785714D01*
X154657144Y-157857143D02*
X155942858Y-159785714D01*
X154300000Y-158428571D02*
X154014286Y-159428571D01*
X153728572Y-158714286D01*
X153442857Y-159428571D01*
X153157143Y-158428571D01*
X152728571Y-158428571D02*
X152442857Y-159428571D01*
X152157143Y-158714286D01*
X151871428Y-159428571D01*
X151585714Y-158428571D01*
X151157142Y-158428571D02*
X150871428Y-159428571D01*
X150585714Y-158714286D01*
X150299999Y-159428571D01*
X150014285Y-158428571D01*
X149442856Y-159285714D02*
X149371428Y-159357143D01*
X149442856Y-159428571D01*
X149514285Y-159357143D01*
X149442856Y-159285714D01*
X149442856Y-159428571D01*
X148799999Y-159357143D02*
X148657142Y-159428571D01*
X148371427Y-159428571D01*
X148228570Y-159357143D01*
X148157142Y-159214286D01*
X148157142Y-159142857D01*
X148228570Y-159000000D01*
X148371427Y-158928571D01*
X148585713Y-158928571D01*
X148728570Y-158857143D01*
X148799999Y-158714286D01*
X148799999Y-158642857D01*
X148728570Y-158500000D01*
X148585713Y-158428571D01*
X148371427Y-158428571D01*
X148228570Y-158500000D01*
X147657141Y-158428571D02*
X146871427Y-158428571D01*
X147657141Y-159428571D01*
X146871427Y-159428571D01*
X145728570Y-159357143D02*
X145871427Y-159428571D01*
X146157141Y-159428571D01*
X146299998Y-159357143D01*
X146371427Y-159214286D01*
X146371427Y-158642857D01*
X146299998Y-158500000D01*
X146157141Y-158428571D01*
X145871427Y-158428571D01*
X145728570Y-158500000D01*
X145657141Y-158642857D01*
X145657141Y-158785714D01*
X146371427Y-158928571D01*
X145014284Y-159428571D02*
X145014284Y-158428571D01*
X145014284Y-158714286D02*
X144942856Y-158571429D01*
X144871427Y-158500000D01*
X144728570Y-158428571D01*
X144585713Y-158428571D01*
X143442856Y-159428571D02*
X143442856Y-158642857D01*
X143514285Y-158500000D01*
X143657142Y-158428571D01*
X143942856Y-158428571D01*
X144085713Y-158500000D01*
X143442856Y-159357143D02*
X143585713Y-159428571D01*
X143942856Y-159428571D01*
X144085713Y-159357143D01*
X144157142Y-159214286D01*
X144157142Y-159071429D01*
X144085713Y-158928571D01*
X143942856Y-158857143D01*
X143585713Y-158857143D01*
X143442856Y-158785714D01*
X142942856Y-158428571D02*
X142371427Y-158428571D01*
X142728570Y-159428571D02*
X142728570Y-158142857D01*
X142657142Y-158000000D01*
X142514284Y-157928571D01*
X142371427Y-157928571D01*
X141871427Y-159428571D02*
X141871427Y-158428571D01*
X141871427Y-157928571D02*
X141942856Y-158000000D01*
X141871427Y-158071429D01*
X141799999Y-158000000D01*
X141871427Y-157928571D01*
X141871427Y-158071429D01*
X141157141Y-158428571D02*
X141157141Y-159428571D01*
X141157141Y-158571429D02*
X141085713Y-158500000D01*
X140942855Y-158428571D01*
X140728570Y-158428571D01*
X140585713Y-158500000D01*
X140514284Y-158642857D01*
X140514284Y-159428571D01*
X139157141Y-158428571D02*
X139157141Y-159642857D01*
X139228570Y-159785714D01*
X139299998Y-159857143D01*
X139442855Y-159928571D01*
X139657141Y-159928571D01*
X139799998Y-159857143D01*
X139157141Y-159357143D02*
X139299998Y-159428571D01*
X139585712Y-159428571D01*
X139728570Y-159357143D01*
X139799998Y-159285714D01*
X139871427Y-159142857D01*
X139871427Y-158714286D01*
X139799998Y-158571429D01*
X139728570Y-158500000D01*
X139585712Y-158428571D01*
X139299998Y-158428571D01*
X139157141Y-158500000D01*
X138228569Y-159428571D02*
X138371427Y-159357143D01*
X138442855Y-159285714D01*
X138514284Y-159142857D01*
X138514284Y-158714286D01*
X138442855Y-158571429D01*
X138371427Y-158500000D01*
X138228569Y-158428571D01*
X138014284Y-158428571D01*
X137871427Y-158500000D01*
X137799998Y-158571429D01*
X137728569Y-158714286D01*
X137728569Y-159142857D01*
X137799998Y-159285714D01*
X137871427Y-159357143D01*
X138014284Y-159428571D01*
X138228569Y-159428571D01*
X137085712Y-159428571D02*
X137085712Y-158428571D01*
X137085712Y-158571429D02*
X137014284Y-158500000D01*
X136871426Y-158428571D01*
X136657141Y-158428571D01*
X136514284Y-158500000D01*
X136442855Y-158642857D01*
X136442855Y-159428571D01*
X136442855Y-158642857D02*
X136371426Y-158500000D01*
X136228569Y-158428571D01*
X136014284Y-158428571D01*
X135871426Y-158500000D01*
X135799998Y-158642857D01*
X135799998Y-159428571D01*
X135085712Y-159428571D02*
X135085712Y-157928571D01*
X135085712Y-158500000D02*
X134942855Y-158428571D01*
X134657141Y-158428571D01*
X134514284Y-158500000D01*
X134442855Y-158571429D01*
X134371426Y-158714286D01*
X134371426Y-159142857D01*
X134442855Y-159285714D01*
X134514284Y-159357143D01*
X134657141Y-159428571D01*
X134942855Y-159428571D01*
X135085712Y-159357143D01*
X133085712Y-159428571D02*
X133085712Y-158642857D01*
X133157141Y-158500000D01*
X133299998Y-158428571D01*
X133585712Y-158428571D01*
X133728569Y-158500000D01*
X133085712Y-159357143D02*
X133228569Y-159428571D01*
X133585712Y-159428571D01*
X133728569Y-159357143D01*
X133799998Y-159214286D01*
X133799998Y-159071429D01*
X133728569Y-158928571D01*
X133585712Y-158857143D01*
X133228569Y-158857143D01*
X133085712Y-158785714D01*
X132371426Y-159285714D02*
X132299998Y-159357143D01*
X132371426Y-159428571D01*
X132442855Y-159357143D01*
X132371426Y-159285714D01*
X132371426Y-159428571D01*
X131657140Y-159428571D02*
X131657140Y-157928571D01*
X131014283Y-159428571D02*
X131014283Y-158642857D01*
X131085712Y-158500000D01*
X131228569Y-158428571D01*
X131442854Y-158428571D01*
X131585712Y-158500000D01*
X131657140Y-158571429D01*
X129657140Y-158428571D02*
X129657140Y-159428571D01*
X130299997Y-158428571D02*
X130299997Y-159214286D01*
X130228569Y-159357143D01*
X130085711Y-159428571D01*
X129871426Y-159428571D01*
X129728569Y-159357143D01*
X129657140Y-159285714D01*
X231239998Y-137556667D02*
X231311426Y-137461429D01*
X231454283Y-137175714D01*
X231525712Y-136985238D01*
X231597141Y-136699524D01*
X231668569Y-136223333D01*
X231668569Y-135842381D01*
X231597141Y-135366190D01*
X231525712Y-135080476D01*
X231454283Y-134890000D01*
X231311426Y-134604286D01*
X231239998Y-134509048D01*
X229811426Y-136604286D02*
X229882855Y-136699524D01*
X230097141Y-136794762D01*
X230239998Y-136794762D01*
X230454283Y-136699524D01*
X230597141Y-136509048D01*
X230668569Y-136318571D01*
X230739998Y-135937619D01*
X230739998Y-135651905D01*
X230668569Y-135270952D01*
X230597141Y-135080476D01*
X230454283Y-134890000D01*
X230239998Y-134794762D01*
X230097141Y-134794762D01*
X229882855Y-134890000D01*
X229811426Y-134985238D01*
X229311426Y-137556667D02*
X229239998Y-137461429D01*
X229097141Y-137175714D01*
X229025712Y-136985238D01*
X228954283Y-136699524D01*
X228882855Y-136223333D01*
X228882855Y-135842381D01*
X228954283Y-135366190D01*
X229025712Y-135080476D01*
X229097141Y-134890000D01*
X229239998Y-134604286D01*
X229311426Y-134509048D01*
X227097141Y-134985238D02*
X227025712Y-134890000D01*
X226882855Y-134794762D01*
X226525712Y-134794762D01*
X226382855Y-134890000D01*
X226311426Y-134985238D01*
X226239998Y-135175714D01*
X226239998Y-135366190D01*
X226311426Y-135651905D01*
X227168569Y-136794762D01*
X226239998Y-136794762D01*
X225311427Y-134794762D02*
X225168570Y-134794762D01*
X225025713Y-134890000D01*
X224954284Y-134985238D01*
X224882855Y-135175714D01*
X224811427Y-135556667D01*
X224811427Y-136032857D01*
X224882855Y-136413810D01*
X224954284Y-136604286D01*
X225025713Y-136699524D01*
X225168570Y-136794762D01*
X225311427Y-136794762D01*
X225454284Y-136699524D01*
X225525713Y-136604286D01*
X225597141Y-136413810D01*
X225668570Y-136032857D01*
X225668570Y-135556667D01*
X225597141Y-135175714D01*
X225525713Y-134985238D01*
X225454284Y-134890000D01*
X225311427Y-134794762D01*
X223382856Y-136794762D02*
X224239999Y-136794762D01*
X223811427Y-136794762D02*
X223811427Y-134794762D01*
X223954284Y-135080476D01*
X224097142Y-135270952D01*
X224239999Y-135366190D01*
X222525713Y-135651905D02*
X222668571Y-135556667D01*
X222739999Y-135461429D01*
X222811428Y-135270952D01*
X222811428Y-135175714D01*
X222739999Y-134985238D01*
X222668571Y-134890000D01*
X222525713Y-134794762D01*
X222239999Y-134794762D01*
X222097142Y-134890000D01*
X222025713Y-134985238D01*
X221954285Y-135175714D01*
X221954285Y-135270952D01*
X222025713Y-135461429D01*
X222097142Y-135556667D01*
X222239999Y-135651905D01*
X222525713Y-135651905D01*
X222668571Y-135747143D01*
X222739999Y-135842381D01*
X222811428Y-136032857D01*
X222811428Y-136413810D01*
X222739999Y-136604286D01*
X222668571Y-136699524D01*
X222525713Y-136794762D01*
X222239999Y-136794762D01*
X222097142Y-136699524D01*
X222025713Y-136604286D01*
X221954285Y-136413810D01*
X221954285Y-136032857D01*
X222025713Y-135842381D01*
X222097142Y-135747143D01*
X222239999Y-135651905D01*
X221311428Y-136032857D02*
X220168571Y-136032857D01*
X219525714Y-134985238D02*
X219454285Y-134890000D01*
X219311428Y-134794762D01*
X218954285Y-134794762D01*
X218811428Y-134890000D01*
X218739999Y-134985238D01*
X218668571Y-135175714D01*
X218668571Y-135366190D01*
X218739999Y-135651905D01*
X219597142Y-136794762D01*
X218668571Y-136794762D01*
X217740000Y-134794762D02*
X217597143Y-134794762D01*
X217454286Y-134890000D01*
X217382857Y-134985238D01*
X217311428Y-135175714D01*
X217240000Y-135556667D01*
X217240000Y-136032857D01*
X217311428Y-136413810D01*
X217382857Y-136604286D01*
X217454286Y-136699524D01*
X217597143Y-136794762D01*
X217740000Y-136794762D01*
X217882857Y-136699524D01*
X217954286Y-136604286D01*
X218025714Y-136413810D01*
X218097143Y-136032857D01*
X218097143Y-135556667D01*
X218025714Y-135175714D01*
X217954286Y-134985238D01*
X217882857Y-134890000D01*
X217740000Y-134794762D01*
X215811429Y-136794762D02*
X216668572Y-136794762D01*
X216240000Y-136794762D02*
X216240000Y-134794762D01*
X216382857Y-135080476D01*
X216525715Y-135270952D01*
X216668572Y-135366190D01*
X215097144Y-136794762D02*
X214811429Y-136794762D01*
X214668572Y-136699524D01*
X214597144Y-136604286D01*
X214454286Y-136318571D01*
X214382858Y-135937619D01*
X214382858Y-135175714D01*
X214454286Y-134985238D01*
X214525715Y-134890000D01*
X214668572Y-134794762D01*
X214954286Y-134794762D01*
X215097144Y-134890000D01*
X215168572Y-134985238D01*
X215240001Y-135175714D01*
X215240001Y-135651905D01*
X215168572Y-135842381D01*
X215097144Y-135937619D01*
X214954286Y-136032857D01*
X214668572Y-136032857D01*
X214525715Y-135937619D01*
X214454286Y-135842381D01*
X214382858Y-135651905D01*
X212597144Y-136794762D02*
X212597144Y-134794762D01*
X212025716Y-134794762D01*
X211882858Y-134890000D01*
X211811430Y-134985238D01*
X211740001Y-135175714D01*
X211740001Y-135461429D01*
X211811430Y-135651905D01*
X211882858Y-135747143D01*
X212025716Y-135842381D01*
X212597144Y-135842381D01*
X210882858Y-136794762D02*
X211025716Y-136699524D01*
X211097144Y-136604286D01*
X211168573Y-136413810D01*
X211168573Y-135842381D01*
X211097144Y-135651905D01*
X211025716Y-135556667D01*
X210882858Y-135461429D01*
X210668573Y-135461429D01*
X210525716Y-135556667D01*
X210454287Y-135651905D01*
X210382858Y-135842381D01*
X210382858Y-136413810D01*
X210454287Y-136604286D01*
X210525716Y-136699524D01*
X210668573Y-136794762D01*
X210882858Y-136794762D01*
X209882858Y-135461429D02*
X209097144Y-135461429D01*
X209882858Y-136794762D01*
X209097144Y-136794762D01*
X208597144Y-136699524D02*
X208454287Y-136794762D01*
X208168572Y-136794762D01*
X208025715Y-136699524D01*
X207954287Y-136509048D01*
X207954287Y-136413810D01*
X208025715Y-136223333D01*
X208168572Y-136128095D01*
X208382858Y-136128095D01*
X208525715Y-136032857D01*
X208597144Y-135842381D01*
X208597144Y-135747143D01*
X208525715Y-135556667D01*
X208382858Y-135461429D01*
X208168572Y-135461429D01*
X208025715Y-135556667D01*
X206668572Y-136794762D02*
X206668572Y-135747143D01*
X206740001Y-135556667D01*
X206882858Y-135461429D01*
X207168572Y-135461429D01*
X207311429Y-135556667D01*
X206668572Y-136699524D02*
X206811429Y-136794762D01*
X207168572Y-136794762D01*
X207311429Y-136699524D01*
X207382858Y-136509048D01*
X207382858Y-136318571D01*
X207311429Y-136128095D01*
X207168572Y-136032857D01*
X206811429Y-136032857D01*
X206668572Y-135937619D01*
X206882858Y-134699524D02*
X207097143Y-134985238D01*
X205954286Y-136794762D02*
X205954286Y-135461429D01*
X205954286Y-135842381D02*
X205882858Y-135651905D01*
X205811429Y-135556667D01*
X205668572Y-135461429D01*
X205525715Y-135461429D01*
X204025715Y-134794762D02*
X203025715Y-134794762D01*
X204025715Y-136794762D01*
X203025715Y-136794762D01*
X202525716Y-136699524D02*
X202382859Y-136794762D01*
X202097144Y-136794762D01*
X201954287Y-136699524D01*
X201882859Y-136509048D01*
X201882859Y-136413810D01*
X201954287Y-136223333D01*
X202097144Y-136128095D01*
X202311430Y-136128095D01*
X202454287Y-136032857D01*
X202525716Y-135842381D01*
X202525716Y-135747143D01*
X202454287Y-135556667D01*
X202311430Y-135461429D01*
X202097144Y-135461429D01*
X201954287Y-135556667D01*
X201025715Y-136794762D02*
X201168573Y-136699524D01*
X201240001Y-136604286D01*
X201311430Y-136413810D01*
X201311430Y-135842381D01*
X201240001Y-135651905D01*
X201168573Y-135556667D01*
X201025715Y-135461429D01*
X200811430Y-135461429D01*
X200668573Y-135556667D01*
X200597144Y-135651905D01*
X200525715Y-135842381D01*
X200525715Y-136413810D01*
X200597144Y-136604286D01*
X200668573Y-136699524D01*
X200811430Y-136794762D01*
X201025715Y-136794762D01*
X199668572Y-136794762D02*
X199811430Y-136699524D01*
X199882858Y-136509048D01*
X199882858Y-134794762D01*
X199311430Y-135461429D02*
X198740001Y-135461429D01*
X199097144Y-134794762D02*
X199097144Y-136509048D01*
X199025716Y-136699524D01*
X198882858Y-136794762D01*
X198740001Y-136794762D01*
X196240001Y-136604286D02*
X196311430Y-136699524D01*
X196525716Y-136794762D01*
X196668573Y-136794762D01*
X196882858Y-136699524D01*
X197025716Y-136509048D01*
X197097144Y-136318571D01*
X197168573Y-135937619D01*
X197168573Y-135651905D01*
X197097144Y-135270952D01*
X197025716Y-135080476D01*
X196882858Y-134890000D01*
X196668573Y-134794762D01*
X196525716Y-134794762D01*
X196311430Y-134890000D01*
X196240001Y-134985238D01*
X194740001Y-136604286D02*
X194811430Y-136699524D01*
X195025716Y-136794762D01*
X195168573Y-136794762D01*
X195382858Y-136699524D01*
X195525716Y-136509048D01*
X195597144Y-136318571D01*
X195668573Y-135937619D01*
X195668573Y-135651905D01*
X195597144Y-135270952D01*
X195525716Y-135080476D01*
X195382858Y-134890000D01*
X195168573Y-134794762D01*
X195025716Y-134794762D01*
X194811430Y-134890000D01*
X194740001Y-134985238D01*
X194097144Y-136032857D02*
X192954287Y-136032857D01*
X191740001Y-135747143D02*
X191525715Y-135842381D01*
X191454287Y-135937619D01*
X191382858Y-136128095D01*
X191382858Y-136413810D01*
X191454287Y-136604286D01*
X191525715Y-136699524D01*
X191668573Y-136794762D01*
X192240001Y-136794762D01*
X192240001Y-134794762D01*
X191740001Y-134794762D01*
X191597144Y-134890000D01*
X191525715Y-134985238D01*
X191454287Y-135175714D01*
X191454287Y-135366190D01*
X191525715Y-135556667D01*
X191597144Y-135651905D01*
X191740001Y-135747143D01*
X192240001Y-135747143D01*
X190454287Y-135842381D02*
X190454287Y-136794762D01*
X190954287Y-134794762D02*
X190454287Y-135842381D01*
X189954287Y-134794762D01*
X189454287Y-136032857D02*
X188311430Y-136032857D01*
X187597144Y-136794762D02*
X187597144Y-134794762D01*
X186740001Y-136794762D01*
X186740001Y-134794762D01*
X185168572Y-136604286D02*
X185240001Y-136699524D01*
X185454287Y-136794762D01*
X185597144Y-136794762D01*
X185811429Y-136699524D01*
X185954287Y-136509048D01*
X186025715Y-136318571D01*
X186097144Y-135937619D01*
X186097144Y-135651905D01*
X186025715Y-135270952D01*
X185954287Y-135080476D01*
X185811429Y-134890000D01*
X185597144Y-134794762D01*
X185454287Y-134794762D01*
X185240001Y-134890000D01*
X185168572Y-134985238D01*
X184525715Y-136032857D02*
X183382858Y-136032857D01*
X182025715Y-135461429D02*
X182025715Y-136794762D01*
X182382858Y-134699524D02*
X182740001Y-136128095D01*
X181811429Y-136128095D01*
X181240001Y-136604286D02*
X181168573Y-136699524D01*
X181240001Y-136794762D01*
X181311430Y-136699524D01*
X181240001Y-136604286D01*
X181240001Y-136794762D01*
X180240001Y-134794762D02*
X180097144Y-134794762D01*
X179954287Y-134890000D01*
X179882858Y-134985238D01*
X179811429Y-135175714D01*
X179740001Y-135556667D01*
X179740001Y-136032857D01*
X179811429Y-136413810D01*
X179882858Y-136604286D01*
X179954287Y-136699524D01*
X180097144Y-136794762D01*
X180240001Y-136794762D01*
X180382858Y-136699524D01*
X180454287Y-136604286D01*
X180525715Y-136413810D01*
X180597144Y-136032857D01*
X180597144Y-135556667D01*
X180525715Y-135175714D01*
X180454287Y-134985238D01*
X180382858Y-134890000D01*
X180240001Y-134794762D01*
D10*
X213360000Y-163830000D02*
X77470000Y-163830000D01*
X213360000Y-143510000D02*
X213360000Y-163830000D01*
X233680000Y-143510000D02*
X213360000Y-143510000D01*
X233680000Y-53340000D02*
X233680000Y-143510000D01*
X213360000Y-53340000D02*
X233680000Y-53340000D01*
X213360000Y-33020000D02*
X213360000Y-53340000D01*
X77470000Y-33020000D02*
X213360000Y-33020000D01*
X77470000Y-53340000D02*
X77470000Y-33020000D01*
X57150000Y-53340000D02*
X77470000Y-53340000D01*
X57150000Y-143510000D02*
X57150000Y-53340000D01*
X77470000Y-143510000D02*
X57150000Y-143510000D01*
X77470000Y-163830000D02*
X77470000Y-143510000D01*
X139700000Y-163830000D02*
X207010000Y-163830000D01*
X139700000Y-163830000D02*
X78740000Y-163830000D01*
D12*
X154940000Y-82550000D03*
D13*
X157480000Y-82550000D03*
X154940000Y-95250000D03*
X157480000Y-85090000D03*
X154940000Y-97790000D03*
X157480000Y-87630000D03*
X154940000Y-100330000D03*
X157480000Y-90170000D03*
X154940000Y-102870000D03*
X157480000Y-92710000D03*
X154940000Y-105410000D03*
X157480000Y-95250000D03*
X154940000Y-107950000D03*
X157480000Y-97790000D03*
X154940000Y-110490000D03*
X157480000Y-100330000D03*
X154940000Y-113030000D03*
X157480000Y-102870000D03*
X154940000Y-115570000D03*
X157480000Y-105410000D03*
X154940000Y-118110000D03*
X157480000Y-107950000D03*
X154940000Y-120650000D03*
X157480000Y-110490000D03*
X157480000Y-113030000D03*
X154940000Y-123190000D03*
X157480000Y-115570000D03*
X157480000Y-120650000D03*
X157480000Y-123190000D03*
X157480000Y-125730000D03*
X157480000Y-128270000D03*
X154940000Y-125730000D03*
X154940000Y-128270000D03*
X154940000Y-85090000D03*
X154940000Y-87630000D03*
X154940000Y-90170000D03*
X154940000Y-92710000D03*
X154940000Y-130810000D03*
X157480000Y-130810000D03*
X157480000Y-118110000D03*
D14*
X81280000Y-132105400D03*
X81280000Y-137109200D03*
X81280000Y-121945400D03*
X81280000Y-126949200D03*
X81280000Y-111785400D03*
X81280000Y-116789200D03*
X81280000Y-101625400D03*
X81280000Y-106629200D03*
D15*
X95250000Y-151130000D03*
D16*
X97790000Y-151130000D03*
X100330000Y-151130000D03*
X102870000Y-151130000D03*
X105410000Y-151130000D03*
X107950000Y-151130000D03*
X110490000Y-151130000D03*
X113030000Y-151130000D03*
X115570000Y-151130000D03*
X118110000Y-151130000D03*
X120650000Y-151130000D03*
X123190000Y-151130000D03*
X125730000Y-151130000D03*
D17*
X97790000Y-135890000D03*
X146050000Y-135890000D03*
X97790000Y-77470000D03*
X146050000Y-77470000D03*
X166370000Y-58420000D03*
X214630000Y-58420000D03*
X166370000Y-125730000D03*
X214630000Y-125730000D03*
D14*
X81280000Y-81305400D03*
X81280000Y-86309200D03*
X81280000Y-91465400D03*
X81280000Y-96469200D03*
D15*
X137160000Y-50800000D03*
D16*
X137160000Y-48260000D03*
X137160000Y-45720000D03*
X137160000Y-43180000D03*
D15*
X149860000Y-50800000D03*
D16*
X149860000Y-48260000D03*
X149860000Y-45720000D03*
X149860000Y-43180000D03*
D15*
X97790000Y-39370000D03*
D16*
X100330000Y-39370000D03*
X102870000Y-39370000D03*
X105410000Y-39370000D03*
X107950000Y-39370000D03*
X110490000Y-39370000D03*
D15*
X97790000Y-49530000D03*
D16*
X100330000Y-49530000D03*
X102870000Y-49530000D03*
X105410000Y-49530000D03*
X107950000Y-49530000D03*
X110490000Y-49530000D03*
D17*
X68580000Y-97790000D03*
X171450000Y-39370000D03*
X223520000Y-96520000D03*
X119380000Y-157480000D03*
X171450000Y-157480000D03*
D18*
X88900000Y-148590000D03*
D19*
X83820000Y-148590000D03*
D15*
X118110000Y-147320000D03*
D16*
X120650000Y-147320000D03*
X123190000Y-147320000D03*
X125730000Y-147320000D03*
D15*
X171450000Y-151130000D03*
D16*
X173990000Y-151130000D03*
X176530000Y-151130000D03*
D20*
X140970000Y-39370000D03*
X187960000Y-48260000D03*
X173990000Y-142240000D03*
X140970000Y-82550000D03*
X130810000Y-104140000D03*
X105410000Y-41910000D03*
X104140000Y-53340000D03*
X69850000Y-127000000D03*
X157480000Y-74930000D03*
X135890000Y-59690000D03*
X135890000Y-110490000D03*
X138430000Y-57150000D03*
X97790000Y-121920000D03*
X133350000Y-95250000D03*
X133350000Y-39370000D03*
X130810000Y-41910000D03*
X130810000Y-90170000D03*
X128270000Y-87630000D03*
X128270000Y-44450000D03*
X125730000Y-46990000D03*
X125730000Y-85090000D03*
X113030000Y-101600000D03*
X97790000Y-101600000D03*
X110490000Y-96520000D03*
X97790000Y-96520000D03*
X107950000Y-91440000D03*
X97790000Y-91440000D03*
X105410000Y-86360000D03*
X97790000Y-86360000D03*
X180340000Y-100330000D03*
X180340000Y-73660000D03*
X177800000Y-71120000D03*
X177800000Y-95250000D03*
X175260000Y-92710000D03*
X175260000Y-68580000D03*
X172720000Y-66040000D03*
X172720000Y-90170000D03*
X170180000Y-63500000D03*
X120650000Y-62230000D03*
X102870000Y-62230000D03*
X170180000Y-102870000D03*
D21*
X63500000Y-137109200D02*
X63449200Y-137109200D01*
X62230000Y-116789200D02*
X62230000Y-135890000D01*
X63500000Y-137109200D02*
X81280000Y-137109200D01*
X63449200Y-137109200D02*
X62230000Y-135890000D01*
X137160000Y-43180000D02*
X139700000Y-43180000D01*
X140970000Y-41910000D02*
X140970000Y-39370000D01*
X139700000Y-43180000D02*
X140970000Y-41910000D01*
X176530000Y-151130000D02*
X176530000Y-110490000D01*
X187960000Y-106680000D02*
X187960000Y-48260000D01*
X185420000Y-109220000D02*
X187960000Y-106680000D01*
X177800000Y-109220000D02*
X185420000Y-109220000D01*
X176530000Y-110490000D02*
X177800000Y-109220000D01*
X154940000Y-82550000D02*
X140970000Y-82550000D01*
X173990000Y-142240000D02*
X173990000Y-151130000D01*
X105410000Y-39370000D02*
X105410000Y-41910000D01*
X132080000Y-102870000D02*
X130810000Y-104140000D01*
X132080000Y-102870000D02*
X154940000Y-102870000D01*
X105410000Y-49530000D02*
X105410000Y-52070000D01*
X105410000Y-52070000D02*
X104140000Y-53340000D01*
X157480000Y-82550000D02*
X157480000Y-74930000D01*
X69900800Y-126949200D02*
X81280000Y-126949200D01*
X69850000Y-127000000D02*
X69900800Y-126949200D01*
X182880000Y-97790000D02*
X179070000Y-97790000D01*
X179070000Y-97790000D02*
X157480000Y-97790000D01*
X171450000Y-151130000D02*
X171450000Y-106680000D01*
X182880000Y-104140000D02*
X182880000Y-97790000D01*
X182880000Y-97790000D02*
X182880000Y-96520000D01*
X181610000Y-105410000D02*
X182880000Y-104140000D01*
X172720000Y-105410000D02*
X181610000Y-105410000D01*
X171450000Y-106680000D02*
X172720000Y-105410000D01*
X157480000Y-85090000D02*
X157480000Y-82550000D01*
X137160000Y-36830000D02*
X137160000Y-39370000D01*
X137160000Y-39370000D02*
X133350000Y-43180000D01*
X133350000Y-43180000D02*
X133350000Y-49530000D01*
X133350000Y-49530000D02*
X134620000Y-50800000D01*
X134620000Y-50800000D02*
X137160000Y-50800000D01*
X182880000Y-87630000D02*
X180340000Y-87630000D01*
X180340000Y-87630000D02*
X157480000Y-87630000D01*
X135890000Y-36830000D02*
X137160000Y-36830000D01*
X137160000Y-36830000D02*
X163830000Y-36830000D01*
X182880000Y-45720000D02*
X182880000Y-87630000D01*
X182880000Y-87630000D02*
X182880000Y-96520000D01*
X181610000Y-44450000D02*
X182880000Y-45720000D01*
X167640000Y-44450000D02*
X181610000Y-44450000D01*
X166370000Y-43180000D02*
X167640000Y-44450000D01*
X166370000Y-38100000D02*
X166370000Y-43180000D01*
X165100000Y-36830000D02*
X166370000Y-38100000D01*
X163830000Y-36830000D02*
X165100000Y-36830000D01*
X102870000Y-36830000D02*
X135890000Y-36830000D01*
X144780000Y-54610000D02*
X144780000Y-49530000D01*
X154940000Y-110490000D02*
X135890000Y-110490000D01*
X139700000Y-59690000D02*
X144780000Y-54610000D01*
X135890000Y-59690000D02*
X139700000Y-59690000D01*
X146050000Y-48260000D02*
X149860000Y-48260000D01*
X144780000Y-49530000D02*
X146050000Y-48260000D01*
X137160000Y-48260000D02*
X139700000Y-48260000D01*
X138430000Y-57150000D02*
X140970000Y-54610000D01*
X97764600Y-121945400D02*
X81280000Y-121945400D01*
X97764600Y-121945400D02*
X97790000Y-121920000D01*
X140970000Y-49530000D02*
X140970000Y-54610000D01*
X139700000Y-48260000D02*
X140970000Y-49530000D01*
X88900000Y-148590000D02*
X88900000Y-144780000D01*
X88900000Y-144780000D02*
X90170000Y-143510000D01*
X90170000Y-143510000D02*
X91440000Y-142240000D01*
X91440000Y-142240000D02*
X91440000Y-128270000D01*
X91440000Y-128270000D02*
X90119200Y-126949200D01*
X90119200Y-126949200D02*
X81280000Y-126949200D01*
X83820000Y-148590000D02*
X83820000Y-143510000D01*
X81305400Y-132080000D02*
X81280000Y-132105400D01*
X87630000Y-132080000D02*
X81305400Y-132080000D01*
X88900000Y-133350000D02*
X87630000Y-132080000D01*
X88900000Y-140970000D02*
X88900000Y-133350000D01*
X87630000Y-142240000D02*
X88900000Y-140970000D01*
X85090000Y-142240000D02*
X87630000Y-142240000D01*
X83820000Y-143510000D02*
X85090000Y-142240000D01*
X62255400Y-81305400D02*
X62255400Y-59715400D01*
X102870000Y-36830000D02*
X92710000Y-36830000D01*
X102870000Y-36830000D02*
X102870000Y-39370000D01*
X83820000Y-36830000D02*
X92710000Y-36830000D01*
X82550000Y-38100000D02*
X83820000Y-36830000D01*
X82550000Y-57150000D02*
X82550000Y-38100000D01*
X81280000Y-58420000D02*
X82550000Y-57150000D01*
X80010000Y-58420000D02*
X81280000Y-58420000D01*
X79959200Y-58470800D02*
X80010000Y-58420000D01*
X63500000Y-58470800D02*
X79959200Y-58470800D01*
X62255400Y-59715400D02*
X63500000Y-58470800D01*
X114300000Y-39370000D02*
X133350000Y-39370000D01*
X110490000Y-39370000D02*
X114300000Y-39370000D01*
X133350000Y-95250000D02*
X154940000Y-95250000D01*
X154940000Y-90170000D02*
X130810000Y-90170000D01*
X107950000Y-40640000D02*
X109220000Y-41910000D01*
X109220000Y-41910000D02*
X114300000Y-41910000D01*
X107950000Y-40640000D02*
X107950000Y-39370000D01*
X130810000Y-41910000D02*
X114300000Y-41910000D01*
X114300000Y-44450000D02*
X128270000Y-44450000D01*
X100330000Y-43180000D02*
X101600000Y-44450000D01*
X101600000Y-44450000D02*
X114300000Y-44450000D01*
X100330000Y-39370000D02*
X100330000Y-43180000D01*
X128270000Y-87630000D02*
X154940000Y-87630000D01*
X154940000Y-85090000D02*
X125730000Y-85090000D01*
X97790000Y-45720000D02*
X99060000Y-46990000D01*
X99060000Y-46990000D02*
X114300000Y-46990000D01*
X97790000Y-45720000D02*
X97790000Y-39370000D01*
X125730000Y-46990000D02*
X114300000Y-46990000D01*
X113030000Y-69850000D02*
X113030000Y-57150000D01*
X113030000Y-101600000D02*
X113030000Y-69850000D01*
X110490000Y-54610000D02*
X110490000Y-49530000D01*
X113030000Y-57150000D02*
X110490000Y-54610000D01*
X110490000Y-69850000D02*
X110490000Y-58420000D01*
X110490000Y-96520000D02*
X110490000Y-69850000D01*
X107950000Y-55880000D02*
X107950000Y-49530000D01*
X110490000Y-58420000D02*
X107950000Y-55880000D01*
X97790000Y-49530000D02*
X97790000Y-50800000D01*
X105410000Y-60960000D02*
X104140000Y-59690000D01*
X104140000Y-59690000D02*
X99060000Y-59690000D01*
X99060000Y-59690000D02*
X97790000Y-58420000D01*
X97790000Y-58420000D02*
X97790000Y-50800000D01*
X105410000Y-69850000D02*
X105410000Y-86360000D01*
X105410000Y-69850000D02*
X105410000Y-60960000D01*
X107950000Y-69850000D02*
X107950000Y-59690000D01*
X107950000Y-91440000D02*
X107950000Y-69850000D01*
X100330000Y-55880000D02*
X100330000Y-49530000D01*
X101600000Y-57150000D02*
X100330000Y-55880000D01*
X105410000Y-57150000D02*
X101600000Y-57150000D01*
X107950000Y-59690000D02*
X105410000Y-57150000D01*
X81280000Y-116789200D02*
X62230000Y-116789200D01*
X81280000Y-81305400D02*
X62255400Y-81305400D01*
X62230000Y-81330800D02*
X62230000Y-116789200D01*
X62255400Y-81305400D02*
X62230000Y-81330800D01*
X81280000Y-101625400D02*
X97764600Y-101625400D01*
X97764600Y-101625400D02*
X97790000Y-101600000D01*
X81280000Y-96469200D02*
X97739200Y-96469200D01*
X97739200Y-96469200D02*
X97790000Y-96520000D01*
X81280000Y-91465400D02*
X97764600Y-91465400D01*
X97764600Y-91465400D02*
X97790000Y-91440000D01*
X81280000Y-86309200D02*
X97739200Y-86309200D01*
X97739200Y-86309200D02*
X97790000Y-86360000D01*
X170180000Y-73660000D02*
X180340000Y-73660000D01*
X161290000Y-72390000D02*
X162560000Y-73660000D01*
X162560000Y-73660000D02*
X170180000Y-73660000D01*
X123190000Y-130810000D02*
X123190000Y-73660000D01*
X115570000Y-144780000D02*
X123190000Y-137160000D01*
X123190000Y-137160000D02*
X123190000Y-130810000D01*
X115570000Y-151130000D02*
X115570000Y-144780000D01*
X123190000Y-73660000D02*
X124460000Y-72390000D01*
X124460000Y-72390000D02*
X161290000Y-72390000D01*
X180340000Y-100330000D02*
X157480000Y-100330000D01*
X157480000Y-95250000D02*
X177800000Y-95250000D01*
X161290000Y-69850000D02*
X162560000Y-71120000D01*
X162560000Y-71120000D02*
X170180000Y-71120000D01*
X120650000Y-130810000D02*
X120650000Y-72390000D01*
X113030000Y-144780000D02*
X120650000Y-137160000D01*
X120650000Y-137160000D02*
X120650000Y-130810000D01*
X113030000Y-144780000D02*
X113030000Y-151130000D01*
X120650000Y-72390000D02*
X123190000Y-69850000D01*
X123190000Y-69850000D02*
X161290000Y-69850000D01*
X177800000Y-71120000D02*
X170180000Y-71120000D01*
X170180000Y-68580000D02*
X175260000Y-68580000D01*
X161290000Y-67310000D02*
X162560000Y-68580000D01*
X162560000Y-68580000D02*
X170180000Y-68580000D01*
X118110000Y-130810000D02*
X118110000Y-71120000D01*
X110490000Y-144780000D02*
X118110000Y-137160000D01*
X118110000Y-137160000D02*
X118110000Y-130810000D01*
X110490000Y-151130000D02*
X110490000Y-144780000D01*
X118110000Y-71120000D02*
X121920000Y-67310000D01*
X121920000Y-67310000D02*
X161290000Y-67310000D01*
X175260000Y-92710000D02*
X157480000Y-92710000D01*
X157480000Y-90170000D02*
X172720000Y-90170000D01*
X120650000Y-64770000D02*
X161290000Y-64770000D01*
X120650000Y-64770000D02*
X115570000Y-69850000D01*
X115570000Y-69850000D02*
X115570000Y-130810000D01*
X107950000Y-144780000D02*
X107950000Y-151130000D01*
X115570000Y-137160000D02*
X115570000Y-130810000D01*
X107950000Y-144780000D02*
X115570000Y-137160000D01*
X162560000Y-66040000D02*
X170180000Y-66040000D01*
X161290000Y-64770000D02*
X162560000Y-66040000D01*
X172720000Y-66040000D02*
X170180000Y-66040000D01*
X102870000Y-69850000D02*
X102870000Y-62230000D01*
X95250000Y-151130000D02*
X95250000Y-149860000D01*
X95250000Y-144780000D02*
X102870000Y-137160000D01*
X102870000Y-137160000D02*
X102870000Y-130810000D01*
X95250000Y-149860000D02*
X95250000Y-144780000D01*
X102870000Y-69850000D02*
X102870000Y-130810000D01*
X161290000Y-62230000D02*
X162560000Y-63500000D01*
X162560000Y-63500000D02*
X170180000Y-63500000D01*
X120650000Y-62230000D02*
X161290000Y-62230000D01*
X170180000Y-102870000D02*
X157480000Y-102870000D01*
X105410000Y-86360000D02*
X105410000Y-130810000D01*
X97790000Y-144780000D02*
X105410000Y-137160000D01*
X105410000Y-137160000D02*
X105410000Y-130810000D01*
X97790000Y-144780000D02*
X97790000Y-151130000D01*
X107950000Y-91440000D02*
X107950000Y-130810000D01*
X100330000Y-144780000D02*
X107950000Y-137160000D01*
X107950000Y-137160000D02*
X107950000Y-130810000D01*
X100330000Y-144780000D02*
X100330000Y-151130000D01*
X110490000Y-96520000D02*
X110490000Y-130810000D01*
X102870000Y-144780000D02*
X110490000Y-137160000D01*
X110490000Y-137160000D02*
X110490000Y-130810000D01*
X102870000Y-144780000D02*
X102870000Y-151130000D01*
X113030000Y-101600000D02*
X113030000Y-130810000D01*
X105410000Y-144780000D02*
X113030000Y-137160000D01*
X113030000Y-137160000D02*
X113030000Y-130810000D01*
X105410000Y-144780000D02*
X105410000Y-151130000D01*
X123190000Y-151130000D02*
X123190000Y-144780000D01*
X133350000Y-105410000D02*
X154940000Y-105410000D01*
X130810000Y-107950000D02*
X133350000Y-105410000D01*
X130810000Y-137160000D02*
X130810000Y-107950000D01*
X123190000Y-144780000D02*
X130810000Y-137160000D01*
X154940000Y-97790000D02*
X128270000Y-97790000D01*
X118110000Y-144780000D02*
X118110000Y-151130000D01*
X125730000Y-137160000D02*
X118110000Y-144780000D01*
X125730000Y-100330000D02*
X125730000Y-137160000D01*
X128270000Y-97790000D02*
X125730000Y-100330000D01*
X154940000Y-100330000D02*
X129540000Y-100330000D01*
X120650000Y-144780000D02*
X128270000Y-137160000D01*
X128270000Y-137160000D02*
X128270000Y-130810000D01*
X120650000Y-144780000D02*
X120650000Y-151130000D01*
X128270000Y-101600000D02*
X128270000Y-130810000D01*
X129540000Y-100330000D02*
X128270000Y-101600000D01*
X154940000Y-107950000D02*
X134620000Y-107950000D01*
X125730000Y-144780000D02*
X133350000Y-137160000D01*
X133350000Y-137160000D02*
X133350000Y-130810000D01*
X125730000Y-144780000D02*
X125730000Y-151130000D01*
X133350000Y-109220000D02*
X133350000Y-130810000D01*
X134620000Y-107950000D02*
X133350000Y-109220000D01*
M02*
