M48
;DRILL file {KiCad 4.0.5+dfsg1-4+deb9u1} date Tue Sep 27 18:47:43 2022
;FORMAT={-:-/ absolute / metric / decimal}
FMAT,2
METRIC,TZ
T1C0.800
T2C0.813
T3C1.016
T4C1.321
T5C1.524
T6C3.048
%
G90
G05
M71
T1
X69.85Y-127.
X97.79Y-86.36
X97.79Y-91.44
X97.79Y-96.52
X97.79Y-101.6
X97.79Y-121.92
X102.87Y-62.23
X104.14Y-53.34
X105.41Y-41.91
X105.41Y-86.36
X107.95Y-91.44
X110.49Y-96.52
X113.03Y-101.6
X120.65Y-62.23
X125.73Y-46.99
X125.73Y-85.09
X128.27Y-44.45
X128.27Y-87.63
X130.81Y-41.91
X130.81Y-90.17
X130.81Y-104.14
X133.35Y-39.37
X133.35Y-95.25
X135.89Y-59.69
X135.89Y-110.49
X138.43Y-57.15
X140.97Y-39.37
X140.97Y-82.55
X157.48Y-74.93
X170.18Y-63.5
X170.18Y-102.87
X172.72Y-66.04
X172.72Y-90.17
X173.99Y-142.24
X175.26Y-68.58
X175.26Y-92.71
X177.8Y-71.12
X177.8Y-95.25
X180.34Y-73.66
X180.34Y-100.33
X187.96Y-48.26
T2
X95.25Y-151.13
X97.79Y-39.37
X97.79Y-49.53
X97.79Y-151.13
X100.33Y-39.37
X100.33Y-49.53
X100.33Y-151.13
X102.87Y-39.37
X102.87Y-49.53
X102.87Y-151.13
X105.41Y-39.37
X105.41Y-49.53
X105.41Y-151.13
X107.95Y-39.37
X107.95Y-49.53
X107.95Y-151.13
X110.49Y-39.37
X110.49Y-49.53
X110.49Y-151.13
X113.03Y-151.13
X115.57Y-151.13
X118.11Y-147.32
X118.11Y-151.13
X120.65Y-147.32
X120.65Y-151.13
X123.19Y-147.32
X123.19Y-151.13
X125.73Y-147.32
X125.73Y-151.13
X137.16Y-43.18
X137.16Y-45.72
X137.16Y-48.26
X137.16Y-50.8
X149.86Y-43.18
X149.86Y-45.72
X149.86Y-48.26
X149.86Y-50.8
X171.45Y-151.13
X173.99Y-151.13
X176.53Y-151.13
T3
X154.94Y-82.55
X154.94Y-85.09
X154.94Y-87.63
X154.94Y-90.17
X154.94Y-92.71
X154.94Y-95.25
X154.94Y-97.79
X154.94Y-100.33
X154.94Y-102.87
X154.94Y-105.41
X154.94Y-107.95
X154.94Y-110.49
X154.94Y-113.03
X154.94Y-115.57
X154.94Y-118.11
X154.94Y-120.65
X154.94Y-123.19
X154.94Y-125.73
X154.94Y-128.27
X154.94Y-130.81
X157.48Y-82.55
X157.48Y-85.09
X157.48Y-87.63
X157.48Y-90.17
X157.48Y-92.71
X157.48Y-95.25
X157.48Y-97.79
X157.48Y-100.33
X157.48Y-102.87
X157.48Y-105.41
X157.48Y-107.95
X157.48Y-110.49
X157.48Y-113.03
X157.48Y-115.57
X157.48Y-118.11
X157.48Y-120.65
X157.48Y-123.19
X157.48Y-125.73
X157.48Y-128.27
X157.48Y-130.81
T4
X81.28Y-81.305
X81.28Y-86.309
X81.28Y-91.465
X81.28Y-96.469
X81.28Y-101.625
X81.28Y-106.629
X81.28Y-111.785
X81.28Y-116.789
X81.28Y-121.945
X81.28Y-126.949
X81.28Y-132.105
X81.28Y-137.109
T5
X83.82Y-148.59
X88.9Y-148.59
T6
X68.58Y-97.79
X97.79Y-77.47
X97.79Y-135.89
X119.38Y-157.48
X146.05Y-77.47
X146.05Y-135.89
X166.37Y-58.42
X166.37Y-125.73
X171.45Y-39.37
X171.45Y-157.48
X214.63Y-58.42
X214.63Y-125.73
X223.52Y-96.52
T0
M30
