M48
;DRILL file {KiCad 4.0.5+dfsg1-4+deb9u1} date Tue Sep 27 18:48:33 2022
;FORMAT={-:-/ absolute / metric / decimal}
FMAT,2
METRIC,TZ
T1C0.813
T2C1.143
%
G90
G05
M71
T1
X69.85Y-92.71
X69.85Y-113.03
X72.39Y-92.71
X72.39Y-113.03
X88.9Y-143.51
X91.44Y-143.51
X93.98Y-143.51
X96.52Y-143.51
X99.06Y-143.51
X101.6Y-143.51
X104.14Y-143.51
X106.68Y-143.51
X109.22Y-143.51
X111.76Y-143.51
X114.3Y-143.51
X116.84Y-143.51
X119.38Y-143.51
X144.78Y-52.07
X144.78Y-82.55
X144.78Y-113.03
X147.32Y-52.07
X147.32Y-82.55
X147.32Y-113.03
X165.1Y-52.07
X165.1Y-82.55
X165.1Y-113.03
X165.1Y-143.51
X167.64Y-52.07
X167.64Y-82.55
X167.64Y-113.03
X167.64Y-143.51
X170.18Y-143.51
X172.72Y-143.51
X185.42Y-52.07
X185.42Y-82.55
X185.42Y-113.03
X185.42Y-143.51
X187.96Y-52.07
X187.96Y-82.55
X187.96Y-113.03
X187.96Y-143.51
X205.74Y-52.07
X205.74Y-82.55
X205.74Y-113.03
X208.28Y-52.07
X208.28Y-82.55
X208.28Y-113.03
T2
X86.36Y-52.07
X86.36Y-67.31
X91.44Y-52.07
X91.44Y-67.31
X99.06Y-52.07
X99.06Y-57.15
X99.06Y-62.23
X99.06Y-67.31
X114.3Y-52.07
X114.3Y-57.15
X114.3Y-62.23
X114.3Y-67.31
X119.38Y-52.07
X119.38Y-57.15
X119.38Y-62.23
X119.38Y-67.31
X119.38Y-82.55
X119.38Y-87.63
X119.38Y-92.71
X119.38Y-97.79
X119.38Y-113.03
X119.38Y-118.11
X119.38Y-123.19
X119.38Y-128.27
X134.62Y-52.07
X134.62Y-57.15
X134.62Y-62.23
X134.62Y-67.31
X134.62Y-82.55
X134.62Y-87.63
X134.62Y-92.71
X134.62Y-97.79
X134.62Y-113.03
X134.62Y-118.11
X134.62Y-123.19
X134.62Y-128.27
X172.72Y-137.16
X187.96Y-137.16
T0
M30
