G04 #@! TF.FileFunction,Copper,L1,Top*
%FSLAX46Y46*%
G04 Gerber Fmt 4.6, Leading zero omitted, Abs format (unit mm)*
G04 Created by KiCad (PCBNEW 4.0.5+dfsg1-4+deb9u1) date Tue Sep 27 18:47:41 2022*
%MOMM*%
%LPD*%
G01*
G04 APERTURE LIST*
%ADD10C,0.100000*%
%ADD11R,1.524000X1.524000*%
%ADD12C,1.524000*%
%ADD13O,3.962400X1.981200*%
%ADD14R,1.397000X1.397000*%
%ADD15C,1.397000*%
%ADD16C,4.064000*%
%ADD17R,2.540000X2.540000*%
%ADD18C,2.540000*%
%ADD19C,1.600000*%
%ADD20C,1.000000*%
G04 APERTURE END LIST*
D10*
X213360000Y-163830000D02*
X77470000Y-163830000D01*
X213360000Y-143510000D02*
X213360000Y-163830000D01*
X233680000Y-143510000D02*
X213360000Y-143510000D01*
X233680000Y-53340000D02*
X233680000Y-143510000D01*
X213360000Y-53340000D02*
X233680000Y-53340000D01*
X213360000Y-33020000D02*
X213360000Y-53340000D01*
X77470000Y-33020000D02*
X213360000Y-33020000D01*
X77470000Y-53340000D02*
X77470000Y-33020000D01*
X57150000Y-53340000D02*
X77470000Y-53340000D01*
X57150000Y-143510000D02*
X57150000Y-53340000D01*
X77470000Y-143510000D02*
X57150000Y-143510000D01*
X77470000Y-163830000D02*
X77470000Y-143510000D01*
X139700000Y-163830000D02*
X207010000Y-163830000D01*
X139700000Y-163830000D02*
X78740000Y-163830000D01*
D11*
X154940000Y-82550000D03*
D12*
X157480000Y-82550000D03*
X154940000Y-95250000D03*
X157480000Y-85090000D03*
X154940000Y-97790000D03*
X157480000Y-87630000D03*
X154940000Y-100330000D03*
X157480000Y-90170000D03*
X154940000Y-102870000D03*
X157480000Y-92710000D03*
X154940000Y-105410000D03*
X157480000Y-95250000D03*
X154940000Y-107950000D03*
X157480000Y-97790000D03*
X154940000Y-110490000D03*
X157480000Y-100330000D03*
X154940000Y-113030000D03*
X157480000Y-102870000D03*
X154940000Y-115570000D03*
X157480000Y-105410000D03*
X154940000Y-118110000D03*
X157480000Y-107950000D03*
X154940000Y-120650000D03*
X157480000Y-110490000D03*
X157480000Y-113030000D03*
X154940000Y-123190000D03*
X157480000Y-115570000D03*
X157480000Y-120650000D03*
X157480000Y-123190000D03*
X157480000Y-125730000D03*
X157480000Y-128270000D03*
X154940000Y-125730000D03*
X154940000Y-128270000D03*
X154940000Y-85090000D03*
X154940000Y-87630000D03*
X154940000Y-90170000D03*
X154940000Y-92710000D03*
X154940000Y-130810000D03*
X157480000Y-130810000D03*
X157480000Y-118110000D03*
D13*
X81280000Y-132105400D03*
X81280000Y-137109200D03*
X81280000Y-121945400D03*
X81280000Y-126949200D03*
X81280000Y-111785400D03*
X81280000Y-116789200D03*
X81280000Y-101625400D03*
X81280000Y-106629200D03*
D14*
X95250000Y-151130000D03*
D15*
X97790000Y-151130000D03*
X100330000Y-151130000D03*
X102870000Y-151130000D03*
X105410000Y-151130000D03*
X107950000Y-151130000D03*
X110490000Y-151130000D03*
X113030000Y-151130000D03*
X115570000Y-151130000D03*
X118110000Y-151130000D03*
X120650000Y-151130000D03*
X123190000Y-151130000D03*
X125730000Y-151130000D03*
D16*
X97790000Y-135890000D03*
X146050000Y-135890000D03*
X97790000Y-77470000D03*
X146050000Y-77470000D03*
X166370000Y-58420000D03*
X214630000Y-58420000D03*
X166370000Y-125730000D03*
X214630000Y-125730000D03*
D13*
X81280000Y-81305400D03*
X81280000Y-86309200D03*
X81280000Y-91465400D03*
X81280000Y-96469200D03*
D14*
X137160000Y-50800000D03*
D15*
X137160000Y-48260000D03*
X137160000Y-45720000D03*
X137160000Y-43180000D03*
D14*
X149860000Y-50800000D03*
D15*
X149860000Y-48260000D03*
X149860000Y-45720000D03*
X149860000Y-43180000D03*
D14*
X97790000Y-39370000D03*
D15*
X100330000Y-39370000D03*
X102870000Y-39370000D03*
X105410000Y-39370000D03*
X107950000Y-39370000D03*
X110490000Y-39370000D03*
D14*
X97790000Y-49530000D03*
D15*
X100330000Y-49530000D03*
X102870000Y-49530000D03*
X105410000Y-49530000D03*
X107950000Y-49530000D03*
X110490000Y-49530000D03*
D16*
X68580000Y-97790000D03*
X171450000Y-39370000D03*
X223520000Y-96520000D03*
X119380000Y-157480000D03*
X171450000Y-157480000D03*
D17*
X88900000Y-148590000D03*
D18*
X83820000Y-148590000D03*
D14*
X118110000Y-147320000D03*
D15*
X120650000Y-147320000D03*
X123190000Y-147320000D03*
X125730000Y-147320000D03*
D14*
X171450000Y-151130000D03*
D15*
X173990000Y-151130000D03*
X176530000Y-151130000D03*
D19*
X140970000Y-39370000D03*
X187960000Y-48260000D03*
X173990000Y-142240000D03*
X140970000Y-82550000D03*
X130810000Y-104140000D03*
X105410000Y-41910000D03*
X104140000Y-53340000D03*
X69850000Y-127000000D03*
X157480000Y-74930000D03*
X135890000Y-59690000D03*
X135890000Y-110490000D03*
X138430000Y-57150000D03*
X97790000Y-121920000D03*
X133350000Y-95250000D03*
X133350000Y-39370000D03*
X130810000Y-41910000D03*
X130810000Y-90170000D03*
X128270000Y-87630000D03*
X128270000Y-44450000D03*
X125730000Y-46990000D03*
X125730000Y-85090000D03*
X113030000Y-101600000D03*
X97790000Y-101600000D03*
X110490000Y-96520000D03*
X97790000Y-96520000D03*
X107950000Y-91440000D03*
X97790000Y-91440000D03*
X105410000Y-86360000D03*
X97790000Y-86360000D03*
X180340000Y-100330000D03*
X180340000Y-73660000D03*
X177800000Y-71120000D03*
X177800000Y-95250000D03*
X175260000Y-92710000D03*
X175260000Y-68580000D03*
X172720000Y-66040000D03*
X172720000Y-90170000D03*
X170180000Y-63500000D03*
X120650000Y-62230000D03*
X102870000Y-62230000D03*
X170180000Y-102870000D03*
D20*
X140970000Y-39370000D02*
X140970000Y-36830000D01*
X187960000Y-48260000D02*
X157480000Y-48260000D01*
X142240000Y-142240000D02*
X173990000Y-142240000D01*
X140970000Y-140970000D02*
X142240000Y-142240000D01*
X140970000Y-82550000D02*
X140970000Y-140970000D01*
X130810000Y-104140000D02*
X123190000Y-96520000D01*
X123190000Y-96520000D02*
X123190000Y-49530000D01*
X123190000Y-43180000D02*
X123190000Y-49530000D01*
X121920000Y-41910000D02*
X123190000Y-43180000D01*
X105410000Y-41910000D02*
X121920000Y-41910000D01*
X104140000Y-53340000D02*
X82550000Y-53340000D01*
X63500000Y-127000000D02*
X69850000Y-127000000D01*
X62230000Y-125730000D02*
X63500000Y-127000000D01*
X62230000Y-59690000D02*
X62230000Y-125730000D01*
X63500000Y-58420000D02*
X62230000Y-59690000D01*
X81280000Y-58420000D02*
X63500000Y-58420000D01*
X82550000Y-57150000D02*
X81280000Y-58420000D01*
X82550000Y-38100000D02*
X82550000Y-53340000D01*
X82550000Y-53340000D02*
X82550000Y-57150000D01*
X83820000Y-36830000D02*
X82550000Y-38100000D01*
X156210000Y-36830000D02*
X140970000Y-36830000D01*
X140970000Y-36830000D02*
X83820000Y-36830000D01*
X157480000Y-38100000D02*
X156210000Y-36830000D01*
X157480000Y-74930000D02*
X157480000Y-48260000D01*
X157480000Y-48260000D02*
X157480000Y-38100000D01*
X135890000Y-59690000D02*
X135890000Y-78740000D01*
X135890000Y-78740000D02*
X135890000Y-102870000D01*
X135890000Y-102870000D02*
X135890000Y-110490000D01*
X137160000Y-121920000D02*
X138430000Y-120650000D01*
X138430000Y-120650000D02*
X138430000Y-57150000D01*
X97790000Y-121920000D02*
X137160000Y-121920000D01*
X133350000Y-74930000D02*
X133350000Y-95250000D01*
X133350000Y-54610000D02*
X133350000Y-74930000D01*
X133350000Y-39370000D02*
X133350000Y-54610000D01*
X130810000Y-58420000D02*
X130810000Y-41910000D01*
X130810000Y-78740000D02*
X130810000Y-58420000D01*
X130810000Y-90170000D02*
X130810000Y-78740000D01*
X128270000Y-74930000D02*
X128270000Y-87630000D01*
X128270000Y-44450000D02*
X128270000Y-74930000D01*
X125730000Y-59690000D02*
X125730000Y-46990000D01*
X125730000Y-85090000D02*
X125730000Y-59690000D01*
X97790000Y-101600000D02*
X113030000Y-101600000D01*
X97790000Y-96520000D02*
X110490000Y-96520000D01*
X97790000Y-91440000D02*
X107950000Y-91440000D01*
X97790000Y-86360000D02*
X105410000Y-86360000D01*
X180340000Y-96520000D02*
X180340000Y-100330000D01*
X180340000Y-73660000D02*
X180340000Y-96520000D01*
X177800000Y-78740000D02*
X177800000Y-71120000D01*
X177800000Y-95250000D02*
X177800000Y-78740000D01*
X175260000Y-68580000D02*
X175260000Y-92710000D01*
X172720000Y-78740000D02*
X172720000Y-66040000D01*
X172720000Y-90170000D02*
X172720000Y-78740000D01*
X102870000Y-62230000D02*
X120650000Y-62230000D01*
X170180000Y-63500000D02*
X170180000Y-102870000D01*
M02*
