<?xml version="1.0" standalone="no"?>
 <!DOCTYPE svg PUBLIC "-//W3C//DTD SVG 1.1//EN" 
 "http://www.w3.org/Graphics/SVG/1.1/DTD/svg11.dtd"> 
<svg xmlns="http://www.w3.org/2000/svg" version="1.1" 
    width="29.7002cm" height="21.0007cm" viewBox="0 0 116930 82680 ">
<title>SVG Picture created as mm3d_base-F_SilkS.svg date 2019/02/04 20:38:14 </title>
  <desc>Picture generated by PCBNEW </desc>
<g style="fill:#000000; fill-opacity:1;stroke:#000000; stroke-opacity:1;
stroke-linecap:round; stroke-linejoin:round; "
 transform="translate(0 0) scale(1 1)">
</g>
<g style="fill:#000000; fill-opacity:0.0; 
stroke:#000000; stroke-width:39.3701; stroke-opacity:1; 
stroke-linecap:round; stroke-linejoin:round;">
<path d="M4000 4000
L112930 4000
L112930 78680
L4000 78680
L4000 4000
" />
<path d="M4700 4700
L112230 4700
L112230 77980
L4700 77980
L4700 4700
" />
<path d="M25780 4000
L25780 4700
" />
<path d="M15032 4552
L14747 4552
" />
<path d="M14890 4552
L14890 4052
L14842 4123
L14794 4171
L14747 4195
" />
<path d="M25780 78680
L25780 77980
" />
<path d="M15032 78532
L14747 78532
" />
<path d="M14890 78532
L14890 78032
L14842 78103
L14794 78151
L14747 78175
" />
<path d="M47560 4000
L47560 4700
" />
<path d="M36527 4100
L36550 4076
L36598 4052
L36717 4052
L36765 4076
L36789 4100
L36812 4147
L36812 4195
L36789 4266
L36503 4552
L36812 4552
" />
<path d="M47560 78680
L47560 77980
" />
<path d="M36527 78080
L36550 78056
L36598 78032
L36717 78032
L36765 78056
L36789 78080
L36812 78127
L36812 78175
L36789 78246
L36503 78532
L36812 78532
" />
<path d="M69340 4000
L69340 4700
" />
<path d="M58283 4052
L58592 4052
L58426 4242
L58497 4242
L58545 4266
L58569 4290
L58592 4338
L58592 4457
L58569 4504
L58545 4528
L58497 4552
L58354 4552
L58307 4528
L58283 4504
" />
<path d="M69340 78680
L69340 77980
" />
<path d="M58283 78032
L58592 78032
L58426 78222
L58497 78222
L58545 78246
L58569 78270
L58592 78318
L58592 78437
L58569 78484
L58545 78508
L58497 78532
L58354 78532
L58307 78508
L58283 78484
" />
<path d="M91120 4000
L91120 4700
" />
<path d="M80325 4219
L80325 4552
" />
<path d="M80206 4028
L80087 4385
L80396 4385
" />
<path d="M91120 78680
L91120 77980
" />
<path d="M80325 78199
L80325 78532
" />
<path d="M80206 78008
L80087 78365
L80396 78365
" />
<path d="M102129 4052
L101890 4052
L101867 4290
L101890 4266
L101938 4242
L102057 4242
L102105 4266
L102129 4290
L102152 4338
L102152 4457
L102129 4504
L102105 4528
L102057 4552
L101938 4552
L101890 4528
L101867 4504
" />
<path d="M102129 78032
L101890 78032
L101867 78270
L101890 78246
L101938 78222
L102057 78222
L102105 78246
L102129 78270
L102152 78318
L102152 78437
L102129 78484
L102105 78508
L102057 78532
L101938 78532
L101890 78508
L101867 78484
" />
<path d="M4000 28890
L4700 28890
" />
<path d="M4230 16509
L4469 16509
" />
<path d="M4183 16652
L4350 16152
L4516 16652
" />
<path d="M112930 28890
L112230 28890
" />
<path d="M112460 16509
L112699 16509
" />
<path d="M112413 16652
L112580 16152
L112746 16652
" />
<path d="M4000 53780
L4700 53780
" />
<path d="M4385 41280
L4457 41304
L4480 41328
L4504 41375
L4504 41447
L4480 41494
L4457 41518
L4409 41542
L4219 41542
L4219 41042
L4385 41042
L4433 41066
L4457 41090
L4480 41137
L4480 41185
L4457 41232
L4433 41256
L4385 41280
L4219 41280
" />
<path d="M112930 53780
L112230 53780
" />
<path d="M112615 41280
L112687 41304
L112710 41328
L112734 41375
L112734 41447
L112710 41494
L112687 41518
L112639 41542
L112449 41542
L112449 41042
L112615 41042
L112663 41066
L112687 41090
L112710 41137
L112710 41185
L112687 41232
L112663 41256
L112615 41280
L112449 41280
" />
<path d="M4504 66384
L4480 66408
L4409 66432
L4361 66432
L4290 66408
L4242 66360
L4219 66313
L4195 66218
L4195 66146
L4219 66051
L4242 66003
L4290 65956
L4361 65932
L4409 65932
L4480 65956
L4504 65980
" />
<path d="M112734 66384
L112710 66408
L112639 66432
L112591 66432
L112520 66408
L112472 66360
L112449 66313
L112425 66218
L112425 66146
L112449 66051
L112472 66003
L112520 65956
L112591 65932
L112639 65932
L112710 65956
L112734 65980
" />
<path d="M79380 76422
L79455 75822
L79597 75822
L79680 75851
L79730 75908
L79751 75965
L79765 76080
L79755 76165
L79712 76280
L79676 76337
L79612 76394
L79522 76422
L79380 76422
" />
<path d="M80237 76422
L80276 76108
L80255 76051
L80201 76022
L80087 76022
L80026 76051
" />
<path d="M80240 76394
L80180 76422
L80037 76422
L79983 76394
L79962 76337
L79969 76280
L80005 76222
L80065 76194
L80208 76194
L80269 76165
" />
<path d="M80487 76022
L80715 76022
" />
<path d="M80597 75822
L80533 76337
L80555 76394
L80608 76422
L80665 76422
" />
<path d="M81097 76394
L81037 76422
L80922 76422
L80869 76394
L80847 76337
L80876 76108
L80912 76051
L80972 76022
L81087 76022
L81140 76051
L81162 76108
L81155 76165
L80862 76222
" />
<path d="M81387 76365
L81412 76394
L81380 76422
L81355 76394
L81387 76365
L81380 76422
" />
<path d="M81426 76051
L81451 76080
L81419 76108
L81394 76080
L81426 76051
L81419 76108
" />
<path d="M82430 76022
L82380 76422
" />
<path d="M82315 75794
L82119 76222
L82490 76222
" />
<path d="M83115 76022
L83344 76022
" />
<path d="M83151 76422
L83215 75908
L83251 75851
L83312 75822
L83369 75822
" />
<path d="M83726 76394
L83665 76422
L83551 76422
L83497 76394
L83476 76337
L83505 76108
L83540 76051
L83601 76022
L83715 76022
L83769 76051
L83790 76108
L83783 76165
L83490 76222
" />
<path d="M84008 76422
L84083 75822
" />
<path d="M84055 76051
L84115 76022
L84230 76022
L84283 76051
L84308 76080
L84330 76137
L84308 76308
L84272 76365
L84240 76394
L84180 76422
L84065 76422
L84012 76394
" />
<path d="M85047 75880
L85080 75851
L85140 75822
L85283 75822
L85337 75851
L85362 75880
L85383 75937
L85376 75994
L85337 76080
L84951 76422
L85322 76422
" />
<path d="M85769 75822
L85826 75822
L85880 75851
L85905 75880
L85926 75937
L85940 76051
L85922 76194
L85880 76308
L85844 76365
L85812 76394
L85751 76422
L85694 76422
L85640 76394
L85615 76365
L85594 76308
L85580 76194
L85597 76051
L85640 75937
L85676 75880
L85708 75851
L85769 75822
" />
<path d="M86465 76422
L86122 76422
" />
<path d="M86294 76422
L86369 75822
L86301 75908
L86237 75965
L86176 75994
" />
<path d="M86751 76422
L86865 76422
L86926 76394
L86958 76365
L87026 76280
L87069 76165
L87097 75937
L87076 75880
L87051 75851
L86997 75822
L86883 75822
L86822 75851
L86790 75880
L86755 75937
L86737 76080
L86758 76137
L86783 76165
L86837 76194
L86951 76194
L87012 76165
L87044 76137
L87080 76080
" />
<path d="M70972 77622
L70972 77022
" />
<path d="M71315 77622
L71058 77280
" />
<path d="M71315 77022
L70972 77365
" />
<path d="M71572 77622
L71572 77222
" />
<path d="M71572 77022
L71544 77051
L71572 77080
L71601 77051
L71572 77022
L71572 77080
" />
<path d="M72201 77565
L72172 77594
L72087 77622
L72030 77622
L71944 77594
L71887 77537
L71858 77480
L71830 77365
L71830 77280
L71858 77165
L71887 77108
L71944 77051
L72030 77022
L72087 77022
L72172 77051
L72201 77080
" />
<path d="M72715 77622
L72715 77308
L72687 77251
L72630 77222
L72515 77222
L72458 77251
" />
<path d="M72715 77594
L72658 77622
L72515 77622
L72458 77594
L72430 77537
L72430 77480
L72458 77422
L72515 77394
L72658 77394
L72715 77365
" />
<path d="M73258 77622
L73258 77022
" />
<path d="M73258 77594
L73201 77622
L73087 77622
L73030 77594
L73001 77565
L72972 77508
L72972 77337
L73001 77280
L73030 77251
L73087 77222
L73201 77222
L73258 77251
" />
<path d="M74001 77308
L74201 77308
" />
<path d="M74287 77622
L74001 77622
L74001 77022
L74287 77022
" />
<path d="M74544 77565
L74572 77594
L74544 77622
L74515 77594
L74544 77565
L74544 77622
" />
<path d="M74829 77622
L74829 77022
L74972 77022
L75058 77051
L75115 77108
L75144 77165
L75172 77280
L75172 77365
L75144 77480
L75115 77537
L75058 77594
L74972 77622
L74829 77622
" />
<path d="M75429 77565
L75458 77594
L75429 77622
L75401 77594
L75429 77565
L75429 77622
" />
<path d="M75687 77451
L75972 77451
" />
<path d="M75629 77622
L75829 77022
L76029 77622
" />
<path d="M76229 77565
L76258 77594
L76229 77622
L76201 77594
L76229 77565
L76229 77622
" />
<path d="M104522 76422
L104358 76137
" />
<path d="M104180 76422
L104255 75822
L104483 75822
L104537 75851
L104562 75880
L104583 75937
L104572 76022
L104537 76080
L104505 76108
L104444 76137
L104215 76137
" />
<path d="M105012 76394
L104951 76422
L104837 76422
L104783 76394
L104762 76337
L104790 76108
L104826 76051
L104887 76022
L105001 76022
L105055 76051
L105076 76108
L105069 76165
L104776 76222
" />
<path d="M105287 76022
L105380 76422
L105572 76022
" />
<path d="M105758 76365
L105783 76394
L105751 76422
L105726 76394
L105758 76365
L105751 76422
" />
<path d="M105797 76051
L105822 76080
L105790 76108
L105765 76080
L105797 76051
L105790 76108
" />
<path d="M106808 76422
L106465 76422
" />
<path d="M106637 76422
L106712 75822
L106644 75908
L106580 75965
L106519 75994
" />
<path d="M107094 76422
L107208 76422
L107269 76394
L107301 76365
L107369 76280
L107412 76165
L107440 75937
L107419 75880
L107394 75851
L107340 75822
L107226 75822
L107165 75851
L107133 75880
L107097 75937
L107080 76080
L107101 76137
L107126 76165
L107180 76194
L107294 76194
L107355 76165
L107387 76137
L107422 76080
" />
<path d="M107826 75822
L107883 75822
L107937 75851
L107962 75880
L107983 75937
L107997 76051
L107980 76194
L107937 76308
L107901 76365
L107869 76394
L107808 76422
L107751 76422
L107697 76394
L107672 76365
L107651 76308
L107637 76194
L107655 76051
L107697 75937
L107733 75880
L107765 75851
L107826 75822
" />
<path d="M108247 75880
L108280 75851
L108340 75822
L108483 75822
L108537 75851
L108562 75880
L108583 75937
L108576 75994
L108537 76080
L108151 76422
L108522 76422
" />
<path d="M108969 75822
L109026 75822
L109080 75851
L109105 75880
L109126 75937
L109140 76051
L109122 76194
L109080 76308
L109044 76365
L109012 76394
L108951 76422
L108894 76422
L108840 76394
L108815 76365
L108794 76308
L108780 76194
L108797 76051
L108840 75937
L108876 75880
L108908 75851
L108969 75822
" />
<path d="M109369 75822
L109740 75822
L109512 76051
L109597 76051
L109651 76080
L109676 76108
L109697 76165
L109680 76308
L109644 76365
L109612 76394
L109551 76422
L109380 76422
L109326 76394
L109301 76365
" />
<path d="M70944 76394
L71030 76422
L71172 76422
L71230 76394
L71258 76365
L71287 76308
L71287 76251
L71258 76194
L71230 76165
L71172 76137
L71058 76108
L71001 76080
L70972 76051
L70944 75994
L70944 75937
L70972 75880
L71001 75851
L71058 75822
L71201 75822
L71287 75851
" />
<path d="M71544 76422
L71544 76022
" />
<path d="M71544 75822
L71515 75851
L71544 75880
L71572 75851
L71544 75822
L71544 75880
" />
<path d="M71772 76022
L72087 76022
L71772 76422
L72087 76422
" />
<path d="M72544 76394
L72487 76422
L72372 76422
L72315 76394
L72287 76337
L72287 76108
L72315 76051
L72372 76022
L72487 76022
L72544 76051
L72572 76108
L72572 76165
L72287 76222
" />
<path d="M72830 76365
L72858 76394
L72830 76422
L72801 76394
L72830 76365
L72830 76422
" />
<path d="M72830 76051
L72858 76080
L72830 76108
L72801 76080
L72830 76051
L72830 76108
" />
<path d="M73544 76251
L73830 76251
" />
<path d="M73487 76422
L73687 75822
L73887 76422
" />
<path d="M74344 76022
L74344 76422
" />
<path d="M74201 75794
L74058 76222
L74430 76222
" />
<path d="M104172 77622
L104172 77022
" />
<path d="M104715 77622
L104715 77022
" />
<path d="M104715 77594
L104658 77622
L104544 77622
L104487 77594
L104458 77565
L104430 77508
L104430 77337
L104458 77280
L104487 77251
L104544 77222
L104658 77222
L104715 77251
" />
<path d="M105001 77565
L105030 77594
L105001 77622
L104972 77594
L105001 77565
L105001 77622
" />
<path d="M105001 77251
L105030 77280
L105001 77308
L104972 77280
L105001 77251
L105001 77308
" />
<path d="M106058 77622
L105715 77622
" />
<path d="M105887 77622
L105887 77022
L105829 77108
L105772 77165
L105715 77194
" />
<path d="M106744 76994
L106230 77765
" />
<path d="M107258 77622
L106915 77622
" />
<path d="M107087 77622
L107087 77022
L107029 77108
L106972 77165
L106915 77194
" />
<path d="M70969 74622
L71312 74622
" />
<path d="M71065 75222
L71140 74622
" />
<path d="M71437 75222
L71487 74822
" />
<path d="M71512 74622
L71480 74651
L71505 74680
L71537 74651
L71512 74622
L71505 74680
" />
<path d="M71687 74822
L71915 74822
" />
<path d="M71797 74622
L71733 75137
L71755 75194
L71808 75222
L71865 75222
" />
<path d="M72151 75222
L72097 75194
L72076 75137
L72140 74622
" />
<path d="M72612 75194
L72551 75222
L72437 75222
L72383 75194
L72362 75137
L72390 74908
L72426 74851
L72487 74822
L72601 74822
L72655 74851
L72676 74908
L72669 74965
L72376 75022
" />
<path d="M72901 75165
L72926 75194
L72894 75222
L72869 75194
L72901 75165
L72894 75222
" />
<path d="M72940 74851
L72965 74880
L72933 74908
L72908 74880
L72940 74851
L72933 74908
" />
<path d="M73637 75222
L73712 74622
L73858 75051
L74112 74622
L74037 75222
" />
<path d="M74322 75222
L74397 74622
L74544 75051
L74797 74622
L74722 75222
" />
<path d="M75026 74622
L75397 74622
L75169 74851
L75254 74851
L75308 74880
L75333 74908
L75355 74965
L75337 75108
L75301 75165
L75269 75194
L75208 75222
L75037 75222
L74983 75194
L74958 75165
" />
<path d="M75580 75222
L75655 74622
L75797 74622
L75880 74651
L75930 74708
L75951 74765
L75965 74880
L75955 74965
L75912 75080
L75876 75137
L75812 75194
L75722 75222
L75580 75222
" />
<path d="M76944 74822
L76883 75308
L76847 75365
L76815 75394
L76755 75422
L76669 75422
L76615 75394
" />
<path d="M76897 75194
L76837 75222
L76722 75222
L76669 75194
L76644 75165
L76622 75108
L76644 74937
L76680 74880
L76712 74851
L76772 74822
L76887 74822
L76940 74851
" />
<path d="M77180 75222
L77230 74822
" />
<path d="M77215 74937
L77251 74880
L77283 74851
L77344 74822
L77401 74822
" />
<path d="M77637 75222
L77583 75194
L77558 75165
L77537 75108
L77558 74937
L77594 74880
L77626 74851
L77687 74822
L77772 74822
L77826 74851
L77851 74880
L77872 74937
L77851 75108
L77815 75165
L77783 75194
L77722 75222
L77637 75222
" />
<path d="M78087 74822
L78151 75222
L78301 74937
L78380 75222
L78544 74822
" />
<path d="M78722 75222
L78772 74822
" />
<path d="M78797 74622
L78765 74651
L78790 74680
L78822 74651
L78797 74622
L78790 74680
" />
<path d="M79058 74822
L79008 75222
" />
<path d="M79051 74880
L79083 74851
L79144 74822
L79230 74822
L79283 74851
L79305 74908
L79265 75222
" />
<path d="M79858 74822
L79797 75308
L79762 75365
L79729 75394
L79669 75422
L79583 75422
L79529 75394
" />
<path d="M79812 75194
L79751 75222
L79637 75222
L79583 75194
L79558 75165
L79537 75108
L79558 74937
L79594 74880
L79626 74851
L79687 74822
L79801 74822
L79854 74851
" />
<path d="M80551 75222
L80626 74622
" />
<path d="M80808 75222
L80847 74908
L80826 74851
L80772 74822
L80687 74822
L80626 74851
L80594 74880
" />
<path d="M81179 75222
L81126 75194
L81101 75165
L81080 75108
L81101 74937
L81137 74880
L81169 74851
L81229 74822
L81315 74822
L81369 74851
L81394 74880
L81415 74937
L81394 75108
L81358 75165
L81326 75194
L81265 75222
L81179 75222
" />
<path d="M81944 74822
L81894 75222
" />
<path d="M81687 74822
L81647 75137
L81669 75194
L81722 75222
L81808 75222
L81869 75194
L81901 75165
" />
<path d="M82154 75194
L82208 75222
L82322 75222
L82383 75194
L82419 75137
L82422 75108
L82401 75051
L82347 75022
L82262 75022
L82208 74994
L82187 74937
L82190 74908
L82226 74851
L82287 74822
L82372 74822
L82426 74851
" />
<path d="M82897 75194
L82837 75222
L82722 75222
L82669 75194
L82647 75137
L82676 74908
L82712 74851
L82772 74822
L82887 74822
L82940 74851
L82962 74908
L82954 74965
L82662 75022
" />
<path d="M83897 75194
L83837 75222
L83722 75222
L83669 75194
L83644 75165
L83622 75108
L83644 74937
L83679 74880
L83712 74851
L83772 74822
L83887 74822
L83940 74851
" />
<path d="M84237 75222
L84183 75194
L84158 75165
L84137 75108
L84158 74937
L84194 74880
L84226 74851
L84287 74822
L84372 74822
L84426 74851
L84451 74880
L84472 74937
L84451 75108
L84415 75165
L84383 75194
L84322 75222
L84237 75222
" />
<path d="M84744 74822
L84694 75222
" />
<path d="M84737 74880
L84769 74851
L84829 74822
L84915 74822
L84969 74851
L84990 74908
L84951 75222
" />
<path d="M85201 74822
L85429 74822
" />
<path d="M85312 74622
L85247 75137
L85269 75194
L85322 75222
L85379 75222
" />
<path d="M85579 75222
L85629 74822
" />
<path d="M85615 74937
L85651 74880
L85683 74851
L85744 74822
L85801 74822
" />
<path d="M86037 75222
L85983 75194
L85958 75165
L85937 75108
L85958 74937
L85994 74880
L86026 74851
L86087 74822
L86172 74822
L86226 74851
L86251 74880
L86272 74937
L86251 75108
L86215 75165
L86183 75194
L86122 75222
L86037 75222
" />
<path d="M86579 75222
L86526 75194
L86504 75137
L86569 74622
" />
<path d="M86894 75222
L86840 75194
L86819 75137
L86883 74622
" />
<path d="M87122 75222
L87172 74822
" />
<path d="M87197 74622
L87165 74651
L87190 74680
L87222 74651
L87197 74622
L87190 74680
" />
<path d="M87458 74822
L87408 75222
" />
<path d="M87451 74880
L87483 74851
L87544 74822
L87630 74822
L87683 74851
L87705 74908
L87665 75222
" />
<path d="M88258 74822
L88197 75308
L88162 75365
L88129 75394
L88069 75422
L87983 75422
L87929 75394
" />
<path d="M88212 75194
L88151 75222
L88037 75222
L87983 75194
L87958 75165
L87937 75108
L87958 74937
L87994 74880
L88026 74851
L88087 74822
L88201 74822
L88254 74851
" />
<path d="M89208 75222
L89247 74908
L89226 74851
L89172 74822
L89058 74822
L88997 74851
" />
<path d="M89212 75194
L89151 75222
L89008 75222
L88954 75194
L88933 75137
L88940 75080
L88976 75022
L89037 74994
L89179 74994
L89240 74965
" />
<path d="M89544 74822
L89494 75222
" />
<path d="M89537 74880
L89569 74851
L89629 74822
L89715 74822
L89769 74851
L89790 74908
L89751 75222
" />
<path d="M90294 75222
L90369 74622
" />
<path d="M90297 75194
L90237 75222
L90122 75222
L90069 75194
L90044 75165
L90022 75108
L90044 74937
L90079 74880
L90112 74851
L90172 74822
L90287 74822
L90340 74851
" />
<path d="M91037 75222
L91087 74822
" />
<path d="M91072 74937
L91108 74880
L91140 74851
L91201 74822
L91258 74822
" />
<path d="M91640 75194
L91580 75222
L91465 75222
L91412 75194
L91390 75137
L91419 74908
L91454 74851
L91515 74822
L91630 74822
L91683 74851
L91705 74908
L91697 74965
L91405 75022
" />
<path d="M91922 75222
L91972 74822
" />
<path d="M91965 74880
L91997 74851
L92058 74822
L92144 74822
L92197 74851
L92219 74908
L92180 75222
" />
<path d="M92219 74908
L92254 74851
L92315 74822
L92401 74822
L92454 74851
L92476 74908
L92437 75222
" />
<path d="M92808 75222
L92755 75194
L92730 75165
L92708 75108
L92730 74937
L92765 74880
L92797 74851
L92858 74822
L92944 74822
L92997 74851
L93022 74880
L93044 74937
L93022 75108
L92987 75165
L92955 75194
L92894 75222
L92808 75222
" />
<path d="M93230 74822
L93458 74822
" />
<path d="M93340 74622
L93276 75137
L93297 75194
L93351 75222
L93408 75222
" />
<path d="M93840 75194
L93780 75222
L93665 75222
L93612 75194
L93590 75137
L93619 74908
L93654 74851
L93715 74822
L93830 74822
L93883 74851
L93905 74908
L93897 74965
L93605 75022
" />
<path d="M94580 75222
L94630 74822
" />
<path d="M94622 74880
L94655 74851
L94715 74822
L94801 74822
L94855 74851
L94876 74908
L94837 75222
" />
<path d="M94876 74908
L94912 74851
L94972 74822
L95058 74822
L95112 74851
L95133 74908
L95094 75222
" />
<path d="M95465 75222
L95412 75194
L95387 75165
L95365 75108
L95387 74937
L95422 74880
L95455 74851
L95515 74822
L95601 74822
L95655 74851
L95680 74880
L95701 74937
L95680 75108
L95644 75165
L95612 75194
L95551 75222
L95465 75222
" />
<path d="M95972 74822
L95922 75222
" />
<path d="M95965 74880
L95997 74851
L96058 74822
L96144 74822
L96197 74851
L96219 74908
L96180 75222
" />
<path d="M96465 75222
L96515 74822
" />
<path d="M96540 74622
L96508 74651
L96533 74680
L96565 74651
L96540 74622
L96533 74680
" />
<path d="M96715 74822
L96944 74822
" />
<path d="M96826 74622
L96762 75137
L96783 75194
L96837 75222
L96894 75222
" />
<path d="M97179 75222
L97126 75194
L97101 75165
L97080 75108
L97101 74937
L97137 74880
L97169 74851
L97229 74822
L97315 74822
L97369 74851
L97394 74880
L97415 74937
L97394 75108
L97358 75165
L97326 75194
L97265 75222
L97179 75222
" />
<path d="M97637 75222
L97687 74822
" />
<path d="M97672 74937
L97708 74880
L97740 74851
L97801 74822
L97858 74822
" />
<path d="M98008 75222
L98058 74822
" />
<path d="M98083 74622
L98051 74651
L98076 74680
L98108 74651
L98083 74622
L98076 74680
" />
<path d="M98344 74822
L98294 75222
" />
<path d="M98337 74880
L98369 74851
L98429 74822
L98515 74822
L98569 74851
L98590 74908
L98551 75222
" />
<path d="M99144 74822
L99083 75308
L99047 75365
L99015 75394
L98954 75422
L98869 75422
L98815 75394
" />
<path d="M99097 75194
L99037 75222
L98922 75222
L98869 75194
L98844 75165
L98822 75108
L98844 74937
L98879 74880
L98912 74851
L98972 74822
L99087 74822
L99140 74851
" />
<path d="M99812 75194
L99865 75222
L99979 75222
L100040 75194
L100076 75137
L100080 75108
L100058 75051
L100004 75022
L99919 75022
L99865 74994
L99844 74937
L99847 74908
L99883 74851
L99944 74822
L100029 74822
L100083 74851
" />
<path d="M100315 74822
L100408 75222
" />
<path d="M100601 74822
L100408 75222
L100333 75365
L100301 75394
L100240 75422
" />
<path d="M100754 75194
L100808 75222
L100922 75222
L100983 75194
L101019 75137
L101022 75108
L101001 75051
L100947 75022
L100862 75022
L100808 74994
L100787 74937
L100790 74908
L100826 74851
L100887 74822
L100972 74822
L101026 74851
" />
<path d="M101229 74822
L101458 74822
" />
<path d="M101340 74622
L101276 75137
L101297 75194
L101351 75222
L101408 75222
" />
<path d="M101840 75194
L101779 75222
L101665 75222
L101612 75194
L101590 75137
L101619 74908
L101654 74851
L101715 74822
L101829 74822
L101883 74851
L101904 74908
L101897 74965
L101604 75022
" />
<path d="M102122 75222
L102172 74822
" />
<path d="M102165 74880
L102197 74851
L102258 74822
L102344 74822
L102397 74851
L102419 74908
L102379 75222
" />
<path d="M102419 74908
L102454 74851
L102515 74822
L102601 74822
L102654 74851
L102676 74908
L102637 75222
" />
<path d="M71172 72508
L70972 72508
" />
<path d="M70972 72822
L70972 72222
L71258 72222
" />
<path d="M71487 72822
L71487 72422
" />
<path d="M71487 72222
L71458 72251
L71487 72280
L71515 72251
L71487 72222
L71487 72280
" />
<path d="M71858 72822
L71801 72794
L71772 72737
L71772 72222
" />
<path d="M72315 72794
L72258 72822
L72144 72822
L72087 72794
L72058 72737
L72058 72508
L72087 72451
L72144 72422
L72258 72422
L72315 72451
L72344 72508
L72344 72565
L72058 72622
" />
<path d="M72601 72765
L72630 72794
L72601 72822
L72572 72794
L72601 72765
L72601 72822
" />
<path d="M72601 72451
L72630 72480
L72601 72508
L72572 72480
L72601 72451
L72601 72508
" />
<path d="M73344 72822
L73344 72422
" />
<path d="M73344 72480
L73372 72451
L73430 72422
L73515 72422
L73572 72451
L73601 72508
L73601 72822
" />
<path d="M73601 72508
L73630 72451
L73687 72422
L73772 72422
L73830 72451
L73858 72508
L73858 72822
" />
<path d="M74144 72822
L74144 72422
" />
<path d="M74144 72480
L74172 72451
L74230 72422
L74315 72422
L74372 72451
L74401 72508
L74401 72822
" />
<path d="M74401 72508
L74430 72451
L74487 72422
L74572 72422
L74630 72451
L74658 72508
L74658 72822
" />
<path d="M74887 72222
L75258 72222
L75058 72451
L75144 72451
L75201 72480
L75230 72508
L75258 72565
L75258 72708
L75230 72765
L75201 72794
L75144 72822
L74972 72822
L74915 72794
L74887 72765
" />
<path d="M75772 72822
L75772 72222
" />
<path d="M75772 72794
L75715 72822
L75601 72822
L75544 72794
L75515 72765
L75487 72708
L75487 72537
L75515 72480
L75544 72451
L75601 72422
L75715 72422
L75772 72451
" />
<path d="M75915 72880
L76372 72880
" />
<path d="M76515 72822
L76515 72222
" />
<path d="M76515 72451
L76572 72422
L76687 72422
L76744 72451
L76772 72480
L76801 72537
L76801 72708
L76772 72765
L76744 72794
L76687 72822
L76572 72822
L76515 72794
" />
<path d="M77315 72822
L77315 72508
L77287 72451
L77230 72422
L77115 72422
L77058 72451
" />
<path d="M77315 72794
L77258 72822
L77115 72822
L77058 72794
L77030 72737
L77030 72680
L77058 72622
L77115 72594
L77258 72594
L77315 72565
" />
<path d="M77572 72794
L77630 72822
L77744 72822
L77801 72794
L77830 72737
L77830 72708
L77801 72651
L77744 72622
L77658 72622
L77601 72594
L77572 72537
L77572 72508
L77601 72451
L77658 72422
L77744 72422
L77801 72451
" />
<path d="M78315 72794
L78258 72822
L78144 72822
L78087 72794
L78058 72737
L78058 72508
L78087 72451
L78144 72422
L78258 72422
L78315 72451
L78344 72508
L78344 72565
L78058 72622
" />
<path d="M78601 72765
L78630 72794
L78601 72822
L78572 72794
L78601 72765
L78601 72822
" />
<path d="M78887 72822
L78887 72222
" />
<path d="M78944 72594
L79115 72822
" />
<path d="M79115 72422
L78887 72651
" />
<path d="M79372 72822
L79372 72422
" />
<path d="M79372 72222
L79344 72251
L79372 72280
L79401 72251
L79372 72222
L79372 72280
" />
<path d="M79915 72794
L79858 72822
L79744 72822
L79687 72794
L79658 72765
L79630 72708
L79630 72537
L79658 72480
L79687 72451
L79744 72422
L79858 72422
L79915 72451
" />
<path d="M80430 72822
L80430 72508
L80401 72451
L80344 72422
L80230 72422
L80172 72451
" />
<path d="M80430 72794
L80372 72822
L80230 72822
L80172 72794
L80144 72737
L80144 72680
L80172 72622
L80230 72594
L80372 72594
L80430 72565
" />
<path d="M80972 72822
L80972 72222
" />
<path d="M80972 72794
L80915 72822
L80801 72822
L80744 72794
L80715 72765
L80687 72708
L80687 72537
L80715 72480
L80744 72451
L80801 72422
L80915 72422
L80972 72451
" />
<path d="M81115 72880
L81572 72880
" />
<path d="M81715 72422
L81715 73022
" />
<path d="M81715 72451
L81772 72422
L81887 72422
L81944 72451
L81972 72480
L82001 72537
L82001 72708
L81972 72765
L81944 72794
L81887 72822
L81772 72822
L81715 72794
" />
<path d="M82515 72794
L82458 72822
L82344 72822
L82287 72794
L82258 72765
L82230 72708
L82230 72537
L82258 72480
L82287 72451
L82344 72422
L82458 72422
L82515 72451
" />
<path d="M82772 72822
L82772 72222
" />
<path d="M82772 72451
L82830 72422
L82944 72422
L83001 72451
L83030 72480
L83058 72537
L83058 72708
L83030 72765
L83001 72794
L82944 72822
L82830 72822
L82772 72794
" />
<path d="M70944 73994
L71030 74022
L71172 74022
L71230 73994
L71258 73965
L71287 73908
L71287 73851
L71258 73794
L71230 73765
L71172 73737
L71058 73708
L71001 73680
L70972 73651
L70944 73594
L70944 73537
L70972 73480
L71001 73451
L71058 73422
L71201 73422
L71287 73451
" />
<path d="M71544 74022
L71544 73422
" />
<path d="M71801 74022
L71801 73708
L71772 73651
L71715 73622
L71630 73622
L71572 73651
L71544 73680
" />
<path d="M72315 73994
L72258 74022
L72144 74022
L72087 73994
L72058 73937
L72058 73708
L72087 73651
L72144 73622
L72258 73622
L72315 73651
L72344 73708
L72344 73765
L72058 73822
" />
<path d="M72830 73994
L72772 74022
L72658 74022
L72601 73994
L72572 73937
L72572 73708
L72601 73651
L72658 73622
L72772 73622
L72830 73651
L72858 73708
L72858 73765
L72572 73822
" />
<path d="M73030 73622
L73258 73622
" />
<path d="M73115 73422
L73115 73937
L73144 73994
L73201 74022
L73258 74022
" />
<path d="M73458 73965
L73487 73994
L73458 74022
L73430 73994
L73458 73965
L73458 74022
" />
<path d="M73458 73651
L73487 73680
L73458 73708
L73430 73680
L73458 73651
L73458 73708
" />
<path d="M70980 71622
L71055 71022
L71283 71022
L71337 71051
L71362 71080
L71383 71137
L71372 71222
L71337 71280
L71305 71308
L71244 71337
L71015 71337
" />
<path d="M71665 71622
L71612 71594
L71587 71565
L71565 71508
L71587 71337
L71622 71280
L71655 71251
L71715 71222
L71801 71222
L71855 71251
L71880 71280
L71901 71337
L71880 71508
L71844 71565
L71812 71594
L71751 71622
L71665 71622
" />
<path d="M72115 71222
L72430 71222
L72065 71622
L72380 71622
" />
<path d="M72583 71594
L72637 71622
L72751 71622
L72812 71594
L72847 71537
L72851 71508
L72829 71451
L72776 71422
L72690 71422
L72637 71394
L72615 71337
L72619 71308
L72654 71251
L72715 71222
L72801 71222
L72854 71251
" />
<path d="M73351 71622
L73390 71308
L73369 71251
L73315 71222
L73201 71222
L73140 71251
" />
<path d="M73354 71594
L73294 71622
L73151 71622
L73097 71594
L73076 71537
L73083 71480
L73119 71422
L73179 71394
L73322 71394
L73383 71365
" />
<path d="M73637 71622
L73687 71222
" />
<path d="M73672 71337
L73708 71280
L73740 71251
L73801 71222
L73858 71222
" />
<path d="M74483 71022
L74883 71022
L74408 71622
L74808 71622
" />
<path d="M75012 71594
L75065 71622
L75180 71622
L75240 71594
L75276 71537
L75280 71508
L75258 71451
L75205 71422
L75119 71422
L75065 71394
L75044 71337
L75047 71308
L75083 71251
L75144 71222
L75230 71222
L75283 71251
" />
<path d="M75608 71622
L75555 71594
L75530 71565
L75508 71508
L75530 71337
L75565 71280
L75597 71251
L75658 71222
L75744 71222
L75797 71251
L75822 71280
L75844 71337
L75822 71508
L75787 71565
L75755 71594
L75694 71622
L75608 71622
" />
<path d="M76151 71622
L76097 71594
L76076 71537
L76140 71022
" />
<path d="M76344 71222
L76572 71222
" />
<path d="M76455 71022
L76390 71537
L76412 71594
L76465 71622
L76522 71622
" />
<path d="M71172 70108
L71258 70137
L71287 70165
L71315 70222
L71315 70308
L71287 70365
L71258 70394
L71201 70422
L70972 70422
L70972 69822
L71172 69822
L71230 69851
L71258 69880
L71287 69937
L71287 69994
L71258 70051
L71230 70080
L71172 70108
L70972 70108
" />
<path d="M71830 70422
L71830 70108
L71801 70051
L71744 70022
L71630 70022
L71572 70051
" />
<path d="M71830 70394
L71772 70422
L71630 70422
L71572 70394
L71544 70337
L71544 70280
L71572 70222
L71630 70194
L71772 70194
L71830 70165
" />
<path d="M72087 70394
L72144 70422
L72258 70422
L72315 70394
L72344 70337
L72344 70308
L72315 70251
L72258 70222
L72172 70222
L72115 70194
L72087 70137
L72087 70108
L72115 70051
L72172 70022
L72258 70022
L72315 70051
" />
<path d="M72830 70394
L72772 70422
L72658 70422
L72601 70394
L72572 70337
L72572 70108
L72601 70051
L72658 70022
L72772 70022
L72830 70051
L72858 70108
L72858 70165
L72572 70222
" />
<path d="M73572 70022
L73572 70622
" />
<path d="M73572 70051
L73630 70022
L73744 70022
L73801 70051
L73830 70080
L73858 70137
L73858 70308
L73830 70365
L73801 70394
L73744 70422
L73630 70422
L73572 70394
" />
<path d="M74372 70422
L74372 70108
L74344 70051
L74287 70022
L74172 70022
L74115 70051
" />
<path d="M74372 70394
L74315 70422
L74172 70422
L74115 70394
L74087 70337
L74087 70280
L74115 70222
L74172 70194
L74315 70194
L74372 70165
" />
<path d="M74658 70022
L74658 70422
" />
<path d="M74658 70080
L74687 70051
L74744 70022
L74830 70022
L74887 70051
L74915 70108
L74915 70422
" />
<path d="M75430 70394
L75372 70422
L75258 70422
L75201 70394
L75172 70337
L75172 70108
L75201 70051
L75258 70022
L75372 70022
L75430 70051
L75458 70108
L75458 70165
L75172 70222
" />
<path d="M75801 70422
L75744 70394
L75715 70337
L75715 69822
" />
<path d="M70230 69580
L70230 77980
" />
<path d="M70230 71980
L112230 71980
" />
<path d="M70230 69580
L112230 69580
" />
<path d="M70230 74380
L112230 74380
" />
<path d="M103430 75580
L103430 77980
" />
<path d="M70230 76780
L112230 76780
" />
<path d="M70230 75580
L112230 75580
" />
<path d="M76830 75580
L76830 76780
" />
</g>
<g style="fill:#000000; fill-opacity:0.0; 
stroke:#000000; stroke-width:118.11; stroke-opacity:1; 
stroke-linecap:round; stroke-linejoin:round;">
<path d="M75050 20648
L75050 21126
L75078 21182
L75106 21210
L75162 21239
L75275 21239
L75331 21210
L75359 21182
L75387 21126
L75387 20648
" />
<path d="M75612 20648
L75978 20648
L75781 20873
L75865 20873
L75921 20901
L75949 20929
L75978 20985
L75978 21126
L75949 21182
L75921 21210
L75865 21239
L75696 21239
L75640 21210
L75612 21182
" />
<path d="M64460 54118
L64432 54081
L64376 53968
L64348 53893
L64320 53781
L64291 53593
L64291 53443
L64320 53256
L64348 53143
L64376 53068
L64432 52956
L64460 52918
" />
<path d="M65023 53743
L64994 53781
L64910 53818
L64854 53818
L64769 53781
L64713 53706
L64685 53631
L64657 53481
L64657 53368
L64685 53218
L64713 53143
L64769 53068
L64854 53031
L64910 53031
L64994 53068
L65023 53106
" />
<path d="M65219 54118
L65248 54081
L65304 53968
L65332 53893
L65360 53781
L65388 53593
L65388 53443
L65360 53256
L65332 53143
L65304 53068
L65248 52956
L65219 52918
" />
<path d="M66091 53106
L66119 53068
L66176 53031
L66316 53031
L66372 53068
L66401 53106
L66429 53181
L66429 53256
L66401 53368
L66063 53818
L66429 53818
" />
<path d="M66794 53031
L66850 53031
L66907 53068
L66935 53106
L66963 53181
L66991 53331
L66991 53518
L66963 53668
L66935 53743
L66907 53781
L66850 53818
L66794 53818
L66738 53781
L66710 53743
L66682 53668
L66654 53518
L66654 53331
L66682 53181
L66710 53106
L66738 53068
L66794 53031
" />
<path d="M67553 53818
L67216 53818
" />
<path d="M67385 53818
L67385 53031
L67329 53143
L67272 53218
L67216 53256
" />
<path d="M67891 53368
L67835 53331
L67807 53293
L67778 53218
L67778 53181
L67807 53106
L67835 53068
L67891 53031
L68003 53031
L68060 53068
L68088 53106
L68116 53181
L68116 53218
L68088 53293
L68060 53331
L68003 53368
L67891 53368
L67835 53406
L67807 53443
L67778 53518
L67778 53668
L67807 53743
L67835 53781
L67891 53818
L68003 53818
L68060 53781
L68088 53743
L68116 53668
L68116 53518
L68088 53443
L68060 53406
L68003 53368
" />
<path d="M68369 53518
L68819 53518
" />
<path d="M69072 53106
L69100 53068
L69156 53031
L69297 53031
L69353 53068
L69381 53106
L69410 53181
L69410 53256
L69381 53368
L69044 53818
L69410 53818
" />
<path d="M69775 53031
L69831 53031
L69888 53068
L69916 53106
L69944 53181
L69972 53331
L69972 53518
L69944 53668
L69916 53743
L69888 53781
L69831 53818
L69775 53818
L69719 53781
L69691 53743
L69663 53668
L69634 53518
L69634 53331
L69663 53181
L69691 53106
L69719 53068
L69775 53031
" />
<path d="M70534 53818
L70197 53818
" />
<path d="M70366 53818
L70366 53031
L70309 53143
L70253 53218
L70197 53256
" />
<path d="M70816 53818
L70928 53818
L70984 53781
L71012 53743
L71069 53631
L71097 53481
L71097 53181
L71069 53106
L71041 53068
L70984 53031
L70872 53031
L70816 53068
L70787 53106
L70759 53181
L70759 53368
L70787 53443
L70816 53481
L70872 53518
L70984 53518
L71041 53481
L71069 53443
L71097 53368
" />
<path d="M71800 53818
L71800 53031
L72025 53031
L72081 53068
L72109 53106
L72137 53181
L72137 53293
L72109 53368
L72081 53406
L72025 53443
L71800 53443
" />
<path d="M72475 53818
L72419 53781
L72390 53743
L72362 53668
L72362 53443
L72390 53368
L72419 53331
L72475 53293
L72559 53293
L72615 53331
L72643 53368
L72672 53443
L72672 53668
L72643 53743
L72615 53781
L72559 53818
L72475 53818
" />
<path d="M72868 53293
L73178 53293
L72868 53818
L73178 53818
" />
<path d="M73375 53781
L73431 53818
L73543 53818
L73600 53781
L73628 53706
L73628 53668
L73600 53593
L73543 53556
L73459 53556
L73403 53518
L73375 53443
L73375 53406
L73403 53331
L73459 53293
L73543 53293
L73600 53331
" />
<path d="M74134 53818
L74134 53406
L74106 53331
L74050 53293
L73937 53293
L73881 53331
" />
<path d="M74134 53781
L74078 53818
L73937 53818
L73881 53781
L73853 53706
L73853 53631
L73881 53556
L73937 53518
L74078 53518
L74134 53481
" />
<path d="M74050 52993
L73965 53106
" />
<path d="M74415 53818
L74415 53293
" />
<path d="M74415 53443
L74443 53368
L74471 53331
L74528 53293
L74584 53293
" />
<path d="M75174 53031
L75568 53031
L75174 53818
L75568 53818
" />
<path d="M75765 53781
L75821 53818
L75934 53818
L75990 53781
L76018 53706
L76018 53668
L75990 53593
L75934 53556
L75849 53556
L75793 53518
L75765 53443
L75765 53406
L75793 53331
L75849 53293
L75934 53293
L75990 53331
" />
<path d="M76356 53818
L76299 53781
L76271 53743
L76243 53668
L76243 53443
L76271 53368
L76299 53331
L76356 53293
L76440 53293
L76496 53331
L76524 53368
L76552 53443
L76552 53668
L76524 53743
L76496 53781
L76440 53818
L76356 53818
" />
<path d="M76890 53818
L76834 53781
L76805 53706
L76805 53031
" />
<path d="M77030 53293
L77255 53293
" />
<path d="M77115 53031
L77115 53706
L77143 53781
L77199 53818
L77255 53818
" />
<path d="M78240 53743
L78212 53781
L78127 53818
L78071 53818
L77987 53781
L77930 53706
L77902 53631
L77874 53481
L77874 53368
L77902 53218
L77930 53143
L77987 53068
L78071 53031
L78127 53031
L78212 53068
L78240 53106
" />
<path d="M78830 53743
L78802 53781
L78718 53818
L78661 53818
L78577 53781
L78521 53706
L78493 53631
L78465 53481
L78465 53368
L78493 53218
L78521 53143
L78577 53068
L78661 53031
L78718 53031
L78802 53068
L78830 53106
" />
<path d="M79083 53518
L79533 53518
" />
<path d="M80011 53406
L80096 53443
L80124 53481
L80152 53556
L80152 53668
L80124 53743
L80096 53781
L80039 53818
L79814 53818
L79814 53031
L80011 53031
L80068 53068
L80096 53106
L80124 53181
L80124 53256
L80096 53331
L80068 53368
L80011 53406
L79814 53406
" />
<path d="M80517 53443
L80517 53818
" />
<path d="M80321 53031
L80517 53443
L80714 53031
" />
<path d="M80911 53518
L81361 53518
" />
<path d="M81642 53818
L81642 53031
L81980 53818
L81980 53031
" />
<path d="M82598 53743
L82570 53781
L82486 53818
L82430 53818
L82345 53781
L82289 53706
L82261 53631
L82233 53481
L82233 53368
L82261 53218
L82289 53143
L82345 53068
L82430 53031
L82486 53031
L82570 53068
L82598 53106
" />
<path d="M82852 53518
L83302 53518
" />
<path d="M83836 53293
L83836 53818
" />
<path d="M83695 52993
L83555 53556
L83920 53556
" />
<path d="M84145 53743
L84173 53781
L84145 53818
L84117 53781
L84145 53743
L84145 53818
" />
<path d="M84539 53031
L84595 53031
L84651 53068
L84679 53106
L84708 53181
L84736 53331
L84736 53518
L84708 53668
L84679 53743
L84651 53781
L84595 53818
L84539 53818
L84483 53781
L84455 53743
L84426 53668
L84398 53518
L84398 53331
L84426 53181
L84455 53106
L84483 53068
L84539 53031
" />
<path d="M51046 62739
L51046 62148
" />
<path d="M51299 62739
L51299 62429
L51271 62373
L51214 62345
L51130 62345
L51074 62373
L51046 62401
" />
<path d="M51496 62345
L51721 62345
" />
<path d="M51580 62148
L51580 62654
L51608 62710
L51664 62739
L51721 62739
" />
<path d="M51833 62345
L52058 62345
" />
<path d="M51917 62148
L51917 62654
L51946 62710
L52002 62739
L52058 62739
" />
<path d="M52255 62345
L52255 62935
" />
<path d="M52255 62373
L52311 62345
L52424 62345
L52480 62373
L52508 62401
L52536 62457
L52536 62626
L52508 62682
L52480 62710
L52424 62739
L52311 62739
L52255 62710
" />
<path d="M52789 62682
L52817 62710
L52789 62739
L52761 62710
L52789 62682
L52789 62739
" />
<path d="M52789 62373
L52817 62401
L52789 62429
L52761 62401
L52789 62373
L52789 62429
" />
<path d="M53492 62120
L52986 62879
" />
<path d="M54111 62120
L53605 62879
" />
<path d="M54251 62345
L54364 62739
L54476 62457
L54589 62739
L54701 62345
" />
<path d="M54870 62345
L54983 62739
L55095 62457
L55208 62739
L55320 62345
" />
<path d="M55489 62345
L55601 62739
L55714 62457
L55826 62739
L55939 62345
" />
<path d="M56164 62682
L56192 62710
L56164 62739
L56136 62710
L56164 62682
L56164 62739
" />
<path d="M56417 62710
L56473 62739
L56586 62739
L56642 62710
L56670 62654
L56670 62626
L56642 62570
L56586 62542
L56501 62542
L56445 62514
L56417 62457
L56417 62429
L56445 62373
L56501 62345
L56586 62345
L56642 62373
" />
<path d="M56867 62345
L57176 62345
L56867 62739
L57176 62739
" />
<path d="M57626 62710
L57570 62739
L57457 62739
L57401 62710
L57373 62654
L57373 62429
L57401 62373
L57457 62345
L57570 62345
L57626 62373
L57654 62429
L57654 62485
L57373 62542
" />
<path d="M57907 62739
L57907 62345
" />
<path d="M57907 62457
L57935 62401
L57964 62373
L58020 62345
L58076 62345
" />
<path d="M58526 62739
L58526 62429
L58498 62373
L58442 62345
L58329 62345
L58273 62373
" />
<path d="M58526 62710
L58470 62739
L58329 62739
L58273 62710
L58245 62654
L58245 62598
L58273 62542
L58329 62514
L58470 62514
L58526 62485
" />
<path d="M58723 62345
L58948 62345
" />
<path d="M58807 62739
L58807 62232
L58835 62176
L58892 62148
L58948 62148
" />
<path d="M59145 62739
L59145 62345
" />
<path d="M59145 62148
L59116 62176
L59145 62204
L59173 62176
L59145 62148
L59145 62204
" />
<path d="M59426 62345
L59426 62739
" />
<path d="M59426 62401
L59454 62373
L59510 62345
L59595 62345
L59651 62373
L59679 62429
L59679 62739
" />
<path d="M60213 62345
L60213 62823
L60185 62879
L60157 62907
L60101 62935
L60016 62935
L59960 62907
" />
<path d="M60213 62710
L60157 62739
L60044 62739
L59988 62710
L59960 62682
L59932 62626
L59932 62457
L59960 62401
L59988 62373
L60044 62345
L60157 62345
L60213 62373
" />
<path d="M60579 62739
L60523 62710
L60494 62682
L60466 62626
L60466 62457
L60494 62401
L60523 62373
L60579 62345
L60663 62345
L60719 62373
L60748 62401
L60776 62457
L60776 62626
L60748 62682
L60719 62710
L60663 62739
L60579 62739
" />
<path d="M61029 62739
L61029 62345
" />
<path d="M61029 62401
L61057 62373
L61113 62345
L61197 62345
L61254 62373
L61282 62429
L61282 62739
" />
<path d="M61282 62429
L61310 62373
L61366 62345
L61451 62345
L61507 62373
L61535 62429
L61535 62739
" />
<path d="M61816 62739
L61816 62148
" />
<path d="M61816 62373
L61872 62345
L61985 62345
L62041 62373
L62069 62401
L62097 62457
L62097 62626
L62069 62682
L62041 62710
L61985 62739
L61872 62739
L61816 62710
" />
<path d="M62604 62739
L62604 62429
L62575 62373
L62519 62345
L62407 62345
L62350 62373
" />
<path d="M62604 62710
L62547 62739
L62407 62739
L62350 62710
L62322 62654
L62322 62598
L62350 62542
L62407 62514
L62547 62514
L62604 62485
" />
<path d="M62885 62682
L62913 62710
L62885 62739
L62857 62710
L62885 62682
L62885 62739
" />
<path d="M63166 62739
L63166 62148
" />
<path d="M63419 62739
L63419 62429
L63391 62373
L63335 62345
L63250 62345
L63194 62373
L63166 62401
" />
<path d="M63953 62345
L63953 62739
" />
<path d="M63700 62345
L63700 62654
L63728 62710
L63785 62739
L63869 62739
L63925 62710
L63953 62682
" />
<path d="M32566 62739
L32566 62148
L32763 62570
L32960 62148
L32960 62739
" />
<path d="M33241 62739
L33241 62148
L33438 62570
L33634 62148
L33634 62739
" />
<path d="M33859 62148
L34225 62148
L34028 62373
L34113 62373
L34169 62401
L34197 62429
L34225 62485
L34225 62626
L34197 62682
L34169 62710
L34113 62739
L33944 62739
L33888 62710
L33859 62682
" />
<path d="M34478 62739
L34478 62148
L34619 62148
L34703 62176
L34759 62232
L34787 62289
L34816 62401
L34816 62485
L34787 62598
L34759 62654
L34703 62710
L34619 62739
L34478 62739
" />
<path d="M35519 62739
L35519 62148
" />
<path d="M35519 62373
L35575 62345
L35687 62345
L35744 62373
L35772 62401
L35800 62457
L35800 62626
L35772 62682
L35744 62710
L35687 62739
L35575 62739
L35519 62710
" />
<path d="M36306 62739
L36306 62429
L36278 62373
L36222 62345
L36109 62345
L36053 62373
" />
<path d="M36306 62710
L36250 62739
L36109 62739
L36053 62710
L36025 62654
L36025 62598
L36053 62542
L36109 62514
L36250 62514
L36306 62485
" />
<path d="M36559 62710
L36615 62739
L36728 62739
L36784 62710
L36812 62654
L36812 62626
L36784 62570
L36728 62542
L36643 62542
L36587 62514
L36559 62457
L36559 62429
L36587 62373
L36643 62345
L36728 62345
L36784 62373
" />
<path d="M37290 62710
L37234 62739
L37122 62739
L37065 62710
L37037 62654
L37037 62429
L37065 62373
L37122 62345
L37234 62345
L37290 62373
L37318 62429
L37318 62485
L37037 62542
" />
<path d="M38021 62345
L38021 62935
" />
<path d="M38021 62373
L38078 62345
L38190 62345
L38246 62373
L38275 62401
L38303 62457
L38303 62626
L38275 62682
L38246 62710
L38190 62739
L38078 62739
L38021 62710
" />
<path d="M38809 62739
L38809 62429
L38781 62373
L38724 62345
L38612 62345
L38556 62373
" />
<path d="M38809 62710
L38753 62739
L38612 62739
L38556 62710
L38528 62654
L38528 62598
L38556 62542
L38612 62514
L38753 62514
L38809 62485
" />
<path d="M39090 62345
L39090 62739
" />
<path d="M39090 62401
L39118 62373
L39174 62345
L39259 62345
L39315 62373
L39343 62429
L39343 62739
" />
<path d="M39849 62710
L39793 62739
L39681 62739
L39624 62710
L39596 62654
L39596 62429
L39624 62373
L39681 62345
L39793 62345
L39849 62373
L39877 62429
L39877 62485
L39596 62542
" />
<path d="M40215 62739
L40159 62710
L40131 62654
L40131 62148
" />
<path d="M40834 62345
L40974 62739
L41115 62345
" />
<path d="M41649 62739
L41312 62739
" />
<path d="M41480 62739
L41480 62148
L41424 62232
L41368 62289
L41312 62317
" />
<path d="M41930 62739
L42043 62739
L42099 62710
L42127 62682
L42183 62598
L42212 62485
L42212 62260
L42183 62204
L42155 62176
L42099 62148
L41987 62148
L41930 62176
L41902 62204
L41874 62260
L41874 62401
L41902 62457
L41930 62485
L41987 62514
L42099 62514
L42155 62485
L42183 62457
L42212 62401
" />
<path d="M42577 62148
L42633 62148
L42690 62176
L42718 62204
L42746 62260
L42774 62373
L42774 62514
L42746 62626
L42718 62682
L42690 62710
L42633 62739
L42577 62739
L42521 62710
L42493 62682
L42465 62626
L42437 62514
L42437 62373
L42465 62260
L42493 62204
L42521 62176
L42577 62148
" />
<path d="M42999 62204
L43027 62176
L43083 62148
L43224 62148
L43280 62176
L43308 62204
L43336 62260
L43336 62317
L43308 62401
L42971 62739
L43336 62739
" />
<path d="M43702 62148
L43758 62148
L43814 62176
L43843 62204
L43871 62260
L43899 62373
L43899 62514
L43871 62626
L43843 62682
L43814 62710
L43758 62739
L43702 62739
L43646 62710
L43618 62682
L43589 62626
L43561 62514
L43561 62373
L43589 62260
L43618 62204
L43646 62176
L43702 62148
" />
<path d="M44096 62148
L44461 62148
L44264 62373
L44349 62373
L44405 62401
L44433 62429
L44461 62485
L44461 62626
L44433 62682
L44405 62710
L44349 62739
L44180 62739
L44124 62710
L44096 62682
" />
<path d="M46461 56148
L46573 56148
L46629 56176
L46686 56232
L46714 56345
L46714 56542
L46686 56654
L46629 56710
L46573 56739
L46461 56739
L46404 56710
L46348 56654
L46320 56542
L46320 56345
L46348 56232
L46404 56176
L46461 56148
" />
<path d="M46967 56148
L46967 56626
L46995 56682
L47023 56710
L47079 56739
L47192 56739
L47248 56710
L47276 56682
L47304 56626
L47304 56148
" />
<path d="M47501 56148
L47839 56148
" />
<path d="M47670 56739
L47670 56148
" />
<path d="M48457 56345
L48879 56345
" />
<path d="M48626 56092
L48457 56851
" />
<path d="M48823 56598
L48401 56598
" />
<path d="M48654 56851
L48823 56092
" />
<path d="M49385 56739
L49048 56739
" />
<path d="M49217 56739
L49217 56148
L49160 56232
L49104 56289
L49048 56317
" />
<path d="M49638 56514
L50088 56514
" />
<path d="M50623 56345
L50623 56739
" />
<path d="M50482 56120
L50341 56542
L50707 56542
" />
<path d="M45429 58359
L45429 58162
" />
<path d="M45739 58078
L45739 58359
L45148 58359
L45148 58078
" />
<path d="M45739 57487
L45457 57684
" />
<path d="M45739 57825
L45148 57825
L45148 57600
L45176 57543
L45204 57515
L45260 57487
L45345 57487
L45401 57515
L45429 57543
L45457 57600
L45457 57825
" />
<path d="M45739 56897
L45457 57093
" />
<path d="M45739 57234
L45148 57234
L45148 57009
L45176 56953
L45204 56925
L45260 56897
L45345 56897
L45401 56925
L45429 56953
L45457 57009
L45457 57234
" />
<path d="M45345 56222
L45345 55800
" />
<path d="M45092 56053
L45851 56222
" />
<path d="M45598 55856
L45598 56278
" />
<path d="M45851 56025
L45092 55856
" />
<path d="M45345 55350
L45739 55350
" />
<path d="M45120 55491
L45542 55631
L45542 55266
" />
<path d="M44429 58359
L44429 58162
" />
<path d="M44739 58078
L44739 58359
L44148 58359
L44148 58078
" />
<path d="M44739 57487
L44457 57684
" />
<path d="M44739 57825
L44148 57825
L44148 57600
L44176 57543
L44204 57515
L44260 57487
L44345 57487
L44401 57515
L44429 57543
L44457 57600
L44457 57825
" />
<path d="M44739 56897
L44457 57093
" />
<path d="M44739 57234
L44148 57234
L44148 57009
L44176 56953
L44204 56925
L44260 56897
L44345 56897
L44401 56925
L44429 56953
L44457 57009
L44457 57234
" />
<path d="M44345 56222
L44345 55800
" />
<path d="M44092 56053
L44851 56222
" />
<path d="M44598 55856
L44598 56278
" />
<path d="M44851 56025
L44092 55856
" />
<path d="M44148 55659
L44148 55294
L44373 55491
L44373 55406
L44401 55350
L44429 55322
L44485 55294
L44626 55294
L44682 55322
L44710 55350
L44739 55406
L44739 55575
L44710 55631
L44682 55659
" />
<path d="M43429 58359
L43429 58162
" />
<path d="M43739 58078
L43739 58359
L43148 58359
L43148 58078
" />
<path d="M43739 57487
L43457 57684
" />
<path d="M43739 57825
L43148 57825
L43148 57600
L43176 57543
L43204 57515
L43260 57487
L43345 57487
L43401 57515
L43429 57543
L43457 57600
L43457 57825
" />
<path d="M43739 56897
L43457 57093
" />
<path d="M43739 57234
L43148 57234
L43148 57009
L43176 56953
L43204 56925
L43260 56897
L43345 56897
L43401 56925
L43429 56953
L43457 57009
L43457 57234
" />
<path d="M43345 56222
L43345 55800
" />
<path d="M43092 56053
L43851 56222
" />
<path d="M43598 55856
L43598 56278
" />
<path d="M43851 56025
L43092 55856
" />
<path d="M43204 55631
L43176 55603
L43148 55547
L43148 55406
L43176 55350
L43204 55322
L43260 55294
L43317 55294
L43401 55322
L43739 55659
L43739 55294
" />
<path d="M42429 58359
L42429 58162
" />
<path d="M42739 58078
L42739 58359
L42148 58359
L42148 58078
" />
<path d="M42739 57487
L42457 57684
" />
<path d="M42739 57825
L42148 57825
L42148 57600
L42176 57543
L42204 57515
L42260 57487
L42345 57487
L42401 57515
L42429 57543
L42457 57600
L42457 57825
" />
<path d="M42739 56897
L42457 57093
" />
<path d="M42739 57234
L42148 57234
L42148 57009
L42176 56953
L42204 56925
L42260 56897
L42345 56897
L42401 56925
L42429 56953
L42457 57009
L42457 57234
" />
<path d="M42345 56222
L42345 55800
" />
<path d="M42092 56053
L42851 56222
" />
<path d="M42598 55856
L42598 56278
" />
<path d="M42851 56025
L42092 55856
" />
<path d="M42739 55294
L42739 55631
" />
<path d="M42739 55462
L42148 55462
L42232 55519
L42289 55575
L42317 55631
" />
<path d="M41739 58359
L41148 58359
" />
<path d="M41739 58078
L41148 58078
L41739 57740
L41148 57740
" />
<path d="M41345 57037
L41345 56615
" />
<path d="M41092 56868
L41851 57037
" />
<path d="M41598 56672
L41598 57093
" />
<path d="M41851 56840
L41092 56672
" />
<path d="M41345 56165
L41739 56165
" />
<path d="M41120 56306
L41542 56447
L41542 56081
" />
<path d="M40739 58359
L40148 58359
" />
<path d="M40739 58078
L40148 58078
L40739 57740
L40148 57740
" />
<path d="M40345 57037
L40345 56615
" />
<path d="M40092 56868
L40851 57037
" />
<path d="M40598 56672
L40598 57093
" />
<path d="M40851 56840
L40092 56672
" />
<path d="M40148 56475
L40148 56109
L40373 56306
L40373 56222
L40401 56165
L40429 56137
L40485 56109
L40626 56109
L40682 56137
L40710 56165
L40739 56222
L40739 56390
L40710 56447
L40682 56475
" />
<path d="M39739 58359
L39148 58359
" />
<path d="M39739 58078
L39148 58078
L39739 57740
L39148 57740
" />
<path d="M39345 57037
L39345 56615
" />
<path d="M39092 56868
L39851 57037
" />
<path d="M39598 56672
L39598 57093
" />
<path d="M39851 56840
L39092 56672
" />
<path d="M39204 56447
L39176 56419
L39148 56362
L39148 56222
L39176 56165
L39204 56137
L39260 56109
L39317 56109
L39401 56137
L39739 56475
L39739 56109
" />
<path d="M37570 58387
L37570 58106
" />
<path d="M37739 58443
L37148 58246
L37739 58050
" />
<path d="M37682 57515
L37710 57543
L37739 57628
L37739 57684
L37710 57768
L37654 57825
L37598 57853
L37485 57881
L37401 57881
L37289 57853
L37232 57825
L37176 57768
L37148 57684
L37148 57628
L37176 57543
L37204 57515
" />
<path d="M37148 57347
L37148 57009
" />
<path d="M37739 57178
L37148 57178
" />
<path d="M38739 58359
L38148 58359
" />
<path d="M38739 58078
L38148 58078
L38739 57740
L38148 57740
" />
<path d="M38345 57037
L38345 56615
" />
<path d="M38092 56868
L38851 57037
" />
<path d="M38598 56672
L38598 57093
" />
<path d="M38851 56840
L38092 56672
" />
<path d="M38739 56109
L38739 56447
" />
<path d="M38739 56278
L38148 56278
L38232 56334
L38289 56390
L38317 56447
" />
<path d="M69148 58078
L69148 58359
L69429 58387
L69401 58359
L69373 58303
L69373 58162
L69401 58106
L69429 58078
L69485 58050
L69626 58050
L69682 58078
L69710 58106
L69739 58162
L69739 58303
L69710 58359
L69682 58387
" />
<path d="M69148 57881
L69739 57684
L69148 57487
" />
<path d="M68148 58415
L68148 58050
L68373 58246
L68373 58162
L68401 58106
L68429 58078
L68485 58050
L68626 58050
L68682 58078
L68710 58106
L68739 58162
L68739 58331
L68710 58387
L68682 58415
" />
<path d="M68710 57768
L68739 57768
L68795 57796
L68823 57825
" />
<path d="M68148 57571
L68148 57206
L68373 57403
L68373 57318
L68401 57262
L68429 57234
L68485 57206
L68626 57206
L68682 57234
L68710 57262
L68739 57318
L68739 57487
L68710 57543
L68682 57571
" />
<path d="M68148 57037
L68739 56840
L68148 56643
" />
<path d="M67176 58050
L67148 58106
L67148 58190
L67176 58275
L67232 58331
L67289 58359
L67401 58387
L67485 58387
L67598 58359
L67654 58331
L67710 58275
L67739 58190
L67739 58134
L67710 58050
L67682 58021
L67485 58021
L67485 58134
" />
<path d="M67739 57768
L67148 57768
L67739 57431
L67148 57431
" />
<path d="M67739 57150
L67148 57150
L67148 57009
L67176 56925
L67232 56868
L67289 56840
L67401 56812
L67485 56812
L67598 56840
L67654 56868
L67710 56925
L67739 57009
L67739 57150
" />
<path d="M53592 16239
L53592 15648
" />
<path d="M53592 15929
L53929 15929
" />
<path d="M53929 16239
L53929 15648
" />
<path d="M54492 16239
L54210 16239
L54210 15648
" />
<path d="M58943 16239
L58662 16239
L58662 15648
" />
<path d="M59421 16239
L59140 16239
L59140 15648
" />
<path d="M36648 17949
L37126 17949
L37182 17921
L37210 17893
L37239 17837
L37239 17724
L37210 17668
L37182 17640
L37126 17612
L36648 17612
" />
<path d="M37239 17021
L37239 17359
" />
<path d="M37239 17190
L36648 17190
L36732 17246
L36789 17303
L36817 17359
" />
<path d="M36943 15739
L36662 15739
L36662 15148
" />
<path d="M37421 15739
L37140 15739
L37140 15148
" />
<path d="M36592 19739
L36592 19148
" />
<path d="M36592 19429
L36929 19429
" />
<path d="M36929 19739
L36929 19148
" />
<path d="M37492 19739
L37210 19739
L37210 19148
" />
<path d="M56050 15648
L56050 16126
L56078 16182
L56106 16210
L56162 16239
L56275 16239
L56331 16210
L56359 16182
L56387 16126
L56387 15648
" />
<path d="M56640 15704
L56668 15676
L56724 15648
L56865 15648
L56921 15676
L56949 15704
L56978 15760
L56978 15817
L56949 15901
L56612 16239
L56978 16239
" />
<path d="M34640 34239
L34640 33648
" />
<path d="M34921 34239
L34921 33648
L35259 34239
L35259 33648
" />
<path d="M35962 33845
L36384 33845
" />
<path d="M36131 33592
L35962 34351
" />
<path d="M36327 34098
L35906 34098
" />
<path d="M36159 34351
L36327 33592
" />
<path d="M36890 34239
L36552 34239
" />
<path d="M36721 34239
L36721 33648
L36665 33732
L36609 33789
L36552 33817
" />
<path d="M34640 36239
L34640 35648
" />
<path d="M34921 36239
L34921 35648
L35259 36239
L35259 35648
" />
<path d="M35962 35845
L36384 35845
" />
<path d="M36131 35592
L35962 36351
" />
<path d="M36327 36098
L35906 36098
" />
<path d="M36159 36351
L36327 35592
" />
<path d="M36552 35704
L36580 35676
L36637 35648
L36777 35648
L36834 35676
L36862 35704
L36890 35760
L36890 35817
L36862 35901
L36524 36239
L36890 36239
" />
<path d="M34640 38239
L34640 37648
" />
<path d="M34921 38239
L34921 37648
L35259 38239
L35259 37648
" />
<path d="M35962 37845
L36384 37845
" />
<path d="M36131 37592
L35962 38351
" />
<path d="M36327 38098
L35906 38098
" />
<path d="M36159 38351
L36327 37592
" />
<path d="M36524 37648
L36890 37648
L36693 37873
L36777 37873
L36834 37901
L36862 37929
L36890 37985
L36890 38126
L36862 38182
L36834 38210
L36777 38239
L36609 38239
L36552 38210
L36524 38182
" />
<path d="M34640 40239
L34640 39648
" />
<path d="M34921 40239
L34921 39648
L35259 40239
L35259 39648
" />
<path d="M35962 39845
L36384 39845
" />
<path d="M36131 39592
L35962 40351
" />
<path d="M36327 40098
L35906 40098
" />
<path d="M36159 40351
L36327 39592
" />
<path d="M36834 39845
L36834 40239
" />
<path d="M36693 39620
L36552 40042
L36918 40042
" />
<path d="M34612 42210
L34696 42239
L34837 42239
L34893 42210
L34921 42182
L34949 42126
L34949 42070
L34921 42014
L34893 41985
L34837 41957
L34724 41929
L34668 41901
L34640 41873
L34612 41817
L34612 41760
L34640 41704
L34668 41676
L34724 41648
L34865 41648
L34949 41676
" />
<path d="M35203 42239
L35203 41648
L35428 41648
L35484 41676
L35512 41704
L35540 41760
L35540 41845
L35512 41901
L35484 41929
L35428 41957
L35203 41957
" />
<path d="M35765 42070
L36046 42070
" />
<path d="M35709 42239
L35906 41648
L36102 42239
" />
<path d="M36637 42239
L36440 41957
" />
<path d="M36299 42239
L36299 41648
L36524 41648
L36580 41676
L36609 41704
L36637 41760
L36637 41845
L36609 41901
L36580 41929
L36524 41957
L36299 41957
" />
<path d="M36890 41929
L37087 41929
" />
<path d="M37171 42239
L36890 42239
L36890 41648
L37171 41648
" />
<path d="M34612 44210
L34696 44239
L34837 44239
L34893 44210
L34921 44182
L34949 44126
L34949 44070
L34921 44014
L34893 43985
L34837 43957
L34724 43929
L34668 43901
L34640 43873
L34612 43817
L34612 43760
L34640 43704
L34668 43676
L34724 43648
L34865 43648
L34949 43676
" />
<path d="M35203 44239
L35203 43648
L35428 43648
L35484 43676
L35512 43704
L35540 43760
L35540 43845
L35512 43901
L35484 43929
L35428 43957
L35203 43957
" />
<path d="M35765 44070
L36046 44070
" />
<path d="M35709 44239
L35906 43648
L36102 44239
" />
<path d="M36637 44239
L36440 43957
" />
<path d="M36299 44239
L36299 43648
L36524 43648
L36580 43676
L36609 43704
L36637 43760
L36637 43845
L36609 43901
L36580 43929
L36524 43957
L36299 43957
" />
<path d="M36890 43929
L37087 43929
" />
<path d="M37171 44239
L36890 44239
L36890 43648
L37171 43648
" />
<path d="M34612 48210
L34696 48239
L34837 48239
L34893 48210
L34921 48182
L34949 48126
L34949 48070
L34921 48014
L34893 47985
L34837 47957
L34724 47929
L34668 47901
L34640 47873
L34612 47817
L34612 47760
L34640 47704
L34668 47676
L34724 47648
L34865 47648
L34949 47676
" />
<path d="M35512 48239
L35174 48239
" />
<path d="M35343 48239
L35343 47648
L35287 47732
L35231 47789
L35174 47817
" />
<path d="M36215 48239
L36215 47648
L36356 47648
L36440 47676
L36496 47732
L36524 47789
L36552 47901
L36552 47985
L36524 48098
L36496 48154
L36440 48210
L36356 48239
L36215 48239
" />
<path d="M36721 47648
L37059 47648
" />
<path d="M36890 48239
L36890 47648
" />
<path d="M34612 50210
L34696 50239
L34837 50239
L34893 50210
L34921 50182
L34949 50126
L34949 50070
L34921 50014
L34893 49985
L34837 49957
L34724 49929
L34668 49901
L34640 49873
L34612 49817
L34612 49760
L34640 49704
L34668 49676
L34724 49648
L34865 49648
L34949 49676
" />
<path d="M35512 50239
L35174 50239
" />
<path d="M35343 50239
L35343 49648
L35287 49732
L35231 49789
L35174 49817
" />
<path d="M36215 50014
L36665 50014
" />
<path d="M36440 50239
L36440 49789
" />
<path d="M37227 49648
L36946 49648
L36918 49929
L36946 49901
L37002 49873
L37143 49873
L37199 49901
L37227 49929
L37255 49985
L37255 50126
L37227 50182
L37199 50210
L37143 50239
L37002 50239
L36946 50210
L36918 50182
" />
<path d="M37424 49648
L37621 50239
L37818 49648
" />
<path d="M34640 52014
L35090 52014
" />
<path d="M34865 52239
L34865 51789
" />
<path d="M35652 51648
L35371 51648
L35343 51929
L35371 51901
L35428 51873
L35568 51873
L35624 51901
L35652 51929
L35681 51985
L35681 52126
L35652 52182
L35624 52210
L35568 52239
L35428 52239
L35371 52210
L35343 52182
" />
<path d="M35849 51648
L36046 52239
L36243 51648
" />
<path d="M34949 53676
L34893 53648
L34809 53648
L34724 53676
L34668 53732
L34640 53789
L34612 53901
L34612 53985
L34640 54098
L34668 54154
L34724 54210
L34809 54239
L34865 54239
L34949 54210
L34978 54182
L34978 53985
L34865 53985
" />
<path d="M35231 54239
L35231 53648
L35568 54239
L35568 53648
" />
<path d="M35849 54239
L35849 53648
L35990 53648
L36074 53676
L36131 53732
L36159 53789
L36187 53901
L36187 53985
L36159 54098
L36131 54154
L36074 54210
L35990 54239
L35849 54239
" />
<path d="M34612 46210
L34696 46239
L34837 46239
L34893 46210
L34921 46182
L34949 46126
L34949 46070
L34921 46014
L34893 45985
L34837 45957
L34724 45929
L34668 45901
L34640 45873
L34612 45817
L34612 45760
L34640 45704
L34668 45676
L34724 45648
L34865 45648
L34949 45676
" />
<path d="M35512 46239
L35174 46239
" />
<path d="M35343 46239
L35343 45648
L35287 45732
L35231 45789
L35174 45817
" />
<path d="M36524 45676
L36468 45648
L36384 45648
L36299 45676
L36243 45732
L36215 45789
L36187 45901
L36187 45985
L36215 46098
L36243 46154
L36299 46210
L36384 46239
L36440 46239
L36524 46210
L36552 46182
L36552 45985
L36440 45985
" />
<path d="M36805 46239
L36805 45648
L37143 46239
L37143 45648
" />
<path d="M37424 46239
L37424 45648
L37565 45648
L37649 45676
L37705 45732
L37733 45789
L37762 45901
L37762 45985
L37733 46098
L37705 46154
L37649 46210
L37565 46239
L37424 46239
" />
<path d="M34640 32239
L34640 31648
" />
<path d="M34921 32239
L34921 31648
L35259 32239
L35259 31648
" />
<path d="M36299 31676
L36243 31648
L36159 31648
L36074 31676
L36018 31732
L35990 31789
L35962 31901
L35962 31985
L35990 32098
L36018 32154
L36074 32210
L36159 32239
L36215 32239
L36299 32210
L36327 32182
L36327 31985
L36215 31985
" />
<path d="M36580 32239
L36580 31648
L36918 32239
L36918 31648
" />
<path d="M37199 32239
L37199 31648
L37340 31648
L37424 31676
L37480 31732
L37508 31789
L37537 31901
L37537 31985
L37508 32098
L37480 32154
L37424 32210
L37340 32239
L37199 32239
" />
<path d="M28668 32239
L28331 32239
" />
<path d="M28500 32239
L28500 31648
L28443 31732
L28387 31789
L28331 31817
" />
<path d="M46137 23239
L45940 22957
" />
<path d="M45800 23239
L45800 22648
L46025 22648
L46081 22676
L46109 22704
L46137 22760
L46137 22845
L46109 22901
L46081 22929
L46025 22957
L45800 22957
" />
<path d="M46643 23239
L46643 22929
L46615 22873
L46559 22845
L46447 22845
L46390 22873
" />
<path d="M46643 23210
L46587 23239
L46447 23239
L46390 23210
L46362 23154
L46362 23098
L46390 23042
L46447 23014
L46587 23014
L46643 22985
" />
<path d="M46897 23210
L46953 23239
L47065 23239
L47122 23210
L47150 23154
L47150 23126
L47122 23070
L47065 23042
L46981 23042
L46925 23014
L46897 22957
L46897 22929
L46925 22873
L46981 22845
L47065 22845
L47122 22873
" />
<path d="M47403 22845
L47403 23435
" />
<path d="M47403 22873
L47459 22845
L47571 22845
L47628 22873
L47656 22901
L47684 22957
L47684 23126
L47656 23182
L47628 23210
L47571 23239
L47459 23239
L47403 23210
" />
<path d="M47937 23239
L47937 22648
" />
<path d="M47937 22873
L47993 22845
L48106 22845
L48162 22873
L48190 22901
L48218 22957
L48218 23126
L48190 23182
L48162 23210
L48106 23239
L47993 23239
L47937 23210
" />
<path d="M48696 23210
L48640 23239
L48528 23239
L48471 23210
L48443 23154
L48443 22929
L48471 22873
L48528 22845
L48640 22845
L48696 22873
L48724 22929
L48724 22985
L48443 23042
" />
<path d="M48978 23239
L48978 22845
" />
<path d="M48978 22957
L49006 22901
L49034 22873
L49090 22845
L49146 22845
" />
<path d="M49343 23239
L49343 22845
" />
<path d="M49343 22957
L49371 22901
L49399 22873
L49456 22845
L49512 22845
" />
<path d="M49652 22845
L49793 23239
" />
<path d="M49934 22845
L49793 23239
L49737 23379
L49709 23407
L49652 23435
" />
<path d="M50609 23239
L50609 22648
L50834 22648
L50890 22676
L50918 22704
L50946 22760
L50946 22845
L50918 22901
L50890 22929
L50834 22957
L50609 22957
" />
<path d="M51199 23239
L51199 22845
" />
<path d="M51199 22648
L51171 22676
L51199 22704
L51227 22676
L51199 22648
L51199 22704
" />
<path d="M72955 23239
L72758 22957
" />
<path d="M72617 23239
L72617 22648
L72842 22648
L72898 22676
L72926 22704
L72955 22760
L72955 22845
L72926 22901
L72898 22929
L72842 22957
L72617 22957
" />
<path d="M73433 23210
L73376 23239
L73264 23239
L73208 23210
L73179 23154
L73179 22929
L73208 22873
L73264 22845
L73376 22845
L73433 22873
L73461 22929
L73461 22985
L73179 23042
" />
<path d="M73798 23239
L73742 23210
L73714 23154
L73714 22648
" />
<path d="M74276 23239
L74276 22929
L74248 22873
L74192 22845
L74079 22845
L74023 22873
" />
<path d="M74276 23210
L74220 23239
L74079 23239
L74023 23210
L73995 23154
L73995 23098
L74023 23042
L74079 23014
L74220 23014
L74276 22985
" />
<path d="M74501 22845
L74642 23239
" />
<path d="M74782 22845
L74642 23239
L74586 23379
L74557 23407
L74501 23435
" />
<path d="M75457 23239
L75457 22845
" />
<path d="M75457 22901
L75485 22873
L75542 22845
L75626 22845
L75682 22873
L75710 22929
L75710 23239
" />
<path d="M75710 22929
L75739 22873
L75795 22845
L75879 22845
L75935 22873
L75964 22929
L75964 23239
" />
<path d="M76329 23239
L76273 23210
L76245 23182
L76217 23126
L76217 22957
L76245 22901
L76273 22873
L76329 22845
L76413 22845
L76470 22873
L76498 22901
L76526 22957
L76526 23126
L76498 23182
L76470 23210
L76413 23239
L76329 23239
" />
<path d="M77032 23239
L77032 22648
" />
<path d="M77032 23210
L76976 23239
L76863 23239
L76807 23210
L76779 23182
L76751 23126
L76751 22957
L76779 22901
L76807 22873
L76863 22845
L76976 22845
L77032 22873
" />
<path d="M77566 22845
L77566 23239
" />
<path d="M77313 22845
L77313 23154
L77341 23210
L77398 23239
L77482 23239
L77538 23210
L77566 23182
" />
<path d="M77932 23239
L77876 23210
L77848 23154
L77848 22648
" />
<path d="M78382 23210
L78326 23239
L78213 23239
L78157 23210
L78129 23154
L78129 22929
L78157 22873
L78213 22845
L78326 22845
L78382 22873
L78410 22929
L78410 22985
L78129 23042
" />
</g>
<g style="fill:#000000; fill-opacity:0.0; 
stroke:#000000; stroke-width:78.7402; stroke-opacity:1; 
stroke-linecap:round; stroke-linejoin:round;">
<path d="M58500 20500
L54500 20500
" />
<path d="M54500 16500
L58500 16500
" />
</g>
<g style="fill:#000000; fill-opacity:0.0; 
stroke:#000000; stroke-width:39.3701; stroke-opacity:1; 
stroke-linecap:round; stroke-linejoin:round;">
<path d="M84000 64500
L30500 64500
" />
<path d="M84000 56500
L84000 64500
" />
<path d="M92000 56500
L84000 56500
" />
<path d="M92000 21000
L92000 56500
" />
<path d="M84000 21000
L92000 21000
" />
<path d="M84000 13000
L84000 21000
" />
<path d="M30500 13000
L84000 13000
" />
<path d="M30500 21000
L30500 13000
" />
<path d="M22500 21000
L30500 21000
" />
<path d="M22500 56500
L22500 21000
" />
<path d="M30500 56500
L22500 56500
" />
<path d="M30500 64500
L30500 56500
" />
</g>
<g style="fill:#000000; fill-opacity:0.0; 
stroke:#000000; stroke-width:78.7402; stroke-opacity:1; 
stroke-linecap:round; stroke-linejoin:round;">
<path d="M44000 19000
L44000 16000
" />
<path d="M38000 19000
L38000 16000
" />
<path d="M86000 51000
L86000 21500
" />
<path d="M64000 51000
L86000 51000
" />
<path d="M64000 21500
L64000 51000
" />
<path d="M86000 21500
L64000 21500
" />
<path d="M59000 21500
L37000 21500
" />
<path d="M59000 55000
L59000 21500
" />
<path d="M37000 55000
L59000 55000
" />
<path d="M37000 21500
L37000 55000
" />
</g>
<g style="fill:#000000; fill-opacity:0.0; 
stroke:#000000; stroke-width:39.3701; stroke-opacity:1; 
stroke-linecap:round; stroke-linejoin:round;">
<path d="M55000 64500
L81500 64500
" />
<path d="M55000 64500
L31000 64500
" />
</g>
<g style="fill:#000000; fill-opacity:0.0; 
stroke:#000000; stroke-width:120; stroke-opacity:1; 
stroke-linecap:round; stroke-linejoin:round;">
<path d="M60500 52000
L60500 32000
" />
<path d="M62500 52000
L62500 32000
" />
<path d="M62500 52000
L60500 52000
" />
<path d="M62500 32000
L60500 32000
" />
</g>
<g style="fill:#000000; fill-opacity:0.0; 
stroke:#000000; stroke-width:26; stroke-opacity:1; 
stroke-linecap:round; stroke-linejoin:round;">
<path d="M31000 51510
L31000 52510
" />
<path d="M31000 52510
L32100 52510
" />
<path d="M32100 51510
L32100 52510
" />
<path d="M31000 51510
L32100 51510
" />
<path d="M31000 53480
L31000 54480
" />
<path d="M31000 54480
L32100 54480
" />
<path d="M32100 53480
L32100 54480
" />
<path d="M31000 53480
L32100 53480
" />
</g>
<g style="fill:#000000; fill-opacity:0.0; 
stroke:#000000; stroke-width:60; stroke-opacity:1; 
stroke-linecap:round; stroke-linejoin:round;">
<path d="M34450 55000
L33250 55000
" />
<path d="M34450 55000
L34450 51000
" />
<path d="M34450 55000
L34450 55200
" />
<path d="M34450 55200
L32550 55200
" />
<path d="M32550 55200
L32650 55000
" />
<path d="M29850 55200
L29950 55000
" />
<path d="M29950 55000
L29550 55000
" />
<path d="M30500 55200
L30400 55000
" />
<path d="M30400 55000
L29950 55000
" />
<path d="M30500 55200
L29850 55200
" />
<path d="M29550 53180
L30300 53180
" />
<path d="M32100 54780
L30300 54780
" />
<path d="M29550 53180
L29550 54780
" />
<path d="M29550 54780
L29550 55000
" />
<path d="M29550 52810
L30300 52810
" />
<path d="M29550 52810
L29550 53180
" />
<path d="M32100 51210
L30300 51210
" />
<path d="M29550 51000
L29550 51210
" />
<path d="M29550 51210
L29550 52810
" />
<path d="M30300 53180
L30300 54780
" />
<path d="M30300 53180
L32100 53180
" />
<path d="M30300 54780
L29550 54780
" />
<path d="M30300 52810
L30300 51210
" />
<path d="M30300 52810
L32100 52810
" />
<path d="M30300 51210
L29550 51210
" />
<path d="M30550 54630
L31800 54630
" />
<path d="M30550 54630
L30550 53330
" />
<path d="M30550 53330
L31800 53330
" />
<path d="M30550 52660
L31800 52660
" />
<path d="M30550 52660
L30550 51360
" />
<path d="M30550 51360
L31800 51360
" />
<path d="M31800 51360
L31800 51510
" />
<path d="M31800 52660
L31800 52510
" />
<path d="M31800 53330
L31800 53480
" />
<path d="M31800 54630
L31800 54480
" />
<path d="M29550 51000
L32250 51000
" />
<path d="M32250 51000
L33250 51000
" />
<path d="M32650 55000
L32250 55000
" />
<path d="M32250 55000
L30400 55000
" />
<path d="M33250 51000
L33250 55000
" />
<path d="M33250 51000
L34450 51000
" />
<path d="M33250 55000
L32650 55000
" />
<path d="M33350 53180
L34350 53180
" />
<path d="M34350 53180
L34350 54780
" />
<path d="M34350 54780
L33350 54780
" />
<path d="M33350 54780
L33350 53180
" />
<path d="M33350 52810
L34350 52810
" />
<path d="M33350 52810
L33350 51210
" />
<path d="M33350 51210
L34350 51210
" />
<path d="M34350 52810
L34350 51210
" />
<path d="M33750 53340
L34000 54540
" />
<path d="M33700 53390
L33950 54590
" />
<path d="M33750 51370
L34000 52571
" />
<path d="M33700 51420
L33950 52620
" />
<path d="M32100 51210
L32100 51360
" />
<path d="M32100 52810
L32100 52660
" />
<path d="M32100 52660
L32100 51360
" />
<path d="M32250 51000
L32250 51360
" />
<path d="M32250 51360
L32250 52660
" />
<path d="M32250 52660
L32250 53330
" />
<path d="M32250 55000
L32250 54630
" />
<path d="M32250 54630
L32250 53330
" />
<path d="M32100 54780
L32100 54630
" />
<path d="M32100 53180
L32100 53330
" />
<path d="M32100 53330
L32100 54630
" />
<path d="M33608.3 54558.2 A268.33 268.33 0.0 0 0 33988.9 54579.1 " />
<path d="M33640.2 53399.3 A960.8 960.8 0.0 0 0 33620.7 54575.5 " />
<path d="M33991.3 54580.1 A809.778 809.778 0.0 0 0 33969.6 53339.7 " />
<path d="M33989.6 53360.2 A233.692 233.692 0.0 0 0 33625 53416 " />
<path d="M33607.5 52588.3 A269.072 269.072 0.0 0 0 33989 52610 " />
<path d="M33640.2 51430.3 A960.8 960.8 0.0 0 0 33620.7 52606.5 " />
<path d="M33993.4 52612.4 A811.333 811.333 0.0 0 0 33969.5 51369.6 " />
<path d="M33988.6 51390 A233.206 233.206 0.0 0 0 33625 51446.9 " />
</g>
<g style="fill:#000000; fill-opacity:0.0; 
stroke:#000000; stroke-width:26; stroke-opacity:1; 
stroke-linecap:round; stroke-linejoin:round;">
<path d="M31000 47510
L31000 48510
" />
<path d="M31000 48510
L32100 48510
" />
<path d="M32100 47510
L32100 48510
" />
<path d="M31000 47510
L32100 47510
" />
<path d="M31000 49480
L31000 50480
" />
<path d="M31000 50480
L32100 50480
" />
<path d="M32100 49480
L32100 50480
" />
<path d="M31000 49480
L32100 49480
" />
</g>
<g style="fill:#000000; fill-opacity:0.0; 
stroke:#000000; stroke-width:60; stroke-opacity:1; 
stroke-linecap:round; stroke-linejoin:round;">
<path d="M34450 51000
L33250 51000
" />
<path d="M34450 51000
L34450 47000
" />
<path d="M34450 51000
L34450 51200
" />
<path d="M34450 51200
L32550 51200
" />
<path d="M32550 51200
L32650 51000
" />
<path d="M29850 51200
L29950 51000
" />
<path d="M29950 51000
L29550 51000
" />
<path d="M30500 51200
L30400 51000
" />
<path d="M30400 51000
L29950 51000
" />
<path d="M30500 51200
L29850 51200
" />
<path d="M29550 49180
L30300 49180
" />
<path d="M32100 50780
L30300 50780
" />
<path d="M29550 49180
L29550 50780
" />
<path d="M29550 50780
L29550 51000
" />
<path d="M29550 48810
L30300 48810
" />
<path d="M29550 48810
L29550 49180
" />
<path d="M32100 47210
L30300 47210
" />
<path d="M29550 47000
L29550 47210
" />
<path d="M29550 47210
L29550 48810
" />
<path d="M30300 49180
L30300 50780
" />
<path d="M30300 49180
L32100 49180
" />
<path d="M30300 50780
L29550 50780
" />
<path d="M30300 48810
L30300 47210
" />
<path d="M30300 48810
L32100 48810
" />
<path d="M30300 47210
L29550 47210
" />
<path d="M30550 50630
L31800 50630
" />
<path d="M30550 50630
L30550 49330
" />
<path d="M30550 49330
L31800 49330
" />
<path d="M30550 48660
L31800 48660
" />
<path d="M30550 48660
L30550 47360
" />
<path d="M30550 47360
L31800 47360
" />
<path d="M31800 47360
L31800 47510
" />
<path d="M31800 48660
L31800 48510
" />
<path d="M31800 49330
L31800 49480
" />
<path d="M31800 50630
L31800 50480
" />
<path d="M29550 47000
L32250 47000
" />
<path d="M32250 47000
L33250 47000
" />
<path d="M32650 51000
L32250 51000
" />
<path d="M32250 51000
L30400 51000
" />
<path d="M33250 47000
L33250 51000
" />
<path d="M33250 47000
L34450 47000
" />
<path d="M33250 51000
L32650 51000
" />
<path d="M33350 49180
L34350 49180
" />
<path d="M34350 49180
L34350 50780
" />
<path d="M34350 50780
L33350 50780
" />
<path d="M33350 50780
L33350 49180
" />
<path d="M33350 48810
L34350 48810
" />
<path d="M33350 48810
L33350 47210
" />
<path d="M33350 47210
L34350 47210
" />
<path d="M34350 48810
L34350 47210
" />
<path d="M33750 49340
L34000 50540
" />
<path d="M33700 49390
L33950 50590
" />
<path d="M33750 47370
L34000 48571
" />
<path d="M33700 47420
L33950 48620
" />
<path d="M32100 47210
L32100 47360
" />
<path d="M32100 48810
L32100 48660
" />
<path d="M32100 48660
L32100 47360
" />
<path d="M32250 47000
L32250 47360
" />
<path d="M32250 47360
L32250 48660
" />
<path d="M32250 48660
L32250 49330
" />
<path d="M32250 51000
L32250 50630
" />
<path d="M32250 50630
L32250 49330
" />
<path d="M32100 50780
L32100 50630
" />
<path d="M32100 49180
L32100 49330
" />
<path d="M32100 49330
L32100 50630
" />
<path d="M33608.3 50558.2 A268.33 268.33 0.0 0 0 33988.9 50579.1 " />
<path d="M33640.2 49399.3 A960.8 960.8 0.0 0 0 33620.7 50575.5 " />
<path d="M33991.3 50580.1 A809.778 809.778 0.0 0 0 33969.6 49339.7 " />
<path d="M33989.6 49360.2 A233.692 233.692 0.0 0 0 33625 49416 " />
<path d="M33607.5 48588.3 A269.072 269.072 0.0 0 0 33989 48610 " />
<path d="M33640.2 47430.3 A960.8 960.8 0.0 0 0 33620.7 48606.5 " />
<path d="M33993.4 48612.4 A811.333 811.333 0.0 0 0 33969.5 47369.6 " />
<path d="M33988.6 47390 A233.206 233.206 0.0 0 0 33625 47446.9 " />
</g>
<g style="fill:#000000; fill-opacity:0.0; 
stroke:#000000; stroke-width:26; stroke-opacity:1; 
stroke-linecap:round; stroke-linejoin:round;">
<path d="M31000 43510
L31000 44510
" />
<path d="M31000 44510
L32100 44510
" />
<path d="M32100 43510
L32100 44510
" />
<path d="M31000 43510
L32100 43510
" />
<path d="M31000 45480
L31000 46480
" />
<path d="M31000 46480
L32100 46480
" />
<path d="M32100 45480
L32100 46480
" />
<path d="M31000 45480
L32100 45480
" />
</g>
<g style="fill:#000000; fill-opacity:0.0; 
stroke:#000000; stroke-width:60; stroke-opacity:1; 
stroke-linecap:round; stroke-linejoin:round;">
<path d="M34450 47000
L33250 47000
" />
<path d="M34450 47000
L34450 43000
" />
<path d="M34450 47000
L34450 47200
" />
<path d="M34450 47200
L32550 47200
" />
<path d="M32550 47200
L32650 47000
" />
<path d="M29850 47200
L29950 47000
" />
<path d="M29950 47000
L29550 47000
" />
<path d="M30500 47200
L30400 47000
" />
<path d="M30400 47000
L29950 47000
" />
<path d="M30500 47200
L29850 47200
" />
<path d="M29550 45180
L30300 45180
" />
<path d="M32100 46780
L30300 46780
" />
<path d="M29550 45180
L29550 46780
" />
<path d="M29550 46780
L29550 47000
" />
<path d="M29550 44810
L30300 44810
" />
<path d="M29550 44810
L29550 45180
" />
<path d="M32100 43210
L30300 43210
" />
<path d="M29550 43000
L29550 43210
" />
<path d="M29550 43210
L29550 44810
" />
<path d="M30300 45180
L30300 46780
" />
<path d="M30300 45180
L32100 45180
" />
<path d="M30300 46780
L29550 46780
" />
<path d="M30300 44810
L30300 43210
" />
<path d="M30300 44810
L32100 44810
" />
<path d="M30300 43210
L29550 43210
" />
<path d="M30550 46630
L31800 46630
" />
<path d="M30550 46630
L30550 45330
" />
<path d="M30550 45330
L31800 45330
" />
<path d="M30550 44660
L31800 44660
" />
<path d="M30550 44660
L30550 43360
" />
<path d="M30550 43360
L31800 43360
" />
<path d="M31800 43360
L31800 43510
" />
<path d="M31800 44660
L31800 44510
" />
<path d="M31800 45330
L31800 45480
" />
<path d="M31800 46630
L31800 46480
" />
<path d="M29550 43000
L32250 43000
" />
<path d="M32250 43000
L33250 43000
" />
<path d="M32650 47000
L32250 47000
" />
<path d="M32250 47000
L30400 47000
" />
<path d="M33250 43000
L33250 47000
" />
<path d="M33250 43000
L34450 43000
" />
<path d="M33250 47000
L32650 47000
" />
<path d="M33350 45180
L34350 45180
" />
<path d="M34350 45180
L34350 46780
" />
<path d="M34350 46780
L33350 46780
" />
<path d="M33350 46780
L33350 45180
" />
<path d="M33350 44810
L34350 44810
" />
<path d="M33350 44810
L33350 43210
" />
<path d="M33350 43210
L34350 43210
" />
<path d="M34350 44810
L34350 43210
" />
<path d="M33750 45340
L34000 46540
" />
<path d="M33700 45390
L33950 46590
" />
<path d="M33750 43370
L34000 44571
" />
<path d="M33700 43420
L33950 44620
" />
<path d="M32100 43210
L32100 43360
" />
<path d="M32100 44810
L32100 44660
" />
<path d="M32100 44660
L32100 43360
" />
<path d="M32250 43000
L32250 43360
" />
<path d="M32250 43360
L32250 44660
" />
<path d="M32250 44660
L32250 45330
" />
<path d="M32250 47000
L32250 46630
" />
<path d="M32250 46630
L32250 45330
" />
<path d="M32100 46780
L32100 46630
" />
<path d="M32100 45180
L32100 45330
" />
<path d="M32100 45330
L32100 46630
" />
<path d="M33608.3 46558.2 A268.33 268.33 0.0 0 0 33988.9 46579.1 " />
<path d="M33640.2 45399.3 A960.8 960.8 0.0 0 0 33620.7 46575.5 " />
<path d="M33991.3 46580.1 A809.778 809.778 0.0 0 0 33969.6 45339.7 " />
<path d="M33989.6 45360.2 A233.692 233.692 0.0 0 0 33625 45416 " />
<path d="M33607.5 44588.3 A269.072 269.072 0.0 0 0 33989 44610 " />
<path d="M33640.2 43430.3 A960.8 960.8 0.0 0 0 33620.7 44606.5 " />
<path d="M33993.4 44612.4 A811.333 811.333 0.0 0 0 33969.5 43369.6 " />
<path d="M33988.6 43390 A233.206 233.206 0.0 0 0 33625 43446.9 " />
</g>
<g style="fill:#000000; fill-opacity:0.0; 
stroke:#000000; stroke-width:26; stroke-opacity:1; 
stroke-linecap:round; stroke-linejoin:round;">
<path d="M31000 39510
L31000 40510
" />
<path d="M31000 40510
L32100 40510
" />
<path d="M32100 39510
L32100 40510
" />
<path d="M31000 39510
L32100 39510
" />
<path d="M31000 41480
L31000 42480
" />
<path d="M31000 42480
L32100 42480
" />
<path d="M32100 41480
L32100 42480
" />
<path d="M31000 41480
L32100 41480
" />
</g>
<g style="fill:#000000; fill-opacity:0.0; 
stroke:#000000; stroke-width:60; stroke-opacity:1; 
stroke-linecap:round; stroke-linejoin:round;">
<path d="M34450 43000
L33250 43000
" />
<path d="M34450 43000
L34450 39000
" />
<path d="M34450 43000
L34450 43200
" />
<path d="M34450 43200
L32550 43200
" />
<path d="M32550 43200
L32650 43000
" />
<path d="M29850 43200
L29950 43000
" />
<path d="M29950 43000
L29550 43000
" />
<path d="M30500 43200
L30400 43000
" />
<path d="M30400 43000
L29950 43000
" />
<path d="M30500 43200
L29850 43200
" />
<path d="M29550 41180
L30300 41180
" />
<path d="M32100 42780
L30300 42780
" />
<path d="M29550 41180
L29550 42780
" />
<path d="M29550 42780
L29550 43000
" />
<path d="M29550 40810
L30300 40810
" />
<path d="M29550 40810
L29550 41180
" />
<path d="M32100 39210
L30300 39210
" />
<path d="M29550 39000
L29550 39210
" />
<path d="M29550 39210
L29550 40810
" />
<path d="M30300 41180
L30300 42780
" />
<path d="M30300 41180
L32100 41180
" />
<path d="M30300 42780
L29550 42780
" />
<path d="M30300 40810
L30300 39210
" />
<path d="M30300 40810
L32100 40810
" />
<path d="M30300 39210
L29550 39210
" />
<path d="M30550 42630
L31800 42630
" />
<path d="M30550 42630
L30550 41330
" />
<path d="M30550 41330
L31800 41330
" />
<path d="M30550 40660
L31800 40660
" />
<path d="M30550 40660
L30550 39360
" />
<path d="M30550 39360
L31800 39360
" />
<path d="M31800 39360
L31800 39510
" />
<path d="M31800 40660
L31800 40510
" />
<path d="M31800 41330
L31800 41480
" />
<path d="M31800 42630
L31800 42480
" />
<path d="M29550 39000
L32250 39000
" />
<path d="M32250 39000
L33250 39000
" />
<path d="M32650 43000
L32250 43000
" />
<path d="M32250 43000
L30400 43000
" />
<path d="M33250 39000
L33250 43000
" />
<path d="M33250 39000
L34450 39000
" />
<path d="M33250 43000
L32650 43000
" />
<path d="M33350 41180
L34350 41180
" />
<path d="M34350 41180
L34350 42780
" />
<path d="M34350 42780
L33350 42780
" />
<path d="M33350 42780
L33350 41180
" />
<path d="M33350 40810
L34350 40810
" />
<path d="M33350 40810
L33350 39210
" />
<path d="M33350 39210
L34350 39210
" />
<path d="M34350 40810
L34350 39210
" />
<path d="M33750 41340
L34000 42540
" />
<path d="M33700 41390
L33950 42590
" />
<path d="M33750 39370
L34000 40571
" />
<path d="M33700 39420
L33950 40620
" />
<path d="M32100 39210
L32100 39360
" />
<path d="M32100 40810
L32100 40660
" />
<path d="M32100 40660
L32100 39360
" />
<path d="M32250 39000
L32250 39360
" />
<path d="M32250 39360
L32250 40660
" />
<path d="M32250 40660
L32250 41330
" />
<path d="M32250 43000
L32250 42630
" />
<path d="M32250 42630
L32250 41330
" />
<path d="M32100 42780
L32100 42630
" />
<path d="M32100 41180
L32100 41330
" />
<path d="M32100 41330
L32100 42630
" />
<path d="M33608.3 42558.2 A268.33 268.33 0.0 0 0 33988.9 42579.1 " />
<path d="M33640.2 41399.3 A960.8 960.8 0.0 0 0 33620.7 42575.5 " />
<path d="M33991.3 42580.1 A809.778 809.778 0.0 0 0 33969.6 41339.7 " />
<path d="M33989.6 41360.2 A233.692 233.692 0.0 0 0 33625 41416 " />
<path d="M33607.5 40588.3 A269.072 269.072 0.0 0 0 33989 40610 " />
<path d="M33640.2 39430.3 A960.8 960.8 0.0 0 0 33620.7 40606.5 " />
<path d="M33993.4 40612.4 A811.333 811.333 0.0 0 0 33969.5 39369.6 " />
<path d="M33988.6 39390 A233.206 233.206 0.0 0 0 33625 39446.9 " />
</g>
<g style="fill:#000000; fill-opacity:0.0; 
stroke:#000000; stroke-width:120; stroke-opacity:1; 
stroke-linecap:round; stroke-linejoin:round;">
<path d="M37000 59000
L50000 59000
" />
<path d="M50000 59000
L50000 60000
" />
<path d="M50000 60000
L37000 60000
" />
<path d="M37000 60000
L37000 59000
" />
<path d="M38000 59000
L38000 60000
" />
</g>
<g style="fill:#000000; fill-opacity:0.0; 
stroke:#000000; stroke-width:150; stroke-opacity:1; 
stroke-linecap:round; stroke-linejoin:round;">
<circle cx="38500" cy="53500" r="900" /> 
<circle cx="57500" cy="53500" r="900" /> 
<circle cx="38500" cy="30500" r="900" /> 
<circle cx="57500" cy="30500" r="900" /> 
<circle cx="65500" cy="23000" r="900" /> 
<circle cx="84500" cy="23000" r="900" /> 
<circle cx="65500" cy="49500" r="900" /> 
<circle cx="84500" cy="49500" r="900" /> 
</g>
<g style="fill:#000000; fill-opacity:0.0; 
stroke:#000000; stroke-width:26; stroke-opacity:1; 
stroke-linecap:round; stroke-linejoin:round;">
<path d="M31000 31510
L31000 32510
" />
<path d="M31000 32510
L32100 32510
" />
<path d="M32100 31510
L32100 32510
" />
<path d="M31000 31510
L32100 31510
" />
<path d="M31000 33480
L31000 34480
" />
<path d="M31000 34480
L32100 34480
" />
<path d="M32100 33480
L32100 34480
" />
<path d="M31000 33480
L32100 33480
" />
</g>
<g style="fill:#000000; fill-opacity:0.0; 
stroke:#000000; stroke-width:60; stroke-opacity:1; 
stroke-linecap:round; stroke-linejoin:round;">
<path d="M34450 35000
L33250 35000
" />
<path d="M34450 35000
L34450 31000
" />
<path d="M34450 35000
L34450 35200
" />
<path d="M34450 35200
L32550 35200
" />
<path d="M32550 35200
L32650 35000
" />
<path d="M29850 35200
L29950 35000
" />
<path d="M29950 35000
L29550 35000
" />
<path d="M30500 35200
L30400 35000
" />
<path d="M30400 35000
L29950 35000
" />
<path d="M30500 35200
L29850 35200
" />
<path d="M29550 33180
L30300 33180
" />
<path d="M32100 34780
L30300 34780
" />
<path d="M29550 33180
L29550 34780
" />
<path d="M29550 34780
L29550 35000
" />
<path d="M29550 32810
L30300 32810
" />
<path d="M29550 32810
L29550 33180
" />
<path d="M32100 31210
L30300 31210
" />
<path d="M29550 31000
L29550 31210
" />
<path d="M29550 31210
L29550 32810
" />
<path d="M30300 33180
L30300 34780
" />
<path d="M30300 33180
L32100 33180
" />
<path d="M30300 34780
L29550 34780
" />
<path d="M30300 32810
L30300 31210
" />
<path d="M30300 32810
L32100 32810
" />
<path d="M30300 31210
L29550 31210
" />
<path d="M30550 34630
L31800 34630
" />
<path d="M30550 34630
L30550 33330
" />
<path d="M30550 33330
L31800 33330
" />
<path d="M30550 32660
L31800 32660
" />
<path d="M30550 32660
L30550 31360
" />
<path d="M30550 31360
L31800 31360
" />
<path d="M31800 31360
L31800 31510
" />
<path d="M31800 32660
L31800 32510
" />
<path d="M31800 33330
L31800 33480
" />
<path d="M31800 34630
L31800 34480
" />
<path d="M29550 31000
L32250 31000
" />
<path d="M32250 31000
L33250 31000
" />
<path d="M32650 35000
L32250 35000
" />
<path d="M32250 35000
L30400 35000
" />
<path d="M33250 31000
L33250 35000
" />
<path d="M33250 31000
L34450 31000
" />
<path d="M33250 35000
L32650 35000
" />
<path d="M33350 33180
L34350 33180
" />
<path d="M34350 33180
L34350 34780
" />
<path d="M34350 34780
L33350 34780
" />
<path d="M33350 34780
L33350 33180
" />
<path d="M33350 32810
L34350 32810
" />
<path d="M33350 32810
L33350 31210
" />
<path d="M33350 31210
L34350 31210
" />
<path d="M34350 32810
L34350 31210
" />
<path d="M33750 33340
L34000 34540
" />
<path d="M33700 33390
L33950 34590
" />
<path d="M33750 31370
L34000 32571
" />
<path d="M33700 31420
L33950 32620
" />
<path d="M32100 31210
L32100 31360
" />
<path d="M32100 32810
L32100 32660
" />
<path d="M32100 32660
L32100 31360
" />
<path d="M32250 31000
L32250 31360
" />
<path d="M32250 31360
L32250 32660
" />
<path d="M32250 32660
L32250 33330
" />
<path d="M32250 35000
L32250 34630
" />
<path d="M32250 34630
L32250 33330
" />
<path d="M32100 34780
L32100 34630
" />
<path d="M32100 33180
L32100 33330
" />
<path d="M32100 33330
L32100 34630
" />
<path d="M33608.3 34558.2 A268.33 268.33 0.0 0 0 33988.9 34579.1 " />
<path d="M33640.2 33399.3 A960.8 960.8 0.0 0 0 33620.7 34575.5 " />
<path d="M33991.3 34580.1 A809.778 809.778 0.0 0 0 33969.6 33339.7 " />
<path d="M33989.6 33360.2 A233.692 233.692 0.0 0 0 33625 33416 " />
<path d="M33607.5 32588.3 A269.072 269.072 0.0 0 0 33989 32610 " />
<path d="M33640.2 31430.3 A960.8 960.8 0.0 0 0 33620.7 32606.5 " />
<path d="M33993.4 32612.4 A811.333 811.333 0.0 0 0 33969.5 31369.6 " />
<path d="M33988.6 31390 A233.206 233.206 0.0 0 0 33625 31446.9 " />
</g>
<g style="fill:#000000; fill-opacity:0.0; 
stroke:#000000; stroke-width:26; stroke-opacity:1; 
stroke-linecap:round; stroke-linejoin:round;">
<path d="M31000 35510
L31000 36510
" />
<path d="M31000 36510
L32100 36510
" />
<path d="M32100 35510
L32100 36510
" />
<path d="M31000 35510
L32100 35510
" />
<path d="M31000 37480
L31000 38480
" />
<path d="M31000 38480
L32100 38480
" />
<path d="M32100 37480
L32100 38480
" />
<path d="M31000 37480
L32100 37480
" />
</g>
<g style="fill:#000000; fill-opacity:0.0; 
stroke:#000000; stroke-width:60; stroke-opacity:1; 
stroke-linecap:round; stroke-linejoin:round;">
<path d="M34450 39000
L33250 39000
" />
<path d="M34450 39000
L34450 35000
" />
<path d="M34450 39000
L34450 39200
" />
<path d="M34450 39200
L32550 39200
" />
<path d="M32550 39200
L32650 39000
" />
<path d="M29850 39200
L29950 39000
" />
<path d="M29950 39000
L29550 39000
" />
<path d="M30500 39200
L30400 39000
" />
<path d="M30400 39000
L29950 39000
" />
<path d="M30500 39200
L29850 39200
" />
<path d="M29550 37180
L30300 37180
" />
<path d="M32100 38780
L30300 38780
" />
<path d="M29550 37180
L29550 38780
" />
<path d="M29550 38780
L29550 39000
" />
<path d="M29550 36810
L30300 36810
" />
<path d="M29550 36810
L29550 37180
" />
<path d="M32100 35210
L30300 35210
" />
<path d="M29550 35000
L29550 35210
" />
<path d="M29550 35210
L29550 36810
" />
<path d="M30300 37180
L30300 38780
" />
<path d="M30300 37180
L32100 37180
" />
<path d="M30300 38780
L29550 38780
" />
<path d="M30300 36810
L30300 35210
" />
<path d="M30300 36810
L32100 36810
" />
<path d="M30300 35210
L29550 35210
" />
<path d="M30550 38630
L31800 38630
" />
<path d="M30550 38630
L30550 37330
" />
<path d="M30550 37330
L31800 37330
" />
<path d="M30550 36660
L31800 36660
" />
<path d="M30550 36660
L30550 35360
" />
<path d="M30550 35360
L31800 35360
" />
<path d="M31800 35360
L31800 35510
" />
<path d="M31800 36660
L31800 36510
" />
<path d="M31800 37330
L31800 37480
" />
<path d="M31800 38630
L31800 38480
" />
<path d="M29550 35000
L32250 35000
" />
<path d="M32250 35000
L33250 35000
" />
<path d="M32650 39000
L32250 39000
" />
<path d="M32250 39000
L30400 39000
" />
<path d="M33250 35000
L33250 39000
" />
<path d="M33250 35000
L34450 35000
" />
<path d="M33250 39000
L32650 39000
" />
<path d="M33350 37180
L34350 37180
" />
<path d="M34350 37180
L34350 38780
" />
<path d="M34350 38780
L33350 38780
" />
<path d="M33350 38780
L33350 37180
" />
<path d="M33350 36810
L34350 36810
" />
<path d="M33350 36810
L33350 35210
" />
<path d="M33350 35210
L34350 35210
" />
<path d="M34350 36810
L34350 35210
" />
<path d="M33750 37340
L34000 38540
" />
<path d="M33700 37390
L33950 38590
" />
<path d="M33750 35370
L34000 36571
" />
<path d="M33700 35420
L33950 36620
" />
<path d="M32100 35210
L32100 35360
" />
<path d="M32100 36810
L32100 36660
" />
<path d="M32100 36660
L32100 35360
" />
<path d="M32250 35000
L32250 35360
" />
<path d="M32250 35360
L32250 36660
" />
<path d="M32250 36660
L32250 37330
" />
<path d="M32250 39000
L32250 38630
" />
<path d="M32250 38630
L32250 37330
" />
<path d="M32100 38780
L32100 38630
" />
<path d="M32100 37180
L32100 37330
" />
<path d="M32100 37330
L32100 38630
" />
<path d="M33608.3 38558.2 A268.33 268.33 0.0 0 0 33988.9 38579.1 " />
<path d="M33640.2 37399.3 A960.8 960.8 0.0 0 0 33620.7 38575.5 " />
<path d="M33991.3 38580.1 A809.778 809.778 0.0 0 0 33969.6 37339.7 " />
<path d="M33989.6 37360.2 A233.692 233.692 0.0 0 0 33625 37416 " />
<path d="M33607.5 36588.3 A269.072 269.072 0.0 0 0 33989 36610 " />
<path d="M33640.2 35430.3 A960.8 960.8 0.0 0 0 33620.7 36606.5 " />
<path d="M33993.4 36612.4 A811.333 811.333 0.0 0 0 33969.5 35369.6 " />
<path d="M33988.6 35390 A233.206 233.206 0.0 0 0 33625 35446.9 " />
</g>
<g style="fill:#000000; fill-opacity:0.0; 
stroke:#000000; stroke-width:120; stroke-opacity:1; 
stroke-linecap:round; stroke-linejoin:round;">
<path d="M53500 20500
L53500 20500
" />
<path d="M54500 20500
L53500 20500
" />
<path d="M53500 20500
L53500 20500
" />
<path d="M53500 20500
L53500 16500
" />
<path d="M53500 16500
L54500 16500
" />
<path d="M54500 16500
L54500 20500
" />
<path d="M54500 19500
L53500 19500
" />
<path d="M58500 20500
L58500 20500
" />
<path d="M59500 20500
L58500 20500
" />
<path d="M58500 20500
L58500 20500
" />
<path d="M58500 20500
L58500 16500
" />
<path d="M58500 16500
L59500 16500
" />
<path d="M59500 16500
L59500 20500
" />
<path d="M59500 19500
L58500 19500
" />
<path d="M38000 16000
L38000 15000
" />
<path d="M38000 15000
L44000 15000
" />
<path d="M44000 15000
L44000 16000
" />
<path d="M44000 16000
L38000 16000
" />
<path d="M39000 16000
L39000 15000
" />
<path d="M38000 20000
L38000 19000
" />
<path d="M38000 19000
L44000 19000
" />
<path d="M44000 19000
L44000 20000
" />
<path d="M44000 20000
L38000 20000
" />
<path d="M39000 20000
L39000 19000
" />
</g>
<g style="fill:#000000; fill-opacity:0.0; 
stroke:#000000; stroke-width:150; stroke-opacity:1; 
stroke-linecap:round; stroke-linejoin:round;">
<circle cx="27000" cy="38500" r="900" /> 
<circle cx="67500" cy="15500" r="900" /> 
<circle cx="88000" cy="38000" r="900" /> 
<circle cx="47000" cy="62000" r="900" /> 
<circle cx="67500" cy="62000" r="900" /> 
</g>
<g style="fill:#000000; fill-opacity:0.0; 
stroke:#000000; stroke-width:120; stroke-opacity:1; 
stroke-linecap:round; stroke-linejoin:round;">
<path d="M32000 57500
L36000 57500
" />
<path d="M32000 57000
L32000 60000
" />
<path d="M32000 60000
L36000 60000
" />
<path d="M36000 60000
L36000 57000
" />
<path d="M36000 57000
L32000 57000
" />
<path d="M46000 57500
L46000 57500
" />
<path d="M46000 58500
L46000 57500
" />
<path d="M46000 57500
L46000 57500
" />
<path d="M46000 57500
L50000 57500
" />
<path d="M50000 57500
L50000 58500
" />
<path d="M50000 58500
L46000 58500
" />
<path d="M47000 58500
L47000 57500
" />
<path d="M67000 60000
L67000 59000
" />
<path d="M67000 59000
L70000 59000
" />
<path d="M70000 59000
L70000 60000
" />
<path d="M70000 60000
L67000 60000
" />
<path d="M68000 59000
L68000 60000
" />
</g>
<g style="fill:#000000; fill-opacity:0.0; 
stroke:#000000; stroke-width:100; stroke-opacity:1; 
stroke-linecap:round; stroke-linejoin:round;">
<path d="M61366 30761
L61366 31047
L61347 31104
L61309 31142
L61252 31161
L61214 31161
" />
<path d="M61538 30800
L61557 30780
L61595 30761
L61690 30761
L61728 30780
L61747 30800
L61766 30838
L61766 30876
L61747 30933
L61519 31161
L61766 31161
" />
</g>
<g style="fill:#000000; fill-opacity:0.0; 
stroke:#000000; stroke-width:35; stroke-opacity:1; 
stroke-linecap:round; stroke-linejoin:round;">
<path d="M31766 29583
L31766 30083
L31733 30183
L31666 30250
L31566 30283
L31500 30283
" />
<path d="M32466 30283
L32066 30283
" />
<path d="M32266 30283
L32266 29583
L32200 29683
L32133 29750
L32066 29783
" />
</g> 
</svg>
