<?xml version="1.0" standalone="no"?>
 <!DOCTYPE svg PUBLIC "-//W3C//DTD SVG 1.1//EN" 
 "http://www.w3.org/Graphics/SVG/1.1/DTD/svg11.dtd"> 
<svg xmlns="http://www.w3.org/2000/svg" version="1.1" 
    width="29.7002cm" height="21.0007cm" viewBox="0 0 116930 82680 ">
<title>SVG Picture created as mm3d_front-B_Cu.svg date 2019/02/02 21:57:10 </title>
  <desc>Picture generated by PCBNEW </desc>
<g style="fill:#000000; fill-opacity:1;stroke:#000000; stroke-opacity:1;
stroke-linecap:round; stroke-linejoin:round; "
 transform="translate(0 0) scale(1 1)">
</g>
<g style="fill:#000000; fill-opacity:0.0; 
stroke:#000000; stroke-width:39.3701; stroke-opacity:1; 
stroke-linecap:round; stroke-linejoin:round;">
<path d="M4000 4000
L112930 4000
L112930 78680
L4000 78680
L4000 4000
" />
<path d="M4700 4700
L112230 4700
L112230 77980
L4700 77980
L4700 4700
" />
<path d="M25780 4000
L25780 4700
" />
<path d="M15032 4552
L14747 4552
" />
<path d="M14890 4552
L14890 4052
L14842 4123
L14794 4171
L14747 4195
" />
<path d="M25780 78680
L25780 77980
" />
<path d="M15032 78532
L14747 78532
" />
<path d="M14890 78532
L14890 78032
L14842 78103
L14794 78151
L14747 78175
" />
<path d="M47560 4000
L47560 4700
" />
<path d="M36527 4100
L36550 4076
L36598 4052
L36717 4052
L36765 4076
L36789 4100
L36812 4147
L36812 4195
L36789 4266
L36503 4552
L36812 4552
" />
<path d="M47560 78680
L47560 77980
" />
<path d="M36527 78080
L36550 78056
L36598 78032
L36717 78032
L36765 78056
L36789 78080
L36812 78127
L36812 78175
L36789 78246
L36503 78532
L36812 78532
" />
<path d="M69340 4000
L69340 4700
" />
<path d="M58283 4052
L58592 4052
L58426 4242
L58497 4242
L58545 4266
L58569 4290
L58592 4338
L58592 4457
L58569 4504
L58545 4528
L58497 4552
L58354 4552
L58307 4528
L58283 4504
" />
<path d="M69340 78680
L69340 77980
" />
<path d="M58283 78032
L58592 78032
L58426 78222
L58497 78222
L58545 78246
L58569 78270
L58592 78318
L58592 78437
L58569 78484
L58545 78508
L58497 78532
L58354 78532
L58307 78508
L58283 78484
" />
<path d="M91120 4000
L91120 4700
" />
<path d="M80325 4219
L80325 4552
" />
<path d="M80206 4028
L80087 4385
L80396 4385
" />
<path d="M91120 78680
L91120 77980
" />
<path d="M80325 78199
L80325 78532
" />
<path d="M80206 78008
L80087 78365
L80396 78365
" />
<path d="M102129 4052
L101890 4052
L101867 4290
L101890 4266
L101938 4242
L102057 4242
L102105 4266
L102129 4290
L102152 4338
L102152 4457
L102129 4504
L102105 4528
L102057 4552
L101938 4552
L101890 4528
L101867 4504
" />
<path d="M102129 78032
L101890 78032
L101867 78270
L101890 78246
L101938 78222
L102057 78222
L102105 78246
L102129 78270
L102152 78318
L102152 78437
L102129 78484
L102105 78508
L102057 78532
L101938 78532
L101890 78508
L101867 78484
" />
<path d="M4000 28890
L4700 28890
" />
<path d="M4230 16509
L4469 16509
" />
<path d="M4183 16652
L4350 16152
L4516 16652
" />
<path d="M112930 28890
L112230 28890
" />
<path d="M112460 16509
L112699 16509
" />
<path d="M112413 16652
L112580 16152
L112746 16652
" />
<path d="M4000 53780
L4700 53780
" />
<path d="M4385 41280
L4457 41304
L4480 41328
L4504 41375
L4504 41447
L4480 41494
L4457 41518
L4409 41542
L4219 41542
L4219 41042
L4385 41042
L4433 41066
L4457 41090
L4480 41137
L4480 41185
L4457 41232
L4433 41256
L4385 41280
L4219 41280
" />
<path d="M112930 53780
L112230 53780
" />
<path d="M112615 41280
L112687 41304
L112710 41328
L112734 41375
L112734 41447
L112710 41494
L112687 41518
L112639 41542
L112449 41542
L112449 41042
L112615 41042
L112663 41066
L112687 41090
L112710 41137
L112710 41185
L112687 41232
L112663 41256
L112615 41280
L112449 41280
" />
<path d="M4504 66384
L4480 66408
L4409 66432
L4361 66432
L4290 66408
L4242 66360
L4219 66313
L4195 66218
L4195 66146
L4219 66051
L4242 66003
L4290 65956
L4361 65932
L4409 65932
L4480 65956
L4504 65980
" />
<path d="M112734 66384
L112710 66408
L112639 66432
L112591 66432
L112520 66408
L112472 66360
L112449 66313
L112425 66218
L112425 66146
L112449 66051
L112472 66003
L112520 65956
L112591 65932
L112639 65932
L112710 65956
L112734 65980
" />
<path d="M79380 76422
L79455 75822
L79597 75822
L79680 75851
L79730 75908
L79751 75965
L79765 76080
L79755 76165
L79712 76280
L79676 76337
L79612 76394
L79522 76422
L79380 76422
" />
<path d="M80237 76422
L80276 76108
L80255 76051
L80201 76022
L80087 76022
L80026 76051
" />
<path d="M80240 76394
L80180 76422
L80037 76422
L79983 76394
L79962 76337
L79969 76280
L80005 76222
L80065 76194
L80208 76194
L80269 76165
" />
<path d="M80487 76022
L80715 76022
" />
<path d="M80597 75822
L80533 76337
L80555 76394
L80608 76422
L80665 76422
" />
<path d="M81097 76394
L81037 76422
L80922 76422
L80869 76394
L80847 76337
L80876 76108
L80912 76051
L80972 76022
L81087 76022
L81140 76051
L81162 76108
L81155 76165
L80862 76222
" />
<path d="M81387 76365
L81412 76394
L81380 76422
L81355 76394
L81387 76365
L81380 76422
" />
<path d="M81426 76051
L81451 76080
L81419 76108
L81394 76080
L81426 76051
L81419 76108
" />
<path d="M82162 75880
L82194 75851
L82255 75822
L82397 75822
L82451 75851
L82476 75880
L82497 75937
L82490 75994
L82451 76080
L82065 76422
L82437 76422
" />
<path d="M83115 76022
L83344 76022
" />
<path d="M83151 76422
L83215 75908
L83251 75851
L83312 75822
L83369 75822
" />
<path d="M83726 76394
L83665 76422
L83551 76422
L83497 76394
L83476 76337
L83505 76108
L83540 76051
L83601 76022
L83715 76022
L83769 76051
L83790 76108
L83783 76165
L83490 76222
" />
<path d="M84008 76422
L84083 75822
" />
<path d="M84055 76051
L84115 76022
L84230 76022
L84283 76051
L84308 76080
L84330 76137
L84308 76308
L84272 76365
L84240 76394
L84180 76422
L84065 76422
L84012 76394
" />
<path d="M85047 75880
L85080 75851
L85140 75822
L85283 75822
L85337 75851
L85362 75880
L85383 75937
L85376 75994
L85337 76080
L84951 76422
L85322 76422
" />
<path d="M85769 75822
L85826 75822
L85880 75851
L85905 75880
L85926 75937
L85940 76051
L85922 76194
L85880 76308
L85844 76365
L85812 76394
L85751 76422
L85694 76422
L85640 76394
L85615 76365
L85594 76308
L85580 76194
L85597 76051
L85640 75937
L85676 75880
L85708 75851
L85769 75822
" />
<path d="M86465 76422
L86122 76422
" />
<path d="M86294 76422
L86369 75822
L86301 75908
L86237 75965
L86176 75994
" />
<path d="M86751 76422
L86865 76422
L86926 76394
L86958 76365
L87026 76280
L87069 76165
L87097 75937
L87076 75880
L87051 75851
L86997 75822
L86883 75822
L86822 75851
L86790 75880
L86755 75937
L86737 76080
L86758 76137
L86783 76165
L86837 76194
L86951 76194
L87012 76165
L87044 76137
L87080 76080
" />
<path d="M70972 77622
L70972 77022
" />
<path d="M71315 77622
L71058 77280
" />
<path d="M71315 77022
L70972 77365
" />
<path d="M71572 77622
L71572 77222
" />
<path d="M71572 77022
L71544 77051
L71572 77080
L71601 77051
L71572 77022
L71572 77080
" />
<path d="M72201 77565
L72172 77594
L72087 77622
L72030 77622
L71944 77594
L71887 77537
L71858 77480
L71830 77365
L71830 77280
L71858 77165
L71887 77108
L71944 77051
L72030 77022
L72087 77022
L72172 77051
L72201 77080
" />
<path d="M72715 77622
L72715 77308
L72687 77251
L72630 77222
L72515 77222
L72458 77251
" />
<path d="M72715 77594
L72658 77622
L72515 77622
L72458 77594
L72430 77537
L72430 77480
L72458 77422
L72515 77394
L72658 77394
L72715 77365
" />
<path d="M73258 77622
L73258 77022
" />
<path d="M73258 77594
L73201 77622
L73087 77622
L73030 77594
L73001 77565
L72972 77508
L72972 77337
L73001 77280
L73030 77251
L73087 77222
L73201 77222
L73258 77251
" />
<path d="M74001 77308
L74201 77308
" />
<path d="M74287 77622
L74001 77622
L74001 77022
L74287 77022
" />
<path d="M74544 77565
L74572 77594
L74544 77622
L74515 77594
L74544 77565
L74544 77622
" />
<path d="M74829 77622
L74829 77022
L74972 77022
L75058 77051
L75115 77108
L75144 77165
L75172 77280
L75172 77365
L75144 77480
L75115 77537
L75058 77594
L74972 77622
L74829 77622
" />
<path d="M75429 77565
L75458 77594
L75429 77622
L75401 77594
L75429 77565
L75429 77622
" />
<path d="M75687 77451
L75972 77451
" />
<path d="M75629 77622
L75829 77022
L76029 77622
" />
<path d="M76229 77565
L76258 77594
L76229 77622
L76201 77594
L76229 77565
L76229 77622
" />
<path d="M104522 76422
L104358 76137
" />
<path d="M104180 76422
L104255 75822
L104483 75822
L104537 75851
L104562 75880
L104583 75937
L104572 76022
L104537 76080
L104505 76108
L104444 76137
L104215 76137
" />
<path d="M105012 76394
L104951 76422
L104837 76422
L104783 76394
L104762 76337
L104790 76108
L104826 76051
L104887 76022
L105001 76022
L105055 76051
L105076 76108
L105069 76165
L104776 76222
" />
<path d="M105287 76022
L105380 76422
L105572 76022
" />
<path d="M105758 76365
L105783 76394
L105751 76422
L105726 76394
L105758 76365
L105751 76422
" />
<path d="M105797 76051
L105822 76080
L105790 76108
L105765 76080
L105797 76051
L105790 76108
" />
<path d="M106808 76422
L106465 76422
" />
<path d="M106637 76422
L106712 75822
L106644 75908
L106580 75965
L106519 75994
" />
<path d="M107094 76422
L107208 76422
L107269 76394
L107301 76365
L107369 76280
L107412 76165
L107440 75937
L107419 75880
L107394 75851
L107340 75822
L107226 75822
L107165 75851
L107133 75880
L107097 75937
L107080 76080
L107101 76137
L107126 76165
L107180 76194
L107294 76194
L107355 76165
L107387 76137
L107422 76080
" />
<path d="M107826 75822
L107883 75822
L107937 75851
L107962 75880
L107983 75937
L107997 76051
L107980 76194
L107937 76308
L107901 76365
L107869 76394
L107808 76422
L107751 76422
L107697 76394
L107672 76365
L107651 76308
L107637 76194
L107655 76051
L107697 75937
L107733 75880
L107765 75851
L107826 75822
" />
<path d="M108247 75880
L108280 75851
L108340 75822
L108483 75822
L108537 75851
L108562 75880
L108583 75937
L108576 75994
L108537 76080
L108151 76422
L108522 76422
" />
<path d="M108969 75822
L109026 75822
L109080 75851
L109105 75880
L109126 75937
L109140 76051
L109122 76194
L109080 76308
L109044 76365
L109012 76394
L108951 76422
L108894 76422
L108840 76394
L108815 76365
L108794 76308
L108780 76194
L108797 76051
L108840 75937
L108876 75880
L108908 75851
L108969 75822
" />
<path d="M109369 75822
L109740 75822
L109512 76051
L109597 76051
L109651 76080
L109676 76108
L109697 76165
L109680 76308
L109644 76365
L109612 76394
L109551 76422
L109380 76422
L109326 76394
L109301 76365
" />
<path d="M70944 76394
L71030 76422
L71172 76422
L71230 76394
L71258 76365
L71287 76308
L71287 76251
L71258 76194
L71230 76165
L71172 76137
L71058 76108
L71001 76080
L70972 76051
L70944 75994
L70944 75937
L70972 75880
L71001 75851
L71058 75822
L71201 75822
L71287 75851
" />
<path d="M71544 76422
L71544 76022
" />
<path d="M71544 75822
L71515 75851
L71544 75880
L71572 75851
L71544 75822
L71544 75880
" />
<path d="M71772 76022
L72087 76022
L71772 76422
L72087 76422
" />
<path d="M72544 76394
L72487 76422
L72372 76422
L72315 76394
L72287 76337
L72287 76108
L72315 76051
L72372 76022
L72487 76022
L72544 76051
L72572 76108
L72572 76165
L72287 76222
" />
<path d="M72830 76365
L72858 76394
L72830 76422
L72801 76394
L72830 76365
L72830 76422
" />
<path d="M72830 76051
L72858 76080
L72830 76108
L72801 76080
L72830 76051
L72830 76108
" />
<path d="M73544 76251
L73830 76251
" />
<path d="M73487 76422
L73687 75822
L73887 76422
" />
<path d="M74344 76022
L74344 76422
" />
<path d="M74201 75794
L74058 76222
L74430 76222
" />
<path d="M104172 77622
L104172 77022
" />
<path d="M104715 77622
L104715 77022
" />
<path d="M104715 77594
L104658 77622
L104544 77622
L104487 77594
L104458 77565
L104430 77508
L104430 77337
L104458 77280
L104487 77251
L104544 77222
L104658 77222
L104715 77251
" />
<path d="M105001 77565
L105030 77594
L105001 77622
L104972 77594
L105001 77565
L105001 77622
" />
<path d="M105001 77251
L105030 77280
L105001 77308
L104972 77280
L105001 77251
L105001 77308
" />
<path d="M106058 77622
L105715 77622
" />
<path d="M105887 77622
L105887 77022
L105829 77108
L105772 77165
L105715 77194
" />
<path d="M106744 76994
L106230 77765
" />
<path d="M107258 77622
L106915 77622
" />
<path d="M107087 77622
L107087 77022
L107029 77108
L106972 77165
L106915 77194
" />
<path d="M70969 74622
L71312 74622
" />
<path d="M71065 75222
L71140 74622
" />
<path d="M71437 75222
L71487 74822
" />
<path d="M71512 74622
L71480 74651
L71505 74680
L71537 74651
L71512 74622
L71505 74680
" />
<path d="M71687 74822
L71915 74822
" />
<path d="M71797 74622
L71733 75137
L71755 75194
L71808 75222
L71865 75222
" />
<path d="M72151 75222
L72097 75194
L72076 75137
L72140 74622
" />
<path d="M72612 75194
L72551 75222
L72437 75222
L72383 75194
L72362 75137
L72390 74908
L72426 74851
L72487 74822
L72601 74822
L72655 74851
L72676 74908
L72669 74965
L72376 75022
" />
<path d="M72901 75165
L72926 75194
L72894 75222
L72869 75194
L72901 75165
L72894 75222
" />
<path d="M72940 74851
L72965 74880
L72933 74908
L72908 74880
L72940 74851
L72933 74908
" />
<path d="M73637 75222
L73712 74622
L73858 75051
L74112 74622
L74037 75222
" />
<path d="M74322 75222
L74397 74622
L74544 75051
L74797 74622
L74722 75222
" />
<path d="M75026 74622
L75397 74622
L75169 74851
L75254 74851
L75308 74880
L75333 74908
L75355 74965
L75337 75108
L75301 75165
L75269 75194
L75208 75222
L75037 75222
L74983 75194
L74958 75165
" />
<path d="M75580 75222
L75655 74622
L75797 74622
L75880 74651
L75930 74708
L75951 74765
L75965 74880
L75955 74965
L75912 75080
L75876 75137
L75812 75194
L75722 75222
L75580 75222
" />
<path d="M76944 74822
L76883 75308
L76847 75365
L76815 75394
L76755 75422
L76669 75422
L76615 75394
" />
<path d="M76897 75194
L76837 75222
L76722 75222
L76669 75194
L76644 75165
L76622 75108
L76644 74937
L76680 74880
L76712 74851
L76772 74822
L76887 74822
L76940 74851
" />
<path d="M77180 75222
L77230 74822
" />
<path d="M77215 74937
L77251 74880
L77283 74851
L77344 74822
L77401 74822
" />
<path d="M77637 75222
L77583 75194
L77558 75165
L77537 75108
L77558 74937
L77594 74880
L77626 74851
L77687 74822
L77772 74822
L77826 74851
L77851 74880
L77872 74937
L77851 75108
L77815 75165
L77783 75194
L77722 75222
L77637 75222
" />
<path d="M78087 74822
L78151 75222
L78301 74937
L78380 75222
L78544 74822
" />
<path d="M78722 75222
L78772 74822
" />
<path d="M78797 74622
L78765 74651
L78790 74680
L78822 74651
L78797 74622
L78790 74680
" />
<path d="M79058 74822
L79008 75222
" />
<path d="M79051 74880
L79083 74851
L79144 74822
L79230 74822
L79283 74851
L79305 74908
L79265 75222
" />
<path d="M79858 74822
L79797 75308
L79762 75365
L79729 75394
L79669 75422
L79583 75422
L79529 75394
" />
<path d="M79812 75194
L79751 75222
L79637 75222
L79583 75194
L79558 75165
L79537 75108
L79558 74937
L79594 74880
L79626 74851
L79687 74822
L79801 74822
L79854 74851
" />
<path d="M80551 75222
L80626 74622
" />
<path d="M80808 75222
L80847 74908
L80826 74851
L80772 74822
L80687 74822
L80626 74851
L80594 74880
" />
<path d="M81179 75222
L81126 75194
L81101 75165
L81080 75108
L81101 74937
L81137 74880
L81169 74851
L81229 74822
L81315 74822
L81369 74851
L81394 74880
L81415 74937
L81394 75108
L81358 75165
L81326 75194
L81265 75222
L81179 75222
" />
<path d="M81944 74822
L81894 75222
" />
<path d="M81687 74822
L81647 75137
L81669 75194
L81722 75222
L81808 75222
L81869 75194
L81901 75165
" />
<path d="M82154 75194
L82208 75222
L82322 75222
L82383 75194
L82419 75137
L82422 75108
L82401 75051
L82347 75022
L82262 75022
L82208 74994
L82187 74937
L82190 74908
L82226 74851
L82287 74822
L82372 74822
L82426 74851
" />
<path d="M82897 75194
L82837 75222
L82722 75222
L82669 75194
L82647 75137
L82676 74908
L82712 74851
L82772 74822
L82887 74822
L82940 74851
L82962 74908
L82954 74965
L82662 75022
" />
<path d="M83897 75194
L83837 75222
L83722 75222
L83669 75194
L83644 75165
L83622 75108
L83644 74937
L83679 74880
L83712 74851
L83772 74822
L83887 74822
L83940 74851
" />
<path d="M84237 75222
L84183 75194
L84158 75165
L84137 75108
L84158 74937
L84194 74880
L84226 74851
L84287 74822
L84372 74822
L84426 74851
L84451 74880
L84472 74937
L84451 75108
L84415 75165
L84383 75194
L84322 75222
L84237 75222
" />
<path d="M84744 74822
L84694 75222
" />
<path d="M84737 74880
L84769 74851
L84829 74822
L84915 74822
L84969 74851
L84990 74908
L84951 75222
" />
<path d="M85201 74822
L85429 74822
" />
<path d="M85312 74622
L85247 75137
L85269 75194
L85322 75222
L85379 75222
" />
<path d="M85579 75222
L85629 74822
" />
<path d="M85615 74937
L85651 74880
L85683 74851
L85744 74822
L85801 74822
" />
<path d="M86037 75222
L85983 75194
L85958 75165
L85937 75108
L85958 74937
L85994 74880
L86026 74851
L86087 74822
L86172 74822
L86226 74851
L86251 74880
L86272 74937
L86251 75108
L86215 75165
L86183 75194
L86122 75222
L86037 75222
" />
<path d="M86579 75222
L86526 75194
L86504 75137
L86569 74622
" />
<path d="M86894 75222
L86840 75194
L86819 75137
L86883 74622
" />
<path d="M87122 75222
L87172 74822
" />
<path d="M87197 74622
L87165 74651
L87190 74680
L87222 74651
L87197 74622
L87190 74680
" />
<path d="M87458 74822
L87408 75222
" />
<path d="M87451 74880
L87483 74851
L87544 74822
L87630 74822
L87683 74851
L87705 74908
L87665 75222
" />
<path d="M88258 74822
L88197 75308
L88162 75365
L88129 75394
L88069 75422
L87983 75422
L87929 75394
" />
<path d="M88212 75194
L88151 75222
L88037 75222
L87983 75194
L87958 75165
L87937 75108
L87958 74937
L87994 74880
L88026 74851
L88087 74822
L88201 74822
L88254 74851
" />
<path d="M89208 75222
L89247 74908
L89226 74851
L89172 74822
L89058 74822
L88997 74851
" />
<path d="M89212 75194
L89151 75222
L89008 75222
L88954 75194
L88933 75137
L88940 75080
L88976 75022
L89037 74994
L89179 74994
L89240 74965
" />
<path d="M89544 74822
L89494 75222
" />
<path d="M89537 74880
L89569 74851
L89629 74822
L89715 74822
L89769 74851
L89790 74908
L89751 75222
" />
<path d="M90294 75222
L90369 74622
" />
<path d="M90297 75194
L90237 75222
L90122 75222
L90069 75194
L90044 75165
L90022 75108
L90044 74937
L90079 74880
L90112 74851
L90172 74822
L90287 74822
L90340 74851
" />
<path d="M91037 75222
L91087 74822
" />
<path d="M91072 74937
L91108 74880
L91140 74851
L91201 74822
L91258 74822
" />
<path d="M91640 75194
L91580 75222
L91465 75222
L91412 75194
L91390 75137
L91419 74908
L91454 74851
L91515 74822
L91630 74822
L91683 74851
L91705 74908
L91697 74965
L91405 75022
" />
<path d="M91922 75222
L91972 74822
" />
<path d="M91965 74880
L91997 74851
L92058 74822
L92144 74822
L92197 74851
L92219 74908
L92180 75222
" />
<path d="M92219 74908
L92254 74851
L92315 74822
L92401 74822
L92454 74851
L92476 74908
L92437 75222
" />
<path d="M92808 75222
L92755 75194
L92730 75165
L92708 75108
L92730 74937
L92765 74880
L92797 74851
L92858 74822
L92944 74822
L92997 74851
L93022 74880
L93044 74937
L93022 75108
L92987 75165
L92955 75194
L92894 75222
L92808 75222
" />
<path d="M93230 74822
L93458 74822
" />
<path d="M93340 74622
L93276 75137
L93297 75194
L93351 75222
L93408 75222
" />
<path d="M93840 75194
L93780 75222
L93665 75222
L93612 75194
L93590 75137
L93619 74908
L93654 74851
L93715 74822
L93830 74822
L93883 74851
L93905 74908
L93897 74965
L93605 75022
" />
<path d="M94580 75222
L94630 74822
" />
<path d="M94622 74880
L94655 74851
L94715 74822
L94801 74822
L94855 74851
L94876 74908
L94837 75222
" />
<path d="M94876 74908
L94912 74851
L94972 74822
L95058 74822
L95112 74851
L95133 74908
L95094 75222
" />
<path d="M95465 75222
L95412 75194
L95387 75165
L95365 75108
L95387 74937
L95422 74880
L95455 74851
L95515 74822
L95601 74822
L95655 74851
L95680 74880
L95701 74937
L95680 75108
L95644 75165
L95612 75194
L95551 75222
L95465 75222
" />
<path d="M95972 74822
L95922 75222
" />
<path d="M95965 74880
L95997 74851
L96058 74822
L96144 74822
L96197 74851
L96219 74908
L96180 75222
" />
<path d="M96465 75222
L96515 74822
" />
<path d="M96540 74622
L96508 74651
L96533 74680
L96565 74651
L96540 74622
L96533 74680
" />
<path d="M96715 74822
L96944 74822
" />
<path d="M96826 74622
L96762 75137
L96783 75194
L96837 75222
L96894 75222
" />
<path d="M97179 75222
L97126 75194
L97101 75165
L97080 75108
L97101 74937
L97137 74880
L97169 74851
L97229 74822
L97315 74822
L97369 74851
L97394 74880
L97415 74937
L97394 75108
L97358 75165
L97326 75194
L97265 75222
L97179 75222
" />
<path d="M97637 75222
L97687 74822
" />
<path d="M97672 74937
L97708 74880
L97740 74851
L97801 74822
L97858 74822
" />
<path d="M98008 75222
L98058 74822
" />
<path d="M98083 74622
L98051 74651
L98076 74680
L98108 74651
L98083 74622
L98076 74680
" />
<path d="M98344 74822
L98294 75222
" />
<path d="M98337 74880
L98369 74851
L98429 74822
L98515 74822
L98569 74851
L98590 74908
L98551 75222
" />
<path d="M99144 74822
L99083 75308
L99047 75365
L99015 75394
L98954 75422
L98869 75422
L98815 75394
" />
<path d="M99097 75194
L99037 75222
L98922 75222
L98869 75194
L98844 75165
L98822 75108
L98844 74937
L98879 74880
L98912 74851
L98972 74822
L99087 74822
L99140 74851
" />
<path d="M99812 75194
L99865 75222
L99979 75222
L100040 75194
L100076 75137
L100080 75108
L100058 75051
L100004 75022
L99919 75022
L99865 74994
L99844 74937
L99847 74908
L99883 74851
L99944 74822
L100029 74822
L100083 74851
" />
<path d="M100315 74822
L100408 75222
" />
<path d="M100601 74822
L100408 75222
L100333 75365
L100301 75394
L100240 75422
" />
<path d="M100754 75194
L100808 75222
L100922 75222
L100983 75194
L101019 75137
L101022 75108
L101001 75051
L100947 75022
L100862 75022
L100808 74994
L100787 74937
L100790 74908
L100826 74851
L100887 74822
L100972 74822
L101026 74851
" />
<path d="M101229 74822
L101458 74822
" />
<path d="M101340 74622
L101276 75137
L101297 75194
L101351 75222
L101408 75222
" />
<path d="M101840 75194
L101779 75222
L101665 75222
L101612 75194
L101590 75137
L101619 74908
L101654 74851
L101715 74822
L101829 74822
L101883 74851
L101904 74908
L101897 74965
L101604 75022
" />
<path d="M102122 75222
L102172 74822
" />
<path d="M102165 74880
L102197 74851
L102258 74822
L102344 74822
L102397 74851
L102419 74908
L102379 75222
" />
<path d="M102419 74908
L102454 74851
L102515 74822
L102601 74822
L102654 74851
L102676 74908
L102637 75222
" />
<path d="M71172 72508
L70972 72508
" />
<path d="M70972 72822
L70972 72222
L71258 72222
" />
<path d="M71487 72822
L71487 72422
" />
<path d="M71487 72222
L71458 72251
L71487 72280
L71515 72251
L71487 72222
L71487 72280
" />
<path d="M71858 72822
L71801 72794
L71772 72737
L71772 72222
" />
<path d="M72315 72794
L72258 72822
L72144 72822
L72087 72794
L72058 72737
L72058 72508
L72087 72451
L72144 72422
L72258 72422
L72315 72451
L72344 72508
L72344 72565
L72058 72622
" />
<path d="M72601 72765
L72630 72794
L72601 72822
L72572 72794
L72601 72765
L72601 72822
" />
<path d="M72601 72451
L72630 72480
L72601 72508
L72572 72480
L72601 72451
L72601 72508
" />
<path d="M73344 72822
L73344 72422
" />
<path d="M73344 72480
L73372 72451
L73430 72422
L73515 72422
L73572 72451
L73601 72508
L73601 72822
" />
<path d="M73601 72508
L73630 72451
L73687 72422
L73772 72422
L73830 72451
L73858 72508
L73858 72822
" />
<path d="M74144 72822
L74144 72422
" />
<path d="M74144 72480
L74172 72451
L74230 72422
L74315 72422
L74372 72451
L74401 72508
L74401 72822
" />
<path d="M74401 72508
L74430 72451
L74487 72422
L74572 72422
L74630 72451
L74658 72508
L74658 72822
" />
<path d="M74887 72222
L75258 72222
L75058 72451
L75144 72451
L75201 72480
L75230 72508
L75258 72565
L75258 72708
L75230 72765
L75201 72794
L75144 72822
L74972 72822
L74915 72794
L74887 72765
" />
<path d="M75772 72822
L75772 72222
" />
<path d="M75772 72794
L75715 72822
L75601 72822
L75544 72794
L75515 72765
L75487 72708
L75487 72537
L75515 72480
L75544 72451
L75601 72422
L75715 72422
L75772 72451
" />
<path d="M75915 72880
L76372 72880
" />
<path d="M76430 72422
L76658 72422
" />
<path d="M76515 72822
L76515 72308
L76544 72251
L76601 72222
L76658 72222
" />
<path d="M76858 72822
L76858 72422
" />
<path d="M76858 72537
L76887 72480
L76915 72451
L76972 72422
L77030 72422
" />
<path d="M77315 72822
L77258 72794
L77230 72765
L77201 72708
L77201 72537
L77230 72480
L77258 72451
L77315 72422
L77401 72422
L77458 72451
L77487 72480
L77515 72537
L77515 72708
L77487 72765
L77458 72794
L77401 72822
L77315 72822
" />
<path d="M77772 72422
L77772 72822
" />
<path d="M77772 72480
L77801 72451
L77858 72422
L77944 72422
L78001 72451
L78030 72508
L78030 72822
" />
<path d="M78230 72422
L78458 72422
" />
<path d="M78315 72222
L78315 72737
L78344 72794
L78401 72822
L78458 72822
" />
<path d="M78658 72765
L78687 72794
L78658 72822
L78630 72794
L78658 72765
L78658 72822
" />
<path d="M78944 72822
L78944 72222
" />
<path d="M79001 72594
L79172 72822
" />
<path d="M79172 72422
L78944 72651
" />
<path d="M79430 72822
L79430 72422
" />
<path d="M79430 72222
L79401 72251
L79430 72280
L79458 72251
L79430 72222
L79430 72280
" />
<path d="M79972 72794
L79915 72822
L79801 72822
L79744 72794
L79715 72765
L79687 72708
L79687 72537
L79715 72480
L79744 72451
L79801 72422
L79915 72422
L79972 72451
" />
<path d="M80487 72822
L80487 72508
L80458 72451
L80401 72422
L80287 72422
L80230 72451
" />
<path d="M80487 72794
L80430 72822
L80287 72822
L80230 72794
L80201 72737
L80201 72680
L80230 72622
L80287 72594
L80430 72594
L80487 72565
" />
<path d="M81030 72822
L81030 72222
" />
<path d="M81030 72794
L80972 72822
L80858 72822
L80801 72794
L80772 72765
L80744 72708
L80744 72537
L80772 72480
L80801 72451
L80858 72422
L80972 72422
L81030 72451
" />
<path d="M81172 72880
L81630 72880
" />
<path d="M81772 72422
L81772 73022
" />
<path d="M81772 72451
L81830 72422
L81944 72422
L82001 72451
L82030 72480
L82058 72537
L82058 72708
L82030 72765
L82001 72794
L81944 72822
L81830 72822
L81772 72794
" />
<path d="M82572 72794
L82515 72822
L82401 72822
L82344 72794
L82315 72765
L82287 72708
L82287 72537
L82315 72480
L82344 72451
L82401 72422
L82515 72422
L82572 72451
" />
<path d="M82830 72822
L82830 72222
" />
<path d="M82830 72451
L82887 72422
L83001 72422
L83058 72451
L83087 72480
L83115 72537
L83115 72708
L83087 72765
L83058 72794
L83001 72822
L82887 72822
L82830 72794
" />
<path d="M70944 73994
L71030 74022
L71172 74022
L71230 73994
L71258 73965
L71287 73908
L71287 73851
L71258 73794
L71230 73765
L71172 73737
L71058 73708
L71001 73680
L70972 73651
L70944 73594
L70944 73537
L70972 73480
L71001 73451
L71058 73422
L71201 73422
L71287 73451
" />
<path d="M71544 74022
L71544 73422
" />
<path d="M71801 74022
L71801 73708
L71772 73651
L71715 73622
L71630 73622
L71572 73651
L71544 73680
" />
<path d="M72315 73994
L72258 74022
L72144 74022
L72087 73994
L72058 73937
L72058 73708
L72087 73651
L72144 73622
L72258 73622
L72315 73651
L72344 73708
L72344 73765
L72058 73822
" />
<path d="M72830 73994
L72772 74022
L72658 74022
L72601 73994
L72572 73937
L72572 73708
L72601 73651
L72658 73622
L72772 73622
L72830 73651
L72858 73708
L72858 73765
L72572 73822
" />
<path d="M73030 73622
L73258 73622
" />
<path d="M73115 73422
L73115 73937
L73144 73994
L73201 74022
L73258 74022
" />
<path d="M73458 73965
L73487 73994
L73458 74022
L73430 73994
L73458 73965
L73458 74022
" />
<path d="M73458 73651
L73487 73680
L73458 73708
L73430 73680
L73458 73651
L73458 73708
" />
<path d="M70980 71622
L71055 71022
L71283 71022
L71337 71051
L71362 71080
L71383 71137
L71372 71222
L71337 71280
L71305 71308
L71244 71337
L71015 71337
" />
<path d="M71665 71622
L71612 71594
L71587 71565
L71565 71508
L71587 71337
L71622 71280
L71655 71251
L71715 71222
L71801 71222
L71855 71251
L71880 71280
L71901 71337
L71880 71508
L71844 71565
L71812 71594
L71751 71622
L71665 71622
" />
<path d="M72115 71222
L72430 71222
L72065 71622
L72380 71622
" />
<path d="M72583 71594
L72637 71622
L72751 71622
L72812 71594
L72847 71537
L72851 71508
L72829 71451
L72776 71422
L72690 71422
L72637 71394
L72615 71337
L72619 71308
L72654 71251
L72715 71222
L72801 71222
L72854 71251
" />
<path d="M73351 71622
L73390 71308
L73369 71251
L73315 71222
L73201 71222
L73140 71251
" />
<path d="M73354 71594
L73294 71622
L73151 71622
L73097 71594
L73076 71537
L73083 71480
L73119 71422
L73179 71394
L73322 71394
L73383 71365
" />
<path d="M73637 71622
L73687 71222
" />
<path d="M73672 71337
L73708 71280
L73740 71251
L73801 71222
L73858 71222
" />
<path d="M74483 71022
L74883 71022
L74408 71622
L74808 71622
" />
<path d="M75012 71594
L75065 71622
L75180 71622
L75240 71594
L75276 71537
L75280 71508
L75258 71451
L75205 71422
L75119 71422
L75065 71394
L75044 71337
L75047 71308
L75083 71251
L75144 71222
L75230 71222
L75283 71251
" />
<path d="M75608 71622
L75555 71594
L75530 71565
L75508 71508
L75530 71337
L75565 71280
L75597 71251
L75658 71222
L75744 71222
L75797 71251
L75822 71280
L75844 71337
L75822 71508
L75787 71565
L75755 71594
L75694 71622
L75608 71622
" />
<path d="M76151 71622
L76097 71594
L76076 71537
L76140 71022
" />
<path d="M76344 71222
L76572 71222
" />
<path d="M76455 71022
L76390 71537
L76412 71594
L76465 71622
L76522 71622
" />
<path d="M71172 70108
L70972 70108
" />
<path d="M70972 70422
L70972 69822
L71258 69822
" />
<path d="M71487 70422
L71487 70022
" />
<path d="M71487 70137
L71515 70080
L71544 70051
L71601 70022
L71658 70022
" />
<path d="M71944 70422
L71887 70394
L71858 70365
L71830 70308
L71830 70137
L71858 70080
L71887 70051
L71944 70022
L72030 70022
L72087 70051
L72115 70080
L72144 70137
L72144 70308
L72115 70365
L72087 70394
L72030 70422
L71944 70422
" />
<path d="M72401 70022
L72401 70422
" />
<path d="M72401 70080
L72430 70051
L72487 70022
L72572 70022
L72630 70051
L72658 70108
L72658 70422
" />
<path d="M72858 70022
L73087 70022
" />
<path d="M72944 69822
L72944 70337
L72972 70394
L73030 70422
L73087 70422
" />
<path d="M73744 70022
L73744 70622
" />
<path d="M73744 70051
L73801 70022
L73915 70022
L73972 70051
L74001 70080
L74030 70137
L74030 70308
L74001 70365
L73972 70394
L73915 70422
L73801 70422
L73744 70394
" />
<path d="M74544 70422
L74544 70108
L74515 70051
L74458 70022
L74344 70022
L74287 70051
" />
<path d="M74544 70394
L74487 70422
L74344 70422
L74287 70394
L74258 70337
L74258 70280
L74287 70222
L74344 70194
L74487 70194
L74544 70165
" />
<path d="M74830 70022
L74830 70422
" />
<path d="M74830 70080
L74858 70051
L74915 70022
L75001 70022
L75058 70051
L75087 70108
L75087 70422
" />
<path d="M75601 70394
L75544 70422
L75430 70422
L75372 70394
L75344 70337
L75344 70108
L75372 70051
L75430 70022
L75544 70022
L75601 70051
L75630 70108
L75630 70165
L75344 70222
" />
<path d="M75972 70422
L75915 70394
L75887 70337
L75887 69822
" />
<path d="M70230 69580
L70230 77980
" />
<path d="M70230 71980
L112230 71980
" />
<path d="M70230 69580
L112230 69580
" />
<path d="M70230 74380
L112230 74380
" />
<path d="M103430 75580
L103430 77980
" />
<path d="M70230 76780
L112230 76780
" />
<path d="M70230 75580
L112230 75580
" />
<path d="M76830 75580
L76830 76780
" />
</g>
<g style="fill:#000000; fill-opacity:0.0; 
stroke:#000000; stroke-width:118.11; stroke-opacity:1; 
stroke-linecap:round; stroke-linejoin:round;">
<path d="M81039 40214
L81067 40185
L81123 40101
L81151 40045
L81179 39960
L81208 39820
L81208 39707
L81179 39567
L81151 39482
L81123 39426
L81067 39342
L81039 39314
" />
<path d="M80476 39932
L80505 39960
L80589 39989
L80645 39989
L80730 39960
L80786 39904
L80814 39848
L80842 39735
L80842 39651
L80814 39539
L80786 39482
L80730 39426
L80645 39398
L80589 39398
L80505 39426
L80476 39454
" />
<path d="M80280 40214
L80251 40185
L80195 40101
L80167 40045
L80139 39960
L80111 39820
L80111 39707
L80139 39567
L80167 39482
L80195 39426
L80251 39342
L80280 39314
" />
<path d="M79408 39454
L79380 39426
L79323 39398
L79183 39398
L79127 39426
L79098 39454
L79070 39510
L79070 39567
L79098 39651
L79436 39989
L79070 39989
" />
<path d="M78705 39398
L78649 39398
L78592 39426
L78564 39454
L78536 39510
L78508 39623
L78508 39764
L78536 39876
L78564 39932
L78592 39960
L78649 39989
L78705 39989
L78761 39960
L78789 39932
L78817 39876
L78845 39764
L78845 39623
L78817 39510
L78789 39454
L78761 39426
L78705 39398
" />
<path d="M77946 39989
L78283 39989
" />
<path d="M78114 39989
L78114 39398
L78170 39482
L78227 39539
L78283 39567
" />
<path d="M77608 39651
L77664 39623
L77692 39595
L77721 39539
L77721 39510
L77692 39454
L77664 39426
L77608 39398
L77496 39398
L77439 39426
L77411 39454
L77383 39510
L77383 39539
L77411 39595
L77439 39623
L77496 39651
L77608 39651
L77664 39679
L77692 39707
L77721 39764
L77721 39876
L77692 39932
L77664 39960
L77608 39989
L77496 39989
L77439 39960
L77411 39932
L77383 39876
L77383 39764
L77411 39707
L77439 39679
L77496 39651
" />
<path d="M77130 39764
L76680 39764
" />
<path d="M76427 39454
L76399 39426
L76343 39398
L76202 39398
L76146 39426
L76118 39454
L76089 39510
L76089 39567
L76118 39651
L76455 39989
L76089 39989
" />
<path d="M75724 39398
L75668 39398
L75611 39426
L75583 39454
L75555 39510
L75527 39623
L75527 39764
L75555 39876
L75583 39932
L75611 39960
L75668 39989
L75724 39989
L75780 39960
L75808 39932
L75836 39876
L75865 39764
L75865 39623
L75836 39510
L75808 39454
L75780 39426
L75724 39398
" />
<path d="M74965 39989
L75302 39989
" />
<path d="M75133 39989
L75133 39398
L75190 39482
L75246 39539
L75302 39567
" />
<path d="M74683 39989
L74571 39989
L74515 39960
L74487 39932
L74430 39848
L74402 39735
L74402 39510
L74430 39454
L74458 39426
L74515 39398
L74627 39398
L74683 39426
L74712 39454
L74740 39510
L74740 39651
L74712 39707
L74683 39735
L74627 39764
L74515 39764
L74458 39735
L74430 39707
L74402 39651
" />
<path d="M73699 39989
L73699 39398
L73474 39398
L73418 39426
L73390 39454
L73362 39510
L73362 39595
L73390 39651
L73418 39679
L73474 39707
L73699 39707
" />
<path d="M73024 39989
L73080 39960
L73109 39932
L73137 39876
L73137 39707
L73109 39651
L73080 39623
L73024 39595
L72940 39595
L72884 39623
L72856 39651
L72827 39707
L72827 39876
L72856 39932
L72884 39960
L72940 39989
L73024 39989
" />
<path d="M72631 39595
L72321 39595
L72631 39989
L72321 39989
" />
<path d="M72124 39960
L72068 39989
L71956 39989
L71899 39960
L71871 39904
L71871 39876
L71899 39820
L71956 39792
L72040 39792
L72096 39764
L72124 39707
L72124 39679
L72096 39623
L72040 39595
L71956 39595
L71899 39623
" />
<path d="M71365 39989
L71365 39679
L71393 39623
L71449 39595
L71562 39595
L71618 39623
" />
<path d="M71365 39960
L71421 39989
L71562 39989
L71618 39960
L71646 39904
L71646 39848
L71618 39792
L71562 39764
L71421 39764
L71365 39735
" />
<path d="M71449 39370
L71534 39454
" />
<path d="M71084 39989
L71084 39595
" />
<path d="M71084 39707
L71056 39651
L71028 39623
L70971 39595
L70915 39595
" />
<path d="M70325 39398
L69931 39398
L70325 39989
L69931 39989
" />
<path d="M69734 39960
L69678 39989
L69565 39989
L69509 39960
L69481 39904
L69481 39876
L69509 39820
L69565 39792
L69650 39792
L69706 39764
L69734 39707
L69734 39679
L69706 39623
L69650 39595
L69565 39595
L69509 39623
" />
<path d="M69143 39989
L69200 39960
L69228 39932
L69256 39876
L69256 39707
L69228 39651
L69200 39623
L69143 39595
L69059 39595
L69003 39623
L68975 39651
L68947 39707
L68947 39876
L68975 39932
L69003 39960
L69059 39989
L69143 39989
" />
<path d="M68609 39989
L68665 39960
L68694 39904
L68694 39398
" />
<path d="M68469 39595
L68244 39595
" />
<path d="M68384 39398
L68384 39904
L68356 39960
L68300 39989
L68244 39989
" />
<path d="M67259 39932
L67287 39960
L67372 39989
L67428 39989
L67512 39960
L67569 39904
L67597 39848
L67625 39735
L67625 39651
L67597 39539
L67569 39482
L67512 39426
L67428 39398
L67372 39398
L67287 39426
L67259 39454
" />
<path d="M66669 39932
L66697 39960
L66781 39989
L66838 39989
L66922 39960
L66978 39904
L67006 39848
L67034 39735
L67034 39651
L67006 39539
L66978 39482
L66922 39426
L66838 39398
L66781 39398
L66697 39426
L66669 39454
" />
<path d="M66416 39764
L65966 39764
" />
<path d="M65488 39679
L65403 39707
L65375 39735
L65347 39792
L65347 39876
L65375 39932
L65403 39960
L65460 39989
L65685 39989
L65685 39398
L65488 39398
L65431 39426
L65403 39454
L65375 39510
L65375 39567
L65403 39623
L65431 39651
L65488 39679
L65685 39679
" />
<path d="M64982 39707
L64982 39989
" />
<path d="M65178 39398
L64982 39707
L64785 39398
" />
<path d="M64588 39764
L64138 39764
" />
<path d="M63857 39989
L63857 39398
L63519 39989
L63519 39398
" />
<path d="M62901 39932
L62929 39960
L63013 39989
L63069 39989
L63154 39960
L63210 39904
L63238 39848
L63266 39735
L63266 39651
L63238 39539
L63210 39482
L63154 39426
L63069 39398
L63013 39398
L62929 39426
L62901 39454
" />
<path d="M62647 39764
L62197 39764
" />
<path d="M61663 39595
L61663 39989
" />
<path d="M61804 39370
L61944 39792
L61579 39792
" />
<path d="M61354 39932
L61326 39960
L61354 39989
L61382 39960
L61354 39932
L61354 39989
" />
<path d="M60960 39398
L60904 39398
L60848 39426
L60820 39454
L60791 39510
L60763 39623
L60763 39764
L60791 39876
L60820 39932
L60848 39960
L60904 39989
L60960 39989
L61016 39960
L61044 39932
L61073 39876
L61101 39764
L61101 39623
L61073 39510
L61044 39454
L61016 39426
L60960 39398
" />
<path d="M77453 41489
L77453 40898
" />
<path d="M77200 41489
L77200 41179
L77228 41123
L77285 41095
L77369 41095
L77425 41123
L77453 41151
" />
<path d="M77003 41095
L76778 41095
" />
<path d="M76919 40898
L76919 41404
L76891 41460
L76835 41489
L76778 41489
" />
<path d="M76666 41095
L76441 41095
" />
<path d="M76582 40898
L76582 41404
L76553 41460
L76497 41489
L76441 41489
" />
<path d="M76244 41095
L76244 41685
" />
<path d="M76244 41123
L76188 41095
L76075 41095
L76019 41123
L75991 41151
L75963 41207
L75963 41376
L75991 41432
L76019 41460
L76075 41489
L76188 41489
L76244 41460
" />
<path d="M75710 41432
L75682 41460
L75710 41489
L75738 41460
L75710 41432
L75710 41489
" />
<path d="M75710 41123
L75682 41151
L75710 41179
L75738 41151
L75710 41123
L75710 41179
" />
<path d="M75007 40870
L75513 41629
" />
<path d="M74388 40870
L74894 41629
" />
<path d="M74248 41095
L74135 41489
L74023 41207
L73910 41489
L73798 41095
" />
<path d="M73629 41095
L73516 41489
L73404 41207
L73291 41489
L73179 41095
" />
<path d="M73010 41095
L72898 41489
L72785 41207
L72673 41489
L72560 41095
" />
<path d="M72335 41432
L72307 41460
L72335 41489
L72363 41460
L72335 41432
L72335 41489
" />
<path d="M72082 41460
L72026 41489
L71913 41489
L71857 41460
L71829 41404
L71829 41376
L71857 41320
L71913 41292
L71998 41292
L72054 41264
L72082 41207
L72082 41179
L72054 41123
L71998 41095
L71913 41095
L71857 41123
" />
<path d="M71632 41095
L71323 41095
L71632 41489
L71323 41489
" />
<path d="M70873 41460
L70929 41489
L71042 41489
L71098 41460
L71126 41404
L71126 41179
L71098 41123
L71042 41095
L70929 41095
L70873 41123
L70845 41179
L70845 41235
L71126 41292
" />
<path d="M70592 41489
L70592 41095
" />
<path d="M70592 41207
L70564 41151
L70535 41123
L70479 41095
L70423 41095
" />
<path d="M69973 41489
L69973 41179
L70001 41123
L70057 41095
L70170 41095
L70226 41123
" />
<path d="M69973 41460
L70029 41489
L70170 41489
L70226 41460
L70254 41404
L70254 41348
L70226 41292
L70170 41264
L70029 41264
L69973 41235
" />
<path d="M69776 41095
L69551 41095
" />
<path d="M69692 41489
L69692 40982
L69664 40926
L69607 40898
L69551 40898
" />
<path d="M69354 41489
L69354 41095
" />
<path d="M69354 40898
L69383 40926
L69354 40954
L69326 40926
L69354 40898
L69354 40954
" />
<path d="M69073 41095
L69073 41489
" />
<path d="M69073 41151
L69045 41123
L68989 41095
L68904 41095
L68848 41123
L68820 41179
L68820 41489
" />
<path d="M68286 41095
L68286 41573
L68314 41629
L68342 41657
L68398 41685
L68483 41685
L68539 41657
" />
<path d="M68286 41460
L68342 41489
L68455 41489
L68511 41460
L68539 41432
L68567 41376
L68567 41207
L68539 41151
L68511 41123
L68455 41095
L68342 41095
L68286 41123
" />
<path d="M67920 41489
L67976 41460
L68005 41432
L68033 41376
L68033 41207
L68005 41151
L67976 41123
L67920 41095
L67836 41095
L67780 41123
L67751 41151
L67723 41207
L67723 41376
L67751 41432
L67780 41460
L67836 41489
L67920 41489
" />
<path d="M67470 41489
L67470 41095
" />
<path d="M67470 41151
L67442 41123
L67386 41095
L67302 41095
L67245 41123
L67217 41179
L67217 41489
" />
<path d="M67217 41179
L67189 41123
L67133 41095
L67048 41095
L66992 41123
L66964 41179
L66964 41489
" />
<path d="M66683 41489
L66683 40898
" />
<path d="M66683 41123
L66627 41095
L66514 41095
L66458 41123
L66430 41151
L66402 41207
L66402 41376
L66430 41432
L66458 41460
L66514 41489
L66627 41489
L66683 41460
" />
<path d="M65895 41489
L65895 41179
L65924 41123
L65980 41095
L66092 41095
L66149 41123
" />
<path d="M65895 41460
L65952 41489
L66092 41489
L66149 41460
L66177 41404
L66177 41348
L66149 41292
L66092 41264
L65952 41264
L65895 41235
" />
<path d="M65614 41432
L65586 41460
L65614 41489
L65642 41460
L65614 41432
L65614 41489
" />
<path d="M65333 41489
L65333 40898
" />
<path d="M65080 41489
L65080 41179
L65108 41123
L65164 41095
L65249 41095
L65305 41123
L65333 41151
" />
<path d="M64546 41095
L64546 41489
" />
<path d="M64799 41095
L64799 41404
L64771 41460
L64714 41489
L64630 41489
L64574 41460
L64546 41432
" />
<path d="M46961 58489
L46961 57898
L46764 58320
L46568 57898
L46568 58489
" />
<path d="M46286 58489
L46286 57898
L46089 58320
L45893 57898
L45893 58489
" />
<path d="M45668 57898
L45302 57898
L45499 58123
L45415 58123
L45358 58151
L45330 58179
L45302 58235
L45302 58376
L45330 58432
L45358 58460
L45415 58489
L45583 58489
L45640 58460
L45668 58432
" />
<path d="M45049 58489
L45049 57898
L44908 57898
L44824 57926
L44768 57982
L44740 58039
L44712 58151
L44712 58235
L44740 58348
L44768 58404
L44824 58460
L44908 58489
L45049 58489
" />
<path d="M44093 58095
L43868 58095
" />
<path d="M44008 58489
L44008 57982
L43980 57926
L43924 57898
L43868 57898
" />
<path d="M43671 58489
L43671 58095
" />
<path d="M43671 58207
L43643 58151
L43615 58123
L43559 58095
L43502 58095
" />
<path d="M43221 58489
L43277 58460
L43305 58432
L43334 58376
L43334 58207
L43305 58151
L43277 58123
L43221 58095
L43137 58095
L43080 58123
L43052 58151
L43024 58207
L43024 58376
L43052 58432
L43080 58460
L43137 58489
L43221 58489
" />
<path d="M42771 58095
L42771 58489
" />
<path d="M42771 58151
L42743 58123
L42687 58095
L42602 58095
L42546 58123
L42518 58179
L42518 58489
" />
<path d="M42321 58095
L42096 58095
" />
<path d="M42237 57898
L42237 58404
L42209 58460
L42152 58489
L42096 58489
" />
<path d="M41449 58095
L41449 58685
" />
<path d="M41449 58123
L41393 58095
L41281 58095
L41224 58123
L41196 58151
L41168 58207
L41168 58376
L41196 58432
L41224 58460
L41281 58489
L41393 58489
L41449 58460
" />
<path d="M40662 58489
L40662 58179
L40690 58123
L40746 58095
L40859 58095
L40915 58123
" />
<path d="M40662 58460
L40718 58489
L40859 58489
L40915 58460
L40943 58404
L40943 58348
L40915 58292
L40859 58264
L40718 58264
L40662 58235
" />
<path d="M40381 58095
L40381 58489
" />
<path d="M40381 58151
L40353 58123
L40296 58095
L40212 58095
L40156 58123
L40128 58179
L40128 58489
" />
<path d="M39622 58460
L39678 58489
L39790 58489
L39847 58460
L39875 58404
L39875 58179
L39847 58123
L39790 58095
L39678 58095
L39622 58123
L39593 58179
L39593 58235
L39875 58292
" />
<path d="M39256 58489
L39312 58460
L39340 58404
L39340 57898
" />
<path d="M38637 58095
L38497 58489
L38356 58095
" />
<path d="M37822 58489
L38159 58489
" />
<path d="M37991 58489
L37991 57898
L38047 57982
L38103 58039
L38159 58067
" />
<path d="M37541 58489
L37428 58489
L37372 58460
L37344 58432
L37287 58348
L37259 58235
L37259 58010
L37287 57954
L37316 57926
L37372 57898
L37484 57898
L37541 57926
L37569 57954
L37597 58010
L37597 58151
L37569 58207
L37541 58235
L37484 58264
L37372 58264
L37316 58235
L37287 58207
L37259 58151
" />
<path d="M36894 57898
L36838 57898
L36781 57926
L36753 57954
L36725 58010
L36697 58123
L36697 58264
L36725 58376
L36753 58432
L36781 58460
L36838 58489
L36894 58489
L36950 58460
L36978 58432
L37006 58376
L37034 58264
L37034 58123
L37006 58010
L36978 57954
L36950 57926
L36894 57898
" />
<path d="M36472 57954
L36444 57926
L36388 57898
L36247 57898
L36191 57926
L36163 57954
L36134 58010
L36134 58067
L36163 58151
L36500 58489
L36134 58489
" />
<path d="M35769 57898
L35713 57898
L35656 57926
L35628 57954
L35600 58010
L35572 58123
L35572 58264
L35600 58376
L35628 58432
L35656 58460
L35713 58489
L35769 58489
L35825 58460
L35853 58432
L35881 58376
L35910 58264
L35910 58123
L35881 58010
L35853 57954
L35825 57926
L35769 57898
" />
<path d="M35375 57898
L35010 57898
L35206 58123
L35122 58123
L35066 58151
L35038 58179
L35010 58235
L35010 58376
L35038 58432
L35066 58460
L35122 58489
L35291 58489
L35347 58460
L35375 58432
" />
</g>
<g style="fill:#000000; fill-opacity:0.0; 
stroke:#000000; stroke-width:39.3701; stroke-opacity:1; 
stroke-linecap:round; stroke-linejoin:round;">
<path d="M25500 48500
L31500 48500
" />
<path d="M25500 32500
L25500 48500
" />
<path d="M31500 32500
L25500 32500
" />
<path d="M31500 60500
L31500 48500
" />
<path d="M76000 60500
L31500 60500
" />
<path d="M76000 53500
L76000 60500
" />
<path d="M84000 53500
L76000 53500
" />
<path d="M84000 17500
L84000 53500
" />
<path d="M31500 17500
L84000 17500
" />
<path d="M31500 32500
L31500 17500
" />
</g>
<g style="fill:#000000; fill-opacity:1.0; 
stroke:#000000; stroke-width:39.3701; stroke-opacity:1; 
stroke-linecap:round; stroke-linejoin:round;">
<circle cx="34000" cy="26500" r="330.315" /> 
<circle cx="34000" cy="20500" r="330.315" /> 
<circle cx="36000" cy="26500" r="330.315" /> 
<circle cx="36000" cy="20500" r="330.315" /> 
<circle cx="47000" cy="46500" r="330.315" /> 
<circle cx="53000" cy="46500" r="330.315" /> 
<circle cx="47000" cy="44500" r="330.315" /> 
<circle cx="53000" cy="44500" r="330.315" /> 
<circle cx="47000" cy="48500" r="330.315" /> 
<circle cx="53000" cy="48500" r="330.315" /> 
<circle cx="47000" cy="50500" r="330.315" /> 
<circle cx="53000" cy="50500" r="330.315" /> 
<circle cx="74000" cy="56500" r="310.315" /> 
<circle cx="73000" cy="56500" r="310.315" /> 
<circle cx="47000" cy="38500" r="330.315" /> 
<circle cx="53000" cy="38500" r="330.315" /> 
<circle cx="47000" cy="36500" r="330.315" /> 
<circle cx="53000" cy="36500" r="330.315" /> 
<circle cx="47000" cy="32500" r="330.315" /> 
<circle cx="53000" cy="32500" r="330.315" /> 
<circle cx="47000" cy="34500" r="330.315" /> 
<circle cx="53000" cy="34500" r="330.315" /> 
<circle cx="58000" cy="20500" r="310.315" /> 
<circle cx="57000" cy="20500" r="310.315" /> 
<circle cx="66000" cy="20500" r="310.315" /> 
<circle cx="65000" cy="20500" r="310.315" /> 
<circle cx="74000" cy="20500" r="310.315" /> 
<circle cx="73000" cy="20500" r="310.315" /> 
<circle cx="82000" cy="20500" r="310.315" /> 
<circle cx="81000" cy="20500" r="310.315" /> 
<circle cx="82000" cy="32500" r="310.315" /> 
<circle cx="81000" cy="32500" r="310.315" /> 
<circle cx="74000" cy="32500" r="310.315" /> 
<circle cx="73000" cy="32500" r="310.315" /> 
<circle cx="66000" cy="32500" r="310.315" /> 
<circle cx="65000" cy="32500" r="310.315" /> 
<circle cx="58000" cy="32500" r="310.315" /> 
<circle cx="57000" cy="32500" r="310.315" /> 
<circle cx="39000" cy="22500" r="330.315" /> 
<circle cx="45000" cy="22500" r="330.315" /> 
<circle cx="47000" cy="22500" r="330.315" /> 
<circle cx="53000" cy="22500" r="330.315" /> 
<circle cx="47000" cy="20500" r="330.315" /> 
<circle cx="53000" cy="20500" r="330.315" /> 
<circle cx="39000" cy="20500" r="330.315" /> 
<circle cx="45000" cy="20500" r="330.315" /> 
<circle cx="39000" cy="24500" r="330.315" /> 
<circle cx="45000" cy="24500" r="330.315" /> 
<circle cx="47000" cy="24500" r="330.315" /> 
<circle cx="53000" cy="24500" r="330.315" /> 
<circle cx="28500" cy="36500" r="310.315" /> 
<circle cx="27500" cy="36500" r="310.315" /> 
<circle cx="28500" cy="44500" r="310.315" /> 
<circle cx="27500" cy="44500" r="310.315" /> 
<circle cx="58000" cy="44500" r="310.315" /> 
<circle cx="57000" cy="44500" r="310.315" /> 
<circle cx="47000" cy="26500" r="330.315" /> 
<circle cx="53000" cy="26500" r="330.315" /> 
<circle cx="39000" cy="26500" r="330.315" /> 
<circle cx="45000" cy="26500" r="330.315" /> 
<circle cx="66000" cy="44500" r="310.315" /> 
<circle cx="65000" cy="44500" r="310.315" /> 
<circle cx="74000" cy="44500" r="310.315" /> 
<circle cx="73000" cy="44500" r="310.315" /> 
<circle cx="82000" cy="44500" r="310.315" /> 
<circle cx="81000" cy="44500" r="310.315" /> 
<polyline style="fill-rule:evenodd;"
points="34744,56755
34744,56244
35255,56244
35255,56755
34744,56755
" /> 
<circle cx="36000" cy="56500" r="255.315" /> 
<circle cx="37000" cy="56500" r="255.315" /> 
<circle cx="38000" cy="56500" r="255.315" /> 
<circle cx="39000" cy="56500" r="255.315" /> 
<circle cx="40000" cy="56500" r="255.315" /> 
<circle cx="41000" cy="56500" r="255.315" /> 
<circle cx="42000" cy="56500" r="255.315" /> 
<circle cx="43000" cy="56500" r="255.315" /> 
<circle cx="44000" cy="56500" r="255.315" /> 
<circle cx="45000" cy="56500" r="255.315" /> 
<circle cx="46000" cy="56500" r="255.315" /> 
<circle cx="47000" cy="56500" r="255.315" /> 
<polyline style="fill-rule:evenodd;"
points="64744,56755
64744,56244
65255,56244
65255,56755
64744,56755
" /> 
<circle cx="66000" cy="56500" r="255.315" /> 
<circle cx="67000" cy="56500" r="255.315" /> 
<circle cx="68000" cy="56500" r="255.315" /> 
<circle cx="68000" cy="54000" r="330.315" /> 
<circle cx="74000" cy="54000" r="330.315" /> 
</g>
<g style="fill:#000000; fill-opacity:1.0; 
stroke:#000000; stroke-width:393.701; stroke-opacity:1; 
stroke-linecap:round; stroke-linejoin:round;">
<path d="M68000 54000
L68000 56500
" />
<path d="M74000 54000
L74000 56500
" />
<path d="M83000 50500
L83000 51000
" />
<path d="M82000 29500
L83000 30500
" />
<path d="M83000 30500
L83000 50500
" />
<path d="M82000 20500
L82000 29500
" />
<path d="M67000 53000
L67000 56500
" />
<path d="M67500 52500
L67000 53000
" />
<path d="M81500 52500
L67500 52500
" />
<path d="M83000 51000
L81500 52500
" />
<path d="M82000 44500
L82000 50000
" />
<path d="M66000 52000
L66000 56500
" />
<path d="M66500 51500
L66000 52000
" />
<path d="M81000 51500
L66500 51500
" />
<path d="M82000 50500
L81000 51500
" />
<path d="M82000 50000
L82000 50500
" />
<path d="M65000 56500
L65000 59500
" />
<path d="M36000 20500
L37000 20500
" />
<path d="M35000 30500
L35000 56500
" />
<path d="M37500 28000
L35000 30500
" />
<path d="M37500 21000
L37500 28000
" />
<path d="M37000 20500
L37500 21000
" />
<path d="M36000 56500
L36000 31000
" />
<path d="M42500 20500
L45000 20500
" />
<path d="M42000 21000
L42500 20500
" />
<path d="M42000 28000
L42000 21000
" />
<path d="M41500 28500
L42000 28000
" />
<path d="M38500 28500
L41500 28500
" />
<path d="M36000 31000
L38500 28500
" />
<path d="M37000 56500
L37000 31500
" />
<path d="M43500 22500
L45000 22500
" />
<path d="M43000 23000
L43500 22500
" />
<path d="M43000 29000
L43000 23000
" />
<path d="M42500 29500
L43000 29000
" />
<path d="M39000 29500
L42500 29500
" />
<path d="M37000 31500
L39000 29500
" />
<path d="M38000 56500
L38000 32000
" />
<path d="M44500 24500
L45000 24500
" />
<path d="M44000 25000
L44500 24500
" />
<path d="M44000 30000
L44000 25000
" />
<path d="M43500 30500
L44000 30000
" />
<path d="M39500 30500
L43500 30500
" />
<path d="M38000 32000
L39500 30500
" />
<path d="M39000 32500
L39000 32500
" />
<path d="M40000 31500
L44500 31500
" />
<path d="M44500 31500
L45000 31000
" />
<path d="M45000 26500
L45000 31000
" />
<path d="M39000 32500
L39000 56500
" />
<path d="M40000 31500
L40000 31500
" />
<path d="M39000 32500
L40000 31500
" />
<path d="M40000 56500
L40000 33000
" />
<path d="M40500 32500
L47000 32500
" />
<path d="M40000 33000
L40500 32500
" />
<path d="M41000 56500
L41000 35000
" />
<path d="M41500 34500
L47000 34500
" />
<path d="M41000 35000
L41500 34500
" />
<path d="M42000 56500
L42000 37000
" />
<path d="M42500 36500
L47000 36500
" />
<path d="M42000 37000
L42500 36500
" />
<path d="M43000 56500
L43000 39000
" />
<path d="M43500 38500
L47000 38500
" />
<path d="M43000 39000
L43500 38500
" />
<path d="M44000 56500
L44000 45000
" />
<path d="M44500 44500
L47000 44500
" />
<path d="M44000 45000
L44500 44500
" />
<path d="M45000 56500
L45000 47000
" />
<path d="M46000 46500
L47000 46500
" />
<path d="M45500 46500
L46000 46500
" />
<path d="M45000 47000
L45500 46500
" />
<path d="M46000 56500
L46000 49000
" />
<path d="M46500 48500
L47000 48500
" />
<path d="M46000 49000
L46500 48500
" />
<path d="M47000 50500
L47000 56500
" />
<path d="M28500 44500
L28500 38000
" />
<path d="M36000 27000
L36000 26500
" />
<path d="M35500 27500
L36000 27000
" />
<path d="M33500 29500
L35500 27500
" />
<path d="M33500 30000
L33500 29500
" />
<path d="M33500 33500
L33500 30000
" />
<path d="M32500 34500
L33500 33500
" />
<path d="M30000 34500
L32500 34500
" />
<path d="M29500 35000
L30000 34500
" />
<path d="M29500 37000
L29500 35000
" />
<path d="M28500 38000
L29500 37000
" />
<path d="M82000 42500
L81500 42500
" />
<path d="M81500 42500
L74000 42500
" />
<path d="M82000 44500
L82000 42500
" />
<path d="M82000 42500
L82000 31000
" />
<path d="M81500 30500
L74000 30500
" />
<path d="M82000 31000
L81500 30500
" />
<path d="M28500 36500
L28500 34000
" />
<path d="M34000 27000
L34000 26500
" />
<path d="M32500 28500
L34000 27000
" />
<path d="M32500 33000
L32500 28500
" />
<path d="M32000 33500
L32500 33000
" />
<path d="M29000 33500
L32000 33500
" />
<path d="M28500 34000
L29000 33500
" />
<path d="M39000 26500
L39000 18500
" />
<path d="M34000 20500
L34000 19000
" />
<path d="M34500 18500
L39000 18500
" />
<path d="M39000 18500
L39500 18500
" />
<path d="M34000 19000
L34500 18500
" />
<path d="M58000 18500
L39500 18500
" />
<path d="M73000 56500
L73000 59000
" />
<path d="M27500 47000
L27500 36500
" />
<path d="M28000 47500
L27500 47000
" />
<path d="M32000 47500
L28000 47500
" />
<path d="M32500 48000
L32000 47500
" />
<path d="M32500 59000
L32500 48000
" />
<path d="M33000 59500
L32500 59000
" />
<path d="M72500 59500
L65000 59500
" />
<path d="M65000 59500
L33000 59500
" />
<path d="M73000 59000
L72500 59500
" />
<path d="M80500 50500
L81000 50000
" />
<path d="M53000 50500
L80500 50500
" />
<path d="M81000 50000
L81000 44500
" />
<path d="M72500 48500
L73000 48000
" />
<path d="M53000 48500
L72500 48500
" />
<path d="M73000 48000
L73000 44500
" />
<path d="M64500 46500
L65000 46000
" />
<path d="M53000 46500
L64500 46500
" />
<path d="M65000 46000
L65000 44500
" />
<path d="M53000 44500
L57000 44500
" />
<path d="M58000 18500
L58000 19000
" />
<path d="M58000 19000
L58000 20500
" />
<path d="M58000 18500
L58500 18500
" />
<path d="M80500 38500
L81000 38000
" />
<path d="M53000 38500
L80500 38500
" />
<path d="M81000 38000
L81000 32500
" />
<path d="M72500 36500
L73000 36000
" />
<path d="M53000 36500
L72500 36500
" />
<path d="M73000 36000
L73000 32500
" />
<path d="M64500 34500
L65000 34000
" />
<path d="M53000 34500
L64500 34500
" />
<path d="M65000 34000
L65000 32500
" />
<path d="M53000 32500
L57000 32500
" />
<path d="M53000 26500
L80500 26500
" />
<path d="M81000 26000
L81000 20500
" />
<path d="M80500 26500
L81000 26000
" />
<path d="M53000 24500
L72500 24500
" />
<path d="M73000 24000
L73000 20500
" />
<path d="M72500 24500
L73000 24000
" />
<path d="M53000 22500
L64500 22500
" />
<path d="M65000 22000
L65000 20500
" />
<path d="M64500 22500
L65000 22000
" />
<path d="M53000 20500
L57000 20500
" />
<path d="M45000 26500
L47000 26500
" />
<path d="M45000 24500
L47000 24500
" />
<path d="M45000 22500
L47000 22500
" />
<path d="M45000 20500
L47000 20500
" />
<path d="M74000 18500
L81500 18500
" />
<path d="M66000 18500
L74000 18500
" />
<path d="M58500 18500
L66000 18500
" />
<path d="M81500 18500
L82000 19000
" />
<path d="M82000 19000
L82000 20500
" />
<path d="M74000 20500
L74000 18500
" />
<path d="M66000 20500
L66000 18500
" />
<path d="M58000 43000
L58500 42500
" />
<path d="M66000 42500
L74000 42500
" />
<path d="M58500 42500
L66000 42500
" />
<path d="M58000 44500
L58000 43000
" />
<path d="M74000 44500
L74000 42500
" />
<path d="M66000 44500
L66000 42500
" />
<path d="M66000 32500
L66000 30500
" />
<path d="M74000 32500
L74000 30500
" />
<path d="M58000 32500
L58000 31000
" />
<path d="M58500 30500
L66000 30500
" />
<path d="M66000 30500
L74000 30500
" />
<path d="M58000 31000
L58500 30500
" />
</g>
<g style="fill:#FFFFFF; fill-opacity:1.0; 
stroke:#FFFFFF; stroke-width:39.3701; stroke-opacity:1; 
stroke-linecap:round; stroke-linejoin:round;">
<circle cx="34000" cy="26500" r="49.2126" /> 
<circle cx="34000" cy="20500" r="49.2126" /> 
<circle cx="36000" cy="26500" r="49.2126" /> 
<circle cx="36000" cy="20500" r="49.2126" /> 
<circle cx="47000" cy="46500" r="49.2126" /> 
<circle cx="53000" cy="46500" r="49.2126" /> 
<circle cx="47000" cy="44500" r="49.2126" /> 
<circle cx="53000" cy="44500" r="49.2126" /> 
<circle cx="47000" cy="48500" r="49.2126" /> 
<circle cx="53000" cy="48500" r="49.2126" /> 
<circle cx="47000" cy="50500" r="49.2126" /> 
<circle cx="53000" cy="50500" r="49.2126" /> 
<circle cx="74000" cy="56500" r="49.2126" /> 
<circle cx="73000" cy="56500" r="49.2126" /> 
<circle cx="47000" cy="38500" r="49.2126" /> 
<circle cx="53000" cy="38500" r="49.2126" /> 
<circle cx="47000" cy="36500" r="49.2126" /> 
<circle cx="53000" cy="36500" r="49.2126" /> 
<circle cx="47000" cy="32500" r="49.2126" /> 
<circle cx="53000" cy="32500" r="49.2126" /> 
<circle cx="47000" cy="34500" r="49.2126" /> 
<circle cx="53000" cy="34500" r="49.2126" /> 
<circle cx="58000" cy="20500" r="49.2126" /> 
<circle cx="57000" cy="20500" r="49.2126" /> 
<circle cx="66000" cy="20500" r="49.2126" /> 
<circle cx="65000" cy="20500" r="49.2126" /> 
<circle cx="74000" cy="20500" r="49.2126" /> 
<circle cx="73000" cy="20500" r="49.2126" /> 
<circle cx="82000" cy="20500" r="49.2126" /> 
<circle cx="81000" cy="20500" r="49.2126" /> 
<circle cx="82000" cy="32500" r="49.2126" /> 
<circle cx="81000" cy="32500" r="49.2126" /> 
<circle cx="74000" cy="32500" r="49.2126" /> 
<circle cx="73000" cy="32500" r="49.2126" /> 
<circle cx="66000" cy="32500" r="49.2126" /> 
<circle cx="65000" cy="32500" r="49.2126" /> 
<circle cx="58000" cy="32500" r="49.2126" /> 
<circle cx="57000" cy="32500" r="49.2126" /> 
<circle cx="39000" cy="22500" r="49.2126" /> 
<circle cx="45000" cy="22500" r="49.2126" /> 
<circle cx="47000" cy="22500" r="49.2126" /> 
<circle cx="53000" cy="22500" r="49.2126" /> 
<circle cx="47000" cy="20500" r="49.2126" /> 
<circle cx="53000" cy="20500" r="49.2126" /> 
<circle cx="39000" cy="20500" r="49.2126" /> 
<circle cx="45000" cy="20500" r="49.2126" /> 
<circle cx="39000" cy="24500" r="49.2126" /> 
<circle cx="45000" cy="24500" r="49.2126" /> 
<circle cx="47000" cy="24500" r="49.2126" /> 
<circle cx="53000" cy="24500" r="49.2126" /> 
<circle cx="28500" cy="36500" r="49.2126" /> 
<circle cx="27500" cy="36500" r="49.2126" /> 
<circle cx="28500" cy="44500" r="49.2126" /> 
<circle cx="27500" cy="44500" r="49.2126" /> 
<circle cx="58000" cy="44500" r="49.2126" /> 
<circle cx="57000" cy="44500" r="49.2126" /> 
<circle cx="47000" cy="26500" r="49.2126" /> 
<circle cx="53000" cy="26500" r="49.2126" /> 
<circle cx="39000" cy="26500" r="49.2126" /> 
<circle cx="45000" cy="26500" r="49.2126" /> 
<circle cx="66000" cy="44500" r="49.2126" /> 
<circle cx="65000" cy="44500" r="49.2126" /> 
<circle cx="74000" cy="44500" r="49.2126" /> 
<circle cx="73000" cy="44500" r="49.2126" /> 
<circle cx="82000" cy="44500" r="49.2126" /> 
<circle cx="81000" cy="44500" r="49.2126" /> 
<circle cx="35000" cy="56500" r="49.2126" /> 
<circle cx="36000" cy="56500" r="49.2126" /> 
<circle cx="37000" cy="56500" r="49.2126" /> 
<circle cx="38000" cy="56500" r="49.2126" /> 
<circle cx="39000" cy="56500" r="49.2126" /> 
<circle cx="40000" cy="56500" r="49.2126" /> 
<circle cx="41000" cy="56500" r="49.2126" /> 
<circle cx="42000" cy="56500" r="49.2126" /> 
<circle cx="43000" cy="56500" r="49.2126" /> 
<circle cx="44000" cy="56500" r="49.2126" /> 
<circle cx="45000" cy="56500" r="49.2126" /> 
<circle cx="46000" cy="56500" r="49.2126" /> 
<circle cx="47000" cy="56500" r="49.2126" /> 
<circle cx="65000" cy="56500" r="49.2126" /> 
<circle cx="66000" cy="56500" r="49.2126" /> 
<circle cx="67000" cy="56500" r="49.2126" /> 
<circle cx="68000" cy="56500" r="49.2126" /> 
<circle cx="68000" cy="54000" r="49.2126" /> 
<circle cx="74000" cy="54000" r="49.2126" /> 
</g> 
</svg>
