<?xml version="1.0" standalone="no"?>
 <!DOCTYPE svg PUBLIC "-//W3C//DTD SVG 1.1//EN" 
 "http://www.w3.org/Graphics/SVG/1.1/DTD/svg11.dtd"> 
<svg xmlns="http://www.w3.org/2000/svg" version="1.1" 
    width="29.7002cm" height="21.0007cm" viewBox="0 0 116930 82680 ">
<title>SVG Picture created as mm3d_base-B_Cu.svg date 2019/02/04 20:38:14 </title>
  <desc>Picture generated by PCBNEW </desc>
<g style="fill:#000000; fill-opacity:1;stroke:#000000; stroke-opacity:1;
stroke-linecap:round; stroke-linejoin:round; "
 transform="translate(0 0) scale(1 1)">
</g>
<g style="fill:#000000; fill-opacity:0.0; 
stroke:#000000; stroke-width:39.3701; stroke-opacity:1; 
stroke-linecap:round; stroke-linejoin:round;">
<path d="M4000 4000
L112930 4000
L112930 78680
L4000 78680
L4000 4000
" />
<path d="M4700 4700
L112230 4700
L112230 77980
L4700 77980
L4700 4700
" />
<path d="M25780 4000
L25780 4700
" />
<path d="M15032 4552
L14747 4552
" />
<path d="M14890 4552
L14890 4052
L14842 4123
L14794 4171
L14747 4195
" />
<path d="M25780 78680
L25780 77980
" />
<path d="M15032 78532
L14747 78532
" />
<path d="M14890 78532
L14890 78032
L14842 78103
L14794 78151
L14747 78175
" />
<path d="M47560 4000
L47560 4700
" />
<path d="M36527 4100
L36550 4076
L36598 4052
L36717 4052
L36765 4076
L36789 4100
L36812 4147
L36812 4195
L36789 4266
L36503 4552
L36812 4552
" />
<path d="M47560 78680
L47560 77980
" />
<path d="M36527 78080
L36550 78056
L36598 78032
L36717 78032
L36765 78056
L36789 78080
L36812 78127
L36812 78175
L36789 78246
L36503 78532
L36812 78532
" />
<path d="M69340 4000
L69340 4700
" />
<path d="M58283 4052
L58592 4052
L58426 4242
L58497 4242
L58545 4266
L58569 4290
L58592 4338
L58592 4457
L58569 4504
L58545 4528
L58497 4552
L58354 4552
L58307 4528
L58283 4504
" />
<path d="M69340 78680
L69340 77980
" />
<path d="M58283 78032
L58592 78032
L58426 78222
L58497 78222
L58545 78246
L58569 78270
L58592 78318
L58592 78437
L58569 78484
L58545 78508
L58497 78532
L58354 78532
L58307 78508
L58283 78484
" />
<path d="M91120 4000
L91120 4700
" />
<path d="M80325 4219
L80325 4552
" />
<path d="M80206 4028
L80087 4385
L80396 4385
" />
<path d="M91120 78680
L91120 77980
" />
<path d="M80325 78199
L80325 78532
" />
<path d="M80206 78008
L80087 78365
L80396 78365
" />
<path d="M102129 4052
L101890 4052
L101867 4290
L101890 4266
L101938 4242
L102057 4242
L102105 4266
L102129 4290
L102152 4338
L102152 4457
L102129 4504
L102105 4528
L102057 4552
L101938 4552
L101890 4528
L101867 4504
" />
<path d="M102129 78032
L101890 78032
L101867 78270
L101890 78246
L101938 78222
L102057 78222
L102105 78246
L102129 78270
L102152 78318
L102152 78437
L102129 78484
L102105 78508
L102057 78532
L101938 78532
L101890 78508
L101867 78484
" />
<path d="M4000 28890
L4700 28890
" />
<path d="M4230 16509
L4469 16509
" />
<path d="M4183 16652
L4350 16152
L4516 16652
" />
<path d="M112930 28890
L112230 28890
" />
<path d="M112460 16509
L112699 16509
" />
<path d="M112413 16652
L112580 16152
L112746 16652
" />
<path d="M4000 53780
L4700 53780
" />
<path d="M4385 41280
L4457 41304
L4480 41328
L4504 41375
L4504 41447
L4480 41494
L4457 41518
L4409 41542
L4219 41542
L4219 41042
L4385 41042
L4433 41066
L4457 41090
L4480 41137
L4480 41185
L4457 41232
L4433 41256
L4385 41280
L4219 41280
" />
<path d="M112930 53780
L112230 53780
" />
<path d="M112615 41280
L112687 41304
L112710 41328
L112734 41375
L112734 41447
L112710 41494
L112687 41518
L112639 41542
L112449 41542
L112449 41042
L112615 41042
L112663 41066
L112687 41090
L112710 41137
L112710 41185
L112687 41232
L112663 41256
L112615 41280
L112449 41280
" />
<path d="M4504 66384
L4480 66408
L4409 66432
L4361 66432
L4290 66408
L4242 66360
L4219 66313
L4195 66218
L4195 66146
L4219 66051
L4242 66003
L4290 65956
L4361 65932
L4409 65932
L4480 65956
L4504 65980
" />
<path d="M112734 66384
L112710 66408
L112639 66432
L112591 66432
L112520 66408
L112472 66360
L112449 66313
L112425 66218
L112425 66146
L112449 66051
L112472 66003
L112520 65956
L112591 65932
L112639 65932
L112710 65956
L112734 65980
" />
<path d="M79380 76422
L79455 75822
L79597 75822
L79680 75851
L79730 75908
L79751 75965
L79765 76080
L79755 76165
L79712 76280
L79676 76337
L79612 76394
L79522 76422
L79380 76422
" />
<path d="M80237 76422
L80276 76108
L80255 76051
L80201 76022
L80087 76022
L80026 76051
" />
<path d="M80240 76394
L80180 76422
L80037 76422
L79983 76394
L79962 76337
L79969 76280
L80005 76222
L80065 76194
L80208 76194
L80269 76165
" />
<path d="M80487 76022
L80715 76022
" />
<path d="M80597 75822
L80533 76337
L80555 76394
L80608 76422
L80665 76422
" />
<path d="M81097 76394
L81037 76422
L80922 76422
L80869 76394
L80847 76337
L80876 76108
L80912 76051
L80972 76022
L81087 76022
L81140 76051
L81162 76108
L81155 76165
L80862 76222
" />
<path d="M81387 76365
L81412 76394
L81380 76422
L81355 76394
L81387 76365
L81380 76422
" />
<path d="M81426 76051
L81451 76080
L81419 76108
L81394 76080
L81426 76051
L81419 76108
" />
<path d="M82430 76022
L82380 76422
" />
<path d="M82315 75794
L82119 76222
L82490 76222
" />
<path d="M83115 76022
L83344 76022
" />
<path d="M83151 76422
L83215 75908
L83251 75851
L83312 75822
L83369 75822
" />
<path d="M83726 76394
L83665 76422
L83551 76422
L83497 76394
L83476 76337
L83505 76108
L83540 76051
L83601 76022
L83715 76022
L83769 76051
L83790 76108
L83783 76165
L83490 76222
" />
<path d="M84008 76422
L84083 75822
" />
<path d="M84055 76051
L84115 76022
L84230 76022
L84283 76051
L84308 76080
L84330 76137
L84308 76308
L84272 76365
L84240 76394
L84180 76422
L84065 76422
L84012 76394
" />
<path d="M85047 75880
L85080 75851
L85140 75822
L85283 75822
L85337 75851
L85362 75880
L85383 75937
L85376 75994
L85337 76080
L84951 76422
L85322 76422
" />
<path d="M85769 75822
L85826 75822
L85880 75851
L85905 75880
L85926 75937
L85940 76051
L85922 76194
L85880 76308
L85844 76365
L85812 76394
L85751 76422
L85694 76422
L85640 76394
L85615 76365
L85594 76308
L85580 76194
L85597 76051
L85640 75937
L85676 75880
L85708 75851
L85769 75822
" />
<path d="M86465 76422
L86122 76422
" />
<path d="M86294 76422
L86369 75822
L86301 75908
L86237 75965
L86176 75994
" />
<path d="M86751 76422
L86865 76422
L86926 76394
L86958 76365
L87026 76280
L87069 76165
L87097 75937
L87076 75880
L87051 75851
L86997 75822
L86883 75822
L86822 75851
L86790 75880
L86755 75937
L86737 76080
L86758 76137
L86783 76165
L86837 76194
L86951 76194
L87012 76165
L87044 76137
L87080 76080
" />
<path d="M70972 77622
L70972 77022
" />
<path d="M71315 77622
L71058 77280
" />
<path d="M71315 77022
L70972 77365
" />
<path d="M71572 77622
L71572 77222
" />
<path d="M71572 77022
L71544 77051
L71572 77080
L71601 77051
L71572 77022
L71572 77080
" />
<path d="M72201 77565
L72172 77594
L72087 77622
L72030 77622
L71944 77594
L71887 77537
L71858 77480
L71830 77365
L71830 77280
L71858 77165
L71887 77108
L71944 77051
L72030 77022
L72087 77022
L72172 77051
L72201 77080
" />
<path d="M72715 77622
L72715 77308
L72687 77251
L72630 77222
L72515 77222
L72458 77251
" />
<path d="M72715 77594
L72658 77622
L72515 77622
L72458 77594
L72430 77537
L72430 77480
L72458 77422
L72515 77394
L72658 77394
L72715 77365
" />
<path d="M73258 77622
L73258 77022
" />
<path d="M73258 77594
L73201 77622
L73087 77622
L73030 77594
L73001 77565
L72972 77508
L72972 77337
L73001 77280
L73030 77251
L73087 77222
L73201 77222
L73258 77251
" />
<path d="M74001 77308
L74201 77308
" />
<path d="M74287 77622
L74001 77622
L74001 77022
L74287 77022
" />
<path d="M74544 77565
L74572 77594
L74544 77622
L74515 77594
L74544 77565
L74544 77622
" />
<path d="M74829 77622
L74829 77022
L74972 77022
L75058 77051
L75115 77108
L75144 77165
L75172 77280
L75172 77365
L75144 77480
L75115 77537
L75058 77594
L74972 77622
L74829 77622
" />
<path d="M75429 77565
L75458 77594
L75429 77622
L75401 77594
L75429 77565
L75429 77622
" />
<path d="M75687 77451
L75972 77451
" />
<path d="M75629 77622
L75829 77022
L76029 77622
" />
<path d="M76229 77565
L76258 77594
L76229 77622
L76201 77594
L76229 77565
L76229 77622
" />
<path d="M104522 76422
L104358 76137
" />
<path d="M104180 76422
L104255 75822
L104483 75822
L104537 75851
L104562 75880
L104583 75937
L104572 76022
L104537 76080
L104505 76108
L104444 76137
L104215 76137
" />
<path d="M105012 76394
L104951 76422
L104837 76422
L104783 76394
L104762 76337
L104790 76108
L104826 76051
L104887 76022
L105001 76022
L105055 76051
L105076 76108
L105069 76165
L104776 76222
" />
<path d="M105287 76022
L105380 76422
L105572 76022
" />
<path d="M105758 76365
L105783 76394
L105751 76422
L105726 76394
L105758 76365
L105751 76422
" />
<path d="M105797 76051
L105822 76080
L105790 76108
L105765 76080
L105797 76051
L105790 76108
" />
<path d="M106808 76422
L106465 76422
" />
<path d="M106637 76422
L106712 75822
L106644 75908
L106580 75965
L106519 75994
" />
<path d="M107094 76422
L107208 76422
L107269 76394
L107301 76365
L107369 76280
L107412 76165
L107440 75937
L107419 75880
L107394 75851
L107340 75822
L107226 75822
L107165 75851
L107133 75880
L107097 75937
L107080 76080
L107101 76137
L107126 76165
L107180 76194
L107294 76194
L107355 76165
L107387 76137
L107422 76080
" />
<path d="M107826 75822
L107883 75822
L107937 75851
L107962 75880
L107983 75937
L107997 76051
L107980 76194
L107937 76308
L107901 76365
L107869 76394
L107808 76422
L107751 76422
L107697 76394
L107672 76365
L107651 76308
L107637 76194
L107655 76051
L107697 75937
L107733 75880
L107765 75851
L107826 75822
" />
<path d="M108247 75880
L108280 75851
L108340 75822
L108483 75822
L108537 75851
L108562 75880
L108583 75937
L108576 75994
L108537 76080
L108151 76422
L108522 76422
" />
<path d="M108969 75822
L109026 75822
L109080 75851
L109105 75880
L109126 75937
L109140 76051
L109122 76194
L109080 76308
L109044 76365
L109012 76394
L108951 76422
L108894 76422
L108840 76394
L108815 76365
L108794 76308
L108780 76194
L108797 76051
L108840 75937
L108876 75880
L108908 75851
L108969 75822
" />
<path d="M109369 75822
L109740 75822
L109512 76051
L109597 76051
L109651 76080
L109676 76108
L109697 76165
L109680 76308
L109644 76365
L109612 76394
L109551 76422
L109380 76422
L109326 76394
L109301 76365
" />
<path d="M70944 76394
L71030 76422
L71172 76422
L71230 76394
L71258 76365
L71287 76308
L71287 76251
L71258 76194
L71230 76165
L71172 76137
L71058 76108
L71001 76080
L70972 76051
L70944 75994
L70944 75937
L70972 75880
L71001 75851
L71058 75822
L71201 75822
L71287 75851
" />
<path d="M71544 76422
L71544 76022
" />
<path d="M71544 75822
L71515 75851
L71544 75880
L71572 75851
L71544 75822
L71544 75880
" />
<path d="M71772 76022
L72087 76022
L71772 76422
L72087 76422
" />
<path d="M72544 76394
L72487 76422
L72372 76422
L72315 76394
L72287 76337
L72287 76108
L72315 76051
L72372 76022
L72487 76022
L72544 76051
L72572 76108
L72572 76165
L72287 76222
" />
<path d="M72830 76365
L72858 76394
L72830 76422
L72801 76394
L72830 76365
L72830 76422
" />
<path d="M72830 76051
L72858 76080
L72830 76108
L72801 76080
L72830 76051
L72830 76108
" />
<path d="M73544 76251
L73830 76251
" />
<path d="M73487 76422
L73687 75822
L73887 76422
" />
<path d="M74344 76022
L74344 76422
" />
<path d="M74201 75794
L74058 76222
L74430 76222
" />
<path d="M104172 77622
L104172 77022
" />
<path d="M104715 77622
L104715 77022
" />
<path d="M104715 77594
L104658 77622
L104544 77622
L104487 77594
L104458 77565
L104430 77508
L104430 77337
L104458 77280
L104487 77251
L104544 77222
L104658 77222
L104715 77251
" />
<path d="M105001 77565
L105030 77594
L105001 77622
L104972 77594
L105001 77565
L105001 77622
" />
<path d="M105001 77251
L105030 77280
L105001 77308
L104972 77280
L105001 77251
L105001 77308
" />
<path d="M106058 77622
L105715 77622
" />
<path d="M105887 77622
L105887 77022
L105829 77108
L105772 77165
L105715 77194
" />
<path d="M106744 76994
L106230 77765
" />
<path d="M107258 77622
L106915 77622
" />
<path d="M107087 77622
L107087 77022
L107029 77108
L106972 77165
L106915 77194
" />
<path d="M70969 74622
L71312 74622
" />
<path d="M71065 75222
L71140 74622
" />
<path d="M71437 75222
L71487 74822
" />
<path d="M71512 74622
L71480 74651
L71505 74680
L71537 74651
L71512 74622
L71505 74680
" />
<path d="M71687 74822
L71915 74822
" />
<path d="M71797 74622
L71733 75137
L71755 75194
L71808 75222
L71865 75222
" />
<path d="M72151 75222
L72097 75194
L72076 75137
L72140 74622
" />
<path d="M72612 75194
L72551 75222
L72437 75222
L72383 75194
L72362 75137
L72390 74908
L72426 74851
L72487 74822
L72601 74822
L72655 74851
L72676 74908
L72669 74965
L72376 75022
" />
<path d="M72901 75165
L72926 75194
L72894 75222
L72869 75194
L72901 75165
L72894 75222
" />
<path d="M72940 74851
L72965 74880
L72933 74908
L72908 74880
L72940 74851
L72933 74908
" />
<path d="M73637 75222
L73712 74622
L73858 75051
L74112 74622
L74037 75222
" />
<path d="M74322 75222
L74397 74622
L74544 75051
L74797 74622
L74722 75222
" />
<path d="M75026 74622
L75397 74622
L75169 74851
L75254 74851
L75308 74880
L75333 74908
L75355 74965
L75337 75108
L75301 75165
L75269 75194
L75208 75222
L75037 75222
L74983 75194
L74958 75165
" />
<path d="M75580 75222
L75655 74622
L75797 74622
L75880 74651
L75930 74708
L75951 74765
L75965 74880
L75955 74965
L75912 75080
L75876 75137
L75812 75194
L75722 75222
L75580 75222
" />
<path d="M76944 74822
L76883 75308
L76847 75365
L76815 75394
L76755 75422
L76669 75422
L76615 75394
" />
<path d="M76897 75194
L76837 75222
L76722 75222
L76669 75194
L76644 75165
L76622 75108
L76644 74937
L76680 74880
L76712 74851
L76772 74822
L76887 74822
L76940 74851
" />
<path d="M77180 75222
L77230 74822
" />
<path d="M77215 74937
L77251 74880
L77283 74851
L77344 74822
L77401 74822
" />
<path d="M77637 75222
L77583 75194
L77558 75165
L77537 75108
L77558 74937
L77594 74880
L77626 74851
L77687 74822
L77772 74822
L77826 74851
L77851 74880
L77872 74937
L77851 75108
L77815 75165
L77783 75194
L77722 75222
L77637 75222
" />
<path d="M78087 74822
L78151 75222
L78301 74937
L78380 75222
L78544 74822
" />
<path d="M78722 75222
L78772 74822
" />
<path d="M78797 74622
L78765 74651
L78790 74680
L78822 74651
L78797 74622
L78790 74680
" />
<path d="M79058 74822
L79008 75222
" />
<path d="M79051 74880
L79083 74851
L79144 74822
L79230 74822
L79283 74851
L79305 74908
L79265 75222
" />
<path d="M79858 74822
L79797 75308
L79762 75365
L79729 75394
L79669 75422
L79583 75422
L79529 75394
" />
<path d="M79812 75194
L79751 75222
L79637 75222
L79583 75194
L79558 75165
L79537 75108
L79558 74937
L79594 74880
L79626 74851
L79687 74822
L79801 74822
L79854 74851
" />
<path d="M80551 75222
L80626 74622
" />
<path d="M80808 75222
L80847 74908
L80826 74851
L80772 74822
L80687 74822
L80626 74851
L80594 74880
" />
<path d="M81179 75222
L81126 75194
L81101 75165
L81080 75108
L81101 74937
L81137 74880
L81169 74851
L81229 74822
L81315 74822
L81369 74851
L81394 74880
L81415 74937
L81394 75108
L81358 75165
L81326 75194
L81265 75222
L81179 75222
" />
<path d="M81944 74822
L81894 75222
" />
<path d="M81687 74822
L81647 75137
L81669 75194
L81722 75222
L81808 75222
L81869 75194
L81901 75165
" />
<path d="M82154 75194
L82208 75222
L82322 75222
L82383 75194
L82419 75137
L82422 75108
L82401 75051
L82347 75022
L82262 75022
L82208 74994
L82187 74937
L82190 74908
L82226 74851
L82287 74822
L82372 74822
L82426 74851
" />
<path d="M82897 75194
L82837 75222
L82722 75222
L82669 75194
L82647 75137
L82676 74908
L82712 74851
L82772 74822
L82887 74822
L82940 74851
L82962 74908
L82954 74965
L82662 75022
" />
<path d="M83897 75194
L83837 75222
L83722 75222
L83669 75194
L83644 75165
L83622 75108
L83644 74937
L83679 74880
L83712 74851
L83772 74822
L83887 74822
L83940 74851
" />
<path d="M84237 75222
L84183 75194
L84158 75165
L84137 75108
L84158 74937
L84194 74880
L84226 74851
L84287 74822
L84372 74822
L84426 74851
L84451 74880
L84472 74937
L84451 75108
L84415 75165
L84383 75194
L84322 75222
L84237 75222
" />
<path d="M84744 74822
L84694 75222
" />
<path d="M84737 74880
L84769 74851
L84829 74822
L84915 74822
L84969 74851
L84990 74908
L84951 75222
" />
<path d="M85201 74822
L85429 74822
" />
<path d="M85312 74622
L85247 75137
L85269 75194
L85322 75222
L85379 75222
" />
<path d="M85579 75222
L85629 74822
" />
<path d="M85615 74937
L85651 74880
L85683 74851
L85744 74822
L85801 74822
" />
<path d="M86037 75222
L85983 75194
L85958 75165
L85937 75108
L85958 74937
L85994 74880
L86026 74851
L86087 74822
L86172 74822
L86226 74851
L86251 74880
L86272 74937
L86251 75108
L86215 75165
L86183 75194
L86122 75222
L86037 75222
" />
<path d="M86579 75222
L86526 75194
L86504 75137
L86569 74622
" />
<path d="M86894 75222
L86840 75194
L86819 75137
L86883 74622
" />
<path d="M87122 75222
L87172 74822
" />
<path d="M87197 74622
L87165 74651
L87190 74680
L87222 74651
L87197 74622
L87190 74680
" />
<path d="M87458 74822
L87408 75222
" />
<path d="M87451 74880
L87483 74851
L87544 74822
L87630 74822
L87683 74851
L87705 74908
L87665 75222
" />
<path d="M88258 74822
L88197 75308
L88162 75365
L88129 75394
L88069 75422
L87983 75422
L87929 75394
" />
<path d="M88212 75194
L88151 75222
L88037 75222
L87983 75194
L87958 75165
L87937 75108
L87958 74937
L87994 74880
L88026 74851
L88087 74822
L88201 74822
L88254 74851
" />
<path d="M89208 75222
L89247 74908
L89226 74851
L89172 74822
L89058 74822
L88997 74851
" />
<path d="M89212 75194
L89151 75222
L89008 75222
L88954 75194
L88933 75137
L88940 75080
L88976 75022
L89037 74994
L89179 74994
L89240 74965
" />
<path d="M89544 74822
L89494 75222
" />
<path d="M89537 74880
L89569 74851
L89629 74822
L89715 74822
L89769 74851
L89790 74908
L89751 75222
" />
<path d="M90294 75222
L90369 74622
" />
<path d="M90297 75194
L90237 75222
L90122 75222
L90069 75194
L90044 75165
L90022 75108
L90044 74937
L90079 74880
L90112 74851
L90172 74822
L90287 74822
L90340 74851
" />
<path d="M91037 75222
L91087 74822
" />
<path d="M91072 74937
L91108 74880
L91140 74851
L91201 74822
L91258 74822
" />
<path d="M91640 75194
L91580 75222
L91465 75222
L91412 75194
L91390 75137
L91419 74908
L91454 74851
L91515 74822
L91630 74822
L91683 74851
L91705 74908
L91697 74965
L91405 75022
" />
<path d="M91922 75222
L91972 74822
" />
<path d="M91965 74880
L91997 74851
L92058 74822
L92144 74822
L92197 74851
L92219 74908
L92180 75222
" />
<path d="M92219 74908
L92254 74851
L92315 74822
L92401 74822
L92454 74851
L92476 74908
L92437 75222
" />
<path d="M92808 75222
L92755 75194
L92730 75165
L92708 75108
L92730 74937
L92765 74880
L92797 74851
L92858 74822
L92944 74822
L92997 74851
L93022 74880
L93044 74937
L93022 75108
L92987 75165
L92955 75194
L92894 75222
L92808 75222
" />
<path d="M93230 74822
L93458 74822
" />
<path d="M93340 74622
L93276 75137
L93297 75194
L93351 75222
L93408 75222
" />
<path d="M93840 75194
L93780 75222
L93665 75222
L93612 75194
L93590 75137
L93619 74908
L93654 74851
L93715 74822
L93830 74822
L93883 74851
L93905 74908
L93897 74965
L93605 75022
" />
<path d="M94580 75222
L94630 74822
" />
<path d="M94622 74880
L94655 74851
L94715 74822
L94801 74822
L94855 74851
L94876 74908
L94837 75222
" />
<path d="M94876 74908
L94912 74851
L94972 74822
L95058 74822
L95112 74851
L95133 74908
L95094 75222
" />
<path d="M95465 75222
L95412 75194
L95387 75165
L95365 75108
L95387 74937
L95422 74880
L95455 74851
L95515 74822
L95601 74822
L95655 74851
L95680 74880
L95701 74937
L95680 75108
L95644 75165
L95612 75194
L95551 75222
L95465 75222
" />
<path d="M95972 74822
L95922 75222
" />
<path d="M95965 74880
L95997 74851
L96058 74822
L96144 74822
L96197 74851
L96219 74908
L96180 75222
" />
<path d="M96465 75222
L96515 74822
" />
<path d="M96540 74622
L96508 74651
L96533 74680
L96565 74651
L96540 74622
L96533 74680
" />
<path d="M96715 74822
L96944 74822
" />
<path d="M96826 74622
L96762 75137
L96783 75194
L96837 75222
L96894 75222
" />
<path d="M97179 75222
L97126 75194
L97101 75165
L97080 75108
L97101 74937
L97137 74880
L97169 74851
L97229 74822
L97315 74822
L97369 74851
L97394 74880
L97415 74937
L97394 75108
L97358 75165
L97326 75194
L97265 75222
L97179 75222
" />
<path d="M97637 75222
L97687 74822
" />
<path d="M97672 74937
L97708 74880
L97740 74851
L97801 74822
L97858 74822
" />
<path d="M98008 75222
L98058 74822
" />
<path d="M98083 74622
L98051 74651
L98076 74680
L98108 74651
L98083 74622
L98076 74680
" />
<path d="M98344 74822
L98294 75222
" />
<path d="M98337 74880
L98369 74851
L98429 74822
L98515 74822
L98569 74851
L98590 74908
L98551 75222
" />
<path d="M99144 74822
L99083 75308
L99047 75365
L99015 75394
L98954 75422
L98869 75422
L98815 75394
" />
<path d="M99097 75194
L99037 75222
L98922 75222
L98869 75194
L98844 75165
L98822 75108
L98844 74937
L98879 74880
L98912 74851
L98972 74822
L99087 74822
L99140 74851
" />
<path d="M99812 75194
L99865 75222
L99979 75222
L100040 75194
L100076 75137
L100080 75108
L100058 75051
L100004 75022
L99919 75022
L99865 74994
L99844 74937
L99847 74908
L99883 74851
L99944 74822
L100029 74822
L100083 74851
" />
<path d="M100315 74822
L100408 75222
" />
<path d="M100601 74822
L100408 75222
L100333 75365
L100301 75394
L100240 75422
" />
<path d="M100754 75194
L100808 75222
L100922 75222
L100983 75194
L101019 75137
L101022 75108
L101001 75051
L100947 75022
L100862 75022
L100808 74994
L100787 74937
L100790 74908
L100826 74851
L100887 74822
L100972 74822
L101026 74851
" />
<path d="M101229 74822
L101458 74822
" />
<path d="M101340 74622
L101276 75137
L101297 75194
L101351 75222
L101408 75222
" />
<path d="M101840 75194
L101779 75222
L101665 75222
L101612 75194
L101590 75137
L101619 74908
L101654 74851
L101715 74822
L101829 74822
L101883 74851
L101904 74908
L101897 74965
L101604 75022
" />
<path d="M102122 75222
L102172 74822
" />
<path d="M102165 74880
L102197 74851
L102258 74822
L102344 74822
L102397 74851
L102419 74908
L102379 75222
" />
<path d="M102419 74908
L102454 74851
L102515 74822
L102601 74822
L102654 74851
L102676 74908
L102637 75222
" />
<path d="M71172 72508
L70972 72508
" />
<path d="M70972 72822
L70972 72222
L71258 72222
" />
<path d="M71487 72822
L71487 72422
" />
<path d="M71487 72222
L71458 72251
L71487 72280
L71515 72251
L71487 72222
L71487 72280
" />
<path d="M71858 72822
L71801 72794
L71772 72737
L71772 72222
" />
<path d="M72315 72794
L72258 72822
L72144 72822
L72087 72794
L72058 72737
L72058 72508
L72087 72451
L72144 72422
L72258 72422
L72315 72451
L72344 72508
L72344 72565
L72058 72622
" />
<path d="M72601 72765
L72630 72794
L72601 72822
L72572 72794
L72601 72765
L72601 72822
" />
<path d="M72601 72451
L72630 72480
L72601 72508
L72572 72480
L72601 72451
L72601 72508
" />
<path d="M73344 72822
L73344 72422
" />
<path d="M73344 72480
L73372 72451
L73430 72422
L73515 72422
L73572 72451
L73601 72508
L73601 72822
" />
<path d="M73601 72508
L73630 72451
L73687 72422
L73772 72422
L73830 72451
L73858 72508
L73858 72822
" />
<path d="M74144 72822
L74144 72422
" />
<path d="M74144 72480
L74172 72451
L74230 72422
L74315 72422
L74372 72451
L74401 72508
L74401 72822
" />
<path d="M74401 72508
L74430 72451
L74487 72422
L74572 72422
L74630 72451
L74658 72508
L74658 72822
" />
<path d="M74887 72222
L75258 72222
L75058 72451
L75144 72451
L75201 72480
L75230 72508
L75258 72565
L75258 72708
L75230 72765
L75201 72794
L75144 72822
L74972 72822
L74915 72794
L74887 72765
" />
<path d="M75772 72822
L75772 72222
" />
<path d="M75772 72794
L75715 72822
L75601 72822
L75544 72794
L75515 72765
L75487 72708
L75487 72537
L75515 72480
L75544 72451
L75601 72422
L75715 72422
L75772 72451
" />
<path d="M75915 72880
L76372 72880
" />
<path d="M76515 72822
L76515 72222
" />
<path d="M76515 72451
L76572 72422
L76687 72422
L76744 72451
L76772 72480
L76801 72537
L76801 72708
L76772 72765
L76744 72794
L76687 72822
L76572 72822
L76515 72794
" />
<path d="M77315 72822
L77315 72508
L77287 72451
L77230 72422
L77115 72422
L77058 72451
" />
<path d="M77315 72794
L77258 72822
L77115 72822
L77058 72794
L77030 72737
L77030 72680
L77058 72622
L77115 72594
L77258 72594
L77315 72565
" />
<path d="M77572 72794
L77630 72822
L77744 72822
L77801 72794
L77830 72737
L77830 72708
L77801 72651
L77744 72622
L77658 72622
L77601 72594
L77572 72537
L77572 72508
L77601 72451
L77658 72422
L77744 72422
L77801 72451
" />
<path d="M78315 72794
L78258 72822
L78144 72822
L78087 72794
L78058 72737
L78058 72508
L78087 72451
L78144 72422
L78258 72422
L78315 72451
L78344 72508
L78344 72565
L78058 72622
" />
<path d="M78601 72765
L78630 72794
L78601 72822
L78572 72794
L78601 72765
L78601 72822
" />
<path d="M78887 72822
L78887 72222
" />
<path d="M78944 72594
L79115 72822
" />
<path d="M79115 72422
L78887 72651
" />
<path d="M79372 72822
L79372 72422
" />
<path d="M79372 72222
L79344 72251
L79372 72280
L79401 72251
L79372 72222
L79372 72280
" />
<path d="M79915 72794
L79858 72822
L79744 72822
L79687 72794
L79658 72765
L79630 72708
L79630 72537
L79658 72480
L79687 72451
L79744 72422
L79858 72422
L79915 72451
" />
<path d="M80430 72822
L80430 72508
L80401 72451
L80344 72422
L80230 72422
L80172 72451
" />
<path d="M80430 72794
L80372 72822
L80230 72822
L80172 72794
L80144 72737
L80144 72680
L80172 72622
L80230 72594
L80372 72594
L80430 72565
" />
<path d="M80972 72822
L80972 72222
" />
<path d="M80972 72794
L80915 72822
L80801 72822
L80744 72794
L80715 72765
L80687 72708
L80687 72537
L80715 72480
L80744 72451
L80801 72422
L80915 72422
L80972 72451
" />
<path d="M81115 72880
L81572 72880
" />
<path d="M81715 72422
L81715 73022
" />
<path d="M81715 72451
L81772 72422
L81887 72422
L81944 72451
L81972 72480
L82001 72537
L82001 72708
L81972 72765
L81944 72794
L81887 72822
L81772 72822
L81715 72794
" />
<path d="M82515 72794
L82458 72822
L82344 72822
L82287 72794
L82258 72765
L82230 72708
L82230 72537
L82258 72480
L82287 72451
L82344 72422
L82458 72422
L82515 72451
" />
<path d="M82772 72822
L82772 72222
" />
<path d="M82772 72451
L82830 72422
L82944 72422
L83001 72451
L83030 72480
L83058 72537
L83058 72708
L83030 72765
L83001 72794
L82944 72822
L82830 72822
L82772 72794
" />
<path d="M70944 73994
L71030 74022
L71172 74022
L71230 73994
L71258 73965
L71287 73908
L71287 73851
L71258 73794
L71230 73765
L71172 73737
L71058 73708
L71001 73680
L70972 73651
L70944 73594
L70944 73537
L70972 73480
L71001 73451
L71058 73422
L71201 73422
L71287 73451
" />
<path d="M71544 74022
L71544 73422
" />
<path d="M71801 74022
L71801 73708
L71772 73651
L71715 73622
L71630 73622
L71572 73651
L71544 73680
" />
<path d="M72315 73994
L72258 74022
L72144 74022
L72087 73994
L72058 73937
L72058 73708
L72087 73651
L72144 73622
L72258 73622
L72315 73651
L72344 73708
L72344 73765
L72058 73822
" />
<path d="M72830 73994
L72772 74022
L72658 74022
L72601 73994
L72572 73937
L72572 73708
L72601 73651
L72658 73622
L72772 73622
L72830 73651
L72858 73708
L72858 73765
L72572 73822
" />
<path d="M73030 73622
L73258 73622
" />
<path d="M73115 73422
L73115 73937
L73144 73994
L73201 74022
L73258 74022
" />
<path d="M73458 73965
L73487 73994
L73458 74022
L73430 73994
L73458 73965
L73458 74022
" />
<path d="M73458 73651
L73487 73680
L73458 73708
L73430 73680
L73458 73651
L73458 73708
" />
<path d="M70980 71622
L71055 71022
L71283 71022
L71337 71051
L71362 71080
L71383 71137
L71372 71222
L71337 71280
L71305 71308
L71244 71337
L71015 71337
" />
<path d="M71665 71622
L71612 71594
L71587 71565
L71565 71508
L71587 71337
L71622 71280
L71655 71251
L71715 71222
L71801 71222
L71855 71251
L71880 71280
L71901 71337
L71880 71508
L71844 71565
L71812 71594
L71751 71622
L71665 71622
" />
<path d="M72115 71222
L72430 71222
L72065 71622
L72380 71622
" />
<path d="M72583 71594
L72637 71622
L72751 71622
L72812 71594
L72847 71537
L72851 71508
L72829 71451
L72776 71422
L72690 71422
L72637 71394
L72615 71337
L72619 71308
L72654 71251
L72715 71222
L72801 71222
L72854 71251
" />
<path d="M73351 71622
L73390 71308
L73369 71251
L73315 71222
L73201 71222
L73140 71251
" />
<path d="M73354 71594
L73294 71622
L73151 71622
L73097 71594
L73076 71537
L73083 71480
L73119 71422
L73179 71394
L73322 71394
L73383 71365
" />
<path d="M73637 71622
L73687 71222
" />
<path d="M73672 71337
L73708 71280
L73740 71251
L73801 71222
L73858 71222
" />
<path d="M74483 71022
L74883 71022
L74408 71622
L74808 71622
" />
<path d="M75012 71594
L75065 71622
L75180 71622
L75240 71594
L75276 71537
L75280 71508
L75258 71451
L75205 71422
L75119 71422
L75065 71394
L75044 71337
L75047 71308
L75083 71251
L75144 71222
L75230 71222
L75283 71251
" />
<path d="M75608 71622
L75555 71594
L75530 71565
L75508 71508
L75530 71337
L75565 71280
L75597 71251
L75658 71222
L75744 71222
L75797 71251
L75822 71280
L75844 71337
L75822 71508
L75787 71565
L75755 71594
L75694 71622
L75608 71622
" />
<path d="M76151 71622
L76097 71594
L76076 71537
L76140 71022
" />
<path d="M76344 71222
L76572 71222
" />
<path d="M76455 71022
L76390 71537
L76412 71594
L76465 71622
L76522 71622
" />
<path d="M71172 70108
L71258 70137
L71287 70165
L71315 70222
L71315 70308
L71287 70365
L71258 70394
L71201 70422
L70972 70422
L70972 69822
L71172 69822
L71230 69851
L71258 69880
L71287 69937
L71287 69994
L71258 70051
L71230 70080
L71172 70108
L70972 70108
" />
<path d="M71830 70422
L71830 70108
L71801 70051
L71744 70022
L71630 70022
L71572 70051
" />
<path d="M71830 70394
L71772 70422
L71630 70422
L71572 70394
L71544 70337
L71544 70280
L71572 70222
L71630 70194
L71772 70194
L71830 70165
" />
<path d="M72087 70394
L72144 70422
L72258 70422
L72315 70394
L72344 70337
L72344 70308
L72315 70251
L72258 70222
L72172 70222
L72115 70194
L72087 70137
L72087 70108
L72115 70051
L72172 70022
L72258 70022
L72315 70051
" />
<path d="M72830 70394
L72772 70422
L72658 70422
L72601 70394
L72572 70337
L72572 70108
L72601 70051
L72658 70022
L72772 70022
L72830 70051
L72858 70108
L72858 70165
L72572 70222
" />
<path d="M73572 70022
L73572 70622
" />
<path d="M73572 70051
L73630 70022
L73744 70022
L73801 70051
L73830 70080
L73858 70137
L73858 70308
L73830 70365
L73801 70394
L73744 70422
L73630 70422
L73572 70394
" />
<path d="M74372 70422
L74372 70108
L74344 70051
L74287 70022
L74172 70022
L74115 70051
" />
<path d="M74372 70394
L74315 70422
L74172 70422
L74115 70394
L74087 70337
L74087 70280
L74115 70222
L74172 70194
L74315 70194
L74372 70165
" />
<path d="M74658 70022
L74658 70422
" />
<path d="M74658 70080
L74687 70051
L74744 70022
L74830 70022
L74887 70051
L74915 70108
L74915 70422
" />
<path d="M75430 70394
L75372 70422
L75258 70422
L75201 70394
L75172 70337
L75172 70108
L75201 70051
L75258 70022
L75372 70022
L75430 70051
L75458 70108
L75458 70165
L75172 70222
" />
<path d="M75801 70422
L75744 70394
L75715 70337
L75715 69822
" />
<path d="M70230 69580
L70230 77980
" />
<path d="M70230 71980
L112230 71980
" />
<path d="M70230 69580
L112230 69580
" />
<path d="M70230 74380
L112230 74380
" />
<path d="M103430 75580
L103430 77980
" />
<path d="M70230 76780
L112230 76780
" />
<path d="M70230 75580
L112230 75580
" />
<path d="M76830 75580
L76830 76780
" />
</g>
<g style="fill:#000000; fill-opacity:0.0; 
stroke:#000000; stroke-width:118.11; stroke-opacity:1; 
stroke-linecap:round; stroke-linejoin:round;">
<path d="M44433 62739
L44433 62148
L44236 62570
L44039 62148
L44039 62739
" />
<path d="M43758 62739
L43758 62148
L43561 62570
L43365 62148
L43365 62739
" />
<path d="M43140 62148
L42774 62148
L42971 62373
L42886 62373
L42830 62401
L42802 62429
L42774 62485
L42774 62626
L42802 62682
L42830 62710
L42886 62739
L43055 62739
L43111 62710
L43140 62682
" />
<path d="M42521 62739
L42521 62148
L42380 62148
L42296 62176
L42240 62232
L42212 62289
L42183 62401
L42183 62485
L42212 62598
L42240 62654
L42296 62710
L42380 62739
L42521 62739
" />
<path d="M41480 62739
L41480 62148
" />
<path d="M41480 62373
L41424 62345
L41312 62345
L41255 62373
L41227 62401
L41199 62457
L41199 62626
L41227 62682
L41255 62710
L41312 62739
L41424 62739
L41480 62710
" />
<path d="M40693 62739
L40693 62429
L40721 62373
L40777 62345
L40890 62345
L40946 62373
" />
<path d="M40693 62710
L40749 62739
L40890 62739
L40946 62710
L40974 62654
L40974 62598
L40946 62542
L40890 62514
L40749 62514
L40693 62485
" />
<path d="M40440 62710
L40384 62739
L40271 62739
L40215 62710
L40187 62654
L40187 62626
L40215 62570
L40271 62542
L40356 62542
L40412 62514
L40440 62457
L40440 62429
L40412 62373
L40356 62345
L40271 62345
L40215 62373
" />
<path d="M39709 62710
L39765 62739
L39877 62739
L39934 62710
L39962 62654
L39962 62429
L39934 62373
L39877 62345
L39765 62345
L39709 62373
L39681 62429
L39681 62485
L39962 62542
" />
<path d="M38978 62345
L38978 62935
" />
<path d="M38978 62373
L38921 62345
L38809 62345
L38753 62373
L38724 62401
L38696 62457
L38696 62626
L38724 62682
L38753 62710
L38809 62739
L38921 62739
L38978 62710
" />
<path d="M38190 62739
L38190 62429
L38218 62373
L38275 62345
L38387 62345
L38443 62373
" />
<path d="M38190 62710
L38246 62739
L38387 62739
L38443 62710
L38471 62654
L38471 62598
L38443 62542
L38387 62514
L38246 62514
L38190 62485
" />
<path d="M37909 62345
L37909 62739
" />
<path d="M37909 62401
L37881 62373
L37825 62345
L37740 62345
L37684 62373
L37656 62429
L37656 62739
" />
<path d="M37150 62710
L37206 62739
L37318 62739
L37375 62710
L37403 62654
L37403 62429
L37375 62373
L37318 62345
L37206 62345
L37150 62373
L37122 62429
L37122 62485
L37403 62542
" />
<path d="M36784 62739
L36840 62710
L36868 62654
L36868 62148
" />
<path d="M36165 62345
L36025 62739
L35884 62345
" />
<path d="M35350 62739
L35687 62739
" />
<path d="M35519 62739
L35519 62148
L35575 62232
L35631 62289
L35687 62317
" />
<path d="M35069 62739
L34956 62739
L34900 62710
L34872 62682
L34816 62598
L34787 62485
L34787 62260
L34816 62204
L34844 62176
L34900 62148
L35012 62148
L35069 62176
L35097 62204
L35125 62260
L35125 62401
L35097 62457
L35069 62485
L35012 62514
L34900 62514
L34844 62485
L34816 62457
L34787 62401
" />
<path d="M34422 62148
L34366 62148
L34309 62176
L34281 62204
L34253 62260
L34225 62373
L34225 62514
L34253 62626
L34281 62682
L34309 62710
L34366 62739
L34422 62739
L34478 62710
L34506 62682
L34534 62626
L34562 62514
L34562 62373
L34534 62260
L34506 62204
L34478 62176
L34422 62148
" />
<path d="M34000 62204
L33972 62176
L33916 62148
L33775 62148
L33719 62176
L33691 62204
L33663 62260
L33663 62317
L33691 62401
L34028 62739
L33663 62739
" />
<path d="M33297 62148
L33241 62148
L33185 62176
L33156 62204
L33128 62260
L33100 62373
L33100 62514
L33128 62626
L33156 62682
L33185 62710
L33241 62739
L33297 62739
L33353 62710
L33381 62682
L33410 62626
L33438 62514
L33438 62373
L33410 62260
L33381 62204
L33353 62176
L33297 62148
" />
<path d="M32903 62148
L32538 62148
L32735 62373
L32650 62373
L32594 62401
L32566 62429
L32538 62485
L32538 62626
L32566 62682
L32594 62710
L32650 62739
L32819 62739
L32875 62710
L32903 62682
" />
<path d="M63953 62739
L63953 62148
" />
<path d="M63700 62739
L63700 62429
L63728 62373
L63785 62345
L63869 62345
L63925 62373
L63953 62401
" />
<path d="M63503 62345
L63278 62345
" />
<path d="M63419 62148
L63419 62654
L63391 62710
L63335 62739
L63278 62739
" />
<path d="M63166 62345
L62941 62345
" />
<path d="M63082 62148
L63082 62654
L63053 62710
L62997 62739
L62941 62739
" />
<path d="M62744 62345
L62744 62935
" />
<path d="M62744 62373
L62688 62345
L62575 62345
L62519 62373
L62491 62401
L62463 62457
L62463 62626
L62491 62682
L62519 62710
L62575 62739
L62688 62739
L62744 62710
" />
<path d="M62210 62682
L62182 62710
L62210 62739
L62238 62710
L62210 62682
L62210 62739
" />
<path d="M62210 62373
L62182 62401
L62210 62429
L62238 62401
L62210 62373
L62210 62429
" />
<path d="M61507 62120
L62013 62879
" />
<path d="M60888 62120
L61394 62879
" />
<path d="M60748 62345
L60635 62739
L60523 62457
L60410 62739
L60298 62345
" />
<path d="M60129 62345
L60016 62739
L59904 62457
L59791 62739
L59679 62345
" />
<path d="M59510 62345
L59398 62739
L59285 62457
L59173 62739
L59060 62345
" />
<path d="M58835 62682
L58807 62710
L58835 62739
L58863 62710
L58835 62682
L58835 62739
" />
<path d="M58582 62710
L58526 62739
L58413 62739
L58357 62710
L58329 62654
L58329 62626
L58357 62570
L58413 62542
L58498 62542
L58554 62514
L58582 62457
L58582 62429
L58554 62373
L58498 62345
L58413 62345
L58357 62373
" />
<path d="M58132 62345
L57823 62345
L58132 62739
L57823 62739
" />
<path d="M57373 62710
L57429 62739
L57542 62739
L57598 62710
L57626 62654
L57626 62429
L57598 62373
L57542 62345
L57429 62345
L57373 62373
L57345 62429
L57345 62485
L57626 62542
" />
<path d="M57092 62739
L57092 62345
" />
<path d="M57092 62457
L57064 62401
L57035 62373
L56979 62345
L56923 62345
" />
<path d="M56473 62739
L56473 62429
L56501 62373
L56557 62345
L56670 62345
L56726 62373
" />
<path d="M56473 62710
L56529 62739
L56670 62739
L56726 62710
L56754 62654
L56754 62598
L56726 62542
L56670 62514
L56529 62514
L56473 62485
" />
<path d="M56276 62345
L56051 62345
" />
<path d="M56192 62739
L56192 62232
L56164 62176
L56107 62148
L56051 62148
" />
<path d="M55854 62739
L55854 62345
" />
<path d="M55854 62148
L55883 62176
L55854 62204
L55826 62176
L55854 62148
L55854 62204
" />
<path d="M55573 62345
L55573 62739
" />
<path d="M55573 62401
L55545 62373
L55489 62345
L55404 62345
L55348 62373
L55320 62429
L55320 62739
" />
<path d="M54786 62345
L54786 62823
L54814 62879
L54842 62907
L54898 62935
L54983 62935
L55039 62907
" />
<path d="M54786 62710
L54842 62739
L54955 62739
L55011 62710
L55039 62682
L55067 62626
L55067 62457
L55039 62401
L55011 62373
L54955 62345
L54842 62345
L54786 62373
" />
<path d="M54420 62739
L54476 62710
L54505 62682
L54533 62626
L54533 62457
L54505 62401
L54476 62373
L54420 62345
L54336 62345
L54280 62373
L54251 62401
L54223 62457
L54223 62626
L54251 62682
L54280 62710
L54336 62739
L54420 62739
" />
<path d="M53970 62739
L53970 62345
" />
<path d="M53970 62401
L53942 62373
L53886 62345
L53802 62345
L53745 62373
L53717 62429
L53717 62739
" />
<path d="M53717 62429
L53689 62373
L53633 62345
L53548 62345
L53492 62373
L53464 62429
L53464 62739
" />
<path d="M53183 62739
L53183 62148
" />
<path d="M53183 62373
L53127 62345
L53014 62345
L52958 62373
L52930 62401
L52902 62457
L52902 62626
L52930 62682
L52958 62710
L53014 62739
L53127 62739
L53183 62710
" />
<path d="M52395 62739
L52395 62429
L52424 62373
L52480 62345
L52592 62345
L52649 62373
" />
<path d="M52395 62710
L52452 62739
L52592 62739
L52649 62710
L52677 62654
L52677 62598
L52649 62542
L52592 62514
L52452 62514
L52395 62485
" />
<path d="M52114 62682
L52086 62710
L52114 62739
L52142 62710
L52114 62682
L52114 62739
" />
<path d="M51833 62739
L51833 62148
" />
<path d="M51580 62739
L51580 62429
L51608 62373
L51664 62345
L51749 62345
L51805 62373
L51833 62401
" />
<path d="M51046 62345
L51046 62739
" />
<path d="M51299 62345
L51299 62654
L51271 62710
L51214 62739
L51130 62739
L51074 62710
L51046 62682
" />
<path d="M91039 54118
L91067 54081
L91123 53968
L91151 53893
L91179 53781
L91208 53593
L91208 53443
L91179 53256
L91151 53143
L91123 53068
L91067 52956
L91039 52918
" />
<path d="M90476 53743
L90505 53781
L90589 53818
L90645 53818
L90730 53781
L90786 53706
L90814 53631
L90842 53481
L90842 53368
L90814 53218
L90786 53143
L90730 53068
L90645 53031
L90589 53031
L90505 53068
L90476 53106
" />
<path d="M90280 54118
L90251 54081
L90195 53968
L90167 53893
L90139 53781
L90111 53593
L90111 53443
L90139 53256
L90167 53143
L90195 53068
L90251 52956
L90280 52918
" />
<path d="M89408 53106
L89380 53068
L89323 53031
L89183 53031
L89127 53068
L89098 53106
L89070 53181
L89070 53256
L89098 53368
L89436 53818
L89070 53818
" />
<path d="M88705 53031
L88649 53031
L88592 53068
L88564 53106
L88536 53181
L88508 53331
L88508 53518
L88536 53668
L88564 53743
L88592 53781
L88649 53818
L88705 53818
L88761 53781
L88789 53743
L88817 53668
L88845 53518
L88845 53331
L88817 53181
L88789 53106
L88761 53068
L88705 53031
" />
<path d="M87946 53818
L88283 53818
" />
<path d="M88114 53818
L88114 53031
L88170 53143
L88227 53218
L88283 53256
" />
<path d="M87608 53368
L87664 53331
L87692 53293
L87721 53218
L87721 53181
L87692 53106
L87664 53068
L87608 53031
L87496 53031
L87439 53068
L87411 53106
L87383 53181
L87383 53218
L87411 53293
L87439 53331
L87496 53368
L87608 53368
L87664 53406
L87692 53443
L87721 53518
L87721 53668
L87692 53743
L87664 53781
L87608 53818
L87496 53818
L87439 53781
L87411 53743
L87383 53668
L87383 53518
L87411 53443
L87439 53406
L87496 53368
" />
<path d="M87130 53518
L86680 53518
" />
<path d="M86427 53106
L86399 53068
L86343 53031
L86202 53031
L86146 53068
L86118 53106
L86089 53181
L86089 53256
L86118 53368
L86455 53818
L86089 53818
" />
<path d="M85724 53031
L85668 53031
L85611 53068
L85583 53106
L85555 53181
L85527 53331
L85527 53518
L85555 53668
L85583 53743
L85611 53781
L85668 53818
L85724 53818
L85780 53781
L85808 53743
L85836 53668
L85865 53518
L85865 53331
L85836 53181
L85808 53106
L85780 53068
L85724 53031
" />
<path d="M84965 53818
L85302 53818
" />
<path d="M85133 53818
L85133 53031
L85190 53143
L85246 53218
L85302 53256
" />
<path d="M84683 53818
L84571 53818
L84515 53781
L84487 53743
L84430 53631
L84402 53481
L84402 53181
L84430 53106
L84458 53068
L84515 53031
L84627 53031
L84683 53068
L84712 53106
L84740 53181
L84740 53368
L84712 53443
L84683 53481
L84627 53518
L84515 53518
L84458 53481
L84430 53443
L84402 53368
" />
<path d="M83699 53818
L83699 53031
L83474 53031
L83418 53068
L83390 53106
L83362 53181
L83362 53293
L83390 53368
L83418 53406
L83474 53443
L83699 53443
" />
<path d="M83024 53818
L83080 53781
L83109 53743
L83137 53668
L83137 53443
L83109 53368
L83080 53331
L83024 53293
L82940 53293
L82884 53331
L82856 53368
L82827 53443
L82827 53668
L82856 53743
L82884 53781
L82940 53818
L83024 53818
" />
<path d="M82631 53293
L82321 53293
L82631 53818
L82321 53818
" />
<path d="M82124 53781
L82068 53818
L81956 53818
L81899 53781
L81871 53706
L81871 53668
L81899 53593
L81956 53556
L82040 53556
L82096 53518
L82124 53443
L82124 53406
L82096 53331
L82040 53293
L81956 53293
L81899 53331
" />
<path d="M81365 53818
L81365 53406
L81393 53331
L81449 53293
L81562 53293
L81618 53331
" />
<path d="M81365 53781
L81421 53818
L81562 53818
L81618 53781
L81646 53706
L81646 53631
L81618 53556
L81562 53518
L81421 53518
L81365 53481
" />
<path d="M81449 52993
L81534 53106
" />
<path d="M81084 53818
L81084 53293
" />
<path d="M81084 53443
L81056 53368
L81028 53331
L80971 53293
L80915 53293
" />
<path d="M80325 53031
L79931 53031
L80325 53818
L79931 53818
" />
<path d="M79734 53781
L79678 53818
L79565 53818
L79509 53781
L79481 53706
L79481 53668
L79509 53593
L79565 53556
L79650 53556
L79706 53518
L79734 53443
L79734 53406
L79706 53331
L79650 53293
L79565 53293
L79509 53331
" />
<path d="M79143 53818
L79200 53781
L79228 53743
L79256 53668
L79256 53443
L79228 53368
L79200 53331
L79143 53293
L79059 53293
L79003 53331
L78975 53368
L78947 53443
L78947 53668
L78975 53743
L79003 53781
L79059 53818
L79143 53818
" />
<path d="M78609 53818
L78665 53781
L78694 53706
L78694 53031
" />
<path d="M78469 53293
L78244 53293
" />
<path d="M78384 53031
L78384 53706
L78356 53781
L78300 53818
L78244 53818
" />
<path d="M77259 53743
L77287 53781
L77372 53818
L77428 53818
L77512 53781
L77569 53706
L77597 53631
L77625 53481
L77625 53368
L77597 53218
L77569 53143
L77512 53068
L77428 53031
L77372 53031
L77287 53068
L77259 53106
" />
<path d="M76669 53743
L76697 53781
L76781 53818
L76838 53818
L76922 53781
L76978 53706
L77006 53631
L77034 53481
L77034 53368
L77006 53218
L76978 53143
L76922 53068
L76838 53031
L76781 53031
L76697 53068
L76669 53106
" />
<path d="M76416 53518
L75966 53518
" />
<path d="M75488 53406
L75403 53443
L75375 53481
L75347 53556
L75347 53668
L75375 53743
L75403 53781
L75460 53818
L75685 53818
L75685 53031
L75488 53031
L75431 53068
L75403 53106
L75375 53181
L75375 53256
L75403 53331
L75431 53368
L75488 53406
L75685 53406
" />
<path d="M74982 53443
L74982 53818
" />
<path d="M75178 53031
L74982 53443
L74785 53031
" />
<path d="M74588 53518
L74138 53518
" />
<path d="M73857 53818
L73857 53031
L73519 53818
L73519 53031
" />
<path d="M72901 53743
L72929 53781
L73013 53818
L73069 53818
L73154 53781
L73210 53706
L73238 53631
L73266 53481
L73266 53368
L73238 53218
L73210 53143
L73154 53068
L73069 53031
L73013 53031
L72929 53068
L72901 53106
" />
<path d="M72647 53518
L72197 53518
" />
<path d="M71663 53293
L71663 53818
" />
<path d="M71804 52993
L71944 53556
L71579 53556
" />
<path d="M71354 53743
L71326 53781
L71354 53818
L71382 53781
L71354 53743
L71354 53818
" />
<path d="M70960 53031
L70904 53031
L70848 53068
L70820 53106
L70791 53181
L70763 53331
L70763 53518
L70791 53668
L70820 53743
L70848 53781
L70904 53818
L70960 53818
L71016 53781
L71044 53743
L71073 53668
L71101 53518
L71101 53331
L71073 53181
L71044 53106
L71016 53068
L70960 53031
" />
</g>
<g style="fill:#000000; fill-opacity:0.0; 
stroke:#000000; stroke-width:39.3701; stroke-opacity:1; 
stroke-linecap:round; stroke-linejoin:round;">
<path d="M84000 64500
L30500 64500
" />
<path d="M84000 56500
L84000 64500
" />
<path d="M92000 56500
L84000 56500
" />
<path d="M92000 21000
L92000 56500
" />
<path d="M84000 21000
L92000 21000
" />
<path d="M84000 13000
L84000 21000
" />
<path d="M30500 13000
L84000 13000
" />
<path d="M30500 21000
L30500 13000
" />
<path d="M22500 21000
L30500 21000
" />
<path d="M22500 56500
L22500 21000
" />
<path d="M30500 56500
L22500 56500
" />
<path d="M30500 64500
L30500 56500
" />
<path d="M55000 64500
L81500 64500
" />
<path d="M55000 64500
L31000 64500
" />
</g>
<g style="fill:#000000; fill-opacity:1.0; 
stroke:#000000; stroke-width:39.3701; stroke-opacity:1; 
stroke-linecap:round; stroke-linejoin:round;">
<polyline style="fill-rule:evenodd;"
points="60719,32219
61280,32219
61280,32780
60719,32780
60719,32219
" /> 
<circle cx="62000" cy="32500" r="280.315" /> 
<circle cx="61000" cy="37500" r="280.315" /> 
<circle cx="62000" cy="33500" r="280.315" /> 
<circle cx="61000" cy="38500" r="280.315" /> 
<circle cx="62000" cy="34500" r="280.315" /> 
<circle cx="61000" cy="39500" r="280.315" /> 
<circle cx="62000" cy="35500" r="280.315" /> 
<circle cx="61000" cy="40500" r="280.315" /> 
<circle cx="62000" cy="36500" r="280.315" /> 
<circle cx="61000" cy="41500" r="280.315" /> 
<circle cx="62000" cy="37500" r="280.315" /> 
<circle cx="61000" cy="42500" r="280.315" /> 
<circle cx="62000" cy="38500" r="280.315" /> 
<circle cx="61000" cy="43500" r="280.315" /> 
<circle cx="62000" cy="39500" r="280.315" /> 
<circle cx="61000" cy="44500" r="280.315" /> 
<circle cx="62000" cy="40500" r="280.315" /> 
<circle cx="61000" cy="45500" r="280.315" /> 
<circle cx="62000" cy="41500" r="280.315" /> 
<circle cx="61000" cy="46500" r="280.315" /> 
<circle cx="62000" cy="42500" r="280.315" /> 
<circle cx="61000" cy="47500" r="280.315" /> 
<circle cx="62000" cy="43500" r="280.315" /> 
<circle cx="62000" cy="44500" r="280.315" /> 
<circle cx="61000" cy="48500" r="280.315" /> 
<circle cx="62000" cy="45500" r="280.315" /> 
<circle cx="62000" cy="47500" r="280.315" /> 
<circle cx="62000" cy="48500" r="280.315" /> 
<circle cx="62000" cy="49500" r="280.315" /> 
<circle cx="62000" cy="50500" r="280.315" /> 
<circle cx="61000" cy="49500" r="280.315" /> 
<circle cx="61000" cy="50500" r="280.315" /> 
<circle cx="61000" cy="33500" r="280.315" /> 
<circle cx="61000" cy="34500" r="280.315" /> 
<circle cx="61000" cy="35500" r="280.315" /> 
<circle cx="61000" cy="36500" r="280.315" /> 
<circle cx="61000" cy="51500" r="280.315" /> 
<circle cx="62000" cy="51500" r="280.315" /> 
<circle cx="62000" cy="46500" r="280.315" /> 
</g>
<g style="fill:#000000; fill-opacity:1.0; 
stroke:#000000; stroke-width:780; stroke-opacity:1; 
stroke-linecap:round; stroke-linejoin:round;">
<path d="M32390 52010
L31610 52010
" />
<path d="M32390 53980
L31610 53980
" />
<path d="M32390 48010
L31610 48010
" />
<path d="M32390 49980
L31610 49980
" />
<path d="M32390 44010
L31610 44010
" />
<path d="M32390 45980
L31610 45980
" />
<path d="M32390 40010
L31610 40010
" />
<path d="M32390 41980
L31610 41980
" />
</g>
<g style="fill:#000000; fill-opacity:1.0; 
stroke:#000000; stroke-width:39.3701; stroke-opacity:1; 
stroke-linecap:round; stroke-linejoin:round;">
<polyline style="fill-rule:evenodd;"
points="37244,59755
37244,59244
37755,59244
37755,59755
37244,59755
" /> 
<circle cx="38500" cy="59500" r="255.315" /> 
<circle cx="39500" cy="59500" r="255.315" /> 
<circle cx="40500" cy="59500" r="255.315" /> 
<circle cx="41500" cy="59500" r="255.315" /> 
<circle cx="42500" cy="59500" r="255.315" /> 
<circle cx="43500" cy="59500" r="255.315" /> 
<circle cx="44500" cy="59500" r="255.315" /> 
<circle cx="45500" cy="59500" r="255.315" /> 
<circle cx="46500" cy="59500" r="255.315" /> 
<circle cx="47500" cy="59500" r="255.315" /> 
<circle cx="48500" cy="59500" r="255.315" /> 
<circle cx="49500" cy="59500" r="255.315" /> 
<circle cx="38500" cy="53500" r="780.315" /> 
<circle cx="57500" cy="53500" r="780.315" /> 
<circle cx="38500" cy="30500" r="780.315" /> 
<circle cx="57500" cy="30500" r="780.315" /> 
<circle cx="65500" cy="23000" r="780.315" /> 
<circle cx="84500" cy="23000" r="780.315" /> 
<circle cx="65500" cy="49500" r="780.315" /> 
<circle cx="84500" cy="49500" r="780.315" /> 
</g>
<g style="fill:#000000; fill-opacity:1.0; 
stroke:#000000; stroke-width:780; stroke-opacity:1; 
stroke-linecap:round; stroke-linejoin:round;">
<path d="M32390 32010
L31610 32010
" />
<path d="M32390 33980
L31610 33980
" />
<path d="M32390 36010
L31610 36010
" />
<path d="M32390 37980
L31610 37980
" />
</g>
<g style="fill:#000000; fill-opacity:1.0; 
stroke:#000000; stroke-width:39.3701; stroke-opacity:1; 
stroke-linecap:round; stroke-linejoin:round;">
<polyline style="fill-rule:evenodd;"
points="54255,20255
53744,20255
53744,19744
54255,19744
54255,20255
" /> 
<circle cx="54000" cy="19000" r="255.315" /> 
<circle cx="54000" cy="18000" r="255.315" /> 
<circle cx="54000" cy="17000" r="255.315" /> 
<polyline style="fill-rule:evenodd;"
points="59255,20255
58744,20255
58744,19744
59255,19744
59255,20255
" /> 
<circle cx="59000" cy="19000" r="255.315" /> 
<circle cx="59000" cy="18000" r="255.315" /> 
<circle cx="59000" cy="17000" r="255.315" /> 
<polyline style="fill-rule:evenodd;"
points="38244,15755
38244,15244
38755,15244
38755,15755
38244,15755
" /> 
<circle cx="39500" cy="15500" r="255.315" /> 
<circle cx="40500" cy="15500" r="255.315" /> 
<circle cx="41500" cy="15500" r="255.315" /> 
<circle cx="42500" cy="15500" r="255.315" /> 
<circle cx="43500" cy="15500" r="255.315" /> 
<polyline style="fill-rule:evenodd;"
points="38244,19755
38244,19244
38755,19244
38755,19755
38244,19755
" /> 
<circle cx="39500" cy="19500" r="255.315" /> 
<circle cx="40500" cy="19500" r="255.315" /> 
<circle cx="41500" cy="19500" r="255.315" /> 
<circle cx="42500" cy="19500" r="255.315" /> 
<circle cx="43500" cy="19500" r="255.315" /> 
<circle cx="27000" cy="38500" r="780.315" /> 
<circle cx="67500" cy="15500" r="780.315" /> 
<circle cx="88000" cy="38000" r="780.315" /> 
<circle cx="47000" cy="62000" r="780.315" /> 
<circle cx="67500" cy="62000" r="780.315" /> 
<polyline style="fill-rule:evenodd;"
points="35480,58019
35480,58980
34519,58980
34519,58019
35480,58019
" /> 
<circle cx="33000" cy="58500" r="480.315" /> 
<polyline style="fill-rule:evenodd;"
points="46244,58255
46244,57744
46755,57744
46755,58255
46244,58255
" /> 
<circle cx="47500" cy="58000" r="255.315" /> 
<circle cx="48500" cy="58000" r="255.315" /> 
<circle cx="49500" cy="58000" r="255.315" /> 
<polyline style="fill-rule:evenodd;"
points="67244,59755
67244,59244
67755,59244
67755,59755
67244,59755
" /> 
<circle cx="68500" cy="59500" r="255.315" /> 
<circle cx="69500" cy="59500" r="255.315" /> 
<circle cx="55500" cy="15500" r="295.276" /> 
<circle cx="74000" cy="19000" r="295.276" /> 
<circle cx="68500" cy="56000" r="295.276" /> 
<circle cx="55500" cy="32500" r="295.276" /> 
<circle cx="51500" cy="41000" r="295.276" /> 
<circle cx="41500" cy="16500" r="295.276" /> 
<circle cx="41000" cy="21000" r="295.276" /> 
<circle cx="27500" cy="50000" r="295.276" /> 
<circle cx="62000" cy="29500" r="295.276" /> 
<circle cx="53500" cy="23500" r="295.276" /> 
<circle cx="53500" cy="43500" r="295.276" /> 
<circle cx="54500" cy="22500" r="295.276" /> 
<circle cx="38500" cy="48000" r="295.276" /> 
<circle cx="52500" cy="37500" r="295.276" /> 
<circle cx="52500" cy="15500" r="295.276" /> 
<circle cx="51500" cy="16500" r="295.276" /> 
<circle cx="51500" cy="35500" r="295.276" /> 
<circle cx="50500" cy="34500" r="295.276" /> 
<circle cx="50500" cy="17500" r="295.276" /> 
<circle cx="49500" cy="18500" r="295.276" /> 
<circle cx="49500" cy="33500" r="295.276" /> 
<circle cx="44500" cy="40000" r="295.276" /> 
<circle cx="38500" cy="40000" r="295.276" /> 
<circle cx="43500" cy="38000" r="295.276" /> 
<circle cx="38500" cy="38000" r="295.276" /> 
<circle cx="42500" cy="36000" r="295.276" /> 
<circle cx="38500" cy="36000" r="295.276" /> 
<circle cx="41500" cy="34000" r="295.276" /> 
<circle cx="38500" cy="34000" r="295.276" /> 
<circle cx="71000" cy="39500" r="295.276" /> 
<circle cx="71000" cy="29000" r="295.276" /> 
<circle cx="70000" cy="28000" r="295.276" /> 
<circle cx="70000" cy="37500" r="295.276" /> 
<circle cx="69000" cy="36500" r="295.276" /> 
<circle cx="69000" cy="27000" r="295.276" /> 
<circle cx="68000" cy="26000" r="295.276" /> 
<circle cx="68000" cy="35500" r="295.276" /> 
<circle cx="67000" cy="25000" r="295.276" /> 
<circle cx="47500" cy="24500" r="295.276" /> 
<circle cx="40500" cy="24500" r="295.276" /> 
<circle cx="67000" cy="40500" r="295.276" /> 
</g>
<g style="fill:#000000; fill-opacity:1.0; 
stroke:#000000; stroke-width:393.701; stroke-opacity:1; 
stroke-linecap:round; stroke-linejoin:round;">
<path d="M25000 53980
L24980 53980
" />
<path d="M24500 45980
L24500 53500
" />
<path d="M25000 53980
L32000 53980
" />
<path d="M24980 53980
L24500 53500
" />
<path d="M54000 17000
L55000 17000
" />
<path d="M55500 16500
L55500 15500
" />
<path d="M55000 17000
L55500 16500
" />
<path d="M69500 59500
L69500 43500
" />
<path d="M74000 42000
L74000 19000
" />
<path d="M73000 43000
L74000 42000
" />
<path d="M70000 43000
L73000 43000
" />
<path d="M69500 43500
L70000 43000
" />
<path d="M61000 32500
L55500 32500
" />
<path d="M68500 56000
L68500 59500
" />
<path d="M41500 15500
L41500 16500
" />
<path d="M52000 40500
L51500 41000
" />
<path d="M52000 40500
L61000 40500
" />
<path d="M41500 19500
L41500 20500
" />
<path d="M41500 20500
L41000 21000
" />
<path d="M62000 32500
L62000 29500
" />
<path d="M27520 49980
L32000 49980
" />
<path d="M27500 50000
L27520 49980
" />
<path d="M72000 38500
L70500 38500
" />
<path d="M70500 38500
L62000 38500
" />
<path d="M67500 59500
L67500 42000
" />
<path d="M72000 41000
L72000 38500
" />
<path d="M72000 38500
L72000 38000
" />
<path d="M71500 41500
L72000 41000
" />
<path d="M68000 41500
L71500 41500
" />
<path d="M67500 42000
L68000 41500
" />
<path d="M62000 33500
L62000 32500
" />
<path d="M54000 14500
L54000 15500
" />
<path d="M54000 15500
L52500 17000
" />
<path d="M52500 17000
L52500 19500
" />
<path d="M52500 19500
L53000 20000
" />
<path d="M53000 20000
L54000 20000
" />
<path d="M72000 34500
L71000 34500
" />
<path d="M71000 34500
L62000 34500
" />
<path d="M53500 14500
L54000 14500
" />
<path d="M54000 14500
L64500 14500
" />
<path d="M72000 18000
L72000 34500
" />
<path d="M72000 34500
L72000 38000
" />
<path d="M71500 17500
L72000 18000
" />
<path d="M66000 17500
L71500 17500
" />
<path d="M65500 17000
L66000 17500
" />
<path d="M65500 15000
L65500 17000
" />
<path d="M65000 14500
L65500 15000
" />
<path d="M64500 14500
L65000 14500
" />
<path d="M40500 14500
L53500 14500
" />
<path d="M57000 21500
L57000 19500
" />
<path d="M61000 43500
L53500 43500
" />
<path d="M55000 23500
L57000 21500
" />
<path d="M53500 23500
L55000 23500
" />
<path d="M57500 19000
L59000 19000
" />
<path d="M57000 19500
L57500 19000
" />
<path d="M54000 19000
L55000 19000
" />
<path d="M54500 22500
L55500 21500
" />
<path d="M38490 48010
L32000 48010
" />
<path d="M38490 48010
L38500 48000
" />
<path d="M55500 19500
L55500 21500
" />
<path d="M55000 19000
L55500 19500
" />
<path d="M35000 58500
L35000 57000
" />
<path d="M35000 57000
L35500 56500
" />
<path d="M35500 56500
L36000 56000
" />
<path d="M36000 56000
L36000 50500
" />
<path d="M36000 50500
L35480 49980
" />
<path d="M35480 49980
L32000 49980
" />
<path d="M33000 58500
L33000 56500
" />
<path d="M32010 52000
L32000 52010
" />
<path d="M34500 52000
L32010 52000
" />
<path d="M35000 52500
L34500 52000
" />
<path d="M35000 55500
L35000 52500
" />
<path d="M34500 56000
L35000 55500
" />
<path d="M33500 56000
L34500 56000
" />
<path d="M33000 56500
L33500 56000
" />
<path d="M24510 32010
L24510 23510
" />
<path d="M40500 14500
L36500 14500
" />
<path d="M40500 14500
L40500 15500
" />
<path d="M33000 14500
L36500 14500
" />
<path d="M32500 15000
L33000 14500
" />
<path d="M32500 22500
L32500 15000
" />
<path d="M32000 23000
L32500 22500
" />
<path d="M31500 23000
L32000 23000
" />
<path d="M31480 23020
L31500 23000
" />
<path d="M25000 23020
L31480 23020
" />
<path d="M24510 23510
L25000 23020
" />
<path d="M45000 15500
L52500 15500
" />
<path d="M43500 15500
L45000 15500
" />
<path d="M52500 37500
L61000 37500
" />
<path d="M61000 35500
L51500 35500
" />
<path d="M42500 16000
L43000 16500
" />
<path d="M43000 16500
L45000 16500
" />
<path d="M42500 16000
L42500 15500
" />
<path d="M51500 16500
L45000 16500
" />
<path d="M45000 17500
L50500 17500
" />
<path d="M39500 17000
L40000 17500
" />
<path d="M40000 17500
L45000 17500
" />
<path d="M39500 15500
L39500 17000
" />
<path d="M50500 34500
L61000 34500
" />
<path d="M61000 33500
L49500 33500
" />
<path d="M38500 18000
L39000 18500
" />
<path d="M39000 18500
L45000 18500
" />
<path d="M38500 18000
L38500 15500
" />
<path d="M49500 18500
L45000 18500
" />
<path d="M44500 27500
L44500 22500
" />
<path d="M44500 40000
L44500 27500
" />
<path d="M43500 21500
L43500 19500
" />
<path d="M44500 22500
L43500 21500
" />
<path d="M43500 27500
L43500 23000
" />
<path d="M43500 38000
L43500 27500
" />
<path d="M42500 22000
L42500 19500
" />
<path d="M43500 23000
L42500 22000
" />
<path d="M38500 19500
L38500 20000
" />
<path d="M41500 24000
L41000 23500
" />
<path d="M41000 23500
L39000 23500
" />
<path d="M39000 23500
L38500 23000
" />
<path d="M38500 23000
L38500 20000
" />
<path d="M41500 27500
L41500 34000
" />
<path d="M41500 27500
L41500 24000
" />
<path d="M42500 27500
L42500 23500
" />
<path d="M42500 36000
L42500 27500
" />
<path d="M39500 22000
L39500 19500
" />
<path d="M40000 22500
L39500 22000
" />
<path d="M41500 22500
L40000 22500
" />
<path d="M42500 23500
L41500 22500
" />
<path d="M32000 45980
L24500 45980
" />
<path d="M32000 32010
L24510 32010
" />
<path d="M24500 32020
L24500 45980
" />
<path d="M24510 32010
L24500 32020
" />
<path d="M32000 40010
L38490 40010
" />
<path d="M38490 40010
L38500 40000
" />
<path d="M32000 37980
L38480 37980
" />
<path d="M38480 37980
L38500 38000
" />
<path d="M32000 36010
L38490 36010
" />
<path d="M38490 36010
L38500 36000
" />
<path d="M32000 33980
L38480 33980
" />
<path d="M38480 33980
L38500 34000
" />
<path d="M67000 29000
L71000 29000
" />
<path d="M63500 28500
L64000 29000
" />
<path d="M64000 29000
L67000 29000
" />
<path d="M48500 51500
L48500 29000
" />
<path d="M45500 57000
L48500 54000
" />
<path d="M48500 54000
L48500 51500
" />
<path d="M45500 59500
L45500 57000
" />
<path d="M48500 29000
L49000 28500
" />
<path d="M49000 28500
L63500 28500
" />
<path d="M71000 39500
L62000 39500
" />
<path d="M62000 37500
L70000 37500
" />
<path d="M63500 27500
L64000 28000
" />
<path d="M64000 28000
L67000 28000
" />
<path d="M47500 51500
L47500 28500
" />
<path d="M44500 57000
L47500 54000
" />
<path d="M47500 54000
L47500 51500
" />
<path d="M44500 57000
L44500 59500
" />
<path d="M47500 28500
L48500 27500
" />
<path d="M48500 27500
L63500 27500
" />
<path d="M70000 28000
L67000 28000
" />
<path d="M67000 27000
L69000 27000
" />
<path d="M63500 26500
L64000 27000
" />
<path d="M64000 27000
L67000 27000
" />
<path d="M46500 51500
L46500 28000
" />
<path d="M43500 57000
L46500 54000
" />
<path d="M46500 54000
L46500 51500
" />
<path d="M43500 59500
L43500 57000
" />
<path d="M46500 28000
L48000 26500
" />
<path d="M48000 26500
L63500 26500
" />
<path d="M69000 36500
L62000 36500
" />
<path d="M62000 35500
L68000 35500
" />
<path d="M47500 25500
L63500 25500
" />
<path d="M47500 25500
L45500 27500
" />
<path d="M45500 27500
L45500 51500
" />
<path d="M42500 57000
L42500 59500
" />
<path d="M45500 54000
L45500 51500
" />
<path d="M42500 57000
L45500 54000
" />
<path d="M64000 26000
L67000 26000
" />
<path d="M63500 25500
L64000 26000
" />
<path d="M68000 26000
L67000 26000
" />
<path d="M40500 27500
L40500 24500
" />
<path d="M37500 59500
L37500 59000
" />
<path d="M37500 57000
L40500 54000
" />
<path d="M40500 54000
L40500 51500
" />
<path d="M37500 59000
L37500 57000
" />
<path d="M40500 27500
L40500 51500
" />
<path d="M63500 24500
L64000 25000
" />
<path d="M64000 25000
L67000 25000
" />
<path d="M47500 24500
L63500 24500
" />
<path d="M67000 40500
L62000 40500
" />
<path d="M41500 34000
L41500 51500
" />
<path d="M38500 57000
L41500 54000
" />
<path d="M41500 54000
L41500 51500
" />
<path d="M38500 57000
L38500 59500
" />
<path d="M42500 36000
L42500 51500
" />
<path d="M39500 57000
L42500 54000
" />
<path d="M42500 54000
L42500 51500
" />
<path d="M39500 57000
L39500 59500
" />
<path d="M43500 38000
L43500 51500
" />
<path d="M40500 57000
L43500 54000
" />
<path d="M43500 54000
L43500 51500
" />
<path d="M40500 57000
L40500 59500
" />
<path d="M44500 40000
L44500 51500
" />
<path d="M41500 57000
L44500 54000
" />
<path d="M44500 54000
L44500 51500
" />
<path d="M41500 57000
L41500 59500
" />
<path d="M48500 59500
L48500 57000
" />
<path d="M52500 41500
L61000 41500
" />
<path d="M51500 42500
L52500 41500
" />
<path d="M51500 54000
L51500 42500
" />
<path d="M48500 57000
L51500 54000
" />
<path d="M61000 38500
L50500 38500
" />
<path d="M46500 57000
L46500 59500
" />
<path d="M49500 54000
L46500 57000
" />
<path d="M49500 39500
L49500 54000
" />
<path d="M50500 38500
L49500 39500
" />
<path d="M61000 39500
L51000 39500
" />
<path d="M47500 57000
L50500 54000
" />
<path d="M50500 54000
L50500 51500
" />
<path d="M47500 57000
L47500 59500
" />
<path d="M50500 40000
L50500 51500
" />
<path d="M51000 39500
L50500 40000
" />
<path d="M61000 42500
L53000 42500
" />
<path d="M49500 57000
L52500 54000
" />
<path d="M52500 54000
L52500 51500
" />
<path d="M49500 57000
L49500 59500
" />
<path d="M52500 43000
L52500 51500
" />
<path d="M53000 42500
L52500 43000
" />
</g>
<g style="fill:#FFFFFF; fill-opacity:1.0; 
stroke:#FFFFFF; stroke-width:39.3701; stroke-opacity:1; 
stroke-linecap:round; stroke-linejoin:round;">
<circle cx="55500" cy="15500" r="49.2126" /> 
<circle cx="74000" cy="19000" r="49.2126" /> 
<circle cx="68500" cy="56000" r="49.2126" /> 
<circle cx="55500" cy="32500" r="49.2126" /> 
<circle cx="51500" cy="41000" r="49.2126" /> 
<circle cx="41500" cy="16500" r="49.2126" /> 
<circle cx="41000" cy="21000" r="49.2126" /> 
<circle cx="27500" cy="50000" r="49.2126" /> 
<circle cx="62000" cy="29500" r="49.2126" /> 
<circle cx="53500" cy="23500" r="49.2126" /> 
<circle cx="53500" cy="43500" r="49.2126" /> 
<circle cx="54500" cy="22500" r="49.2126" /> 
<circle cx="38500" cy="48000" r="49.2126" /> 
<circle cx="52500" cy="37500" r="49.2126" /> 
<circle cx="52500" cy="15500" r="49.2126" /> 
<circle cx="51500" cy="16500" r="49.2126" /> 
<circle cx="51500" cy="35500" r="49.2126" /> 
<circle cx="50500" cy="34500" r="49.2126" /> 
<circle cx="50500" cy="17500" r="49.2126" /> 
<circle cx="49500" cy="18500" r="49.2126" /> 
<circle cx="49500" cy="33500" r="49.2126" /> 
<circle cx="44500" cy="40000" r="49.2126" /> 
<circle cx="38500" cy="40000" r="49.2126" /> 
<circle cx="43500" cy="38000" r="49.2126" /> 
<circle cx="38500" cy="38000" r="49.2126" /> 
<circle cx="42500" cy="36000" r="49.2126" /> 
<circle cx="38500" cy="36000" r="49.2126" /> 
<circle cx="41500" cy="34000" r="49.2126" /> 
<circle cx="38500" cy="34000" r="49.2126" /> 
<circle cx="71000" cy="39500" r="49.2126" /> 
<circle cx="71000" cy="29000" r="49.2126" /> 
<circle cx="70000" cy="28000" r="49.2126" /> 
<circle cx="70000" cy="37500" r="49.2126" /> 
<circle cx="69000" cy="36500" r="49.2126" /> 
<circle cx="69000" cy="27000" r="49.2126" /> 
<circle cx="68000" cy="26000" r="49.2126" /> 
<circle cx="68000" cy="35500" r="49.2126" /> 
<circle cx="67000" cy="25000" r="49.2126" /> 
<circle cx="47500" cy="24500" r="49.2126" /> 
<circle cx="40500" cy="24500" r="49.2126" /> 
<circle cx="67000" cy="40500" r="49.2126" /> 
<circle cx="61000" cy="32500" r="49.2126" /> 
<circle cx="62000" cy="32500" r="49.2126" /> 
<circle cx="61000" cy="37500" r="49.2126" /> 
<circle cx="62000" cy="33500" r="49.2126" /> 
<circle cx="61000" cy="38500" r="49.2126" /> 
<circle cx="62000" cy="34500" r="49.2126" /> 
<circle cx="61000" cy="39500" r="49.2126" /> 
<circle cx="62000" cy="35500" r="49.2126" /> 
<circle cx="61000" cy="40500" r="49.2126" /> 
<circle cx="62000" cy="36500" r="49.2126" /> 
<circle cx="61000" cy="41500" r="49.2126" /> 
<circle cx="62000" cy="37500" r="49.2126" /> 
<circle cx="61000" cy="42500" r="49.2126" /> 
<circle cx="62000" cy="38500" r="49.2126" /> 
<circle cx="61000" cy="43500" r="49.2126" /> 
<circle cx="62000" cy="39500" r="49.2126" /> 
<circle cx="61000" cy="44500" r="49.2126" /> 
<circle cx="62000" cy="40500" r="49.2126" /> 
<circle cx="61000" cy="45500" r="49.2126" /> 
<circle cx="62000" cy="41500" r="49.2126" /> 
<circle cx="61000" cy="46500" r="49.2126" /> 
<circle cx="62000" cy="42500" r="49.2126" /> 
<circle cx="61000" cy="47500" r="49.2126" /> 
<circle cx="62000" cy="43500" r="49.2126" /> 
<circle cx="62000" cy="44500" r="49.2126" /> 
<circle cx="61000" cy="48500" r="49.2126" /> 
<circle cx="62000" cy="45500" r="49.2126" /> 
<circle cx="62000" cy="47500" r="49.2126" /> 
<circle cx="62000" cy="48500" r="49.2126" /> 
<circle cx="62000" cy="49500" r="49.2126" /> 
<circle cx="62000" cy="50500" r="49.2126" /> 
<circle cx="61000" cy="49500" r="49.2126" /> 
<circle cx="61000" cy="50500" r="49.2126" /> 
<circle cx="61000" cy="33500" r="49.2126" /> 
<circle cx="61000" cy="34500" r="49.2126" /> 
<circle cx="61000" cy="35500" r="49.2126" /> 
<circle cx="61000" cy="36500" r="49.2126" /> 
<circle cx="61000" cy="51500" r="49.2126" /> 
<circle cx="62000" cy="51500" r="49.2126" /> 
<circle cx="62000" cy="46500" r="49.2126" /> 
<circle cx="32000" cy="52010" r="49.2126" /> 
<circle cx="32000" cy="53980" r="49.2126" /> 
<circle cx="32000" cy="48010" r="49.2126" /> 
<circle cx="32000" cy="49980" r="49.2126" /> 
<circle cx="32000" cy="44010" r="49.2126" /> 
<circle cx="32000" cy="45980" r="49.2126" /> 
<circle cx="32000" cy="40010" r="49.2126" /> 
<circle cx="32000" cy="41980" r="49.2126" /> 
<circle cx="37500" cy="59500" r="49.2126" /> 
<circle cx="38500" cy="59500" r="49.2126" /> 
<circle cx="39500" cy="59500" r="49.2126" /> 
<circle cx="40500" cy="59500" r="49.2126" /> 
<circle cx="41500" cy="59500" r="49.2126" /> 
<circle cx="42500" cy="59500" r="49.2126" /> 
<circle cx="43500" cy="59500" r="49.2126" /> 
<circle cx="44500" cy="59500" r="49.2126" /> 
<circle cx="45500" cy="59500" r="49.2126" /> 
<circle cx="46500" cy="59500" r="49.2126" /> 
<circle cx="47500" cy="59500" r="49.2126" /> 
<circle cx="48500" cy="59500" r="49.2126" /> 
<circle cx="49500" cy="59500" r="49.2126" /> 
<circle cx="38500" cy="53500" r="49.2126" /> 
<circle cx="57500" cy="53500" r="49.2126" /> 
<circle cx="38500" cy="30500" r="49.2126" /> 
<circle cx="57500" cy="30500" r="49.2126" /> 
<circle cx="65500" cy="23000" r="49.2126" /> 
<circle cx="84500" cy="23000" r="49.2126" /> 
<circle cx="65500" cy="49500" r="49.2126" /> 
<circle cx="84500" cy="49500" r="49.2126" /> 
<circle cx="32000" cy="32010" r="49.2126" /> 
<circle cx="32000" cy="33980" r="49.2126" /> 
<circle cx="32000" cy="36010" r="49.2126" /> 
<circle cx="32000" cy="37980" r="49.2126" /> 
<circle cx="54000" cy="20000" r="49.2126" /> 
<circle cx="54000" cy="19000" r="49.2126" /> 
<circle cx="54000" cy="18000" r="49.2126" /> 
<circle cx="54000" cy="17000" r="49.2126" /> 
<circle cx="59000" cy="20000" r="49.2126" /> 
<circle cx="59000" cy="19000" r="49.2126" /> 
<circle cx="59000" cy="18000" r="49.2126" /> 
<circle cx="59000" cy="17000" r="49.2126" /> 
<circle cx="38500" cy="15500" r="49.2126" /> 
<circle cx="39500" cy="15500" r="49.2126" /> 
<circle cx="40500" cy="15500" r="49.2126" /> 
<circle cx="41500" cy="15500" r="49.2126" /> 
<circle cx="42500" cy="15500" r="49.2126" /> 
<circle cx="43500" cy="15500" r="49.2126" /> 
<circle cx="38500" cy="19500" r="49.2126" /> 
<circle cx="39500" cy="19500" r="49.2126" /> 
<circle cx="40500" cy="19500" r="49.2126" /> 
<circle cx="41500" cy="19500" r="49.2126" /> 
<circle cx="42500" cy="19500" r="49.2126" /> 
<circle cx="43500" cy="19500" r="49.2126" /> 
<circle cx="27000" cy="38500" r="49.2126" /> 
<circle cx="67500" cy="15500" r="49.2126" /> 
<circle cx="88000" cy="38000" r="49.2126" /> 
<circle cx="47000" cy="62000" r="49.2126" /> 
<circle cx="67500" cy="62000" r="49.2126" /> 
<circle cx="35000" cy="58500" r="49.2126" /> 
<circle cx="33000" cy="58500" r="49.2126" /> 
<circle cx="46500" cy="58000" r="49.2126" /> 
<circle cx="47500" cy="58000" r="49.2126" /> 
<circle cx="48500" cy="58000" r="49.2126" /> 
<circle cx="49500" cy="58000" r="49.2126" /> 
<circle cx="67500" cy="59500" r="49.2126" /> 
<circle cx="68500" cy="59500" r="49.2126" /> 
<circle cx="69500" cy="59500" r="49.2126" /> 
</g> 
</svg>
