<?xml version="1.0" standalone="no"?>
 <!DOCTYPE svg PUBLIC "-//W3C//DTD SVG 1.1//EN" 
 "http://www.w3.org/Graphics/SVG/1.1/DTD/svg11.dtd"> 
<svg xmlns="http://www.w3.org/2000/svg" version="1.1" 
    width="29.7002cm" height="21.0007cm" viewBox="0 0 116930 82680 ">
<title>SVG Picture created as mm3d_front-F_SilkS.svg date 2019/02/02 21:58:22 </title>
  <desc>Picture generated by PCBNEW </desc>
<g style="fill:#000000; fill-opacity:1;stroke:#000000; stroke-opacity:1;
stroke-linecap:round; stroke-linejoin:round; "
 transform="translate(0 0) scale(1 1)">
</g>
<g style="fill:#000000; fill-opacity:0.0; 
stroke:#000000; stroke-width:39.3701; stroke-opacity:1; 
stroke-linecap:round; stroke-linejoin:round;">
<path d="M4000 4000
L112930 4000
L112930 78680
L4000 78680
L4000 4000
" />
<path d="M4700 4700
L112230 4700
L112230 77980
L4700 77980
L4700 4700
" />
<path d="M25780 4000
L25780 4700
" />
<path d="M15032 4552
L14747 4552
" />
<path d="M14890 4552
L14890 4052
L14842 4123
L14794 4171
L14747 4195
" />
<path d="M25780 78680
L25780 77980
" />
<path d="M15032 78532
L14747 78532
" />
<path d="M14890 78532
L14890 78032
L14842 78103
L14794 78151
L14747 78175
" />
<path d="M47560 4000
L47560 4700
" />
<path d="M36527 4100
L36550 4076
L36598 4052
L36717 4052
L36765 4076
L36789 4100
L36812 4147
L36812 4195
L36789 4266
L36503 4552
L36812 4552
" />
<path d="M47560 78680
L47560 77980
" />
<path d="M36527 78080
L36550 78056
L36598 78032
L36717 78032
L36765 78056
L36789 78080
L36812 78127
L36812 78175
L36789 78246
L36503 78532
L36812 78532
" />
<path d="M69340 4000
L69340 4700
" />
<path d="M58283 4052
L58592 4052
L58426 4242
L58497 4242
L58545 4266
L58569 4290
L58592 4338
L58592 4457
L58569 4504
L58545 4528
L58497 4552
L58354 4552
L58307 4528
L58283 4504
" />
<path d="M69340 78680
L69340 77980
" />
<path d="M58283 78032
L58592 78032
L58426 78222
L58497 78222
L58545 78246
L58569 78270
L58592 78318
L58592 78437
L58569 78484
L58545 78508
L58497 78532
L58354 78532
L58307 78508
L58283 78484
" />
<path d="M91120 4000
L91120 4700
" />
<path d="M80325 4219
L80325 4552
" />
<path d="M80206 4028
L80087 4385
L80396 4385
" />
<path d="M91120 78680
L91120 77980
" />
<path d="M80325 78199
L80325 78532
" />
<path d="M80206 78008
L80087 78365
L80396 78365
" />
<path d="M102129 4052
L101890 4052
L101867 4290
L101890 4266
L101938 4242
L102057 4242
L102105 4266
L102129 4290
L102152 4338
L102152 4457
L102129 4504
L102105 4528
L102057 4552
L101938 4552
L101890 4528
L101867 4504
" />
<path d="M102129 78032
L101890 78032
L101867 78270
L101890 78246
L101938 78222
L102057 78222
L102105 78246
L102129 78270
L102152 78318
L102152 78437
L102129 78484
L102105 78508
L102057 78532
L101938 78532
L101890 78508
L101867 78484
" />
<path d="M4000 28890
L4700 28890
" />
<path d="M4230 16509
L4469 16509
" />
<path d="M4183 16652
L4350 16152
L4516 16652
" />
<path d="M112930 28890
L112230 28890
" />
<path d="M112460 16509
L112699 16509
" />
<path d="M112413 16652
L112580 16152
L112746 16652
" />
<path d="M4000 53780
L4700 53780
" />
<path d="M4385 41280
L4457 41304
L4480 41328
L4504 41375
L4504 41447
L4480 41494
L4457 41518
L4409 41542
L4219 41542
L4219 41042
L4385 41042
L4433 41066
L4457 41090
L4480 41137
L4480 41185
L4457 41232
L4433 41256
L4385 41280
L4219 41280
" />
<path d="M112930 53780
L112230 53780
" />
<path d="M112615 41280
L112687 41304
L112710 41328
L112734 41375
L112734 41447
L112710 41494
L112687 41518
L112639 41542
L112449 41542
L112449 41042
L112615 41042
L112663 41066
L112687 41090
L112710 41137
L112710 41185
L112687 41232
L112663 41256
L112615 41280
L112449 41280
" />
<path d="M4504 66384
L4480 66408
L4409 66432
L4361 66432
L4290 66408
L4242 66360
L4219 66313
L4195 66218
L4195 66146
L4219 66051
L4242 66003
L4290 65956
L4361 65932
L4409 65932
L4480 65956
L4504 65980
" />
<path d="M112734 66384
L112710 66408
L112639 66432
L112591 66432
L112520 66408
L112472 66360
L112449 66313
L112425 66218
L112425 66146
L112449 66051
L112472 66003
L112520 65956
L112591 65932
L112639 65932
L112710 65956
L112734 65980
" />
<path d="M79380 76422
L79455 75822
L79597 75822
L79680 75851
L79730 75908
L79751 75965
L79765 76080
L79755 76165
L79712 76280
L79676 76337
L79612 76394
L79522 76422
L79380 76422
" />
<path d="M80237 76422
L80276 76108
L80255 76051
L80201 76022
L80087 76022
L80026 76051
" />
<path d="M80240 76394
L80180 76422
L80037 76422
L79983 76394
L79962 76337
L79969 76280
L80005 76222
L80065 76194
L80208 76194
L80269 76165
" />
<path d="M80487 76022
L80715 76022
" />
<path d="M80597 75822
L80533 76337
L80555 76394
L80608 76422
L80665 76422
" />
<path d="M81097 76394
L81037 76422
L80922 76422
L80869 76394
L80847 76337
L80876 76108
L80912 76051
L80972 76022
L81087 76022
L81140 76051
L81162 76108
L81155 76165
L80862 76222
" />
<path d="M81387 76365
L81412 76394
L81380 76422
L81355 76394
L81387 76365
L81380 76422
" />
<path d="M81426 76051
L81451 76080
L81419 76108
L81394 76080
L81426 76051
L81419 76108
" />
<path d="M82162 75880
L82194 75851
L82255 75822
L82397 75822
L82451 75851
L82476 75880
L82497 75937
L82490 75994
L82451 76080
L82065 76422
L82437 76422
" />
<path d="M83115 76022
L83344 76022
" />
<path d="M83151 76422
L83215 75908
L83251 75851
L83312 75822
L83369 75822
" />
<path d="M83726 76394
L83665 76422
L83551 76422
L83497 76394
L83476 76337
L83505 76108
L83540 76051
L83601 76022
L83715 76022
L83769 76051
L83790 76108
L83783 76165
L83490 76222
" />
<path d="M84008 76422
L84083 75822
" />
<path d="M84055 76051
L84115 76022
L84230 76022
L84283 76051
L84308 76080
L84330 76137
L84308 76308
L84272 76365
L84240 76394
L84180 76422
L84065 76422
L84012 76394
" />
<path d="M85047 75880
L85080 75851
L85140 75822
L85283 75822
L85337 75851
L85362 75880
L85383 75937
L85376 75994
L85337 76080
L84951 76422
L85322 76422
" />
<path d="M85769 75822
L85826 75822
L85880 75851
L85905 75880
L85926 75937
L85940 76051
L85922 76194
L85880 76308
L85844 76365
L85812 76394
L85751 76422
L85694 76422
L85640 76394
L85615 76365
L85594 76308
L85580 76194
L85597 76051
L85640 75937
L85676 75880
L85708 75851
L85769 75822
" />
<path d="M86465 76422
L86122 76422
" />
<path d="M86294 76422
L86369 75822
L86301 75908
L86237 75965
L86176 75994
" />
<path d="M86751 76422
L86865 76422
L86926 76394
L86958 76365
L87026 76280
L87069 76165
L87097 75937
L87076 75880
L87051 75851
L86997 75822
L86883 75822
L86822 75851
L86790 75880
L86755 75937
L86737 76080
L86758 76137
L86783 76165
L86837 76194
L86951 76194
L87012 76165
L87044 76137
L87080 76080
" />
<path d="M70972 77622
L70972 77022
" />
<path d="M71315 77622
L71058 77280
" />
<path d="M71315 77022
L70972 77365
" />
<path d="M71572 77622
L71572 77222
" />
<path d="M71572 77022
L71544 77051
L71572 77080
L71601 77051
L71572 77022
L71572 77080
" />
<path d="M72201 77565
L72172 77594
L72087 77622
L72030 77622
L71944 77594
L71887 77537
L71858 77480
L71830 77365
L71830 77280
L71858 77165
L71887 77108
L71944 77051
L72030 77022
L72087 77022
L72172 77051
L72201 77080
" />
<path d="M72715 77622
L72715 77308
L72687 77251
L72630 77222
L72515 77222
L72458 77251
" />
<path d="M72715 77594
L72658 77622
L72515 77622
L72458 77594
L72430 77537
L72430 77480
L72458 77422
L72515 77394
L72658 77394
L72715 77365
" />
<path d="M73258 77622
L73258 77022
" />
<path d="M73258 77594
L73201 77622
L73087 77622
L73030 77594
L73001 77565
L72972 77508
L72972 77337
L73001 77280
L73030 77251
L73087 77222
L73201 77222
L73258 77251
" />
<path d="M74001 77308
L74201 77308
" />
<path d="M74287 77622
L74001 77622
L74001 77022
L74287 77022
" />
<path d="M74544 77565
L74572 77594
L74544 77622
L74515 77594
L74544 77565
L74544 77622
" />
<path d="M74829 77622
L74829 77022
L74972 77022
L75058 77051
L75115 77108
L75144 77165
L75172 77280
L75172 77365
L75144 77480
L75115 77537
L75058 77594
L74972 77622
L74829 77622
" />
<path d="M75429 77565
L75458 77594
L75429 77622
L75401 77594
L75429 77565
L75429 77622
" />
<path d="M75687 77451
L75972 77451
" />
<path d="M75629 77622
L75829 77022
L76029 77622
" />
<path d="M76229 77565
L76258 77594
L76229 77622
L76201 77594
L76229 77565
L76229 77622
" />
<path d="M104522 76422
L104358 76137
" />
<path d="M104180 76422
L104255 75822
L104483 75822
L104537 75851
L104562 75880
L104583 75937
L104572 76022
L104537 76080
L104505 76108
L104444 76137
L104215 76137
" />
<path d="M105012 76394
L104951 76422
L104837 76422
L104783 76394
L104762 76337
L104790 76108
L104826 76051
L104887 76022
L105001 76022
L105055 76051
L105076 76108
L105069 76165
L104776 76222
" />
<path d="M105287 76022
L105380 76422
L105572 76022
" />
<path d="M105758 76365
L105783 76394
L105751 76422
L105726 76394
L105758 76365
L105751 76422
" />
<path d="M105797 76051
L105822 76080
L105790 76108
L105765 76080
L105797 76051
L105790 76108
" />
<path d="M106808 76422
L106465 76422
" />
<path d="M106637 76422
L106712 75822
L106644 75908
L106580 75965
L106519 75994
" />
<path d="M107094 76422
L107208 76422
L107269 76394
L107301 76365
L107369 76280
L107412 76165
L107440 75937
L107419 75880
L107394 75851
L107340 75822
L107226 75822
L107165 75851
L107133 75880
L107097 75937
L107080 76080
L107101 76137
L107126 76165
L107180 76194
L107294 76194
L107355 76165
L107387 76137
L107422 76080
" />
<path d="M107826 75822
L107883 75822
L107937 75851
L107962 75880
L107983 75937
L107997 76051
L107980 76194
L107937 76308
L107901 76365
L107869 76394
L107808 76422
L107751 76422
L107697 76394
L107672 76365
L107651 76308
L107637 76194
L107655 76051
L107697 75937
L107733 75880
L107765 75851
L107826 75822
" />
<path d="M108247 75880
L108280 75851
L108340 75822
L108483 75822
L108537 75851
L108562 75880
L108583 75937
L108576 75994
L108537 76080
L108151 76422
L108522 76422
" />
<path d="M108969 75822
L109026 75822
L109080 75851
L109105 75880
L109126 75937
L109140 76051
L109122 76194
L109080 76308
L109044 76365
L109012 76394
L108951 76422
L108894 76422
L108840 76394
L108815 76365
L108794 76308
L108780 76194
L108797 76051
L108840 75937
L108876 75880
L108908 75851
L108969 75822
" />
<path d="M109369 75822
L109740 75822
L109512 76051
L109597 76051
L109651 76080
L109676 76108
L109697 76165
L109680 76308
L109644 76365
L109612 76394
L109551 76422
L109380 76422
L109326 76394
L109301 76365
" />
<path d="M70944 76394
L71030 76422
L71172 76422
L71230 76394
L71258 76365
L71287 76308
L71287 76251
L71258 76194
L71230 76165
L71172 76137
L71058 76108
L71001 76080
L70972 76051
L70944 75994
L70944 75937
L70972 75880
L71001 75851
L71058 75822
L71201 75822
L71287 75851
" />
<path d="M71544 76422
L71544 76022
" />
<path d="M71544 75822
L71515 75851
L71544 75880
L71572 75851
L71544 75822
L71544 75880
" />
<path d="M71772 76022
L72087 76022
L71772 76422
L72087 76422
" />
<path d="M72544 76394
L72487 76422
L72372 76422
L72315 76394
L72287 76337
L72287 76108
L72315 76051
L72372 76022
L72487 76022
L72544 76051
L72572 76108
L72572 76165
L72287 76222
" />
<path d="M72830 76365
L72858 76394
L72830 76422
L72801 76394
L72830 76365
L72830 76422
" />
<path d="M72830 76051
L72858 76080
L72830 76108
L72801 76080
L72830 76051
L72830 76108
" />
<path d="M73544 76251
L73830 76251
" />
<path d="M73487 76422
L73687 75822
L73887 76422
" />
<path d="M74344 76022
L74344 76422
" />
<path d="M74201 75794
L74058 76222
L74430 76222
" />
<path d="M104172 77622
L104172 77022
" />
<path d="M104715 77622
L104715 77022
" />
<path d="M104715 77594
L104658 77622
L104544 77622
L104487 77594
L104458 77565
L104430 77508
L104430 77337
L104458 77280
L104487 77251
L104544 77222
L104658 77222
L104715 77251
" />
<path d="M105001 77565
L105030 77594
L105001 77622
L104972 77594
L105001 77565
L105001 77622
" />
<path d="M105001 77251
L105030 77280
L105001 77308
L104972 77280
L105001 77251
L105001 77308
" />
<path d="M106058 77622
L105715 77622
" />
<path d="M105887 77622
L105887 77022
L105829 77108
L105772 77165
L105715 77194
" />
<path d="M106744 76994
L106230 77765
" />
<path d="M107258 77622
L106915 77622
" />
<path d="M107087 77622
L107087 77022
L107029 77108
L106972 77165
L106915 77194
" />
<path d="M70969 74622
L71312 74622
" />
<path d="M71065 75222
L71140 74622
" />
<path d="M71437 75222
L71487 74822
" />
<path d="M71512 74622
L71480 74651
L71505 74680
L71537 74651
L71512 74622
L71505 74680
" />
<path d="M71687 74822
L71915 74822
" />
<path d="M71797 74622
L71733 75137
L71755 75194
L71808 75222
L71865 75222
" />
<path d="M72151 75222
L72097 75194
L72076 75137
L72140 74622
" />
<path d="M72612 75194
L72551 75222
L72437 75222
L72383 75194
L72362 75137
L72390 74908
L72426 74851
L72487 74822
L72601 74822
L72655 74851
L72676 74908
L72669 74965
L72376 75022
" />
<path d="M72901 75165
L72926 75194
L72894 75222
L72869 75194
L72901 75165
L72894 75222
" />
<path d="M72940 74851
L72965 74880
L72933 74908
L72908 74880
L72940 74851
L72933 74908
" />
<path d="M73637 75222
L73712 74622
L73858 75051
L74112 74622
L74037 75222
" />
<path d="M74322 75222
L74397 74622
L74544 75051
L74797 74622
L74722 75222
" />
<path d="M75026 74622
L75397 74622
L75169 74851
L75254 74851
L75308 74880
L75333 74908
L75355 74965
L75337 75108
L75301 75165
L75269 75194
L75208 75222
L75037 75222
L74983 75194
L74958 75165
" />
<path d="M75580 75222
L75655 74622
L75797 74622
L75880 74651
L75930 74708
L75951 74765
L75965 74880
L75955 74965
L75912 75080
L75876 75137
L75812 75194
L75722 75222
L75580 75222
" />
<path d="M76944 74822
L76883 75308
L76847 75365
L76815 75394
L76755 75422
L76669 75422
L76615 75394
" />
<path d="M76897 75194
L76837 75222
L76722 75222
L76669 75194
L76644 75165
L76622 75108
L76644 74937
L76680 74880
L76712 74851
L76772 74822
L76887 74822
L76940 74851
" />
<path d="M77180 75222
L77230 74822
" />
<path d="M77215 74937
L77251 74880
L77283 74851
L77344 74822
L77401 74822
" />
<path d="M77637 75222
L77583 75194
L77558 75165
L77537 75108
L77558 74937
L77594 74880
L77626 74851
L77687 74822
L77772 74822
L77826 74851
L77851 74880
L77872 74937
L77851 75108
L77815 75165
L77783 75194
L77722 75222
L77637 75222
" />
<path d="M78087 74822
L78151 75222
L78301 74937
L78380 75222
L78544 74822
" />
<path d="M78722 75222
L78772 74822
" />
<path d="M78797 74622
L78765 74651
L78790 74680
L78822 74651
L78797 74622
L78790 74680
" />
<path d="M79058 74822
L79008 75222
" />
<path d="M79051 74880
L79083 74851
L79144 74822
L79230 74822
L79283 74851
L79305 74908
L79265 75222
" />
<path d="M79858 74822
L79797 75308
L79762 75365
L79729 75394
L79669 75422
L79583 75422
L79529 75394
" />
<path d="M79812 75194
L79751 75222
L79637 75222
L79583 75194
L79558 75165
L79537 75108
L79558 74937
L79594 74880
L79626 74851
L79687 74822
L79801 74822
L79854 74851
" />
<path d="M80551 75222
L80626 74622
" />
<path d="M80808 75222
L80847 74908
L80826 74851
L80772 74822
L80687 74822
L80626 74851
L80594 74880
" />
<path d="M81179 75222
L81126 75194
L81101 75165
L81080 75108
L81101 74937
L81137 74880
L81169 74851
L81229 74822
L81315 74822
L81369 74851
L81394 74880
L81415 74937
L81394 75108
L81358 75165
L81326 75194
L81265 75222
L81179 75222
" />
<path d="M81944 74822
L81894 75222
" />
<path d="M81687 74822
L81647 75137
L81669 75194
L81722 75222
L81808 75222
L81869 75194
L81901 75165
" />
<path d="M82154 75194
L82208 75222
L82322 75222
L82383 75194
L82419 75137
L82422 75108
L82401 75051
L82347 75022
L82262 75022
L82208 74994
L82187 74937
L82190 74908
L82226 74851
L82287 74822
L82372 74822
L82426 74851
" />
<path d="M82897 75194
L82837 75222
L82722 75222
L82669 75194
L82647 75137
L82676 74908
L82712 74851
L82772 74822
L82887 74822
L82940 74851
L82962 74908
L82954 74965
L82662 75022
" />
<path d="M83897 75194
L83837 75222
L83722 75222
L83669 75194
L83644 75165
L83622 75108
L83644 74937
L83679 74880
L83712 74851
L83772 74822
L83887 74822
L83940 74851
" />
<path d="M84237 75222
L84183 75194
L84158 75165
L84137 75108
L84158 74937
L84194 74880
L84226 74851
L84287 74822
L84372 74822
L84426 74851
L84451 74880
L84472 74937
L84451 75108
L84415 75165
L84383 75194
L84322 75222
L84237 75222
" />
<path d="M84744 74822
L84694 75222
" />
<path d="M84737 74880
L84769 74851
L84829 74822
L84915 74822
L84969 74851
L84990 74908
L84951 75222
" />
<path d="M85201 74822
L85429 74822
" />
<path d="M85312 74622
L85247 75137
L85269 75194
L85322 75222
L85379 75222
" />
<path d="M85579 75222
L85629 74822
" />
<path d="M85615 74937
L85651 74880
L85683 74851
L85744 74822
L85801 74822
" />
<path d="M86037 75222
L85983 75194
L85958 75165
L85937 75108
L85958 74937
L85994 74880
L86026 74851
L86087 74822
L86172 74822
L86226 74851
L86251 74880
L86272 74937
L86251 75108
L86215 75165
L86183 75194
L86122 75222
L86037 75222
" />
<path d="M86579 75222
L86526 75194
L86504 75137
L86569 74622
" />
<path d="M86894 75222
L86840 75194
L86819 75137
L86883 74622
" />
<path d="M87122 75222
L87172 74822
" />
<path d="M87197 74622
L87165 74651
L87190 74680
L87222 74651
L87197 74622
L87190 74680
" />
<path d="M87458 74822
L87408 75222
" />
<path d="M87451 74880
L87483 74851
L87544 74822
L87630 74822
L87683 74851
L87705 74908
L87665 75222
" />
<path d="M88258 74822
L88197 75308
L88162 75365
L88129 75394
L88069 75422
L87983 75422
L87929 75394
" />
<path d="M88212 75194
L88151 75222
L88037 75222
L87983 75194
L87958 75165
L87937 75108
L87958 74937
L87994 74880
L88026 74851
L88087 74822
L88201 74822
L88254 74851
" />
<path d="M89208 75222
L89247 74908
L89226 74851
L89172 74822
L89058 74822
L88997 74851
" />
<path d="M89212 75194
L89151 75222
L89008 75222
L88954 75194
L88933 75137
L88940 75080
L88976 75022
L89037 74994
L89179 74994
L89240 74965
" />
<path d="M89544 74822
L89494 75222
" />
<path d="M89537 74880
L89569 74851
L89629 74822
L89715 74822
L89769 74851
L89790 74908
L89751 75222
" />
<path d="M90294 75222
L90369 74622
" />
<path d="M90297 75194
L90237 75222
L90122 75222
L90069 75194
L90044 75165
L90022 75108
L90044 74937
L90079 74880
L90112 74851
L90172 74822
L90287 74822
L90340 74851
" />
<path d="M91037 75222
L91087 74822
" />
<path d="M91072 74937
L91108 74880
L91140 74851
L91201 74822
L91258 74822
" />
<path d="M91640 75194
L91580 75222
L91465 75222
L91412 75194
L91390 75137
L91419 74908
L91454 74851
L91515 74822
L91630 74822
L91683 74851
L91705 74908
L91697 74965
L91405 75022
" />
<path d="M91922 75222
L91972 74822
" />
<path d="M91965 74880
L91997 74851
L92058 74822
L92144 74822
L92197 74851
L92219 74908
L92180 75222
" />
<path d="M92219 74908
L92254 74851
L92315 74822
L92401 74822
L92454 74851
L92476 74908
L92437 75222
" />
<path d="M92808 75222
L92755 75194
L92730 75165
L92708 75108
L92730 74937
L92765 74880
L92797 74851
L92858 74822
L92944 74822
L92997 74851
L93022 74880
L93044 74937
L93022 75108
L92987 75165
L92955 75194
L92894 75222
L92808 75222
" />
<path d="M93230 74822
L93458 74822
" />
<path d="M93340 74622
L93276 75137
L93297 75194
L93351 75222
L93408 75222
" />
<path d="M93840 75194
L93780 75222
L93665 75222
L93612 75194
L93590 75137
L93619 74908
L93654 74851
L93715 74822
L93830 74822
L93883 74851
L93905 74908
L93897 74965
L93605 75022
" />
<path d="M94580 75222
L94630 74822
" />
<path d="M94622 74880
L94655 74851
L94715 74822
L94801 74822
L94855 74851
L94876 74908
L94837 75222
" />
<path d="M94876 74908
L94912 74851
L94972 74822
L95058 74822
L95112 74851
L95133 74908
L95094 75222
" />
<path d="M95465 75222
L95412 75194
L95387 75165
L95365 75108
L95387 74937
L95422 74880
L95455 74851
L95515 74822
L95601 74822
L95655 74851
L95680 74880
L95701 74937
L95680 75108
L95644 75165
L95612 75194
L95551 75222
L95465 75222
" />
<path d="M95972 74822
L95922 75222
" />
<path d="M95965 74880
L95997 74851
L96058 74822
L96144 74822
L96197 74851
L96219 74908
L96180 75222
" />
<path d="M96465 75222
L96515 74822
" />
<path d="M96540 74622
L96508 74651
L96533 74680
L96565 74651
L96540 74622
L96533 74680
" />
<path d="M96715 74822
L96944 74822
" />
<path d="M96826 74622
L96762 75137
L96783 75194
L96837 75222
L96894 75222
" />
<path d="M97179 75222
L97126 75194
L97101 75165
L97080 75108
L97101 74937
L97137 74880
L97169 74851
L97229 74822
L97315 74822
L97369 74851
L97394 74880
L97415 74937
L97394 75108
L97358 75165
L97326 75194
L97265 75222
L97179 75222
" />
<path d="M97637 75222
L97687 74822
" />
<path d="M97672 74937
L97708 74880
L97740 74851
L97801 74822
L97858 74822
" />
<path d="M98008 75222
L98058 74822
" />
<path d="M98083 74622
L98051 74651
L98076 74680
L98108 74651
L98083 74622
L98076 74680
" />
<path d="M98344 74822
L98294 75222
" />
<path d="M98337 74880
L98369 74851
L98429 74822
L98515 74822
L98569 74851
L98590 74908
L98551 75222
" />
<path d="M99144 74822
L99083 75308
L99047 75365
L99015 75394
L98954 75422
L98869 75422
L98815 75394
" />
<path d="M99097 75194
L99037 75222
L98922 75222
L98869 75194
L98844 75165
L98822 75108
L98844 74937
L98879 74880
L98912 74851
L98972 74822
L99087 74822
L99140 74851
" />
<path d="M99812 75194
L99865 75222
L99979 75222
L100040 75194
L100076 75137
L100080 75108
L100058 75051
L100004 75022
L99919 75022
L99865 74994
L99844 74937
L99847 74908
L99883 74851
L99944 74822
L100029 74822
L100083 74851
" />
<path d="M100315 74822
L100408 75222
" />
<path d="M100601 74822
L100408 75222
L100333 75365
L100301 75394
L100240 75422
" />
<path d="M100754 75194
L100808 75222
L100922 75222
L100983 75194
L101019 75137
L101022 75108
L101001 75051
L100947 75022
L100862 75022
L100808 74994
L100787 74937
L100790 74908
L100826 74851
L100887 74822
L100972 74822
L101026 74851
" />
<path d="M101229 74822
L101458 74822
" />
<path d="M101340 74622
L101276 75137
L101297 75194
L101351 75222
L101408 75222
" />
<path d="M101840 75194
L101779 75222
L101665 75222
L101612 75194
L101590 75137
L101619 74908
L101654 74851
L101715 74822
L101829 74822
L101883 74851
L101904 74908
L101897 74965
L101604 75022
" />
<path d="M102122 75222
L102172 74822
" />
<path d="M102165 74880
L102197 74851
L102258 74822
L102344 74822
L102397 74851
L102419 74908
L102379 75222
" />
<path d="M102419 74908
L102454 74851
L102515 74822
L102601 74822
L102654 74851
L102676 74908
L102637 75222
" />
<path d="M71172 72508
L70972 72508
" />
<path d="M70972 72822
L70972 72222
L71258 72222
" />
<path d="M71487 72822
L71487 72422
" />
<path d="M71487 72222
L71458 72251
L71487 72280
L71515 72251
L71487 72222
L71487 72280
" />
<path d="M71858 72822
L71801 72794
L71772 72737
L71772 72222
" />
<path d="M72315 72794
L72258 72822
L72144 72822
L72087 72794
L72058 72737
L72058 72508
L72087 72451
L72144 72422
L72258 72422
L72315 72451
L72344 72508
L72344 72565
L72058 72622
" />
<path d="M72601 72765
L72630 72794
L72601 72822
L72572 72794
L72601 72765
L72601 72822
" />
<path d="M72601 72451
L72630 72480
L72601 72508
L72572 72480
L72601 72451
L72601 72508
" />
<path d="M73344 72822
L73344 72422
" />
<path d="M73344 72480
L73372 72451
L73430 72422
L73515 72422
L73572 72451
L73601 72508
L73601 72822
" />
<path d="M73601 72508
L73630 72451
L73687 72422
L73772 72422
L73830 72451
L73858 72508
L73858 72822
" />
<path d="M74144 72822
L74144 72422
" />
<path d="M74144 72480
L74172 72451
L74230 72422
L74315 72422
L74372 72451
L74401 72508
L74401 72822
" />
<path d="M74401 72508
L74430 72451
L74487 72422
L74572 72422
L74630 72451
L74658 72508
L74658 72822
" />
<path d="M74887 72222
L75258 72222
L75058 72451
L75144 72451
L75201 72480
L75230 72508
L75258 72565
L75258 72708
L75230 72765
L75201 72794
L75144 72822
L74972 72822
L74915 72794
L74887 72765
" />
<path d="M75772 72822
L75772 72222
" />
<path d="M75772 72794
L75715 72822
L75601 72822
L75544 72794
L75515 72765
L75487 72708
L75487 72537
L75515 72480
L75544 72451
L75601 72422
L75715 72422
L75772 72451
" />
<path d="M75915 72880
L76372 72880
" />
<path d="M76430 72422
L76658 72422
" />
<path d="M76515 72822
L76515 72308
L76544 72251
L76601 72222
L76658 72222
" />
<path d="M76858 72822
L76858 72422
" />
<path d="M76858 72537
L76887 72480
L76915 72451
L76972 72422
L77030 72422
" />
<path d="M77315 72822
L77258 72794
L77230 72765
L77201 72708
L77201 72537
L77230 72480
L77258 72451
L77315 72422
L77401 72422
L77458 72451
L77487 72480
L77515 72537
L77515 72708
L77487 72765
L77458 72794
L77401 72822
L77315 72822
" />
<path d="M77772 72422
L77772 72822
" />
<path d="M77772 72480
L77801 72451
L77858 72422
L77944 72422
L78001 72451
L78030 72508
L78030 72822
" />
<path d="M78230 72422
L78458 72422
" />
<path d="M78315 72222
L78315 72737
L78344 72794
L78401 72822
L78458 72822
" />
<path d="M78658 72765
L78687 72794
L78658 72822
L78630 72794
L78658 72765
L78658 72822
" />
<path d="M78944 72822
L78944 72222
" />
<path d="M79001 72594
L79172 72822
" />
<path d="M79172 72422
L78944 72651
" />
<path d="M79430 72822
L79430 72422
" />
<path d="M79430 72222
L79401 72251
L79430 72280
L79458 72251
L79430 72222
L79430 72280
" />
<path d="M79972 72794
L79915 72822
L79801 72822
L79744 72794
L79715 72765
L79687 72708
L79687 72537
L79715 72480
L79744 72451
L79801 72422
L79915 72422
L79972 72451
" />
<path d="M80487 72822
L80487 72508
L80458 72451
L80401 72422
L80287 72422
L80230 72451
" />
<path d="M80487 72794
L80430 72822
L80287 72822
L80230 72794
L80201 72737
L80201 72680
L80230 72622
L80287 72594
L80430 72594
L80487 72565
" />
<path d="M81030 72822
L81030 72222
" />
<path d="M81030 72794
L80972 72822
L80858 72822
L80801 72794
L80772 72765
L80744 72708
L80744 72537
L80772 72480
L80801 72451
L80858 72422
L80972 72422
L81030 72451
" />
<path d="M81172 72880
L81630 72880
" />
<path d="M81772 72422
L81772 73022
" />
<path d="M81772 72451
L81830 72422
L81944 72422
L82001 72451
L82030 72480
L82058 72537
L82058 72708
L82030 72765
L82001 72794
L81944 72822
L81830 72822
L81772 72794
" />
<path d="M82572 72794
L82515 72822
L82401 72822
L82344 72794
L82315 72765
L82287 72708
L82287 72537
L82315 72480
L82344 72451
L82401 72422
L82515 72422
L82572 72451
" />
<path d="M82830 72822
L82830 72222
" />
<path d="M82830 72451
L82887 72422
L83001 72422
L83058 72451
L83087 72480
L83115 72537
L83115 72708
L83087 72765
L83058 72794
L83001 72822
L82887 72822
L82830 72794
" />
<path d="M70944 73994
L71030 74022
L71172 74022
L71230 73994
L71258 73965
L71287 73908
L71287 73851
L71258 73794
L71230 73765
L71172 73737
L71058 73708
L71001 73680
L70972 73651
L70944 73594
L70944 73537
L70972 73480
L71001 73451
L71058 73422
L71201 73422
L71287 73451
" />
<path d="M71544 74022
L71544 73422
" />
<path d="M71801 74022
L71801 73708
L71772 73651
L71715 73622
L71630 73622
L71572 73651
L71544 73680
" />
<path d="M72315 73994
L72258 74022
L72144 74022
L72087 73994
L72058 73937
L72058 73708
L72087 73651
L72144 73622
L72258 73622
L72315 73651
L72344 73708
L72344 73765
L72058 73822
" />
<path d="M72830 73994
L72772 74022
L72658 74022
L72601 73994
L72572 73937
L72572 73708
L72601 73651
L72658 73622
L72772 73622
L72830 73651
L72858 73708
L72858 73765
L72572 73822
" />
<path d="M73030 73622
L73258 73622
" />
<path d="M73115 73422
L73115 73937
L73144 73994
L73201 74022
L73258 74022
" />
<path d="M73458 73965
L73487 73994
L73458 74022
L73430 73994
L73458 73965
L73458 74022
" />
<path d="M73458 73651
L73487 73680
L73458 73708
L73430 73680
L73458 73651
L73458 73708
" />
<path d="M70980 71622
L71055 71022
L71283 71022
L71337 71051
L71362 71080
L71383 71137
L71372 71222
L71337 71280
L71305 71308
L71244 71337
L71015 71337
" />
<path d="M71665 71622
L71612 71594
L71587 71565
L71565 71508
L71587 71337
L71622 71280
L71655 71251
L71715 71222
L71801 71222
L71855 71251
L71880 71280
L71901 71337
L71880 71508
L71844 71565
L71812 71594
L71751 71622
L71665 71622
" />
<path d="M72115 71222
L72430 71222
L72065 71622
L72380 71622
" />
<path d="M72583 71594
L72637 71622
L72751 71622
L72812 71594
L72847 71537
L72851 71508
L72829 71451
L72776 71422
L72690 71422
L72637 71394
L72615 71337
L72619 71308
L72654 71251
L72715 71222
L72801 71222
L72854 71251
" />
<path d="M73351 71622
L73390 71308
L73369 71251
L73315 71222
L73201 71222
L73140 71251
" />
<path d="M73354 71594
L73294 71622
L73151 71622
L73097 71594
L73076 71537
L73083 71480
L73119 71422
L73179 71394
L73322 71394
L73383 71365
" />
<path d="M73637 71622
L73687 71222
" />
<path d="M73672 71337
L73708 71280
L73740 71251
L73801 71222
L73858 71222
" />
<path d="M74483 71022
L74883 71022
L74408 71622
L74808 71622
" />
<path d="M75012 71594
L75065 71622
L75180 71622
L75240 71594
L75276 71537
L75280 71508
L75258 71451
L75205 71422
L75119 71422
L75065 71394
L75044 71337
L75047 71308
L75083 71251
L75144 71222
L75230 71222
L75283 71251
" />
<path d="M75608 71622
L75555 71594
L75530 71565
L75508 71508
L75530 71337
L75565 71280
L75597 71251
L75658 71222
L75744 71222
L75797 71251
L75822 71280
L75844 71337
L75822 71508
L75787 71565
L75755 71594
L75694 71622
L75608 71622
" />
<path d="M76151 71622
L76097 71594
L76076 71537
L76140 71022
" />
<path d="M76344 71222
L76572 71222
" />
<path d="M76455 71022
L76390 71537
L76412 71594
L76465 71622
L76522 71622
" />
<path d="M71172 70108
L70972 70108
" />
<path d="M70972 70422
L70972 69822
L71258 69822
" />
<path d="M71487 70422
L71487 70022
" />
<path d="M71487 70137
L71515 70080
L71544 70051
L71601 70022
L71658 70022
" />
<path d="M71944 70422
L71887 70394
L71858 70365
L71830 70308
L71830 70137
L71858 70080
L71887 70051
L71944 70022
L72030 70022
L72087 70051
L72115 70080
L72144 70137
L72144 70308
L72115 70365
L72087 70394
L72030 70422
L71944 70422
" />
<path d="M72401 70022
L72401 70422
" />
<path d="M72401 70080
L72430 70051
L72487 70022
L72572 70022
L72630 70051
L72658 70108
L72658 70422
" />
<path d="M72858 70022
L73087 70022
" />
<path d="M72944 69822
L72944 70337
L72972 70394
L73030 70422
L73087 70422
" />
<path d="M73744 70022
L73744 70622
" />
<path d="M73744 70051
L73801 70022
L73915 70022
L73972 70051
L74001 70080
L74030 70137
L74030 70308
L74001 70365
L73972 70394
L73915 70422
L73801 70422
L73744 70394
" />
<path d="M74544 70422
L74544 70108
L74515 70051
L74458 70022
L74344 70022
L74287 70051
" />
<path d="M74544 70394
L74487 70422
L74344 70422
L74287 70394
L74258 70337
L74258 70280
L74287 70222
L74344 70194
L74487 70194
L74544 70165
" />
<path d="M74830 70022
L74830 70422
" />
<path d="M74830 70080
L74858 70051
L74915 70022
L75001 70022
L75058 70051
L75087 70108
L75087 70422
" />
<path d="M75601 70394
L75544 70422
L75430 70422
L75372 70394
L75344 70337
L75344 70108
L75372 70051
L75430 70022
L75544 70022
L75601 70051
L75630 70108
L75630 70165
L75344 70222
" />
<path d="M75972 70422
L75915 70394
L75887 70337
L75887 69822
" />
<path d="M70230 69580
L70230 77980
" />
<path d="M70230 71980
L112230 71980
" />
<path d="M70230 69580
L112230 69580
" />
<path d="M70230 74380
L112230 74380
" />
<path d="M103430 75580
L103430 77980
" />
<path d="M70230 76780
L112230 76780
" />
<path d="M70230 75580
L112230 75580
" />
<path d="M76830 75580
L76830 76780
" />
</g>
<g style="fill:#000000; fill-opacity:0.0; 
stroke:#000000; stroke-width:118.11; stroke-opacity:1; 
stroke-linecap:round; stroke-linejoin:round;">
<path d="M35038 58489
L35038 57898
L35235 58320
L35431 57898
L35431 58489
" />
<path d="M35713 58489
L35713 57898
L35910 58320
L36106 57898
L36106 58489
" />
<path d="M36331 57898
L36697 57898
L36500 58123
L36584 58123
L36641 58151
L36669 58179
L36697 58235
L36697 58376
L36669 58432
L36641 58460
L36584 58489
L36416 58489
L36359 58460
L36331 58432
" />
<path d="M36950 58489
L36950 57898
L37091 57898
L37175 57926
L37231 57982
L37259 58039
L37287 58151
L37287 58235
L37259 58348
L37231 58404
L37175 58460
L37091 58489
L36950 58489
" />
<path d="M37906 58095
L38131 58095
" />
<path d="M37991 58489
L37991 57982
L38019 57926
L38075 57898
L38131 57898
" />
<path d="M38328 58489
L38328 58095
" />
<path d="M38328 58207
L38356 58151
L38384 58123
L38440 58095
L38497 58095
" />
<path d="M38778 58489
L38722 58460
L38694 58432
L38665 58376
L38665 58207
L38694 58151
L38722 58123
L38778 58095
L38862 58095
L38919 58123
L38947 58151
L38975 58207
L38975 58376
L38947 58432
L38919 58460
L38862 58489
L38778 58489
" />
<path d="M39228 58095
L39228 58489
" />
<path d="M39228 58151
L39256 58123
L39312 58095
L39397 58095
L39453 58123
L39481 58179
L39481 58489
" />
<path d="M39678 58095
L39903 58095
" />
<path d="M39762 57898
L39762 58404
L39790 58460
L39847 58489
L39903 58489
" />
<path d="M40550 58095
L40550 58685
" />
<path d="M40550 58123
L40606 58095
L40718 58095
L40775 58123
L40803 58151
L40831 58207
L40831 58376
L40803 58432
L40775 58460
L40718 58489
L40606 58489
L40550 58460
" />
<path d="M41337 58489
L41337 58179
L41309 58123
L41253 58095
L41140 58095
L41084 58123
" />
<path d="M41337 58460
L41281 58489
L41140 58489
L41084 58460
L41056 58404
L41056 58348
L41084 58292
L41140 58264
L41281 58264
L41337 58235
" />
<path d="M41618 58095
L41618 58489
" />
<path d="M41618 58151
L41646 58123
L41703 58095
L41787 58095
L41843 58123
L41871 58179
L41871 58489
" />
<path d="M42377 58460
L42321 58489
L42209 58489
L42152 58460
L42124 58404
L42124 58179
L42152 58123
L42209 58095
L42321 58095
L42377 58123
L42406 58179
L42406 58235
L42124 58292
" />
<path d="M42743 58489
L42687 58460
L42659 58404
L42659 57898
" />
<path d="M43362 58095
L43502 58489
L43643 58095
" />
<path d="M44177 58489
L43840 58489
" />
<path d="M44008 58489
L44008 57898
L43952 57982
L43896 58039
L43840 58067
" />
<path d="M44458 58489
L44571 58489
L44627 58460
L44655 58432
L44712 58348
L44740 58235
L44740 58010
L44712 57954
L44683 57926
L44627 57898
L44515 57898
L44458 57926
L44430 57954
L44402 58010
L44402 58151
L44430 58207
L44458 58235
L44515 58264
L44627 58264
L44683 58235
L44712 58207
L44740 58151
" />
<path d="M45105 57898
L45161 57898
L45218 57926
L45246 57954
L45274 58010
L45302 58123
L45302 58264
L45274 58376
L45246 58432
L45218 58460
L45161 58489
L45105 58489
L45049 58460
L45021 58432
L44993 58376
L44965 58264
L44965 58123
L44993 58010
L45021 57954
L45049 57926
L45105 57898
" />
<path d="M45527 57954
L45555 57926
L45611 57898
L45752 57898
L45808 57926
L45836 57954
L45865 58010
L45865 58067
L45836 58151
L45499 58489
L45865 58489
" />
<path d="M46230 57898
L46286 57898
L46343 57926
L46371 57954
L46399 58010
L46427 58123
L46427 58264
L46399 58376
L46371 58432
L46343 58460
L46286 58489
L46230 58489
L46174 58460
L46146 58432
L46118 58376
L46089 58264
L46089 58123
L46118 58010
L46146 57954
L46174 57926
L46230 57898
" />
<path d="M46624 57898
L46989 57898
L46793 58123
L46877 58123
L46933 58151
L46961 58179
L46989 58235
L46989 58376
L46961 58432
L46933 58460
L46877 58489
L46708 58489
L46652 58460
L46624 58432
" />
<path d="M64546 41489
L64546 40898
" />
<path d="M64799 41489
L64799 41179
L64771 41123
L64714 41095
L64630 41095
L64574 41123
L64546 41151
" />
<path d="M64996 41095
L65221 41095
" />
<path d="M65080 40898
L65080 41404
L65108 41460
L65164 41489
L65221 41489
" />
<path d="M65333 41095
L65558 41095
" />
<path d="M65417 40898
L65417 41404
L65446 41460
L65502 41489
L65558 41489
" />
<path d="M65755 41095
L65755 41685
" />
<path d="M65755 41123
L65811 41095
L65924 41095
L65980 41123
L66008 41151
L66036 41207
L66036 41376
L66008 41432
L65980 41460
L65924 41489
L65811 41489
L65755 41460
" />
<path d="M66289 41432
L66317 41460
L66289 41489
L66261 41460
L66289 41432
L66289 41489
" />
<path d="M66289 41123
L66317 41151
L66289 41179
L66261 41151
L66289 41123
L66289 41179
" />
<path d="M66992 40870
L66486 41629
" />
<path d="M67611 40870
L67105 41629
" />
<path d="M67751 41095
L67864 41489
L67976 41207
L68089 41489
L68201 41095
" />
<path d="M68370 41095
L68483 41489
L68595 41207
L68708 41489
L68820 41095
" />
<path d="M68989 41095
L69101 41489
L69214 41207
L69326 41489
L69439 41095
" />
<path d="M69664 41432
L69692 41460
L69664 41489
L69636 41460
L69664 41432
L69664 41489
" />
<path d="M69917 41460
L69973 41489
L70086 41489
L70142 41460
L70170 41404
L70170 41376
L70142 41320
L70086 41292
L70001 41292
L69945 41264
L69917 41207
L69917 41179
L69945 41123
L70001 41095
L70086 41095
L70142 41123
" />
<path d="M70367 41095
L70676 41095
L70367 41489
L70676 41489
" />
<path d="M71126 41460
L71070 41489
L70957 41489
L70901 41460
L70873 41404
L70873 41179
L70901 41123
L70957 41095
L71070 41095
L71126 41123
L71154 41179
L71154 41235
L70873 41292
" />
<path d="M71407 41489
L71407 41095
" />
<path d="M71407 41207
L71435 41151
L71464 41123
L71520 41095
L71576 41095
" />
<path d="M72026 41489
L72026 41179
L71998 41123
L71942 41095
L71829 41095
L71773 41123
" />
<path d="M72026 41460
L71970 41489
L71829 41489
L71773 41460
L71745 41404
L71745 41348
L71773 41292
L71829 41264
L71970 41264
L72026 41235
" />
<path d="M72223 41095
L72448 41095
" />
<path d="M72307 41489
L72307 40982
L72335 40926
L72392 40898
L72448 40898
" />
<path d="M72645 41489
L72645 41095
" />
<path d="M72645 40898
L72616 40926
L72645 40954
L72673 40926
L72645 40898
L72645 40954
" />
<path d="M72926 41095
L72926 41489
" />
<path d="M72926 41151
L72954 41123
L73010 41095
L73095 41095
L73151 41123
L73179 41179
L73179 41489
" />
<path d="M73713 41095
L73713 41573
L73685 41629
L73657 41657
L73601 41685
L73516 41685
L73460 41657
" />
<path d="M73713 41460
L73657 41489
L73544 41489
L73488 41460
L73460 41432
L73432 41376
L73432 41207
L73460 41151
L73488 41123
L73544 41095
L73657 41095
L73713 41123
" />
<path d="M74079 41489
L74023 41460
L73994 41432
L73966 41376
L73966 41207
L73994 41151
L74023 41123
L74079 41095
L74163 41095
L74219 41123
L74248 41151
L74276 41207
L74276 41376
L74248 41432
L74219 41460
L74163 41489
L74079 41489
" />
<path d="M74529 41489
L74529 41095
" />
<path d="M74529 41151
L74557 41123
L74613 41095
L74697 41095
L74754 41123
L74782 41179
L74782 41489
" />
<path d="M74782 41179
L74810 41123
L74866 41095
L74951 41095
L75007 41123
L75035 41179
L75035 41489
" />
<path d="M75316 41489
L75316 40898
" />
<path d="M75316 41123
L75372 41095
L75485 41095
L75541 41123
L75569 41151
L75597 41207
L75597 41376
L75569 41432
L75541 41460
L75485 41489
L75372 41489
L75316 41460
" />
<path d="M76104 41489
L76104 41179
L76075 41123
L76019 41095
L75907 41095
L75850 41123
" />
<path d="M76104 41460
L76047 41489
L75907 41489
L75850 41460
L75822 41404
L75822 41348
L75850 41292
L75907 41264
L76047 41264
L76104 41235
" />
<path d="M76385 41432
L76413 41460
L76385 41489
L76357 41460
L76385 41432
L76385 41489
" />
<path d="M76666 41489
L76666 40898
" />
<path d="M76919 41489
L76919 41179
L76891 41123
L76835 41095
L76750 41095
L76694 41123
L76666 41151
" />
<path d="M77453 41095
L77453 41489
" />
<path d="M77200 41095
L77200 41404
L77228 41460
L77285 41489
L77369 41489
L77425 41460
L77453 41432
" />
<path d="M60710 40214
L60682 40185
L60626 40101
L60598 40045
L60570 39960
L60541 39820
L60541 39707
L60570 39567
L60598 39482
L60626 39426
L60682 39342
L60710 39314
" />
<path d="M61273 39932
L61244 39960
L61160 39989
L61104 39989
L61019 39960
L60963 39904
L60935 39848
L60907 39735
L60907 39651
L60935 39539
L60963 39482
L61019 39426
L61104 39398
L61160 39398
L61244 39426
L61273 39454
" />
<path d="M61469 40214
L61498 40185
L61554 40101
L61582 40045
L61610 39960
L61638 39820
L61638 39707
L61610 39567
L61582 39482
L61554 39426
L61498 39342
L61469 39314
" />
<path d="M62341 39454
L62369 39426
L62426 39398
L62566 39398
L62622 39426
L62651 39454
L62679 39510
L62679 39567
L62651 39651
L62313 39989
L62679 39989
" />
<path d="M63044 39398
L63100 39398
L63157 39426
L63185 39454
L63213 39510
L63241 39623
L63241 39764
L63213 39876
L63185 39932
L63157 39960
L63100 39989
L63044 39989
L62988 39960
L62960 39932
L62932 39876
L62904 39764
L62904 39623
L62932 39510
L62960 39454
L62988 39426
L63044 39398
" />
<path d="M63803 39989
L63466 39989
" />
<path d="M63635 39989
L63635 39398
L63579 39482
L63522 39539
L63466 39567
" />
<path d="M64141 39651
L64085 39623
L64057 39595
L64028 39539
L64028 39510
L64057 39454
L64085 39426
L64141 39398
L64253 39398
L64310 39426
L64338 39454
L64366 39510
L64366 39539
L64338 39595
L64310 39623
L64253 39651
L64141 39651
L64085 39679
L64057 39707
L64028 39764
L64028 39876
L64057 39932
L64085 39960
L64141 39989
L64253 39989
L64310 39960
L64338 39932
L64366 39876
L64366 39764
L64338 39707
L64310 39679
L64253 39651
" />
<path d="M64619 39764
L65069 39764
" />
<path d="M65322 39454
L65350 39426
L65406 39398
L65547 39398
L65603 39426
L65631 39454
L65660 39510
L65660 39567
L65631 39651
L65294 39989
L65660 39989
" />
<path d="M66025 39398
L66081 39398
L66138 39426
L66166 39454
L66194 39510
L66222 39623
L66222 39764
L66194 39876
L66166 39932
L66138 39960
L66081 39989
L66025 39989
L65969 39960
L65941 39932
L65913 39876
L65884 39764
L65884 39623
L65913 39510
L65941 39454
L65969 39426
L66025 39398
" />
<path d="M66784 39989
L66447 39989
" />
<path d="M66616 39989
L66616 39398
L66559 39482
L66503 39539
L66447 39567
" />
<path d="M67066 39989
L67178 39989
L67234 39960
L67262 39932
L67319 39848
L67347 39735
L67347 39510
L67319 39454
L67291 39426
L67234 39398
L67122 39398
L67066 39426
L67037 39454
L67009 39510
L67009 39651
L67037 39707
L67066 39735
L67122 39764
L67234 39764
L67291 39735
L67319 39707
L67347 39651
" />
<path d="M68050 39989
L68050 39398
L68275 39398
L68331 39426
L68359 39454
L68387 39510
L68387 39595
L68359 39651
L68331 39679
L68275 39707
L68050 39707
" />
<path d="M68725 39989
L68669 39960
L68640 39932
L68612 39876
L68612 39707
L68640 39651
L68669 39623
L68725 39595
L68809 39595
L68865 39623
L68893 39651
L68922 39707
L68922 39876
L68893 39932
L68865 39960
L68809 39989
L68725 39989
" />
<path d="M69118 39595
L69428 39595
L69118 39989
L69428 39989
" />
<path d="M69625 39960
L69681 39989
L69793 39989
L69850 39960
L69878 39904
L69878 39876
L69850 39820
L69793 39792
L69709 39792
L69653 39764
L69625 39707
L69625 39679
L69653 39623
L69709 39595
L69793 39595
L69850 39623
" />
<path d="M70384 39989
L70384 39679
L70356 39623
L70300 39595
L70187 39595
L70131 39623
" />
<path d="M70384 39960
L70328 39989
L70187 39989
L70131 39960
L70103 39904
L70103 39848
L70131 39792
L70187 39764
L70328 39764
L70384 39735
" />
<path d="M70300 39370
L70215 39454
" />
<path d="M70665 39989
L70665 39595
" />
<path d="M70665 39707
L70693 39651
L70721 39623
L70778 39595
L70834 39595
" />
<path d="M71424 39398
L71818 39398
L71424 39989
L71818 39989
" />
<path d="M72015 39960
L72071 39989
L72184 39989
L72240 39960
L72268 39904
L72268 39876
L72240 39820
L72184 39792
L72099 39792
L72043 39764
L72015 39707
L72015 39679
L72043 39623
L72099 39595
L72184 39595
L72240 39623
" />
<path d="M72606 39989
L72549 39960
L72521 39932
L72493 39876
L72493 39707
L72521 39651
L72549 39623
L72606 39595
L72690 39595
L72746 39623
L72774 39651
L72802 39707
L72802 39876
L72774 39932
L72746 39960
L72690 39989
L72606 39989
" />
<path d="M73140 39989
L73084 39960
L73055 39904
L73055 39398
" />
<path d="M73280 39595
L73505 39595
" />
<path d="M73365 39398
L73365 39904
L73393 39960
L73449 39989
L73505 39989
" />
<path d="M74490 39932
L74462 39960
L74377 39989
L74321 39989
L74237 39960
L74180 39904
L74152 39848
L74124 39735
L74124 39651
L74152 39539
L74180 39482
L74237 39426
L74321 39398
L74377 39398
L74462 39426
L74490 39454
" />
<path d="M75080 39932
L75052 39960
L74968 39989
L74911 39989
L74827 39960
L74771 39904
L74743 39848
L74715 39735
L74715 39651
L74743 39539
L74771 39482
L74827 39426
L74911 39398
L74968 39398
L75052 39426
L75080 39454
" />
<path d="M75333 39764
L75783 39764
" />
<path d="M76261 39679
L76346 39707
L76374 39735
L76402 39792
L76402 39876
L76374 39932
L76346 39960
L76289 39989
L76064 39989
L76064 39398
L76261 39398
L76318 39426
L76346 39454
L76374 39510
L76374 39567
L76346 39623
L76318 39651
L76261 39679
L76064 39679
" />
<path d="M76767 39707
L76767 39989
" />
<path d="M76571 39398
L76767 39707
L76964 39398
" />
<path d="M77161 39764
L77611 39764
" />
<path d="M77892 39989
L77892 39398
L78230 39989
L78230 39398
" />
<path d="M78848 39932
L78820 39960
L78736 39989
L78680 39989
L78595 39960
L78539 39904
L78511 39848
L78483 39735
L78483 39651
L78511 39539
L78539 39482
L78595 39426
L78680 39398
L78736 39398
L78820 39426
L78848 39454
" />
<path d="M79102 39764
L79552 39764
" />
<path d="M80086 39595
L80086 39989
" />
<path d="M79945 39370
L79805 39792
L80170 39792
" />
<path d="M80395 39932
L80423 39960
L80395 39989
L80367 39960
L80395 39932
L80395 39989
" />
<path d="M80789 39398
L80845 39398
L80901 39426
L80929 39454
L80958 39510
L80986 39623
L80986 39764
L80958 39876
L80929 39932
L80901 39960
L80845 39989
L80789 39989
L80733 39960
L80705 39932
L80676 39876
L80648 39764
L80648 39623
L80676 39510
L80705 39454
L80733 39426
L80789 39398
" />
<path d="M39239 55359
L38648 55359
" />
<path d="M39239 55078
L38648 55078
L39239 54740
L38648 54740
" />
<path d="M38845 54487
L38845 54065
" />
<path d="M38592 54318
L39351 54487
" />
<path d="M39098 54122
L39098 54543
" />
<path d="M39351 54290
L38592 54122
" />
<path d="M38845 53615
L39239 53615
" />
<path d="M38620 53756
L39042 53897
L39042 53531
" />
<path d="M38239 55359
L37648 55359
" />
<path d="M38239 55078
L37648 55078
L38239 54740
L37648 54740
" />
<path d="M37845 54487
L37845 54065
" />
<path d="M37592 54318
L38351 54487
" />
<path d="M38098 54122
L38098 54543
" />
<path d="M38351 54290
L37592 54122
" />
<path d="M37648 53925
L37648 53559
L37873 53756
L37873 53672
L37901 53615
L37929 53587
L37985 53559
L38126 53559
L38182 53587
L38210 53615
L38239 53672
L38239 53840
L38210 53897
L38182 53925
" />
<path d="M39929 55359
L39929 55162
" />
<path d="M40239 55078
L40239 55359
L39648 55359
L39648 55078
" />
<path d="M40239 54487
L39957 54684
" />
<path d="M40239 54825
L39648 54825
L39648 54600
L39676 54543
L39704 54515
L39760 54487
L39845 54487
L39901 54515
L39929 54543
L39957 54600
L39957 54825
" />
<path d="M40239 53897
L39957 54093
" />
<path d="M40239 54234
L39648 54234
L39648 54009
L39676 53953
L39704 53925
L39760 53897
L39845 53897
L39901 53925
L39929 53953
L39957 54009
L39957 54234
" />
<path d="M39845 53672
L39845 53250
" />
<path d="M39592 53503
L40351 53672
" />
<path d="M40098 53306
L40098 53728
" />
<path d="M40351 53475
L39592 53306
" />
<path d="M40239 52744
L40239 53081
" />
<path d="M40239 52912
L39648 52912
L39732 52969
L39789 53025
L39817 53081
" />
<path d="M40929 55359
L40929 55162
" />
<path d="M41239 55078
L41239 55359
L40648 55359
L40648 55078
" />
<path d="M41239 54487
L40957 54684
" />
<path d="M41239 54825
L40648 54825
L40648 54600
L40676 54543
L40704 54515
L40760 54487
L40845 54487
L40901 54515
L40929 54543
L40957 54600
L40957 54825
" />
<path d="M41239 53897
L40957 54093
" />
<path d="M41239 54234
L40648 54234
L40648 54009
L40676 53953
L40704 53925
L40760 53897
L40845 53897
L40901 53925
L40929 53953
L40957 54009
L40957 54234
" />
<path d="M40845 53672
L40845 53250
" />
<path d="M40592 53503
L41351 53672
" />
<path d="M41098 53306
L41098 53728
" />
<path d="M41351 53475
L40592 53306
" />
<path d="M40704 53081
L40676 53053
L40648 52997
L40648 52856
L40676 52800
L40704 52772
L40760 52744
L40817 52744
L40901 52772
L41239 53109
L41239 52744
" />
<path d="M67014 55359
L67014 54909
" />
<path d="M67239 55134
L66789 55134
" />
<path d="M66648 54347
L66648 54628
L66929 54656
L66901 54628
L66873 54571
L66873 54431
L66901 54375
L66929 54347
L66985 54318
L67126 54318
L67182 54347
L67210 54375
L67239 54431
L67239 54571
L67210 54628
L67182 54656
" />
<path d="M66648 54150
L67239 53953
L66648 53756
" />
<path d="M41929 55359
L41929 55162
" />
<path d="M42239 55078
L42239 55359
L41648 55359
L41648 55078
" />
<path d="M42239 54487
L41957 54684
" />
<path d="M42239 54825
L41648 54825
L41648 54600
L41676 54543
L41704 54515
L41760 54487
L41845 54487
L41901 54515
L41929 54543
L41957 54600
L41957 54825
" />
<path d="M42239 53897
L41957 54093
" />
<path d="M42239 54234
L41648 54234
L41648 54009
L41676 53953
L41704 53925
L41760 53897
L41845 53897
L41901 53925
L41929 53953
L41957 54009
L41957 54234
" />
<path d="M41845 53672
L41845 53250
" />
<path d="M41592 53503
L42351 53672
" />
<path d="M42098 53306
L42098 53728
" />
<path d="M42351 53475
L41592 53306
" />
<path d="M41648 53109
L41648 52744
L41873 52940
L41873 52856
L41901 52800
L41929 52772
L41985 52744
L42126 52744
L42182 52772
L42210 52800
L42239 52856
L42239 53025
L42210 53081
L42182 53109
" />
<path d="M42929 55359
L42929 55162
" />
<path d="M43239 55078
L43239 55359
L42648 55359
L42648 55078
" />
<path d="M43239 54487
L42957 54684
" />
<path d="M43239 54825
L42648 54825
L42648 54600
L42676 54543
L42704 54515
L42760 54487
L42845 54487
L42901 54515
L42929 54543
L42957 54600
L42957 54825
" />
<path d="M43239 53897
L42957 54093
" />
<path d="M43239 54234
L42648 54234
L42648 54009
L42676 53953
L42704 53925
L42760 53897
L42845 53897
L42901 53925
L42929 53953
L42957 54009
L42957 54234
" />
<path d="M42845 53672
L42845 53250
" />
<path d="M42592 53503
L43351 53672
" />
<path d="M43098 53306
L43098 53728
" />
<path d="M43351 53475
L42592 53306
" />
<path d="M42845 52800
L43239 52800
" />
<path d="M42620 52940
L43042 53081
L43042 52715
" />
<path d="M46648 55246
L46648 55134
L46676 55078
L46732 55021
L46845 54993
L47042 54993
L47154 55021
L47210 55078
L47239 55134
L47239 55246
L47210 55303
L47154 55359
L47042 55387
L46845 55387
L46732 55359
L46676 55303
L46648 55246
" />
<path d="M46648 54740
L47126 54740
L47182 54712
L47210 54684
L47239 54628
L47239 54515
L47210 54459
L47182 54431
L47126 54403
L46648 54403
" />
<path d="M46648 54206
L46648 53868
" />
<path d="M47239 54037
L46648 54037
" />
<path d="M46845 53700
L46845 53278
" />
<path d="M46592 53531
L47351 53700
" />
<path d="M47098 53334
L47098 53756
" />
<path d="M47351 53503
L46592 53334
" />
<path d="M46845 52828
L47239 52828
" />
<path d="M46620 52969
L47042 53109
L47042 52744
" />
<path d="M45648 55246
L45648 55134
L45676 55078
L45732 55021
L45845 54993
L46042 54993
L46154 55021
L46210 55078
L46239 55134
L46239 55246
L46210 55303
L46154 55359
L46042 55387
L45845 55387
L45732 55359
L45676 55303
L45648 55246
" />
<path d="M45648 54740
L46126 54740
L46182 54712
L46210 54684
L46239 54628
L46239 54515
L46210 54459
L46182 54431
L46126 54403
L45648 54403
" />
<path d="M45648 54206
L45648 53868
" />
<path d="M46239 54037
L45648 54037
" />
<path d="M45845 53700
L45845 53278
" />
<path d="M45592 53531
L46351 53700
" />
<path d="M46098 53334
L46098 53756
" />
<path d="M46351 53503
L45592 53334
" />
<path d="M45648 53137
L45648 52772
L45873 52969
L45873 52884
L45901 52828
L45929 52800
L45985 52772
L46126 52772
L46182 52800
L46210 52828
L46239 52884
L46239 53053
L46210 53109
L46182 53137
" />
<path d="M68239 58379
L68239 58660
L67648 58660
" />
<path d="M67929 58182
L67929 57985
" />
<path d="M68239 57901
L68239 58182
L67648 58182
L67648 57901
" />
<path d="M68239 57648
L67648 57648
L67648 57507
L67676 57423
L67732 57367
L67789 57339
L67901 57311
L67985 57311
L68098 57339
L68154 57367
L68210 57423
L68239 57507
L68239 57648
" />
<path d="M35070 55387
L35070 55106
" />
<path d="M35239 55443
L34648 55246
L35239 55050
" />
<path d="M35182 54515
L35210 54543
L35239 54628
L35239 54684
L35210 54768
L35154 54825
L35098 54853
L34985 54881
L34901 54881
L34789 54853
L34732 54825
L34676 54768
L34648 54684
L34648 54628
L34676 54543
L34704 54515
" />
<path d="M34648 54347
L34648 54009
" />
<path d="M35239 54178
L34648 54178
" />
<path d="M44648 55246
L44648 55134
L44676 55078
L44732 55021
L44845 54993
L45042 54993
L45154 55021
L45210 55078
L45239 55134
L45239 55246
L45210 55303
L45154 55359
L45042 55387
L44845 55387
L44732 55359
L44676 55303
L44648 55246
" />
<path d="M44648 54740
L45126 54740
L45182 54712
L45210 54684
L45239 54628
L45239 54515
L45210 54459
L45182 54431
L45126 54403
L44648 54403
" />
<path d="M44648 54206
L44648 53868
" />
<path d="M45239 54037
L44648 54037
" />
<path d="M44845 53700
L44845 53278
" />
<path d="M44592 53531
L45351 53700
" />
<path d="M45098 53334
L45098 53756
" />
<path d="M45351 53503
L44592 53334
" />
<path d="M44704 53109
L44676 53081
L44648 53025
L44648 52884
L44676 52828
L44704 52800
L44760 52772
L44817 52772
L44901 52800
L45239 53137
L45239 52772
" />
<path d="M43648 55246
L43648 55134
L43676 55078
L43732 55021
L43845 54993
L44042 54993
L44154 55021
L44210 55078
L44239 55134
L44239 55246
L44210 55303
L44154 55359
L44042 55387
L43845 55387
L43732 55359
L43676 55303
L43648 55246
" />
<path d="M43648 54740
L44126 54740
L44182 54712
L44210 54684
L44239 54628
L44239 54515
L44210 54459
L44182 54431
L44126 54403
L43648 54403
" />
<path d="M43648 54206
L43648 53868
" />
<path d="M44239 54037
L43648 54037
" />
<path d="M43845 53700
L43845 53278
" />
<path d="M43592 53531
L44351 53700
" />
<path d="M44098 53334
L44098 53756
" />
<path d="M44351 53503
L43592 53334
" />
<path d="M44239 52772
L44239 53109
" />
<path d="M44239 52940
L43648 52940
L43732 52997
L43789 53053
L43817 53109
" />
<path d="M64676 55050
L64648 55106
L64648 55190
L64676 55275
L64732 55331
L64789 55359
L64901 55387
L64985 55387
L65098 55359
L65154 55331
L65210 55275
L65239 55190
L65239 55134
L65210 55050
L65182 55021
L64985 55021
L64985 55134
" />
<path d="M65239 54768
L64648 54768
L65239 54431
L64648 54431
" />
<path d="M65239 54150
L64648 54150
L64648 54009
L64676 53925
L64732 53868
L64789 53840
L64901 53812
L64985 53812
L65098 53840
L65154 53868
L65210 53925
L65239 54009
L65239 54150
" />
<path d="M66014 55359
L66014 54909
" />
<path d="M66239 55134
L65789 55134
" />
<path d="M65648 54684
L65648 54318
L65873 54515
L65873 54431
L65901 54375
L65929 54347
L65985 54318
L66126 54318
L66182 54347
L66210 54375
L66239 54431
L66239 54600
L66210 54656
L66182 54684
" />
<path d="M66210 54037
L66239 54037
L66295 54065
L66323 54093
" />
<path d="M65648 53840
L65648 53475
L65873 53672
L65873 53587
L65901 53531
L65929 53503
L65985 53475
L66126 53475
L66182 53503
L66210 53531
L66239 53587
L66239 53756
L66210 53812
L66182 53840
" />
<path d="M65648 53306
L66239 53109
L65648 52912
" />
<path d="M37239 55359
L36648 55359
" />
<path d="M37239 55078
L36648 55078
L37239 54740
L36648 54740
" />
<path d="M36845 54487
L36845 54065
" />
<path d="M36592 54318
L37351 54487
" />
<path d="M37098 54122
L37098 54543
" />
<path d="M37351 54290
L36592 54122
" />
<path d="M36704 53897
L36676 53868
L36648 53812
L36648 53672
L36676 53615
L36704 53587
L36760 53559
L36817 53559
L36901 53587
L37239 53925
L37239 53559
" />
<path d="M36239 55359
L35648 55359
" />
<path d="M36239 55078
L35648 55078
L36239 54740
L35648 54740
" />
<path d="M35845 54487
L35845 54065
" />
<path d="M35592 54318
L36351 54487
" />
<path d="M36098 54122
L36098 54543
" />
<path d="M36351 54290
L35592 54122
" />
<path d="M36239 53559
L36239 53897
" />
<path d="M36239 53728
L35648 53728
L35732 53784
L35789 53840
L35817 53897
" />
</g>
<g style="fill:#000000; fill-opacity:0.0; 
stroke:#000000; stroke-width:39.3701; stroke-opacity:1; 
stroke-linecap:round; stroke-linejoin:round;">
<path d="M25500 48500
L31500 48500
" />
<path d="M25500 32500
L25500 48500
" />
<path d="M31500 32500
L25500 32500
" />
<path d="M31500 60500
L31500 48500
" />
<path d="M76000 60500
L31500 60500
" />
<path d="M76000 53500
L76000 60500
" />
<path d="M84000 53500
L76000 53500
" />
<path d="M84000 17500
L84000 53500
" />
<path d="M31500 17500
L84000 17500
" />
<path d="M31500 32500
L31500 17500
" />
</g>
<g style="fill:#000000; fill-opacity:0.0; 
stroke:#000000; stroke-width:120; stroke-opacity:1; 
stroke-linecap:round; stroke-linejoin:round;">
<path d="M33500 26000
L33500 21000
" />
<path d="M33500 21000
L34500 21000
" />
<path d="M34500 21000
L34500 26000
" />
<path d="M34000 21000
L34000 20500
" />
<path d="M34000 26500
L34000 26000
" />
<path d="M33800 26000
L33500 25700
" />
<path d="M33500 26000
L34500 26000
" />
<path d="M35500 26000
L35500 21000
" />
<path d="M35500 21000
L36500 21000
" />
<path d="M36500 21000
L36500 26000
" />
<path d="M36000 21000
L36000 20500
" />
<path d="M36000 26500
L36000 26000
" />
<path d="M35800 26000
L35500 25700
" />
<path d="M35500 26000
L36500 26000
" />
<path d="M47500 46000
L52500 46000
" />
<path d="M52500 46000
L52500 47000
" />
<path d="M52500 47000
L47500 47000
" />
<path d="M52500 46500
L53000 46500
" />
<path d="M47000 46500
L47500 46500
" />
<path d="M47500 46300
L47800 46000
" />
<path d="M47500 46000
L47500 47000
" />
<path d="M47500 44000
L52500 44000
" />
<path d="M52500 44000
L52500 45000
" />
<path d="M52500 45000
L47500 45000
" />
<path d="M52500 44500
L53000 44500
" />
<path d="M47000 44500
L47500 44500
" />
<path d="M47500 44300
L47800 44000
" />
<path d="M47500 44000
L47500 45000
" />
<path d="M47500 48000
L52500 48000
" />
<path d="M52500 48000
L52500 49000
" />
<path d="M52500 49000
L47500 49000
" />
<path d="M52500 48500
L53000 48500
" />
<path d="M47000 48500
L47500 48500
" />
<path d="M47500 48300
L47800 48000
" />
<path d="M47500 48000
L47500 49000
" />
<path d="M47500 50000
L52500 50000
" />
<path d="M52500 50000
L52500 51000
" />
<path d="M52500 51000
L47500 51000
" />
<path d="M52500 50500
L53000 50500
" />
<path d="M47000 50500
L47500 50500
" />
<path d="M47500 50300
L47800 50000
" />
<path d="M47500 50000
L47500 51000
" />
</g>
<g style="fill:#000000; fill-opacity:0.0; 
stroke:#000000; stroke-width:80; stroke-opacity:1; 
stroke-linecap:round; stroke-linejoin:round;">
<path d="M72380 55750
L72380 57250
" />
</g>
<g style="fill:#000000; fill-opacity:0.0; 
stroke:#000000; stroke-width:30; stroke-opacity:1; 
stroke-linecap:round; stroke-linejoin:round;">
<circle cx="73400" cy="56500" r="707.107" /> 
</g>
<g style="fill:#000000; fill-opacity:0.0; 
stroke:#000000; stroke-width:100; stroke-opacity:1; 
stroke-linecap:round; stroke-linejoin:round;">
<path d="M72400.4 57250.5 A1250 1250 0.0 1 0 72400.4 55749.5 " />
</g>
<g style="fill:#000000; fill-opacity:0.0; 
stroke:#000000; stroke-width:60; stroke-opacity:1; 
stroke-linecap:round; stroke-linejoin:round;">
<path d="M73400 56950 A450 450 0.0 0 0 73850 56500 " />
<path d="M73400 56050 A450 450 0.0 0 0 72950 56500 " />
<path d="M73400 57150 A650 650 0.0 0 0 74050 56500 " />
<path d="M73400 55850 A650 650 0.0 0 0 72750 56500 " />
<path d="M73400 57350 A850 850 0.0 0 0 74250 56500 " />
<path d="M73400 55650 A850 850 0.0 0 0 72550 56500 " />
</g>
<g style="fill:#000000; fill-opacity:0.0; 
stroke:#000000; stroke-width:120; stroke-opacity:1; 
stroke-linecap:round; stroke-linejoin:round;">
<path d="M47500 38000
L52500 38000
" />
<path d="M52500 38000
L52500 39000
" />
<path d="M52500 39000
L47500 39000
" />
<path d="M52500 38500
L53000 38500
" />
<path d="M47000 38500
L47500 38500
" />
<path d="M47500 38300
L47800 38000
" />
<path d="M47500 38000
L47500 39000
" />
<path d="M47500 36000
L52500 36000
" />
<path d="M52500 36000
L52500 37000
" />
<path d="M52500 37000
L47500 37000
" />
<path d="M52500 36500
L53000 36500
" />
<path d="M47000 36500
L47500 36500
" />
<path d="M47500 36300
L47800 36000
" />
<path d="M47500 36000
L47500 37000
" />
<path d="M47500 32000
L52500 32000
" />
<path d="M52500 32000
L52500 33000
" />
<path d="M52500 33000
L47500 33000
" />
<path d="M52500 32500
L53000 32500
" />
<path d="M47000 32500
L47500 32500
" />
<path d="M47500 32300
L47800 32000
" />
<path d="M47500 32000
L47500 33000
" />
<path d="M47500 34000
L52500 34000
" />
<path d="M52500 34000
L52500 35000
" />
<path d="M52500 35000
L47500 35000
" />
<path d="M52500 34500
L53000 34500
" />
<path d="M47000 34500
L47500 34500
" />
<path d="M47500 34300
L47800 34000
" />
<path d="M47500 34000
L47500 35000
" />
</g>
<g style="fill:#000000; fill-opacity:0.0; 
stroke:#000000; stroke-width:80; stroke-opacity:1; 
stroke-linecap:round; stroke-linejoin:round;">
<path d="M56380 19750
L56380 21250
" />
</g>
<g style="fill:#000000; fill-opacity:0.0; 
stroke:#000000; stroke-width:30; stroke-opacity:1; 
stroke-linecap:round; stroke-linejoin:round;">
<circle cx="57400" cy="20500" r="707.107" /> 
</g>
<g style="fill:#000000; fill-opacity:0.0; 
stroke:#000000; stroke-width:100; stroke-opacity:1; 
stroke-linecap:round; stroke-linejoin:round;">
<path d="M56400.4 21250.5 A1250 1250 0.0 1 0 56400.4 19749.5 " />
</g>
<g style="fill:#000000; fill-opacity:0.0; 
stroke:#000000; stroke-width:60; stroke-opacity:1; 
stroke-linecap:round; stroke-linejoin:round;">
<path d="M57400 20950 A450 450 0.0 0 0 57850 20500 " />
<path d="M57400 20050 A450 450 0.0 0 0 56950 20500 " />
<path d="M57400 21150 A650 650 0.0 0 0 58050 20500 " />
<path d="M57400 19850 A650 650 0.0 0 0 56750 20500 " />
<path d="M57400 21350 A850 850 0.0 0 0 58250 20500 " />
<path d="M57400 19650 A850 850 0.0 0 0 56550 20500 " />
</g>
<g style="fill:#000000; fill-opacity:0.0; 
stroke:#000000; stroke-width:80; stroke-opacity:1; 
stroke-linecap:round; stroke-linejoin:round;">
<path d="M64380 19750
L64380 21250
" />
</g>
<g style="fill:#000000; fill-opacity:0.0; 
stroke:#000000; stroke-width:30; stroke-opacity:1; 
stroke-linecap:round; stroke-linejoin:round;">
<circle cx="65400" cy="20500" r="707.107" /> 
</g>
<g style="fill:#000000; fill-opacity:0.0; 
stroke:#000000; stroke-width:100; stroke-opacity:1; 
stroke-linecap:round; stroke-linejoin:round;">
<path d="M64400.4 21250.5 A1250 1250 0.0 1 0 64400.4 19749.5 " />
</g>
<g style="fill:#000000; fill-opacity:0.0; 
stroke:#000000; stroke-width:60; stroke-opacity:1; 
stroke-linecap:round; stroke-linejoin:round;">
<path d="M65400 20950 A450 450 0.0 0 0 65850 20500 " />
<path d="M65400 20050 A450 450 0.0 0 0 64950 20500 " />
<path d="M65400 21150 A650 650 0.0 0 0 66050 20500 " />
<path d="M65400 19850 A650 650 0.0 0 0 64750 20500 " />
<path d="M65400 21350 A850 850 0.0 0 0 66250 20500 " />
<path d="M65400 19650 A850 850 0.0 0 0 64550 20500 " />
</g>
<g style="fill:#000000; fill-opacity:0.0; 
stroke:#000000; stroke-width:80; stroke-opacity:1; 
stroke-linecap:round; stroke-linejoin:round;">
<path d="M72380 19750
L72380 21250
" />
</g>
<g style="fill:#000000; fill-opacity:0.0; 
stroke:#000000; stroke-width:30; stroke-opacity:1; 
stroke-linecap:round; stroke-linejoin:round;">
<circle cx="73400" cy="20500" r="707.107" /> 
</g>
<g style="fill:#000000; fill-opacity:0.0; 
stroke:#000000; stroke-width:100; stroke-opacity:1; 
stroke-linecap:round; stroke-linejoin:round;">
<path d="M72400.4 21250.5 A1250 1250 0.0 1 0 72400.4 19749.5 " />
</g>
<g style="fill:#000000; fill-opacity:0.0; 
stroke:#000000; stroke-width:60; stroke-opacity:1; 
stroke-linecap:round; stroke-linejoin:round;">
<path d="M73400 20950 A450 450 0.0 0 0 73850 20500 " />
<path d="M73400 20050 A450 450 0.0 0 0 72950 20500 " />
<path d="M73400 21150 A650 650 0.0 0 0 74050 20500 " />
<path d="M73400 19850 A650 650 0.0 0 0 72750 20500 " />
<path d="M73400 21350 A850 850 0.0 0 0 74250 20500 " />
<path d="M73400 19650 A850 850 0.0 0 0 72550 20500 " />
</g>
<g style="fill:#000000; fill-opacity:0.0; 
stroke:#000000; stroke-width:80; stroke-opacity:1; 
stroke-linecap:round; stroke-linejoin:round;">
<path d="M80380 19750
L80380 21250
" />
</g>
<g style="fill:#000000; fill-opacity:0.0; 
stroke:#000000; stroke-width:30; stroke-opacity:1; 
stroke-linecap:round; stroke-linejoin:round;">
<circle cx="81400" cy="20500" r="707.107" /> 
</g>
<g style="fill:#000000; fill-opacity:0.0; 
stroke:#000000; stroke-width:100; stroke-opacity:1; 
stroke-linecap:round; stroke-linejoin:round;">
<path d="M80400.4 21250.5 A1250 1250 0.0 1 0 80400.4 19749.5 " />
</g>
<g style="fill:#000000; fill-opacity:0.0; 
stroke:#000000; stroke-width:60; stroke-opacity:1; 
stroke-linecap:round; stroke-linejoin:round;">
<path d="M81400 20950 A450 450 0.0 0 0 81850 20500 " />
<path d="M81400 20050 A450 450 0.0 0 0 80950 20500 " />
<path d="M81400 21150 A650 650 0.0 0 0 82050 20500 " />
<path d="M81400 19850 A650 650 0.0 0 0 80750 20500 " />
<path d="M81400 21350 A850 850 0.0 0 0 82250 20500 " />
<path d="M81400 19650 A850 850 0.0 0 0 80550 20500 " />
</g>
<g style="fill:#000000; fill-opacity:0.0; 
stroke:#000000; stroke-width:80; stroke-opacity:1; 
stroke-linecap:round; stroke-linejoin:round;">
<path d="M80380 31750
L80380 33250
" />
</g>
<g style="fill:#000000; fill-opacity:0.0; 
stroke:#000000; stroke-width:30; stroke-opacity:1; 
stroke-linecap:round; stroke-linejoin:round;">
<circle cx="81400" cy="32500" r="707.107" /> 
</g>
<g style="fill:#000000; fill-opacity:0.0; 
stroke:#000000; stroke-width:100; stroke-opacity:1; 
stroke-linecap:round; stroke-linejoin:round;">
<path d="M80400.4 33250.5 A1250 1250 0.0 1 0 80400.4 31749.5 " />
</g>
<g style="fill:#000000; fill-opacity:0.0; 
stroke:#000000; stroke-width:60; stroke-opacity:1; 
stroke-linecap:round; stroke-linejoin:round;">
<path d="M81400 32950 A450 450 0.0 0 0 81850 32500 " />
<path d="M81400 32050 A450 450 0.0 0 0 80950 32500 " />
<path d="M81400 33150 A650 650 0.0 0 0 82050 32500 " />
<path d="M81400 31850 A650 650 0.0 0 0 80750 32500 " />
<path d="M81400 33350 A850 850 0.0 0 0 82250 32500 " />
<path d="M81400 31650 A850 850 0.0 0 0 80550 32500 " />
</g>
<g style="fill:#000000; fill-opacity:0.0; 
stroke:#000000; stroke-width:80; stroke-opacity:1; 
stroke-linecap:round; stroke-linejoin:round;">
<path d="M72380 31750
L72380 33250
" />
</g>
<g style="fill:#000000; fill-opacity:0.0; 
stroke:#000000; stroke-width:30; stroke-opacity:1; 
stroke-linecap:round; stroke-linejoin:round;">
<circle cx="73400" cy="32500" r="707.107" /> 
</g>
<g style="fill:#000000; fill-opacity:0.0; 
stroke:#000000; stroke-width:100; stroke-opacity:1; 
stroke-linecap:round; stroke-linejoin:round;">
<path d="M72400.4 33250.5 A1250 1250 0.0 1 0 72400.4 31749.5 " />
</g>
<g style="fill:#000000; fill-opacity:0.0; 
stroke:#000000; stroke-width:60; stroke-opacity:1; 
stroke-linecap:round; stroke-linejoin:round;">
<path d="M73400 32950 A450 450 0.0 0 0 73850 32500 " />
<path d="M73400 32050 A450 450 0.0 0 0 72950 32500 " />
<path d="M73400 33150 A650 650 0.0 0 0 74050 32500 " />
<path d="M73400 31850 A650 650 0.0 0 0 72750 32500 " />
<path d="M73400 33350 A850 850 0.0 0 0 74250 32500 " />
<path d="M73400 31650 A850 850 0.0 0 0 72550 32500 " />
</g>
<g style="fill:#000000; fill-opacity:0.0; 
stroke:#000000; stroke-width:80; stroke-opacity:1; 
stroke-linecap:round; stroke-linejoin:round;">
<path d="M64380 31750
L64380 33250
" />
</g>
<g style="fill:#000000; fill-opacity:0.0; 
stroke:#000000; stroke-width:30; stroke-opacity:1; 
stroke-linecap:round; stroke-linejoin:round;">
<circle cx="65400" cy="32500" r="707.107" /> 
</g>
<g style="fill:#000000; fill-opacity:0.0; 
stroke:#000000; stroke-width:100; stroke-opacity:1; 
stroke-linecap:round; stroke-linejoin:round;">
<path d="M64400.4 33250.5 A1250 1250 0.0 1 0 64400.4 31749.5 " />
</g>
<g style="fill:#000000; fill-opacity:0.0; 
stroke:#000000; stroke-width:60; stroke-opacity:1; 
stroke-linecap:round; stroke-linejoin:round;">
<path d="M65400 32950 A450 450 0.0 0 0 65850 32500 " />
<path d="M65400 32050 A450 450 0.0 0 0 64950 32500 " />
<path d="M65400 33150 A650 650 0.0 0 0 66050 32500 " />
<path d="M65400 31850 A650 650 0.0 0 0 64750 32500 " />
<path d="M65400 33350 A850 850 0.0 0 0 66250 32500 " />
<path d="M65400 31650 A850 850 0.0 0 0 64550 32500 " />
</g>
<g style="fill:#000000; fill-opacity:0.0; 
stroke:#000000; stroke-width:80; stroke-opacity:1; 
stroke-linecap:round; stroke-linejoin:round;">
<path d="M56380 31750
L56380 33250
" />
</g>
<g style="fill:#000000; fill-opacity:0.0; 
stroke:#000000; stroke-width:30; stroke-opacity:1; 
stroke-linecap:round; stroke-linejoin:round;">
<circle cx="57400" cy="32500" r="707.107" /> 
</g>
<g style="fill:#000000; fill-opacity:0.0; 
stroke:#000000; stroke-width:100; stroke-opacity:1; 
stroke-linecap:round; stroke-linejoin:round;">
<path d="M56400.4 33250.5 A1250 1250 0.0 1 0 56400.4 31749.5 " />
</g>
<g style="fill:#000000; fill-opacity:0.0; 
stroke:#000000; stroke-width:60; stroke-opacity:1; 
stroke-linecap:round; stroke-linejoin:round;">
<path d="M57400 32950 A450 450 0.0 0 0 57850 32500 " />
<path d="M57400 32050 A450 450 0.0 0 0 56950 32500 " />
<path d="M57400 33150 A650 650 0.0 0 0 58050 32500 " />
<path d="M57400 31850 A650 650 0.0 0 0 56750 32500 " />
<path d="M57400 33350 A850 850 0.0 0 0 58250 32500 " />
<path d="M57400 31650 A850 850 0.0 0 0 56550 32500 " />
</g>
<g style="fill:#000000; fill-opacity:0.0; 
stroke:#000000; stroke-width:120; stroke-opacity:1; 
stroke-linecap:round; stroke-linejoin:round;">
<path d="M39500 22000
L44500 22000
" />
<path d="M44500 22000
L44500 23000
" />
<path d="M44500 23000
L39500 23000
" />
<path d="M44500 22500
L45000 22500
" />
<path d="M39000 22500
L39500 22500
" />
<path d="M39500 22300
L39800 22000
" />
<path d="M39500 22000
L39500 23000
" />
<path d="M47500 22000
L52500 22000
" />
<path d="M52500 22000
L52500 23000
" />
<path d="M52500 23000
L47500 23000
" />
<path d="M52500 22500
L53000 22500
" />
<path d="M47000 22500
L47500 22500
" />
<path d="M47500 22300
L47800 22000
" />
<path d="M47500 22000
L47500 23000
" />
<path d="M47500 20000
L52500 20000
" />
<path d="M52500 20000
L52500 21000
" />
<path d="M52500 21000
L47500 21000
" />
<path d="M52500 20500
L53000 20500
" />
<path d="M47000 20500
L47500 20500
" />
<path d="M47500 20300
L47800 20000
" />
<path d="M47500 20000
L47500 21000
" />
<path d="M39500 20000
L44500 20000
" />
<path d="M44500 20000
L44500 21000
" />
<path d="M44500 21000
L39500 21000
" />
<path d="M44500 20500
L45000 20500
" />
<path d="M39000 20500
L39500 20500
" />
<path d="M39500 20300
L39800 20000
" />
<path d="M39500 20000
L39500 21000
" />
<path d="M39500 24000
L44500 24000
" />
<path d="M44500 24000
L44500 25000
" />
<path d="M44500 25000
L39500 25000
" />
<path d="M44500 24500
L45000 24500
" />
<path d="M39000 24500
L39500 24500
" />
<path d="M39500 24300
L39800 24000
" />
<path d="M39500 24000
L39500 25000
" />
<path d="M47500 24000
L52500 24000
" />
<path d="M52500 24000
L52500 25000
" />
<path d="M52500 25000
L47500 25000
" />
<path d="M52500 24500
L53000 24500
" />
<path d="M47000 24500
L47500 24500
" />
<path d="M47500 24300
L47800 24000
" />
<path d="M47500 24000
L47500 25000
" />
</g>
<g style="fill:#000000; fill-opacity:0.0; 
stroke:#000000; stroke-width:80; stroke-opacity:1; 
stroke-linecap:round; stroke-linejoin:round;">
<path d="M26880 35750
L26880 37250
" />
</g>
<g style="fill:#000000; fill-opacity:0.0; 
stroke:#000000; stroke-width:30; stroke-opacity:1; 
stroke-linecap:round; stroke-linejoin:round;">
<circle cx="27900" cy="36500" r="707.107" /> 
</g>
<g style="fill:#000000; fill-opacity:0.0; 
stroke:#000000; stroke-width:100; stroke-opacity:1; 
stroke-linecap:round; stroke-linejoin:round;">
<path d="M26900.4 37250.5 A1250 1250 0.0 1 0 26900.4 35749.5 " />
</g>
<g style="fill:#000000; fill-opacity:0.0; 
stroke:#000000; stroke-width:60; stroke-opacity:1; 
stroke-linecap:round; stroke-linejoin:round;">
<path d="M27900 36950 A450 450 0.0 0 0 28350 36500 " />
<path d="M27900 36050 A450 450 0.0 0 0 27450 36500 " />
<path d="M27900 37150 A650 650 0.0 0 0 28550 36500 " />
<path d="M27900 35850 A650 650 0.0 0 0 27250 36500 " />
<path d="M27900 37350 A850 850 0.0 0 0 28750 36500 " />
<path d="M27900 35650 A850 850 0.0 0 0 27050 36500 " />
</g>
<g style="fill:#000000; fill-opacity:0.0; 
stroke:#000000; stroke-width:80; stroke-opacity:1; 
stroke-linecap:round; stroke-linejoin:round;">
<path d="M26880 43750
L26880 45250
" />
</g>
<g style="fill:#000000; fill-opacity:0.0; 
stroke:#000000; stroke-width:30; stroke-opacity:1; 
stroke-linecap:round; stroke-linejoin:round;">
<circle cx="27900" cy="44500" r="707.107" /> 
</g>
<g style="fill:#000000; fill-opacity:0.0; 
stroke:#000000; stroke-width:100; stroke-opacity:1; 
stroke-linecap:round; stroke-linejoin:round;">
<path d="M26900.4 45250.5 A1250 1250 0.0 1 0 26900.4 43749.5 " />
</g>
<g style="fill:#000000; fill-opacity:0.0; 
stroke:#000000; stroke-width:60; stroke-opacity:1; 
stroke-linecap:round; stroke-linejoin:round;">
<path d="M27900 44950 A450 450 0.0 0 0 28350 44500 " />
<path d="M27900 44050 A450 450 0.0 0 0 27450 44500 " />
<path d="M27900 45150 A650 650 0.0 0 0 28550 44500 " />
<path d="M27900 43850 A650 650 0.0 0 0 27250 44500 " />
<path d="M27900 45350 A850 850 0.0 0 0 28750 44500 " />
<path d="M27900 43650 A850 850 0.0 0 0 27050 44500 " />
</g>
<g style="fill:#000000; fill-opacity:0.0; 
stroke:#000000; stroke-width:80; stroke-opacity:1; 
stroke-linecap:round; stroke-linejoin:round;">
<path d="M56380 43750
L56380 45250
" />
</g>
<g style="fill:#000000; fill-opacity:0.0; 
stroke:#000000; stroke-width:30; stroke-opacity:1; 
stroke-linecap:round; stroke-linejoin:round;">
<circle cx="57400" cy="44500" r="707.107" /> 
</g>
<g style="fill:#000000; fill-opacity:0.0; 
stroke:#000000; stroke-width:100; stroke-opacity:1; 
stroke-linecap:round; stroke-linejoin:round;">
<path d="M56400.4 45250.5 A1250 1250 0.0 1 0 56400.4 43749.5 " />
</g>
<g style="fill:#000000; fill-opacity:0.0; 
stroke:#000000; stroke-width:60; stroke-opacity:1; 
stroke-linecap:round; stroke-linejoin:round;">
<path d="M57400 44950 A450 450 0.0 0 0 57850 44500 " />
<path d="M57400 44050 A450 450 0.0 0 0 56950 44500 " />
<path d="M57400 45150 A650 650 0.0 0 0 58050 44500 " />
<path d="M57400 43850 A650 650 0.0 0 0 56750 44500 " />
<path d="M57400 45350 A850 850 0.0 0 0 58250 44500 " />
<path d="M57400 43650 A850 850 0.0 0 0 56550 44500 " />
</g>
<g style="fill:#000000; fill-opacity:0.0; 
stroke:#000000; stroke-width:120; stroke-opacity:1; 
stroke-linecap:round; stroke-linejoin:round;">
<path d="M47500 26000
L52500 26000
" />
<path d="M52500 26000
L52500 27000
" />
<path d="M52500 27000
L47500 27000
" />
<path d="M52500 26500
L53000 26500
" />
<path d="M47000 26500
L47500 26500
" />
<path d="M47500 26300
L47800 26000
" />
<path d="M47500 26000
L47500 27000
" />
<path d="M39500 26000
L44500 26000
" />
<path d="M44500 26000
L44500 27000
" />
<path d="M44500 27000
L39500 27000
" />
<path d="M44500 26500
L45000 26500
" />
<path d="M39000 26500
L39500 26500
" />
<path d="M39500 26300
L39800 26000
" />
<path d="M39500 26000
L39500 27000
" />
</g>
<g style="fill:#000000; fill-opacity:0.0; 
stroke:#000000; stroke-width:80; stroke-opacity:1; 
stroke-linecap:round; stroke-linejoin:round;">
<path d="M64380 43750
L64380 45250
" />
</g>
<g style="fill:#000000; fill-opacity:0.0; 
stroke:#000000; stroke-width:30; stroke-opacity:1; 
stroke-linecap:round; stroke-linejoin:round;">
<circle cx="65400" cy="44500" r="707.107" /> 
</g>
<g style="fill:#000000; fill-opacity:0.0; 
stroke:#000000; stroke-width:100; stroke-opacity:1; 
stroke-linecap:round; stroke-linejoin:round;">
<path d="M64400.4 45250.5 A1250 1250 0.0 1 0 64400.4 43749.5 " />
</g>
<g style="fill:#000000; fill-opacity:0.0; 
stroke:#000000; stroke-width:60; stroke-opacity:1; 
stroke-linecap:round; stroke-linejoin:round;">
<path d="M65400 44950 A450 450 0.0 0 0 65850 44500 " />
<path d="M65400 44050 A450 450 0.0 0 0 64950 44500 " />
<path d="M65400 45150 A650 650 0.0 0 0 66050 44500 " />
<path d="M65400 43850 A650 650 0.0 0 0 64750 44500 " />
<path d="M65400 45350 A850 850 0.0 0 0 66250 44500 " />
<path d="M65400 43650 A850 850 0.0 0 0 64550 44500 " />
</g>
<g style="fill:#000000; fill-opacity:0.0; 
stroke:#000000; stroke-width:80; stroke-opacity:1; 
stroke-linecap:round; stroke-linejoin:round;">
<path d="M72380 43750
L72380 45250
" />
</g>
<g style="fill:#000000; fill-opacity:0.0; 
stroke:#000000; stroke-width:30; stroke-opacity:1; 
stroke-linecap:round; stroke-linejoin:round;">
<circle cx="73400" cy="44500" r="707.107" /> 
</g>
<g style="fill:#000000; fill-opacity:0.0; 
stroke:#000000; stroke-width:100; stroke-opacity:1; 
stroke-linecap:round; stroke-linejoin:round;">
<path d="M72400.4 45250.5 A1250 1250 0.0 1 0 72400.4 43749.5 " />
</g>
<g style="fill:#000000; fill-opacity:0.0; 
stroke:#000000; stroke-width:60; stroke-opacity:1; 
stroke-linecap:round; stroke-linejoin:round;">
<path d="M73400 44950 A450 450 0.0 0 0 73850 44500 " />
<path d="M73400 44050 A450 450 0.0 0 0 72950 44500 " />
<path d="M73400 45150 A650 650 0.0 0 0 74050 44500 " />
<path d="M73400 43850 A650 650 0.0 0 0 72750 44500 " />
<path d="M73400 45350 A850 850 0.0 0 0 74250 44500 " />
<path d="M73400 43650 A850 850 0.0 0 0 72550 44500 " />
</g>
<g style="fill:#000000; fill-opacity:0.0; 
stroke:#000000; stroke-width:80; stroke-opacity:1; 
stroke-linecap:round; stroke-linejoin:round;">
<path d="M80380 43750
L80380 45250
" />
</g>
<g style="fill:#000000; fill-opacity:0.0; 
stroke:#000000; stroke-width:30; stroke-opacity:1; 
stroke-linecap:round; stroke-linejoin:round;">
<circle cx="81400" cy="44500" r="707.107" /> 
</g>
<g style="fill:#000000; fill-opacity:0.0; 
stroke:#000000; stroke-width:100; stroke-opacity:1; 
stroke-linecap:round; stroke-linejoin:round;">
<path d="M80400.4 45250.5 A1250 1250 0.0 1 0 80400.4 43749.5 " />
</g>
<g style="fill:#000000; fill-opacity:0.0; 
stroke:#000000; stroke-width:60; stroke-opacity:1; 
stroke-linecap:round; stroke-linejoin:round;">
<path d="M81400 44950 A450 450 0.0 0 0 81850 44500 " />
<path d="M81400 44050 A450 450 0.0 0 0 80950 44500 " />
<path d="M81400 45150 A650 650 0.0 0 0 82050 44500 " />
<path d="M81400 43850 A650 650 0.0 0 0 80750 44500 " />
<path d="M81400 45350 A850 850 0.0 0 0 82250 44500 " />
<path d="M81400 43650 A850 850 0.0 0 0 80550 44500 " />
</g>
<g style="fill:#000000; fill-opacity:0.0; 
stroke:#000000; stroke-width:120; stroke-opacity:1; 
stroke-linecap:round; stroke-linejoin:round;">
<path d="M34500 56000
L47500 56000
" />
<path d="M47500 56000
L47500 57000
" />
<path d="M47500 57000
L34500 57000
" />
<path d="M34500 57000
L34500 56000
" />
<path d="M35500 56000
L35500 57000
" />
<path d="M64500 56000
L64500 56000
" />
<path d="M64500 57000
L64500 56000
" />
<path d="M64500 56000
L64500 56000
" />
<path d="M64500 56000
L68500 56000
" />
<path d="M68500 56000
L68500 57000
" />
<path d="M68500 57000
L64500 57000
" />
<path d="M65500 57000
L65500 56000
" />
<path d="M68500 53500
L73500 53500
" />
<path d="M73500 53500
L73500 54500
" />
<path d="M73500 54500
L68500 54500
" />
<path d="M73500 54000
L74000 54000
" />
<path d="M68000 54000
L68500 54000
" />
<path d="M68500 53800
L68800 53500
" />
<path d="M68500 53500
L68500 54500
" />
</g>
<g style="fill:#000000; fill-opacity:0.0; 
stroke:#000000; stroke-width:80; stroke-opacity:1; 
stroke-linecap:round; stroke-linejoin:round;">
<path d="M34222 23821
L33960 23988
" />
<path d="M34222 24107
L33672 24107
L33672 23916
L33698 23869
L33725 23845
L33777 23821
L33855 23821
L33908 23845
L33934 23869
L33960 23916
L33960 24107
" />
<path d="M34222 23345
L34222 23630
" />
<path d="M34222 23488
L33672 23488
L33751 23535
L33803 23583
L33829 23630
" />
<path d="M33672 23035
L33672 22988
L33698 22940
L33725 22916
L33777 22892
L33882 22869
L34013 22869
L34117 22892
L34170 22916
L34196 22940
L34222 22988
L34222 23035
L34196 23083
L34170 23107
L34117 23130
L34013 23154
L33882 23154
L33777 23130
L33725 23107
L33698 23083
L33672 23035
" />
<path d="M36222 23821
L35960 23988
" />
<path d="M36222 24107
L35672 24107
L35672 23916
L35698 23869
L35725 23845
L35777 23821
L35855 23821
L35908 23845
L35934 23869
L35960 23916
L35960 24107
" />
<path d="M36222 23345
L36222 23630
" />
<path d="M36222 23488
L35672 23488
L35751 23535
L35803 23583
L35829 23630
" />
<path d="M36222 22869
L36222 23154
" />
<path d="M36222 23011
L35672 23011
L35751 23059
L35803 23107
L35829 23154
" />
<path d="M49678 46722
L49511 46460
" />
<path d="M49392 46722
L49392 46172
L49583 46172
L49630 46198
L49654 46225
L49678 46277
L49678 46355
L49654 46408
L49630 46434
L49583 46460
L49392 46460
" />
<path d="M50154 46722
L49869 46722
" />
<path d="M50011 46722
L50011 46172
L49964 46251
L49916 46303
L49869 46329
" />
<path d="M50321 46172
L50654 46172
L50440 46722
" />
<path d="M49678 44722
L49511 44460
" />
<path d="M49392 44722
L49392 44172
L49583 44172
L49630 44198
L49654 44225
L49678 44277
L49678 44355
L49654 44408
L49630 44434
L49583 44460
L49392 44460
" />
<path d="M50154 44722
L49869 44722
" />
<path d="M50011 44722
L50011 44172
L49964 44251
L49916 44303
L49869 44329
" />
<path d="M50583 44172
L50488 44172
L50440 44198
L50416 44225
L50369 44303
L50345 44408
L50345 44617
L50369 44670
L50392 44696
L50440 44722
L50535 44722
L50583 44696
L50607 44670
L50630 44617
L50630 44486
L50607 44434
L50583 44408
L50535 44382
L50440 44382
L50392 44408
L50369 44434
L50345 44486
" />
<path d="M49678 48722
L49511 48460
" />
<path d="M49392 48722
L49392 48172
L49583 48172
L49630 48198
L49654 48225
L49678 48277
L49678 48355
L49654 48408
L49630 48434
L49583 48460
L49392 48460
" />
<path d="M50154 48722
L49869 48722
" />
<path d="M50011 48722
L50011 48172
L49964 48251
L49916 48303
L49869 48329
" />
<path d="M50440 48408
L50392 48382
L50369 48355
L50345 48303
L50345 48277
L50369 48225
L50392 48198
L50440 48172
L50535 48172
L50583 48198
L50607 48225
L50630 48277
L50630 48303
L50607 48355
L50583 48382
L50535 48408
L50440 48408
L50392 48434
L50369 48460
L50345 48513
L50345 48617
L50369 48670
L50392 48696
L50440 48722
L50535 48722
L50583 48696
L50607 48670
L50630 48617
L50630 48513
L50607 48460
L50583 48434
L50535 48408
" />
<path d="M49678 50722
L49511 50460
" />
<path d="M49392 50722
L49392 50172
L49583 50172
L49630 50198
L49654 50225
L49678 50277
L49678 50355
L49654 50408
L49630 50434
L49583 50460
L49392 50460
" />
<path d="M50154 50722
L49869 50722
" />
<path d="M50011 50722
L50011 50172
L49964 50251
L49916 50303
L49869 50329
" />
<path d="M50392 50722
L50488 50722
L50535 50696
L50559 50670
L50607 50591
L50630 50486
L50630 50277
L50607 50225
L50583 50198
L50535 50172
L50440 50172
L50392 50198
L50369 50225
L50345 50277
L50345 50408
L50369 50460
L50392 50486
L50440 50513
L50535 50513
L50583 50486
L50607 50460
L50630 50408
" />
</g>
<g style="fill:#000000; fill-opacity:0.0; 
stroke:#000000; stroke-width:35; stroke-opacity:1; 
stroke-linecap:round; stroke-linejoin:round;">
<path d="M73278 58121
L73278 57821
L73350 57821
L73392 57835
L73421 57864
L73435 57892
L73450 57950
L73450 57992
L73435 58050
L73421 58078
L73392 58107
L73350 58121
L73278 58121
" />
<path d="M73721 57821
L73578 57821
L73564 57964
L73578 57950
L73607 57935
L73678 57935
L73707 57950
L73721 57964
L73735 57992
L73735 58064
L73721 58092
L73707 58107
L73678 58121
L73607 58121
L73578 58107
L73564 58092
" />
</g>
<g style="fill:#000000; fill-opacity:0.0; 
stroke:#000000; stroke-width:80; stroke-opacity:1; 
stroke-linecap:round; stroke-linejoin:round;">
<path d="M49678 38722
L49511 38460
" />
<path d="M49392 38722
L49392 38172
L49583 38172
L49630 38198
L49654 38225
L49678 38277
L49678 38355
L49654 38408
L49630 38434
L49583 38460
L49392 38460
" />
<path d="M50154 38722
L49869 38722
" />
<path d="M50011 38722
L50011 38172
L49964 38251
L49916 38303
L49869 38329
" />
<path d="M50607 38172
L50369 38172
L50345 38434
L50369 38408
L50416 38382
L50535 38382
L50583 38408
L50607 38434
L50630 38486
L50630 38617
L50607 38670
L50583 38696
L50535 38722
L50416 38722
L50369 38696
L50345 38670
" />
<path d="M49678 36722
L49511 36460
" />
<path d="M49392 36722
L49392 36172
L49583 36172
L49630 36198
L49654 36225
L49678 36277
L49678 36355
L49654 36408
L49630 36434
L49583 36460
L49392 36460
" />
<path d="M50154 36722
L49869 36722
" />
<path d="M50011 36722
L50011 36172
L49964 36251
L49916 36303
L49869 36329
" />
<path d="M50583 36355
L50583 36722
" />
<path d="M50464 36146
L50345 36539
L50654 36539
" />
<path d="M49678 32722
L49511 32460
" />
<path d="M49392 32722
L49392 32172
L49583 32172
L49630 32198
L49654 32225
L49678 32277
L49678 32355
L49654 32408
L49630 32434
L49583 32460
L49392 32460
" />
<path d="M50154 32722
L49869 32722
" />
<path d="M50011 32722
L50011 32172
L49964 32251
L49916 32303
L49869 32329
" />
<path d="M50345 32225
L50369 32198
L50416 32172
L50535 32172
L50583 32198
L50607 32225
L50630 32277
L50630 32329
L50607 32408
L50321 32722
L50630 32722
" />
<path d="M49678 34722
L49511 34460
" />
<path d="M49392 34722
L49392 34172
L49583 34172
L49630 34198
L49654 34225
L49678 34277
L49678 34355
L49654 34408
L49630 34434
L49583 34460
L49392 34460
" />
<path d="M50154 34722
L49869 34722
" />
<path d="M50011 34722
L50011 34172
L49964 34251
L49916 34303
L49869 34329
" />
<path d="M50321 34172
L50630 34172
L50464 34382
L50535 34382
L50583 34408
L50607 34434
L50630 34486
L50630 34617
L50607 34670
L50583 34696
L50535 34722
L50392 34722
L50345 34696
L50321 34670
" />
</g>
<g style="fill:#000000; fill-opacity:0.0; 
stroke:#000000; stroke-width:35; stroke-opacity:1; 
stroke-linecap:round; stroke-linejoin:round;">
<path d="M57278 22121
L57278 21821
L57350 21821
L57392 21835
L57421 21864
L57435 21892
L57450 21950
L57450 21992
L57435 22050
L57421 22078
L57392 22107
L57350 22121
L57278 22121
" />
<path d="M57735 22121
L57564 22121
" />
<path d="M57650 22121
L57650 21821
L57621 21864
L57592 21892
L57564 21907
" />
<path d="M65278 22121
L65278 21821
L65350 21821
L65392 21835
L65421 21864
L65435 21892
L65450 21950
L65450 21992
L65435 22050
L65421 22078
L65392 22107
L65350 22121
L65278 22121
" />
<path d="M65564 21850
L65578 21835
L65607 21821
L65678 21821
L65707 21835
L65721 21850
L65735 21878
L65735 21907
L65721 21950
L65550 22121
L65735 22121
" />
<path d="M73278 22121
L73278 21821
L73350 21821
L73392 21835
L73421 21864
L73435 21892
L73450 21950
L73450 21992
L73435 22050
L73421 22078
L73392 22107
L73350 22121
L73278 22121
" />
<path d="M73550 21821
L73735 21821
L73635 21935
L73678 21935
L73707 21950
L73721 21964
L73735 21992
L73735 22064
L73721 22092
L73707 22107
L73678 22121
L73592 22121
L73564 22107
L73550 22092
" />
<path d="M81278 22121
L81278 21821
L81350 21821
L81392 21835
L81421 21864
L81435 21892
L81450 21950
L81450 21992
L81435 22050
L81421 22078
L81392 22107
L81350 22121
L81278 22121
" />
<path d="M81707 21921
L81707 22121
" />
<path d="M81635 21807
L81564 22021
L81750 22021
" />
<path d="M81135 34121
L81135 33821
L81207 33821
L81250 33835
L81278 33864
L81292 33892
L81307 33950
L81307 33992
L81292 34050
L81278 34078
L81250 34107
L81207 34121
L81135 34121
" />
<path d="M81592 34121
L81421 34121
" />
<path d="M81507 34121
L81507 33821
L81478 33864
L81450 33892
L81421 33907
" />
<path d="M81878 34121
L81707 34121
" />
<path d="M81792 34121
L81792 33821
L81764 33864
L81735 33892
L81707 33907
" />
<path d="M73135 34121
L73135 33821
L73207 33821
L73250 33835
L73278 33864
L73292 33892
L73307 33950
L73307 33992
L73292 34050
L73278 34078
L73250 34107
L73207 34121
L73135 34121
" />
<path d="M73592 34121
L73421 34121
" />
<path d="M73507 34121
L73507 33821
L73478 33864
L73450 33892
L73421 33907
" />
<path d="M73778 33821
L73807 33821
L73835 33835
L73850 33850
L73864 33878
L73878 33935
L73878 34007
L73864 34064
L73850 34092
L73835 34107
L73807 34121
L73778 34121
L73750 34107
L73735 34092
L73721 34064
L73707 34007
L73707 33935
L73721 33878
L73735 33850
L73750 33835
L73778 33821
" />
<path d="M65278 34121
L65278 33821
L65350 33821
L65392 33835
L65421 33864
L65435 33892
L65450 33950
L65450 33992
L65435 34050
L65421 34078
L65392 34107
L65350 34121
L65278 34121
" />
<path d="M65592 34121
L65650 34121
L65678 34107
L65692 34092
L65721 34050
L65735 33992
L65735 33878
L65721 33850
L65707 33835
L65678 33821
L65621 33821
L65592 33835
L65578 33850
L65564 33878
L65564 33950
L65578 33978
L65592 33992
L65621 34007
L65678 34007
L65707 33992
L65721 33978
L65735 33950
" />
<path d="M57278 34121
L57278 33821
L57350 33821
L57392 33835
L57421 33864
L57435 33892
L57450 33950
L57450 33992
L57435 34050
L57421 34078
L57392 34107
L57350 34121
L57278 34121
" />
<path d="M57621 33950
L57592 33935
L57578 33921
L57564 33892
L57564 33878
L57578 33850
L57592 33835
L57621 33821
L57678 33821
L57707 33835
L57721 33850
L57735 33878
L57735 33892
L57721 33921
L57707 33935
L57678 33950
L57621 33950
L57592 33964
L57578 33978
L57564 34007
L57564 34064
L57578 34092
L57592 34107
L57621 34121
L57678 34121
L57707 34107
L57721 34092
L57735 34064
L57735 34007
L57721 33978
L57707 33964
L57678 33950
" />
</g>
<g style="fill:#000000; fill-opacity:0.0; 
stroke:#000000; stroke-width:80; stroke-opacity:1; 
stroke-linecap:round; stroke-linejoin:round;">
<path d="M41916 22722
L41750 22460
" />
<path d="M41630 22722
L41630 22172
L41821 22172
L41869 22198
L41892 22225
L41916 22277
L41916 22355
L41892 22408
L41869 22434
L41821 22460
L41630 22460
" />
<path d="M42107 22225
L42130 22198
L42178 22172
L42297 22172
L42345 22198
L42369 22225
L42392 22277
L42392 22329
L42369 22408
L42083 22722
L42392 22722
" />
<path d="M49916 22722
L49750 22460
" />
<path d="M49630 22722
L49630 22172
L49821 22172
L49869 22198
L49892 22225
L49916 22277
L49916 22355
L49892 22408
L49869 22434
L49821 22460
L49630 22460
" />
<path d="M50345 22172
L50250 22172
L50202 22198
L50178 22225
L50130 22303
L50107 22408
L50107 22617
L50130 22670
L50154 22696
L50202 22722
L50297 22722
L50345 22696
L50369 22670
L50392 22617
L50392 22486
L50369 22434
L50345 22408
L50297 22382
L50202 22382
L50154 22408
L50130 22434
L50107 22486
" />
<path d="M49916 20722
L49750 20460
" />
<path d="M49630 20722
L49630 20172
L49821 20172
L49869 20198
L49892 20225
L49916 20277
L49916 20355
L49892 20408
L49869 20434
L49821 20460
L49630 20460
" />
<path d="M50369 20172
L50130 20172
L50107 20434
L50130 20408
L50178 20382
L50297 20382
L50345 20408
L50369 20434
L50392 20486
L50392 20617
L50369 20670
L50345 20696
L50297 20722
L50178 20722
L50130 20696
L50107 20670
" />
<path d="M41916 20722
L41750 20460
" />
<path d="M41630 20722
L41630 20172
L41821 20172
L41869 20198
L41892 20225
L41916 20277
L41916 20355
L41892 20408
L41869 20434
L41821 20460
L41630 20460
" />
<path d="M42392 20722
L42107 20722
" />
<path d="M42250 20722
L42250 20172
L42202 20251
L42154 20303
L42107 20329
" />
<path d="M41916 24722
L41750 24460
" />
<path d="M41630 24722
L41630 24172
L41821 24172
L41869 24198
L41892 24225
L41916 24277
L41916 24355
L41892 24408
L41869 24434
L41821 24460
L41630 24460
" />
<path d="M42083 24172
L42392 24172
L42226 24382
L42297 24382
L42345 24408
L42369 24434
L42392 24486
L42392 24617
L42369 24670
L42345 24696
L42297 24722
L42154 24722
L42107 24696
L42083 24670
" />
<path d="M49916 24722
L49750 24460
" />
<path d="M49630 24722
L49630 24172
L49821 24172
L49869 24198
L49892 24225
L49916 24277
L49916 24355
L49892 24408
L49869 24434
L49821 24460
L49630 24460
" />
<path d="M50083 24172
L50416 24172
L50202 24722
" />
</g>
<g style="fill:#000000; fill-opacity:0.0; 
stroke:#000000; stroke-width:35; stroke-opacity:1; 
stroke-linecap:round; stroke-linejoin:round;">
<path d="M27778 38121
L27778 37821
L27850 37821
L27892 37835
L27921 37864
L27935 37892
L27950 37950
L27950 37992
L27935 38050
L27921 38078
L27892 38107
L27850 38121
L27778 38121
" />
<path d="M28207 37821
L28150 37821
L28121 37835
L28107 37850
L28078 37892
L28064 37950
L28064 38064
L28078 38092
L28092 38107
L28121 38121
L28178 38121
L28207 38107
L28221 38092
L28235 38064
L28235 37992
L28221 37964
L28207 37950
L28178 37935
L28121 37935
L28092 37950
L28078 37964
L28064 37992
" />
<path d="M27778 46121
L27778 45821
L27850 45821
L27892 45835
L27921 45864
L27935 45892
L27950 45950
L27950 45992
L27935 46050
L27921 46078
L27892 46107
L27850 46121
L27778 46121
" />
<path d="M28050 45821
L28250 45821
L28121 46121
" />
<path d="M57135 46121
L57135 45821
L57207 45821
L57250 45835
L57278 45864
L57292 45892
L57307 45950
L57307 45992
L57292 46050
L57278 46078
L57250 46107
L57207 46121
L57135 46121
" />
<path d="M57592 46121
L57421 46121
" />
<path d="M57507 46121
L57507 45821
L57478 45864
L57450 45892
L57421 45907
" />
<path d="M57707 45850
L57721 45835
L57750 45821
L57821 45821
L57850 45835
L57864 45850
L57878 45878
L57878 45907
L57864 45950
L57692 46121
L57878 46121
" />
</g>
<g style="fill:#000000; fill-opacity:0.0; 
stroke:#000000; stroke-width:80; stroke-opacity:1; 
stroke-linecap:round; stroke-linejoin:round;">
<path d="M49916 26722
L49750 26460
" />
<path d="M49630 26722
L49630 26172
L49821 26172
L49869 26198
L49892 26225
L49916 26277
L49916 26355
L49892 26408
L49869 26434
L49821 26460
L49630 26460
" />
<path d="M50202 26408
L50154 26382
L50130 26355
L50107 26303
L50107 26277
L50130 26225
L50154 26198
L50202 26172
L50297 26172
L50345 26198
L50369 26225
L50392 26277
L50392 26303
L50369 26355
L50345 26382
L50297 26408
L50202 26408
L50154 26434
L50130 26460
L50107 26513
L50107 26617
L50130 26670
L50154 26696
L50202 26722
L50297 26722
L50345 26696
L50369 26670
L50392 26617
L50392 26513
L50369 26460
L50345 26434
L50297 26408
" />
<path d="M41916 26722
L41750 26460
" />
<path d="M41630 26722
L41630 26172
L41821 26172
L41869 26198
L41892 26225
L41916 26277
L41916 26355
L41892 26408
L41869 26434
L41821 26460
L41630 26460
" />
<path d="M42345 26355
L42345 26722
" />
<path d="M42226 26146
L42107 26539
L42416 26539
" />
</g>
<g style="fill:#000000; fill-opacity:0.0; 
stroke:#000000; stroke-width:35; stroke-opacity:1; 
stroke-linecap:round; stroke-linejoin:round;">
<path d="M65135 46121
L65135 45821
L65207 45821
L65250 45835
L65278 45864
L65292 45892
L65307 45950
L65307 45992
L65292 46050
L65278 46078
L65250 46107
L65207 46121
L65135 46121
" />
<path d="M65592 46121
L65421 46121
" />
<path d="M65507 46121
L65507 45821
L65478 45864
L65450 45892
L65421 45907
" />
<path d="M65692 45821
L65878 45821
L65778 45935
L65821 45935
L65850 45950
L65864 45964
L65878 45992
L65878 46064
L65864 46092
L65850 46107
L65821 46121
L65735 46121
L65707 46107
L65692 46092
" />
<path d="M73135 46121
L73135 45821
L73207 45821
L73250 45835
L73278 45864
L73292 45892
L73307 45950
L73307 45992
L73292 46050
L73278 46078
L73250 46107
L73207 46121
L73135 46121
" />
<path d="M73592 46121
L73421 46121
" />
<path d="M73507 46121
L73507 45821
L73478 45864
L73450 45892
L73421 45907
" />
<path d="M73850 45921
L73850 46121
" />
<path d="M73778 45807
L73707 46021
L73892 46021
" />
<path d="M81135 46121
L81135 45821
L81207 45821
L81250 45835
L81278 45864
L81292 45892
L81307 45950
L81307 45992
L81292 46050
L81278 46078
L81250 46107
L81207 46121
L81135 46121
" />
<path d="M81592 46121
L81421 46121
" />
<path d="M81507 46121
L81507 45821
L81478 45864
L81450 45892
L81421 45907
" />
<path d="M81864 45821
L81721 45821
L81707 45964
L81721 45950
L81750 45935
L81821 45935
L81850 45950
L81864 45964
L81878 45992
L81878 46064
L81864 46092
L81850 46107
L81821 46121
L81750 46121
L81721 46107
L81707 46092
" />
</g>
<g style="fill:#000000; fill-opacity:0.0; 
stroke:#000000; stroke-width:80; stroke-opacity:1; 
stroke-linecap:round; stroke-linejoin:round;">
<path d="M70916 54222
L70750 53960
" />
<path d="M70630 54222
L70630 53672
L70821 53672
L70869 53698
L70892 53725
L70916 53777
L70916 53855
L70892 53908
L70869 53934
L70821 53960
L70630 53960
" />
<path d="M71154 54222
L71250 54222
L71297 54196
L71321 54170
L71369 54091
L71392 53986
L71392 53777
L71369 53725
L71345 53698
L71297 53672
L71202 53672
L71154 53698
L71130 53725
L71107 53777
L71107 53908
L71130 53960
L71154 53986
L71202 54013
L71297 54013
L71345 53986
L71369 53960
L71392 53908
" />
</g> 
</svg>
